%TF.GenerationSoftware,KiCad,Pcbnew,(5.1.5)-3*%
%TF.CreationDate,2020-04-08T11:38:32+01:00*%
%TF.ProjectId,PLL_v1,504c4c5f-7631-42e6-9b69-6361645f7063,rev?*%
%TF.SameCoordinates,Original*%
%TF.FileFunction,Legend,Bot*%
%TF.FilePolarity,Positive*%
%FSLAX46Y46*%
G04 Gerber Fmt 4.6, Leading zero omitted, Abs format (unit mm)*
G04 Created by KiCad (PCBNEW (5.1.5)-3) date 2020-04-08 11:38:32*
%MOMM*%
%LPD*%
G04 APERTURE LIST*
%ADD10C,0.150000*%
%ADD11C,0.152400*%
%ADD12C,0.120000*%
G04 APERTURE END LIST*
D10*
X345000000Y-169500000D02*
X345000000Y-36500000D01*
X55000000Y-169500000D02*
X345000000Y-169500000D01*
X55000000Y-36500000D02*
X55000000Y-169500000D01*
X345000000Y-36500000D02*
X55000000Y-36500000D01*
D11*
X296760796Y-118679244D02*
X296760796Y-120533244D01*
X294796535Y-118679244D02*
X295571057Y-118679244D01*
X293606796Y-120533244D02*
X293606796Y-118679244D01*
D12*
X76350000Y-133600000D02*
X67550000Y-133600000D01*
X76350000Y-138400000D02*
X67550000Y-138400000D01*
X76350000Y-133600000D02*
X76350000Y-138400000D01*
X55650000Y-157700000D02*
X64450000Y-157700000D01*
X55650000Y-152900000D02*
X64450000Y-152900000D01*
X55650000Y-157700000D02*
X55650000Y-152900000D01*
X76350000Y-139300000D02*
X67550000Y-139300000D01*
X76350000Y-144100000D02*
X67550000Y-144100000D01*
X76350000Y-139300000D02*
X76350000Y-144100000D01*
X55650000Y-151800000D02*
X64450000Y-151800000D01*
X55650000Y-147000000D02*
X64450000Y-147000000D01*
X55650000Y-151800000D02*
X55650000Y-147000000D01*
X298100000Y-122900000D02*
X297400000Y-122900000D01*
X297400000Y-124100000D02*
X298100000Y-124100000D01*
X339100000Y-132400000D02*
X338400000Y-132400000D01*
X338400000Y-133600000D02*
X339100000Y-133600000D01*
X336400000Y-123100000D02*
X337100000Y-123100000D01*
X337100000Y-121900000D02*
X336400000Y-121900000D01*
X296850000Y-114400000D02*
X296150000Y-114400000D01*
X296150000Y-115600000D02*
X296850000Y-115600000D01*
X290158796Y-111506244D02*
X298958796Y-111506244D01*
X290158796Y-106706244D02*
X298958796Y-106706244D01*
X290158796Y-111506244D02*
X290158796Y-106706244D01*
X332350000Y-118900000D02*
X341150000Y-118900000D01*
X332350000Y-114100000D02*
X341150000Y-114100000D01*
X332350000Y-118900000D02*
X332350000Y-114100000D01*
X339820000Y-148000000D02*
X339820000Y-149000000D01*
X341180000Y-149000000D02*
X341180000Y-148000000D01*
X341180000Y-159000000D02*
X341180000Y-158000000D01*
X339820000Y-158000000D02*
X339820000Y-159000000D01*
X76720000Y-147900000D02*
X76720000Y-148900000D01*
X78080000Y-148900000D02*
X78080000Y-147900000D01*
X78180000Y-159000000D02*
X78180000Y-158000000D01*
X76820000Y-158000000D02*
X76820000Y-159000000D01*
X337250000Y-123820000D02*
X336250000Y-123820000D01*
X336250000Y-125180000D02*
X337250000Y-125180000D01*
X335440000Y-128800000D02*
X335440000Y-127000000D01*
X338660000Y-127000000D02*
X338660000Y-129450000D01*
X292933796Y-115786244D02*
X293933796Y-115786244D01*
X293933796Y-114426244D02*
X292933796Y-114426244D01*
X293933796Y-112926244D02*
X292933796Y-112926244D01*
X292933796Y-114286244D02*
X293933796Y-114286244D01*
X240100000Y-122900000D02*
X239400000Y-122900000D01*
X239400000Y-124100000D02*
X240100000Y-124100000D01*
X281100000Y-132400000D02*
X280400000Y-132400000D01*
X280400000Y-133600000D02*
X281100000Y-133600000D01*
X278400000Y-123100000D02*
X279100000Y-123100000D01*
X279100000Y-121900000D02*
X278400000Y-121900000D01*
X238850000Y-114400000D02*
X238150000Y-114400000D01*
X238150000Y-115600000D02*
X238850000Y-115600000D01*
X232158796Y-111506244D02*
X240958796Y-111506244D01*
X232158796Y-106706244D02*
X240958796Y-106706244D01*
X232158796Y-111506244D02*
X232158796Y-106706244D01*
X274350000Y-118900000D02*
X283150000Y-118900000D01*
X274350000Y-114100000D02*
X283150000Y-114100000D01*
X274350000Y-118900000D02*
X274350000Y-114100000D01*
X279250000Y-123820000D02*
X278250000Y-123820000D01*
X278250000Y-125180000D02*
X279250000Y-125180000D01*
X234933796Y-115786244D02*
X235933796Y-115786244D01*
X235933796Y-114426244D02*
X234933796Y-114426244D01*
X235933796Y-112926244D02*
X234933796Y-112926244D01*
X234933796Y-114286244D02*
X235933796Y-114286244D01*
D11*
X238760796Y-118679244D02*
X238760796Y-120533244D01*
X236796535Y-118679244D02*
X237571057Y-118679244D01*
X235606796Y-120533244D02*
X235606796Y-118679244D01*
D12*
X277440000Y-128800000D02*
X277440000Y-127000000D01*
X280660000Y-127000000D02*
X280660000Y-129450000D01*
X182100000Y-122900000D02*
X181400000Y-122900000D01*
X181400000Y-124100000D02*
X182100000Y-124100000D01*
X223100000Y-132400000D02*
X222400000Y-132400000D01*
X222400000Y-133600000D02*
X223100000Y-133600000D01*
X220400000Y-123100000D02*
X221100000Y-123100000D01*
X221100000Y-121900000D02*
X220400000Y-121900000D01*
X180850000Y-114400000D02*
X180150000Y-114400000D01*
X180150000Y-115600000D02*
X180850000Y-115600000D01*
X174158796Y-111506244D02*
X182958796Y-111506244D01*
X174158796Y-106706244D02*
X182958796Y-106706244D01*
X174158796Y-111506244D02*
X174158796Y-106706244D01*
X216350000Y-118900000D02*
X225150000Y-118900000D01*
X216350000Y-114100000D02*
X225150000Y-114100000D01*
X216350000Y-118900000D02*
X216350000Y-114100000D01*
X124100000Y-122900000D02*
X123400000Y-122900000D01*
X123400000Y-124100000D02*
X124100000Y-124100000D01*
X165100000Y-132400000D02*
X164400000Y-132400000D01*
X164400000Y-133600000D02*
X165100000Y-133600000D01*
X162400000Y-123100000D02*
X163100000Y-123100000D01*
X163100000Y-121900000D02*
X162400000Y-121900000D01*
X122850000Y-114400000D02*
X122150000Y-114400000D01*
X122150000Y-115600000D02*
X122850000Y-115600000D01*
X116158796Y-111506244D02*
X124958796Y-111506244D01*
X116158796Y-106706244D02*
X124958796Y-106706244D01*
X116158796Y-111506244D02*
X116158796Y-106706244D01*
X158350000Y-118900000D02*
X167150000Y-118900000D01*
X158350000Y-114100000D02*
X167150000Y-114100000D01*
X158350000Y-118900000D02*
X158350000Y-114100000D01*
X66100000Y-122900000D02*
X65400000Y-122900000D01*
X65400000Y-124100000D02*
X66100000Y-124100000D01*
X107100000Y-132400000D02*
X106400000Y-132400000D01*
X106400000Y-133600000D02*
X107100000Y-133600000D01*
X104400000Y-123100000D02*
X105100000Y-123100000D01*
X105100000Y-121900000D02*
X104400000Y-121900000D01*
X64850000Y-114400000D02*
X64150000Y-114400000D01*
X64150000Y-115600000D02*
X64850000Y-115600000D01*
X58158796Y-111506244D02*
X66958796Y-111506244D01*
X58158796Y-106706244D02*
X66958796Y-106706244D01*
X58158796Y-111506244D02*
X58158796Y-106706244D01*
X100350000Y-118900000D02*
X109150000Y-118900000D01*
X100350000Y-114100000D02*
X109150000Y-114100000D01*
X100350000Y-118900000D02*
X100350000Y-114100000D01*
X221250000Y-123820000D02*
X220250000Y-123820000D01*
X220250000Y-125180000D02*
X221250000Y-125180000D01*
X176933796Y-115786244D02*
X177933796Y-115786244D01*
X177933796Y-114426244D02*
X176933796Y-114426244D01*
X177933796Y-112926244D02*
X176933796Y-112926244D01*
X176933796Y-114286244D02*
X177933796Y-114286244D01*
X163250000Y-123820000D02*
X162250000Y-123820000D01*
X162250000Y-125180000D02*
X163250000Y-125180000D01*
X118933796Y-115786244D02*
X119933796Y-115786244D01*
X119933796Y-114426244D02*
X118933796Y-114426244D01*
X119933796Y-112926244D02*
X118933796Y-112926244D01*
X118933796Y-114286244D02*
X119933796Y-114286244D01*
X105250000Y-123820000D02*
X104250000Y-123820000D01*
X104250000Y-125180000D02*
X105250000Y-125180000D01*
X60933796Y-115786244D02*
X61933796Y-115786244D01*
X61933796Y-114426244D02*
X60933796Y-114426244D01*
X61933796Y-112926244D02*
X60933796Y-112926244D01*
X60933796Y-114286244D02*
X61933796Y-114286244D01*
D11*
X180760796Y-118679244D02*
X180760796Y-120533244D01*
X178796535Y-118679244D02*
X179571057Y-118679244D01*
X177606796Y-120533244D02*
X177606796Y-118679244D01*
D12*
X219440000Y-128800000D02*
X219440000Y-127000000D01*
X222660000Y-127000000D02*
X222660000Y-129450000D01*
D11*
X122760796Y-118679244D02*
X122760796Y-120533244D01*
X120796535Y-118679244D02*
X121571057Y-118679244D01*
X119606796Y-120533244D02*
X119606796Y-118679244D01*
D12*
X161440000Y-128800000D02*
X161440000Y-127000000D01*
X164660000Y-127000000D02*
X164660000Y-129450000D01*
D11*
X64760796Y-118679244D02*
X64760796Y-120533244D01*
X62796535Y-118679244D02*
X63571057Y-118679244D01*
X61606796Y-120533244D02*
X61606796Y-118679244D01*
D12*
X103440000Y-128800000D02*
X103440000Y-127000000D01*
X106660000Y-127000000D02*
X106660000Y-129450000D01*
D10*
X298252380Y-118838095D02*
X299061904Y-118838095D01*
X299157142Y-118885714D01*
X299204761Y-118933333D01*
X299252380Y-119028571D01*
X299252380Y-119219047D01*
X299204761Y-119314285D01*
X299157142Y-119361904D01*
X299061904Y-119409523D01*
X298252380Y-119409523D01*
X298252380Y-119790476D02*
X298252380Y-120409523D01*
X298633333Y-120076190D01*
X298633333Y-120219047D01*
X298680952Y-120314285D01*
X298728571Y-120361904D01*
X298823809Y-120409523D01*
X299061904Y-120409523D01*
X299157142Y-120361904D01*
X299204761Y-120314285D01*
X299252380Y-120219047D01*
X299252380Y-119933333D01*
X299204761Y-119838095D01*
X299157142Y-119790476D01*
X297189176Y-121135244D02*
X297427272Y-121135244D01*
X297332034Y-120897148D02*
X297427272Y-121135244D01*
X297332034Y-121373339D01*
X297617748Y-120992386D02*
X297427272Y-121135244D01*
X297617748Y-121278101D01*
X297189176Y-121135244D02*
X297427272Y-121135244D01*
X297332034Y-120897148D02*
X297427272Y-121135244D01*
X297332034Y-121373339D01*
X297617748Y-120992386D02*
X297427272Y-121135244D01*
X297617748Y-121278101D01*
X64566666Y-136557142D02*
X64614285Y-136604761D01*
X64757142Y-136652380D01*
X64852380Y-136652380D01*
X64995238Y-136604761D01*
X65090476Y-136509523D01*
X65138095Y-136414285D01*
X65185714Y-136223809D01*
X65185714Y-136080952D01*
X65138095Y-135890476D01*
X65090476Y-135795238D01*
X64995238Y-135700000D01*
X64852380Y-135652380D01*
X64757142Y-135652380D01*
X64614285Y-135700000D01*
X64566666Y-135747619D01*
X63614285Y-136652380D02*
X64185714Y-136652380D01*
X63900000Y-136652380D02*
X63900000Y-135652380D01*
X63995238Y-135795238D01*
X64090476Y-135890476D01*
X64185714Y-135938095D01*
X70716666Y-155757142D02*
X70764285Y-155804761D01*
X70907142Y-155852380D01*
X71002380Y-155852380D01*
X71145238Y-155804761D01*
X71240476Y-155709523D01*
X71288095Y-155614285D01*
X71335714Y-155423809D01*
X71335714Y-155280952D01*
X71288095Y-155090476D01*
X71240476Y-154995238D01*
X71145238Y-154900000D01*
X71002380Y-154852380D01*
X70907142Y-154852380D01*
X70764285Y-154900000D01*
X70716666Y-154947619D01*
X70335714Y-154947619D02*
X70288095Y-154900000D01*
X70192857Y-154852380D01*
X69954761Y-154852380D01*
X69859523Y-154900000D01*
X69811904Y-154947619D01*
X69764285Y-155042857D01*
X69764285Y-155138095D01*
X69811904Y-155280952D01*
X70383333Y-155852380D01*
X69764285Y-155852380D01*
X64366666Y-142357142D02*
X64414285Y-142404761D01*
X64557142Y-142452380D01*
X64652380Y-142452380D01*
X64795238Y-142404761D01*
X64890476Y-142309523D01*
X64938095Y-142214285D01*
X64985714Y-142023809D01*
X64985714Y-141880952D01*
X64938095Y-141690476D01*
X64890476Y-141595238D01*
X64795238Y-141500000D01*
X64652380Y-141452380D01*
X64557142Y-141452380D01*
X64414285Y-141500000D01*
X64366666Y-141547619D01*
X64033333Y-141452380D02*
X63414285Y-141452380D01*
X63747619Y-141833333D01*
X63604761Y-141833333D01*
X63509523Y-141880952D01*
X63461904Y-141928571D01*
X63414285Y-142023809D01*
X63414285Y-142261904D01*
X63461904Y-142357142D01*
X63509523Y-142404761D01*
X63604761Y-142452380D01*
X63890476Y-142452380D01*
X63985714Y-142404761D01*
X64033333Y-142357142D01*
X70616666Y-149557142D02*
X70664285Y-149604761D01*
X70807142Y-149652380D01*
X70902380Y-149652380D01*
X71045238Y-149604761D01*
X71140476Y-149509523D01*
X71188095Y-149414285D01*
X71235714Y-149223809D01*
X71235714Y-149080952D01*
X71188095Y-148890476D01*
X71140476Y-148795238D01*
X71045238Y-148700000D01*
X70902380Y-148652380D01*
X70807142Y-148652380D01*
X70664285Y-148700000D01*
X70616666Y-148747619D01*
X69759523Y-148985714D02*
X69759523Y-149652380D01*
X69997619Y-148604761D02*
X70235714Y-149319047D01*
X69616666Y-149319047D01*
X301516666Y-123957142D02*
X301564285Y-124004761D01*
X301707142Y-124052380D01*
X301802380Y-124052380D01*
X301945238Y-124004761D01*
X302040476Y-123909523D01*
X302088095Y-123814285D01*
X302135714Y-123623809D01*
X302135714Y-123480952D01*
X302088095Y-123290476D01*
X302040476Y-123195238D01*
X301945238Y-123100000D01*
X301802380Y-123052380D01*
X301707142Y-123052380D01*
X301564285Y-123100000D01*
X301516666Y-123147619D01*
X300659523Y-123052380D02*
X300850000Y-123052380D01*
X300945238Y-123100000D01*
X300992857Y-123147619D01*
X301088095Y-123290476D01*
X301135714Y-123480952D01*
X301135714Y-123861904D01*
X301088095Y-123957142D01*
X301040476Y-124004761D01*
X300945238Y-124052380D01*
X300754761Y-124052380D01*
X300659523Y-124004761D01*
X300611904Y-123957142D01*
X300564285Y-123861904D01*
X300564285Y-123623809D01*
X300611904Y-123528571D01*
X300659523Y-123480952D01*
X300754761Y-123433333D01*
X300945238Y-123433333D01*
X301040476Y-123480952D01*
X301088095Y-123528571D01*
X301135714Y-123623809D01*
X338916666Y-134857142D02*
X338964285Y-134904761D01*
X339107142Y-134952380D01*
X339202380Y-134952380D01*
X339345238Y-134904761D01*
X339440476Y-134809523D01*
X339488095Y-134714285D01*
X339535714Y-134523809D01*
X339535714Y-134380952D01*
X339488095Y-134190476D01*
X339440476Y-134095238D01*
X339345238Y-134000000D01*
X339202380Y-133952380D01*
X339107142Y-133952380D01*
X338964285Y-134000000D01*
X338916666Y-134047619D01*
X338583333Y-133952380D02*
X337916666Y-133952380D01*
X338345238Y-134952380D01*
X337392857Y-121357142D02*
X337440476Y-121404761D01*
X337583333Y-121452380D01*
X337678571Y-121452380D01*
X337821428Y-121404761D01*
X337916666Y-121309523D01*
X337964285Y-121214285D01*
X338011904Y-121023809D01*
X338011904Y-120880952D01*
X337964285Y-120690476D01*
X337916666Y-120595238D01*
X337821428Y-120500000D01*
X337678571Y-120452380D01*
X337583333Y-120452380D01*
X337440476Y-120500000D01*
X337392857Y-120547619D01*
X336440476Y-121452380D02*
X337011904Y-121452380D01*
X336726190Y-121452380D02*
X336726190Y-120452380D01*
X336821428Y-120595238D01*
X336916666Y-120690476D01*
X337011904Y-120738095D01*
X335821428Y-120452380D02*
X335726190Y-120452380D01*
X335630952Y-120500000D01*
X335583333Y-120547619D01*
X335535714Y-120642857D01*
X335488095Y-120833333D01*
X335488095Y-121071428D01*
X335535714Y-121261904D01*
X335583333Y-121357142D01*
X335630952Y-121404761D01*
X335726190Y-121452380D01*
X335821428Y-121452380D01*
X335916666Y-121404761D01*
X335964285Y-121357142D01*
X336011904Y-121261904D01*
X336059523Y-121071428D01*
X336059523Y-120833333D01*
X336011904Y-120642857D01*
X335964285Y-120547619D01*
X335916666Y-120500000D01*
X335821428Y-120452380D01*
X302092857Y-115407142D02*
X302140476Y-115454761D01*
X302283333Y-115502380D01*
X302378571Y-115502380D01*
X302521428Y-115454761D01*
X302616666Y-115359523D01*
X302664285Y-115264285D01*
X302711904Y-115073809D01*
X302711904Y-114930952D01*
X302664285Y-114740476D01*
X302616666Y-114645238D01*
X302521428Y-114550000D01*
X302378571Y-114502380D01*
X302283333Y-114502380D01*
X302140476Y-114550000D01*
X302092857Y-114597619D01*
X301140476Y-115502380D02*
X301711904Y-115502380D01*
X301426190Y-115502380D02*
X301426190Y-114502380D01*
X301521428Y-114645238D01*
X301616666Y-114740476D01*
X301711904Y-114788095D01*
X300807142Y-114502380D02*
X300188095Y-114502380D01*
X300521428Y-114883333D01*
X300378571Y-114883333D01*
X300283333Y-114930952D01*
X300235714Y-114978571D01*
X300188095Y-115073809D01*
X300188095Y-115311904D01*
X300235714Y-115407142D01*
X300283333Y-115454761D01*
X300378571Y-115502380D01*
X300664285Y-115502380D01*
X300759523Y-115454761D01*
X300807142Y-115407142D01*
X295992857Y-106007142D02*
X296040476Y-106054761D01*
X296183333Y-106102380D01*
X296278571Y-106102380D01*
X296421428Y-106054761D01*
X296516666Y-105959523D01*
X296564285Y-105864285D01*
X296611904Y-105673809D01*
X296611904Y-105530952D01*
X296564285Y-105340476D01*
X296516666Y-105245238D01*
X296421428Y-105150000D01*
X296278571Y-105102380D01*
X296183333Y-105102380D01*
X296040476Y-105150000D01*
X295992857Y-105197619D01*
X295040476Y-106102380D02*
X295611904Y-106102380D01*
X295326190Y-106102380D02*
X295326190Y-105102380D01*
X295421428Y-105245238D01*
X295516666Y-105340476D01*
X295611904Y-105388095D01*
X294135714Y-105102380D02*
X294611904Y-105102380D01*
X294659523Y-105578571D01*
X294611904Y-105530952D01*
X294516666Y-105483333D01*
X294278571Y-105483333D01*
X294183333Y-105530952D01*
X294135714Y-105578571D01*
X294088095Y-105673809D01*
X294088095Y-105911904D01*
X294135714Y-106007142D01*
X294183333Y-106054761D01*
X294278571Y-106102380D01*
X294516666Y-106102380D01*
X294611904Y-106054761D01*
X294659523Y-106007142D01*
X338142857Y-120757142D02*
X338190476Y-120804761D01*
X338333333Y-120852380D01*
X338428571Y-120852380D01*
X338571428Y-120804761D01*
X338666666Y-120709523D01*
X338714285Y-120614285D01*
X338761904Y-120423809D01*
X338761904Y-120280952D01*
X338714285Y-120090476D01*
X338666666Y-119995238D01*
X338571428Y-119900000D01*
X338428571Y-119852380D01*
X338333333Y-119852380D01*
X338190476Y-119900000D01*
X338142857Y-119947619D01*
X337190476Y-120852380D02*
X337761904Y-120852380D01*
X337476190Y-120852380D02*
X337476190Y-119852380D01*
X337571428Y-119995238D01*
X337666666Y-120090476D01*
X337761904Y-120138095D01*
X336714285Y-120852380D02*
X336523809Y-120852380D01*
X336428571Y-120804761D01*
X336380952Y-120757142D01*
X336285714Y-120614285D01*
X336238095Y-120423809D01*
X336238095Y-120042857D01*
X336285714Y-119947619D01*
X336333333Y-119900000D01*
X336428571Y-119852380D01*
X336619047Y-119852380D01*
X336714285Y-119900000D01*
X336761904Y-119947619D01*
X336809523Y-120042857D01*
X336809523Y-120280952D01*
X336761904Y-120376190D01*
X336714285Y-120423809D01*
X336619047Y-120471428D01*
X336428571Y-120471428D01*
X336333333Y-120423809D01*
X336285714Y-120376190D01*
X336238095Y-120280952D01*
X342402380Y-148333333D02*
X341926190Y-148000000D01*
X342402380Y-147761904D02*
X341402380Y-147761904D01*
X341402380Y-148142857D01*
X341450000Y-148238095D01*
X341497619Y-148285714D01*
X341592857Y-148333333D01*
X341735714Y-148333333D01*
X341830952Y-148285714D01*
X341878571Y-148238095D01*
X341926190Y-148142857D01*
X341926190Y-147761904D01*
X342402380Y-149285714D02*
X342402380Y-148714285D01*
X342402380Y-149000000D02*
X341402380Y-149000000D01*
X341545238Y-148904761D01*
X341640476Y-148809523D01*
X341688095Y-148714285D01*
X342752380Y-158333333D02*
X342276190Y-158000000D01*
X342752380Y-157761904D02*
X341752380Y-157761904D01*
X341752380Y-158142857D01*
X341800000Y-158238095D01*
X341847619Y-158285714D01*
X341942857Y-158333333D01*
X342085714Y-158333333D01*
X342180952Y-158285714D01*
X342228571Y-158238095D01*
X342276190Y-158142857D01*
X342276190Y-157761904D01*
X341847619Y-158714285D02*
X341800000Y-158761904D01*
X341752380Y-158857142D01*
X341752380Y-159095238D01*
X341800000Y-159190476D01*
X341847619Y-159238095D01*
X341942857Y-159285714D01*
X342038095Y-159285714D01*
X342180952Y-159238095D01*
X342752380Y-158666666D01*
X342752380Y-159285714D01*
X76052380Y-148233333D02*
X75576190Y-147900000D01*
X76052380Y-147661904D02*
X75052380Y-147661904D01*
X75052380Y-148042857D01*
X75100000Y-148138095D01*
X75147619Y-148185714D01*
X75242857Y-148233333D01*
X75385714Y-148233333D01*
X75480952Y-148185714D01*
X75528571Y-148138095D01*
X75576190Y-148042857D01*
X75576190Y-147661904D01*
X75052380Y-148566666D02*
X75052380Y-149185714D01*
X75433333Y-148852380D01*
X75433333Y-148995238D01*
X75480952Y-149090476D01*
X75528571Y-149138095D01*
X75623809Y-149185714D01*
X75861904Y-149185714D01*
X75957142Y-149138095D01*
X76004761Y-149090476D01*
X76052380Y-148995238D01*
X76052380Y-148709523D01*
X76004761Y-148614285D01*
X75957142Y-148566666D01*
X76502380Y-158333333D02*
X76026190Y-158000000D01*
X76502380Y-157761904D02*
X75502380Y-157761904D01*
X75502380Y-158142857D01*
X75550000Y-158238095D01*
X75597619Y-158285714D01*
X75692857Y-158333333D01*
X75835714Y-158333333D01*
X75930952Y-158285714D01*
X75978571Y-158238095D01*
X76026190Y-158142857D01*
X76026190Y-157761904D01*
X75835714Y-159190476D02*
X76502380Y-159190476D01*
X75454761Y-158952380D02*
X76169047Y-158714285D01*
X76169047Y-159333333D01*
X336916666Y-126402380D02*
X337250000Y-125926190D01*
X337488095Y-126402380D02*
X337488095Y-125402380D01*
X337107142Y-125402380D01*
X337011904Y-125450000D01*
X336964285Y-125497619D01*
X336916666Y-125592857D01*
X336916666Y-125735714D01*
X336964285Y-125830952D01*
X337011904Y-125878571D01*
X337107142Y-125926190D01*
X337488095Y-125926190D01*
X336011904Y-125402380D02*
X336488095Y-125402380D01*
X336535714Y-125878571D01*
X336488095Y-125830952D01*
X336392857Y-125783333D01*
X336154761Y-125783333D01*
X336059523Y-125830952D01*
X336011904Y-125878571D01*
X335964285Y-125973809D01*
X335964285Y-126211904D01*
X336011904Y-126307142D01*
X336059523Y-126354761D01*
X336154761Y-126402380D01*
X336392857Y-126402380D01*
X336488095Y-126354761D01*
X336535714Y-126307142D01*
X339402380Y-127138095D02*
X340211904Y-127138095D01*
X340307142Y-127185714D01*
X340354761Y-127233333D01*
X340402380Y-127328571D01*
X340402380Y-127519047D01*
X340354761Y-127614285D01*
X340307142Y-127661904D01*
X340211904Y-127709523D01*
X339402380Y-127709523D01*
X339735714Y-128614285D02*
X340402380Y-128614285D01*
X339354761Y-128376190D02*
X340069047Y-128138095D01*
X340069047Y-128757142D01*
X291342857Y-114102380D02*
X291676190Y-113626190D01*
X291914285Y-114102380D02*
X291914285Y-113102380D01*
X291533333Y-113102380D01*
X291438095Y-113150000D01*
X291390476Y-113197619D01*
X291342857Y-113292857D01*
X291342857Y-113435714D01*
X291390476Y-113530952D01*
X291438095Y-113578571D01*
X291533333Y-113626190D01*
X291914285Y-113626190D01*
X290961904Y-113197619D02*
X290914285Y-113150000D01*
X290819047Y-113102380D01*
X290580952Y-113102380D01*
X290485714Y-113150000D01*
X290438095Y-113197619D01*
X290390476Y-113292857D01*
X290390476Y-113388095D01*
X290438095Y-113530952D01*
X291009523Y-114102380D01*
X290390476Y-114102380D01*
X289485714Y-113102380D02*
X289961904Y-113102380D01*
X290009523Y-113578571D01*
X289961904Y-113530952D01*
X289866666Y-113483333D01*
X289628571Y-113483333D01*
X289533333Y-113530952D01*
X289485714Y-113578571D01*
X289438095Y-113673809D01*
X289438095Y-113911904D01*
X289485714Y-114007142D01*
X289533333Y-114054761D01*
X289628571Y-114102380D01*
X289866666Y-114102380D01*
X289961904Y-114054761D01*
X290009523Y-114007142D01*
X291442857Y-115552380D02*
X291776190Y-115076190D01*
X292014285Y-115552380D02*
X292014285Y-114552380D01*
X291633333Y-114552380D01*
X291538095Y-114600000D01*
X291490476Y-114647619D01*
X291442857Y-114742857D01*
X291442857Y-114885714D01*
X291490476Y-114980952D01*
X291538095Y-115028571D01*
X291633333Y-115076190D01*
X292014285Y-115076190D01*
X291061904Y-114647619D02*
X291014285Y-114600000D01*
X290919047Y-114552380D01*
X290680952Y-114552380D01*
X290585714Y-114600000D01*
X290538095Y-114647619D01*
X290490476Y-114742857D01*
X290490476Y-114838095D01*
X290538095Y-114980952D01*
X291109523Y-115552380D01*
X290490476Y-115552380D01*
X289633333Y-114552380D02*
X289823809Y-114552380D01*
X289919047Y-114600000D01*
X289966666Y-114647619D01*
X290061904Y-114790476D01*
X290109523Y-114980952D01*
X290109523Y-115361904D01*
X290061904Y-115457142D01*
X290014285Y-115504761D01*
X289919047Y-115552380D01*
X289728571Y-115552380D01*
X289633333Y-115504761D01*
X289585714Y-115457142D01*
X289538095Y-115361904D01*
X289538095Y-115123809D01*
X289585714Y-115028571D01*
X289633333Y-114980952D01*
X289728571Y-114933333D01*
X289919047Y-114933333D01*
X290014285Y-114980952D01*
X290061904Y-115028571D01*
X290109523Y-115123809D01*
X244792857Y-123857142D02*
X244840476Y-123904761D01*
X244983333Y-123952380D01*
X245078571Y-123952380D01*
X245221428Y-123904761D01*
X245316666Y-123809523D01*
X245364285Y-123714285D01*
X245411904Y-123523809D01*
X245411904Y-123380952D01*
X245364285Y-123190476D01*
X245316666Y-123095238D01*
X245221428Y-123000000D01*
X245078571Y-122952380D01*
X244983333Y-122952380D01*
X244840476Y-123000000D01*
X244792857Y-123047619D01*
X243935714Y-123285714D02*
X243935714Y-123952380D01*
X244173809Y-122904761D02*
X244411904Y-123619047D01*
X243792857Y-123619047D01*
X242935714Y-122952380D02*
X243411904Y-122952380D01*
X243459523Y-123428571D01*
X243411904Y-123380952D01*
X243316666Y-123333333D01*
X243078571Y-123333333D01*
X242983333Y-123380952D01*
X242935714Y-123428571D01*
X242888095Y-123523809D01*
X242888095Y-123761904D01*
X242935714Y-123857142D01*
X242983333Y-123904761D01*
X243078571Y-123952380D01*
X243316666Y-123952380D01*
X243411904Y-123904761D01*
X243459523Y-123857142D01*
X285942857Y-133307142D02*
X285990476Y-133354761D01*
X286133333Y-133402380D01*
X286228571Y-133402380D01*
X286371428Y-133354761D01*
X286466666Y-133259523D01*
X286514285Y-133164285D01*
X286561904Y-132973809D01*
X286561904Y-132830952D01*
X286514285Y-132640476D01*
X286466666Y-132545238D01*
X286371428Y-132450000D01*
X286228571Y-132402380D01*
X286133333Y-132402380D01*
X285990476Y-132450000D01*
X285942857Y-132497619D01*
X285085714Y-132735714D02*
X285085714Y-133402380D01*
X285323809Y-132354761D02*
X285561904Y-133069047D01*
X284942857Y-133069047D01*
X284133333Y-132402380D02*
X284323809Y-132402380D01*
X284419047Y-132450000D01*
X284466666Y-132497619D01*
X284561904Y-132640476D01*
X284609523Y-132830952D01*
X284609523Y-133211904D01*
X284561904Y-133307142D01*
X284514285Y-133354761D01*
X284419047Y-133402380D01*
X284228571Y-133402380D01*
X284133333Y-133354761D01*
X284085714Y-133307142D01*
X284038095Y-133211904D01*
X284038095Y-132973809D01*
X284085714Y-132878571D01*
X284133333Y-132830952D01*
X284228571Y-132783333D01*
X284419047Y-132783333D01*
X284514285Y-132830952D01*
X284561904Y-132878571D01*
X284609523Y-132973809D01*
X282892857Y-122857142D02*
X282940476Y-122904761D01*
X283083333Y-122952380D01*
X283178571Y-122952380D01*
X283321428Y-122904761D01*
X283416666Y-122809523D01*
X283464285Y-122714285D01*
X283511904Y-122523809D01*
X283511904Y-122380952D01*
X283464285Y-122190476D01*
X283416666Y-122095238D01*
X283321428Y-122000000D01*
X283178571Y-121952380D01*
X283083333Y-121952380D01*
X282940476Y-122000000D01*
X282892857Y-122047619D01*
X282035714Y-122285714D02*
X282035714Y-122952380D01*
X282273809Y-121904761D02*
X282511904Y-122619047D01*
X281892857Y-122619047D01*
X281464285Y-122952380D02*
X281273809Y-122952380D01*
X281178571Y-122904761D01*
X281130952Y-122857142D01*
X281035714Y-122714285D01*
X280988095Y-122523809D01*
X280988095Y-122142857D01*
X281035714Y-122047619D01*
X281083333Y-122000000D01*
X281178571Y-121952380D01*
X281369047Y-121952380D01*
X281464285Y-122000000D01*
X281511904Y-122047619D01*
X281559523Y-122142857D01*
X281559523Y-122380952D01*
X281511904Y-122476190D01*
X281464285Y-122523809D01*
X281369047Y-122571428D01*
X281178571Y-122571428D01*
X281083333Y-122523809D01*
X281035714Y-122476190D01*
X280988095Y-122380952D01*
X244142857Y-115407142D02*
X244190476Y-115454761D01*
X244333333Y-115502380D01*
X244428571Y-115502380D01*
X244571428Y-115454761D01*
X244666666Y-115359523D01*
X244714285Y-115264285D01*
X244761904Y-115073809D01*
X244761904Y-114930952D01*
X244714285Y-114740476D01*
X244666666Y-114645238D01*
X244571428Y-114550000D01*
X244428571Y-114502380D01*
X244333333Y-114502380D01*
X244190476Y-114550000D01*
X244142857Y-114597619D01*
X243238095Y-114502380D02*
X243714285Y-114502380D01*
X243761904Y-114978571D01*
X243714285Y-114930952D01*
X243619047Y-114883333D01*
X243380952Y-114883333D01*
X243285714Y-114930952D01*
X243238095Y-114978571D01*
X243190476Y-115073809D01*
X243190476Y-115311904D01*
X243238095Y-115407142D01*
X243285714Y-115454761D01*
X243380952Y-115502380D01*
X243619047Y-115502380D01*
X243714285Y-115454761D01*
X243761904Y-115407142D01*
X242809523Y-114597619D02*
X242761904Y-114550000D01*
X242666666Y-114502380D01*
X242428571Y-114502380D01*
X242333333Y-114550000D01*
X242285714Y-114597619D01*
X242238095Y-114692857D01*
X242238095Y-114788095D01*
X242285714Y-114930952D01*
X242857142Y-115502380D01*
X242238095Y-115502380D01*
X237892857Y-105957142D02*
X237940476Y-106004761D01*
X238083333Y-106052380D01*
X238178571Y-106052380D01*
X238321428Y-106004761D01*
X238416666Y-105909523D01*
X238464285Y-105814285D01*
X238511904Y-105623809D01*
X238511904Y-105480952D01*
X238464285Y-105290476D01*
X238416666Y-105195238D01*
X238321428Y-105100000D01*
X238178571Y-105052380D01*
X238083333Y-105052380D01*
X237940476Y-105100000D01*
X237892857Y-105147619D01*
X236988095Y-105052380D02*
X237464285Y-105052380D01*
X237511904Y-105528571D01*
X237464285Y-105480952D01*
X237369047Y-105433333D01*
X237130952Y-105433333D01*
X237035714Y-105480952D01*
X236988095Y-105528571D01*
X236940476Y-105623809D01*
X236940476Y-105861904D01*
X236988095Y-105957142D01*
X237035714Y-106004761D01*
X237130952Y-106052380D01*
X237369047Y-106052380D01*
X237464285Y-106004761D01*
X237511904Y-105957142D01*
X236083333Y-105385714D02*
X236083333Y-106052380D01*
X236321428Y-105004761D02*
X236559523Y-105719047D01*
X235940476Y-105719047D01*
X280142857Y-113407142D02*
X280190476Y-113454761D01*
X280333333Y-113502380D01*
X280428571Y-113502380D01*
X280571428Y-113454761D01*
X280666666Y-113359523D01*
X280714285Y-113264285D01*
X280761904Y-113073809D01*
X280761904Y-112930952D01*
X280714285Y-112740476D01*
X280666666Y-112645238D01*
X280571428Y-112550000D01*
X280428571Y-112502380D01*
X280333333Y-112502380D01*
X280190476Y-112550000D01*
X280142857Y-112597619D01*
X279238095Y-112502380D02*
X279714285Y-112502380D01*
X279761904Y-112978571D01*
X279714285Y-112930952D01*
X279619047Y-112883333D01*
X279380952Y-112883333D01*
X279285714Y-112930952D01*
X279238095Y-112978571D01*
X279190476Y-113073809D01*
X279190476Y-113311904D01*
X279238095Y-113407142D01*
X279285714Y-113454761D01*
X279380952Y-113502380D01*
X279619047Y-113502380D01*
X279714285Y-113454761D01*
X279761904Y-113407142D01*
X278619047Y-112930952D02*
X278714285Y-112883333D01*
X278761904Y-112835714D01*
X278809523Y-112740476D01*
X278809523Y-112692857D01*
X278761904Y-112597619D01*
X278714285Y-112550000D01*
X278619047Y-112502380D01*
X278428571Y-112502380D01*
X278333333Y-112550000D01*
X278285714Y-112597619D01*
X278238095Y-112692857D01*
X278238095Y-112740476D01*
X278285714Y-112835714D01*
X278333333Y-112883333D01*
X278428571Y-112930952D01*
X278619047Y-112930952D01*
X278714285Y-112978571D01*
X278761904Y-113026190D01*
X278809523Y-113121428D01*
X278809523Y-113311904D01*
X278761904Y-113407142D01*
X278714285Y-113454761D01*
X278619047Y-113502380D01*
X278428571Y-113502380D01*
X278333333Y-113454761D01*
X278285714Y-113407142D01*
X278238095Y-113311904D01*
X278238095Y-113121428D01*
X278285714Y-113026190D01*
X278333333Y-112978571D01*
X278428571Y-112930952D01*
X282892857Y-125002380D02*
X283226190Y-124526190D01*
X283464285Y-125002380D02*
X283464285Y-124002380D01*
X283083333Y-124002380D01*
X282988095Y-124050000D01*
X282940476Y-124097619D01*
X282892857Y-124192857D01*
X282892857Y-124335714D01*
X282940476Y-124430952D01*
X282988095Y-124478571D01*
X283083333Y-124526190D01*
X283464285Y-124526190D01*
X282511904Y-124097619D02*
X282464285Y-124050000D01*
X282369047Y-124002380D01*
X282130952Y-124002380D01*
X282035714Y-124050000D01*
X281988095Y-124097619D01*
X281940476Y-124192857D01*
X281940476Y-124288095D01*
X281988095Y-124430952D01*
X282559523Y-125002380D01*
X281940476Y-125002380D01*
X281369047Y-124430952D02*
X281464285Y-124383333D01*
X281511904Y-124335714D01*
X281559523Y-124240476D01*
X281559523Y-124192857D01*
X281511904Y-124097619D01*
X281464285Y-124050000D01*
X281369047Y-124002380D01*
X281178571Y-124002380D01*
X281083333Y-124050000D01*
X281035714Y-124097619D01*
X280988095Y-124192857D01*
X280988095Y-124240476D01*
X281035714Y-124335714D01*
X281083333Y-124383333D01*
X281178571Y-124430952D01*
X281369047Y-124430952D01*
X281464285Y-124478571D01*
X281511904Y-124526190D01*
X281559523Y-124621428D01*
X281559523Y-124811904D01*
X281511904Y-124907142D01*
X281464285Y-124954761D01*
X281369047Y-125002380D01*
X281178571Y-125002380D01*
X281083333Y-124954761D01*
X281035714Y-124907142D01*
X280988095Y-124811904D01*
X280988095Y-124621428D01*
X281035714Y-124526190D01*
X281083333Y-124478571D01*
X281178571Y-124430952D01*
X233292857Y-114052380D02*
X233626190Y-113576190D01*
X233864285Y-114052380D02*
X233864285Y-113052380D01*
X233483333Y-113052380D01*
X233388095Y-113100000D01*
X233340476Y-113147619D01*
X233292857Y-113242857D01*
X233292857Y-113385714D01*
X233340476Y-113480952D01*
X233388095Y-113528571D01*
X233483333Y-113576190D01*
X233864285Y-113576190D01*
X232959523Y-113052380D02*
X232340476Y-113052380D01*
X232673809Y-113433333D01*
X232530952Y-113433333D01*
X232435714Y-113480952D01*
X232388095Y-113528571D01*
X232340476Y-113623809D01*
X232340476Y-113861904D01*
X232388095Y-113957142D01*
X232435714Y-114004761D01*
X232530952Y-114052380D01*
X232816666Y-114052380D01*
X232911904Y-114004761D01*
X232959523Y-113957142D01*
X231388095Y-114052380D02*
X231959523Y-114052380D01*
X231673809Y-114052380D02*
X231673809Y-113052380D01*
X231769047Y-113195238D01*
X231864285Y-113290476D01*
X231959523Y-113338095D01*
X233342857Y-115508624D02*
X233676190Y-115032434D01*
X233914285Y-115508624D02*
X233914285Y-114508624D01*
X233533333Y-114508624D01*
X233438095Y-114556244D01*
X233390476Y-114603863D01*
X233342857Y-114699101D01*
X233342857Y-114841958D01*
X233390476Y-114937196D01*
X233438095Y-114984815D01*
X233533333Y-115032434D01*
X233914285Y-115032434D01*
X233009523Y-114508624D02*
X232390476Y-114508624D01*
X232723809Y-114889577D01*
X232580952Y-114889577D01*
X232485714Y-114937196D01*
X232438095Y-114984815D01*
X232390476Y-115080053D01*
X232390476Y-115318148D01*
X232438095Y-115413386D01*
X232485714Y-115461005D01*
X232580952Y-115508624D01*
X232866666Y-115508624D01*
X232961904Y-115461005D01*
X233009523Y-115413386D01*
X232009523Y-114603863D02*
X231961904Y-114556244D01*
X231866666Y-114508624D01*
X231628571Y-114508624D01*
X231533333Y-114556244D01*
X231485714Y-114603863D01*
X231438095Y-114699101D01*
X231438095Y-114794339D01*
X231485714Y-114937196D01*
X232057142Y-115508624D01*
X231438095Y-115508624D01*
X240652380Y-118738095D02*
X241461904Y-118738095D01*
X241557142Y-118785714D01*
X241604761Y-118833333D01*
X241652380Y-118928571D01*
X241652380Y-119119047D01*
X241604761Y-119214285D01*
X241557142Y-119261904D01*
X241461904Y-119309523D01*
X240652380Y-119309523D01*
X240747619Y-119738095D02*
X240700000Y-119785714D01*
X240652380Y-119880952D01*
X240652380Y-120119047D01*
X240700000Y-120214285D01*
X240747619Y-120261904D01*
X240842857Y-120309523D01*
X240938095Y-120309523D01*
X241080952Y-120261904D01*
X241652380Y-119690476D01*
X241652380Y-120309523D01*
X239189176Y-121135244D02*
X239427272Y-121135244D01*
X239332034Y-120897148D02*
X239427272Y-121135244D01*
X239332034Y-121373339D01*
X239617748Y-120992386D02*
X239427272Y-121135244D01*
X239617748Y-121278101D01*
X239189176Y-121135244D02*
X239427272Y-121135244D01*
X239332034Y-120897148D02*
X239427272Y-121135244D01*
X239332034Y-121373339D01*
X239617748Y-120992386D02*
X239427272Y-121135244D01*
X239617748Y-121278101D01*
X281402380Y-127138095D02*
X282211904Y-127138095D01*
X282307142Y-127185714D01*
X282354761Y-127233333D01*
X282402380Y-127328571D01*
X282402380Y-127519047D01*
X282354761Y-127614285D01*
X282307142Y-127661904D01*
X282211904Y-127709523D01*
X281402380Y-127709523D01*
X282402380Y-128233333D02*
X282402380Y-128423809D01*
X282354761Y-128519047D01*
X282307142Y-128566666D01*
X282164285Y-128661904D01*
X281973809Y-128709523D01*
X281592857Y-128709523D01*
X281497619Y-128661904D01*
X281450000Y-128614285D01*
X281402380Y-128519047D01*
X281402380Y-128328571D01*
X281450000Y-128233333D01*
X281497619Y-128185714D01*
X281592857Y-128138095D01*
X281830952Y-128138095D01*
X281926190Y-128185714D01*
X281973809Y-128233333D01*
X282021428Y-128328571D01*
X282021428Y-128519047D01*
X281973809Y-128614285D01*
X281926190Y-128661904D01*
X281830952Y-128709523D01*
X186792857Y-123857142D02*
X186840476Y-123904761D01*
X186983333Y-123952380D01*
X187078571Y-123952380D01*
X187221428Y-123904761D01*
X187316666Y-123809523D01*
X187364285Y-123714285D01*
X187411904Y-123523809D01*
X187411904Y-123380952D01*
X187364285Y-123190476D01*
X187316666Y-123095238D01*
X187221428Y-123000000D01*
X187078571Y-122952380D01*
X186983333Y-122952380D01*
X186840476Y-123000000D01*
X186792857Y-123047619D01*
X186221428Y-123380952D02*
X186316666Y-123333333D01*
X186364285Y-123285714D01*
X186411904Y-123190476D01*
X186411904Y-123142857D01*
X186364285Y-123047619D01*
X186316666Y-123000000D01*
X186221428Y-122952380D01*
X186030952Y-122952380D01*
X185935714Y-123000000D01*
X185888095Y-123047619D01*
X185840476Y-123142857D01*
X185840476Y-123190476D01*
X185888095Y-123285714D01*
X185935714Y-123333333D01*
X186030952Y-123380952D01*
X186221428Y-123380952D01*
X186316666Y-123428571D01*
X186364285Y-123476190D01*
X186411904Y-123571428D01*
X186411904Y-123761904D01*
X186364285Y-123857142D01*
X186316666Y-123904761D01*
X186221428Y-123952380D01*
X186030952Y-123952380D01*
X185935714Y-123904761D01*
X185888095Y-123857142D01*
X185840476Y-123761904D01*
X185840476Y-123571428D01*
X185888095Y-123476190D01*
X185935714Y-123428571D01*
X186030952Y-123380952D01*
X184983333Y-123285714D02*
X184983333Y-123952380D01*
X185221428Y-122904761D02*
X185459523Y-123619047D01*
X184840476Y-123619047D01*
X227942857Y-133307142D02*
X227990476Y-133354761D01*
X228133333Y-133402380D01*
X228228571Y-133402380D01*
X228371428Y-133354761D01*
X228466666Y-133259523D01*
X228514285Y-133164285D01*
X228561904Y-132973809D01*
X228561904Y-132830952D01*
X228514285Y-132640476D01*
X228466666Y-132545238D01*
X228371428Y-132450000D01*
X228228571Y-132402380D01*
X228133333Y-132402380D01*
X227990476Y-132450000D01*
X227942857Y-132497619D01*
X227371428Y-132830952D02*
X227466666Y-132783333D01*
X227514285Y-132735714D01*
X227561904Y-132640476D01*
X227561904Y-132592857D01*
X227514285Y-132497619D01*
X227466666Y-132450000D01*
X227371428Y-132402380D01*
X227180952Y-132402380D01*
X227085714Y-132450000D01*
X227038095Y-132497619D01*
X226990476Y-132592857D01*
X226990476Y-132640476D01*
X227038095Y-132735714D01*
X227085714Y-132783333D01*
X227180952Y-132830952D01*
X227371428Y-132830952D01*
X227466666Y-132878571D01*
X227514285Y-132926190D01*
X227561904Y-133021428D01*
X227561904Y-133211904D01*
X227514285Y-133307142D01*
X227466666Y-133354761D01*
X227371428Y-133402380D01*
X227180952Y-133402380D01*
X227085714Y-133354761D01*
X227038095Y-133307142D01*
X226990476Y-133211904D01*
X226990476Y-133021428D01*
X227038095Y-132926190D01*
X227085714Y-132878571D01*
X227180952Y-132830952D01*
X226085714Y-132402380D02*
X226561904Y-132402380D01*
X226609523Y-132878571D01*
X226561904Y-132830952D01*
X226466666Y-132783333D01*
X226228571Y-132783333D01*
X226133333Y-132830952D01*
X226085714Y-132878571D01*
X226038095Y-132973809D01*
X226038095Y-133211904D01*
X226085714Y-133307142D01*
X226133333Y-133354761D01*
X226228571Y-133402380D01*
X226466666Y-133402380D01*
X226561904Y-133354761D01*
X226609523Y-133307142D01*
X224892857Y-122857142D02*
X224940476Y-122904761D01*
X225083333Y-122952380D01*
X225178571Y-122952380D01*
X225321428Y-122904761D01*
X225416666Y-122809523D01*
X225464285Y-122714285D01*
X225511904Y-122523809D01*
X225511904Y-122380952D01*
X225464285Y-122190476D01*
X225416666Y-122095238D01*
X225321428Y-122000000D01*
X225178571Y-121952380D01*
X225083333Y-121952380D01*
X224940476Y-122000000D01*
X224892857Y-122047619D01*
X224321428Y-122380952D02*
X224416666Y-122333333D01*
X224464285Y-122285714D01*
X224511904Y-122190476D01*
X224511904Y-122142857D01*
X224464285Y-122047619D01*
X224416666Y-122000000D01*
X224321428Y-121952380D01*
X224130952Y-121952380D01*
X224035714Y-122000000D01*
X223988095Y-122047619D01*
X223940476Y-122142857D01*
X223940476Y-122190476D01*
X223988095Y-122285714D01*
X224035714Y-122333333D01*
X224130952Y-122380952D01*
X224321428Y-122380952D01*
X224416666Y-122428571D01*
X224464285Y-122476190D01*
X224511904Y-122571428D01*
X224511904Y-122761904D01*
X224464285Y-122857142D01*
X224416666Y-122904761D01*
X224321428Y-122952380D01*
X224130952Y-122952380D01*
X224035714Y-122904761D01*
X223988095Y-122857142D01*
X223940476Y-122761904D01*
X223940476Y-122571428D01*
X223988095Y-122476190D01*
X224035714Y-122428571D01*
X224130952Y-122380952D01*
X223369047Y-122380952D02*
X223464285Y-122333333D01*
X223511904Y-122285714D01*
X223559523Y-122190476D01*
X223559523Y-122142857D01*
X223511904Y-122047619D01*
X223464285Y-122000000D01*
X223369047Y-121952380D01*
X223178571Y-121952380D01*
X223083333Y-122000000D01*
X223035714Y-122047619D01*
X222988095Y-122142857D01*
X222988095Y-122190476D01*
X223035714Y-122285714D01*
X223083333Y-122333333D01*
X223178571Y-122380952D01*
X223369047Y-122380952D01*
X223464285Y-122428571D01*
X223511904Y-122476190D01*
X223559523Y-122571428D01*
X223559523Y-122761904D01*
X223511904Y-122857142D01*
X223464285Y-122904761D01*
X223369047Y-122952380D01*
X223178571Y-122952380D01*
X223083333Y-122904761D01*
X223035714Y-122857142D01*
X222988095Y-122761904D01*
X222988095Y-122571428D01*
X223035714Y-122476190D01*
X223083333Y-122428571D01*
X223178571Y-122380952D01*
X186142857Y-115407142D02*
X186190476Y-115454761D01*
X186333333Y-115502380D01*
X186428571Y-115502380D01*
X186571428Y-115454761D01*
X186666666Y-115359523D01*
X186714285Y-115264285D01*
X186761904Y-115073809D01*
X186761904Y-114930952D01*
X186714285Y-114740476D01*
X186666666Y-114645238D01*
X186571428Y-114550000D01*
X186428571Y-114502380D01*
X186333333Y-114502380D01*
X186190476Y-114550000D01*
X186142857Y-114597619D01*
X185666666Y-115502380D02*
X185476190Y-115502380D01*
X185380952Y-115454761D01*
X185333333Y-115407142D01*
X185238095Y-115264285D01*
X185190476Y-115073809D01*
X185190476Y-114692857D01*
X185238095Y-114597619D01*
X185285714Y-114550000D01*
X185380952Y-114502380D01*
X185571428Y-114502380D01*
X185666666Y-114550000D01*
X185714285Y-114597619D01*
X185761904Y-114692857D01*
X185761904Y-114930952D01*
X185714285Y-115026190D01*
X185666666Y-115073809D01*
X185571428Y-115121428D01*
X185380952Y-115121428D01*
X185285714Y-115073809D01*
X185238095Y-115026190D01*
X185190476Y-114930952D01*
X184238095Y-115502380D02*
X184809523Y-115502380D01*
X184523809Y-115502380D02*
X184523809Y-114502380D01*
X184619047Y-114645238D01*
X184714285Y-114740476D01*
X184809523Y-114788095D01*
X179892857Y-105957142D02*
X179940476Y-106004761D01*
X180083333Y-106052380D01*
X180178571Y-106052380D01*
X180321428Y-106004761D01*
X180416666Y-105909523D01*
X180464285Y-105814285D01*
X180511904Y-105623809D01*
X180511904Y-105480952D01*
X180464285Y-105290476D01*
X180416666Y-105195238D01*
X180321428Y-105100000D01*
X180178571Y-105052380D01*
X180083333Y-105052380D01*
X179940476Y-105100000D01*
X179892857Y-105147619D01*
X179416666Y-106052380D02*
X179226190Y-106052380D01*
X179130952Y-106004761D01*
X179083333Y-105957142D01*
X178988095Y-105814285D01*
X178940476Y-105623809D01*
X178940476Y-105242857D01*
X178988095Y-105147619D01*
X179035714Y-105100000D01*
X179130952Y-105052380D01*
X179321428Y-105052380D01*
X179416666Y-105100000D01*
X179464285Y-105147619D01*
X179511904Y-105242857D01*
X179511904Y-105480952D01*
X179464285Y-105576190D01*
X179416666Y-105623809D01*
X179321428Y-105671428D01*
X179130952Y-105671428D01*
X179035714Y-105623809D01*
X178988095Y-105576190D01*
X178940476Y-105480952D01*
X178607142Y-105052380D02*
X177988095Y-105052380D01*
X178321428Y-105433333D01*
X178178571Y-105433333D01*
X178083333Y-105480952D01*
X178035714Y-105528571D01*
X177988095Y-105623809D01*
X177988095Y-105861904D01*
X178035714Y-105957142D01*
X178083333Y-106004761D01*
X178178571Y-106052380D01*
X178464285Y-106052380D01*
X178559523Y-106004761D01*
X178607142Y-105957142D01*
X222142857Y-113407142D02*
X222190476Y-113454761D01*
X222333333Y-113502380D01*
X222428571Y-113502380D01*
X222571428Y-113454761D01*
X222666666Y-113359523D01*
X222714285Y-113264285D01*
X222761904Y-113073809D01*
X222761904Y-112930952D01*
X222714285Y-112740476D01*
X222666666Y-112645238D01*
X222571428Y-112550000D01*
X222428571Y-112502380D01*
X222333333Y-112502380D01*
X222190476Y-112550000D01*
X222142857Y-112597619D01*
X221666666Y-113502380D02*
X221476190Y-113502380D01*
X221380952Y-113454761D01*
X221333333Y-113407142D01*
X221238095Y-113264285D01*
X221190476Y-113073809D01*
X221190476Y-112692857D01*
X221238095Y-112597619D01*
X221285714Y-112550000D01*
X221380952Y-112502380D01*
X221571428Y-112502380D01*
X221666666Y-112550000D01*
X221714285Y-112597619D01*
X221761904Y-112692857D01*
X221761904Y-112930952D01*
X221714285Y-113026190D01*
X221666666Y-113073809D01*
X221571428Y-113121428D01*
X221380952Y-113121428D01*
X221285714Y-113073809D01*
X221238095Y-113026190D01*
X221190476Y-112930952D01*
X220857142Y-112502380D02*
X220190476Y-112502380D01*
X220619047Y-113502380D01*
X129269047Y-123857142D02*
X129316666Y-123904761D01*
X129459523Y-123952380D01*
X129554761Y-123952380D01*
X129697619Y-123904761D01*
X129792857Y-123809523D01*
X129840476Y-123714285D01*
X129888095Y-123523809D01*
X129888095Y-123380952D01*
X129840476Y-123190476D01*
X129792857Y-123095238D01*
X129697619Y-123000000D01*
X129554761Y-122952380D01*
X129459523Y-122952380D01*
X129316666Y-123000000D01*
X129269047Y-123047619D01*
X128316666Y-123952380D02*
X128888095Y-123952380D01*
X128602380Y-123952380D02*
X128602380Y-122952380D01*
X128697619Y-123095238D01*
X128792857Y-123190476D01*
X128888095Y-123238095D01*
X127935714Y-123047619D02*
X127888095Y-123000000D01*
X127792857Y-122952380D01*
X127554761Y-122952380D01*
X127459523Y-123000000D01*
X127411904Y-123047619D01*
X127364285Y-123142857D01*
X127364285Y-123238095D01*
X127411904Y-123380952D01*
X127983333Y-123952380D01*
X127364285Y-123952380D01*
X127030952Y-122952380D02*
X126411904Y-122952380D01*
X126745238Y-123333333D01*
X126602380Y-123333333D01*
X126507142Y-123380952D01*
X126459523Y-123428571D01*
X126411904Y-123523809D01*
X126411904Y-123761904D01*
X126459523Y-123857142D01*
X126507142Y-123904761D01*
X126602380Y-123952380D01*
X126888095Y-123952380D01*
X126983333Y-123904761D01*
X127030952Y-123857142D01*
X170419047Y-133307142D02*
X170466666Y-133354761D01*
X170609523Y-133402380D01*
X170704761Y-133402380D01*
X170847619Y-133354761D01*
X170942857Y-133259523D01*
X170990476Y-133164285D01*
X171038095Y-132973809D01*
X171038095Y-132830952D01*
X170990476Y-132640476D01*
X170942857Y-132545238D01*
X170847619Y-132450000D01*
X170704761Y-132402380D01*
X170609523Y-132402380D01*
X170466666Y-132450000D01*
X170419047Y-132497619D01*
X169466666Y-133402380D02*
X170038095Y-133402380D01*
X169752380Y-133402380D02*
X169752380Y-132402380D01*
X169847619Y-132545238D01*
X169942857Y-132640476D01*
X170038095Y-132688095D01*
X169085714Y-132497619D02*
X169038095Y-132450000D01*
X168942857Y-132402380D01*
X168704761Y-132402380D01*
X168609523Y-132450000D01*
X168561904Y-132497619D01*
X168514285Y-132592857D01*
X168514285Y-132688095D01*
X168561904Y-132830952D01*
X169133333Y-133402380D01*
X168514285Y-133402380D01*
X167657142Y-132735714D02*
X167657142Y-133402380D01*
X167895238Y-132354761D02*
X168133333Y-133069047D01*
X167514285Y-133069047D01*
X167369047Y-122857142D02*
X167416666Y-122904761D01*
X167559523Y-122952380D01*
X167654761Y-122952380D01*
X167797619Y-122904761D01*
X167892857Y-122809523D01*
X167940476Y-122714285D01*
X167988095Y-122523809D01*
X167988095Y-122380952D01*
X167940476Y-122190476D01*
X167892857Y-122095238D01*
X167797619Y-122000000D01*
X167654761Y-121952380D01*
X167559523Y-121952380D01*
X167416666Y-122000000D01*
X167369047Y-122047619D01*
X166416666Y-122952380D02*
X166988095Y-122952380D01*
X166702380Y-122952380D02*
X166702380Y-121952380D01*
X166797619Y-122095238D01*
X166892857Y-122190476D01*
X166988095Y-122238095D01*
X166035714Y-122047619D02*
X165988095Y-122000000D01*
X165892857Y-121952380D01*
X165654761Y-121952380D01*
X165559523Y-122000000D01*
X165511904Y-122047619D01*
X165464285Y-122142857D01*
X165464285Y-122238095D01*
X165511904Y-122380952D01*
X166083333Y-122952380D01*
X165464285Y-122952380D01*
X165130952Y-121952380D02*
X164464285Y-121952380D01*
X164892857Y-122952380D01*
X128619047Y-115407142D02*
X128666666Y-115454761D01*
X128809523Y-115502380D01*
X128904761Y-115502380D01*
X129047619Y-115454761D01*
X129142857Y-115359523D01*
X129190476Y-115264285D01*
X129238095Y-115073809D01*
X129238095Y-114930952D01*
X129190476Y-114740476D01*
X129142857Y-114645238D01*
X129047619Y-114550000D01*
X128904761Y-114502380D01*
X128809523Y-114502380D01*
X128666666Y-114550000D01*
X128619047Y-114597619D01*
X127666666Y-115502380D02*
X128238095Y-115502380D01*
X127952380Y-115502380D02*
X127952380Y-114502380D01*
X128047619Y-114645238D01*
X128142857Y-114740476D01*
X128238095Y-114788095D01*
X127333333Y-114502380D02*
X126714285Y-114502380D01*
X127047619Y-114883333D01*
X126904761Y-114883333D01*
X126809523Y-114930952D01*
X126761904Y-114978571D01*
X126714285Y-115073809D01*
X126714285Y-115311904D01*
X126761904Y-115407142D01*
X126809523Y-115454761D01*
X126904761Y-115502380D01*
X127190476Y-115502380D01*
X127285714Y-115454761D01*
X127333333Y-115407142D01*
X126095238Y-114502380D02*
X126000000Y-114502380D01*
X125904761Y-114550000D01*
X125857142Y-114597619D01*
X125809523Y-114692857D01*
X125761904Y-114883333D01*
X125761904Y-115121428D01*
X125809523Y-115311904D01*
X125857142Y-115407142D01*
X125904761Y-115454761D01*
X126000000Y-115502380D01*
X126095238Y-115502380D01*
X126190476Y-115454761D01*
X126238095Y-115407142D01*
X126285714Y-115311904D01*
X126333333Y-115121428D01*
X126333333Y-114883333D01*
X126285714Y-114692857D01*
X126238095Y-114597619D01*
X126190476Y-114550000D01*
X126095238Y-114502380D01*
X122369047Y-105957142D02*
X122416666Y-106004761D01*
X122559523Y-106052380D01*
X122654761Y-106052380D01*
X122797619Y-106004761D01*
X122892857Y-105909523D01*
X122940476Y-105814285D01*
X122988095Y-105623809D01*
X122988095Y-105480952D01*
X122940476Y-105290476D01*
X122892857Y-105195238D01*
X122797619Y-105100000D01*
X122654761Y-105052380D01*
X122559523Y-105052380D01*
X122416666Y-105100000D01*
X122369047Y-105147619D01*
X121416666Y-106052380D02*
X121988095Y-106052380D01*
X121702380Y-106052380D02*
X121702380Y-105052380D01*
X121797619Y-105195238D01*
X121892857Y-105290476D01*
X121988095Y-105338095D01*
X121083333Y-105052380D02*
X120464285Y-105052380D01*
X120797619Y-105433333D01*
X120654761Y-105433333D01*
X120559523Y-105480952D01*
X120511904Y-105528571D01*
X120464285Y-105623809D01*
X120464285Y-105861904D01*
X120511904Y-105957142D01*
X120559523Y-106004761D01*
X120654761Y-106052380D01*
X120940476Y-106052380D01*
X121035714Y-106004761D01*
X121083333Y-105957142D01*
X120083333Y-105147619D02*
X120035714Y-105100000D01*
X119940476Y-105052380D01*
X119702380Y-105052380D01*
X119607142Y-105100000D01*
X119559523Y-105147619D01*
X119511904Y-105242857D01*
X119511904Y-105338095D01*
X119559523Y-105480952D01*
X120130952Y-106052380D01*
X119511904Y-106052380D01*
X164619047Y-113407142D02*
X164666666Y-113454761D01*
X164809523Y-113502380D01*
X164904761Y-113502380D01*
X165047619Y-113454761D01*
X165142857Y-113359523D01*
X165190476Y-113264285D01*
X165238095Y-113073809D01*
X165238095Y-112930952D01*
X165190476Y-112740476D01*
X165142857Y-112645238D01*
X165047619Y-112550000D01*
X164904761Y-112502380D01*
X164809523Y-112502380D01*
X164666666Y-112550000D01*
X164619047Y-112597619D01*
X163666666Y-113502380D02*
X164238095Y-113502380D01*
X163952380Y-113502380D02*
X163952380Y-112502380D01*
X164047619Y-112645238D01*
X164142857Y-112740476D01*
X164238095Y-112788095D01*
X163333333Y-112502380D02*
X162714285Y-112502380D01*
X163047619Y-112883333D01*
X162904761Y-112883333D01*
X162809523Y-112930952D01*
X162761904Y-112978571D01*
X162714285Y-113073809D01*
X162714285Y-113311904D01*
X162761904Y-113407142D01*
X162809523Y-113454761D01*
X162904761Y-113502380D01*
X163190476Y-113502380D01*
X163285714Y-113454761D01*
X163333333Y-113407142D01*
X161857142Y-112502380D02*
X162047619Y-112502380D01*
X162142857Y-112550000D01*
X162190476Y-112597619D01*
X162285714Y-112740476D01*
X162333333Y-112930952D01*
X162333333Y-113311904D01*
X162285714Y-113407142D01*
X162238095Y-113454761D01*
X162142857Y-113502380D01*
X161952380Y-113502380D01*
X161857142Y-113454761D01*
X161809523Y-113407142D01*
X161761904Y-113311904D01*
X161761904Y-113073809D01*
X161809523Y-112978571D01*
X161857142Y-112930952D01*
X161952380Y-112883333D01*
X162142857Y-112883333D01*
X162238095Y-112930952D01*
X162285714Y-112978571D01*
X162333333Y-113073809D01*
X71269047Y-123857142D02*
X71316666Y-123904761D01*
X71459523Y-123952380D01*
X71554761Y-123952380D01*
X71697619Y-123904761D01*
X71792857Y-123809523D01*
X71840476Y-123714285D01*
X71888095Y-123523809D01*
X71888095Y-123380952D01*
X71840476Y-123190476D01*
X71792857Y-123095238D01*
X71697619Y-123000000D01*
X71554761Y-122952380D01*
X71459523Y-122952380D01*
X71316666Y-123000000D01*
X71269047Y-123047619D01*
X70316666Y-123952380D02*
X70888095Y-123952380D01*
X70602380Y-123952380D02*
X70602380Y-122952380D01*
X70697619Y-123095238D01*
X70792857Y-123190476D01*
X70888095Y-123238095D01*
X69459523Y-122952380D02*
X69650000Y-122952380D01*
X69745238Y-123000000D01*
X69792857Y-123047619D01*
X69888095Y-123190476D01*
X69935714Y-123380952D01*
X69935714Y-123761904D01*
X69888095Y-123857142D01*
X69840476Y-123904761D01*
X69745238Y-123952380D01*
X69554761Y-123952380D01*
X69459523Y-123904761D01*
X69411904Y-123857142D01*
X69364285Y-123761904D01*
X69364285Y-123523809D01*
X69411904Y-123428571D01*
X69459523Y-123380952D01*
X69554761Y-123333333D01*
X69745238Y-123333333D01*
X69840476Y-123380952D01*
X69888095Y-123428571D01*
X69935714Y-123523809D01*
X68983333Y-123047619D02*
X68935714Y-123000000D01*
X68840476Y-122952380D01*
X68602380Y-122952380D01*
X68507142Y-123000000D01*
X68459523Y-123047619D01*
X68411904Y-123142857D01*
X68411904Y-123238095D01*
X68459523Y-123380952D01*
X69030952Y-123952380D01*
X68411904Y-123952380D01*
X112419047Y-133307142D02*
X112466666Y-133354761D01*
X112609523Y-133402380D01*
X112704761Y-133402380D01*
X112847619Y-133354761D01*
X112942857Y-133259523D01*
X112990476Y-133164285D01*
X113038095Y-132973809D01*
X113038095Y-132830952D01*
X112990476Y-132640476D01*
X112942857Y-132545238D01*
X112847619Y-132450000D01*
X112704761Y-132402380D01*
X112609523Y-132402380D01*
X112466666Y-132450000D01*
X112419047Y-132497619D01*
X111466666Y-133402380D02*
X112038095Y-133402380D01*
X111752380Y-133402380D02*
X111752380Y-132402380D01*
X111847619Y-132545238D01*
X111942857Y-132640476D01*
X112038095Y-132688095D01*
X110609523Y-132402380D02*
X110800000Y-132402380D01*
X110895238Y-132450000D01*
X110942857Y-132497619D01*
X111038095Y-132640476D01*
X111085714Y-132830952D01*
X111085714Y-133211904D01*
X111038095Y-133307142D01*
X110990476Y-133354761D01*
X110895238Y-133402380D01*
X110704761Y-133402380D01*
X110609523Y-133354761D01*
X110561904Y-133307142D01*
X110514285Y-133211904D01*
X110514285Y-132973809D01*
X110561904Y-132878571D01*
X110609523Y-132830952D01*
X110704761Y-132783333D01*
X110895238Y-132783333D01*
X110990476Y-132830952D01*
X111038095Y-132878571D01*
X111085714Y-132973809D01*
X110180952Y-132402380D02*
X109561904Y-132402380D01*
X109895238Y-132783333D01*
X109752380Y-132783333D01*
X109657142Y-132830952D01*
X109609523Y-132878571D01*
X109561904Y-132973809D01*
X109561904Y-133211904D01*
X109609523Y-133307142D01*
X109657142Y-133354761D01*
X109752380Y-133402380D01*
X110038095Y-133402380D01*
X110133333Y-133354761D01*
X110180952Y-133307142D01*
X109369047Y-122857142D02*
X109416666Y-122904761D01*
X109559523Y-122952380D01*
X109654761Y-122952380D01*
X109797619Y-122904761D01*
X109892857Y-122809523D01*
X109940476Y-122714285D01*
X109988095Y-122523809D01*
X109988095Y-122380952D01*
X109940476Y-122190476D01*
X109892857Y-122095238D01*
X109797619Y-122000000D01*
X109654761Y-121952380D01*
X109559523Y-121952380D01*
X109416666Y-122000000D01*
X109369047Y-122047619D01*
X108416666Y-122952380D02*
X108988095Y-122952380D01*
X108702380Y-122952380D02*
X108702380Y-121952380D01*
X108797619Y-122095238D01*
X108892857Y-122190476D01*
X108988095Y-122238095D01*
X107559523Y-121952380D02*
X107750000Y-121952380D01*
X107845238Y-122000000D01*
X107892857Y-122047619D01*
X107988095Y-122190476D01*
X108035714Y-122380952D01*
X108035714Y-122761904D01*
X107988095Y-122857142D01*
X107940476Y-122904761D01*
X107845238Y-122952380D01*
X107654761Y-122952380D01*
X107559523Y-122904761D01*
X107511904Y-122857142D01*
X107464285Y-122761904D01*
X107464285Y-122523809D01*
X107511904Y-122428571D01*
X107559523Y-122380952D01*
X107654761Y-122333333D01*
X107845238Y-122333333D01*
X107940476Y-122380952D01*
X107988095Y-122428571D01*
X108035714Y-122523809D01*
X106607142Y-121952380D02*
X106797619Y-121952380D01*
X106892857Y-122000000D01*
X106940476Y-122047619D01*
X107035714Y-122190476D01*
X107083333Y-122380952D01*
X107083333Y-122761904D01*
X107035714Y-122857142D01*
X106988095Y-122904761D01*
X106892857Y-122952380D01*
X106702380Y-122952380D01*
X106607142Y-122904761D01*
X106559523Y-122857142D01*
X106511904Y-122761904D01*
X106511904Y-122523809D01*
X106559523Y-122428571D01*
X106607142Y-122380952D01*
X106702380Y-122333333D01*
X106892857Y-122333333D01*
X106988095Y-122380952D01*
X107035714Y-122428571D01*
X107083333Y-122523809D01*
X70619047Y-115407142D02*
X70666666Y-115454761D01*
X70809523Y-115502380D01*
X70904761Y-115502380D01*
X71047619Y-115454761D01*
X71142857Y-115359523D01*
X71190476Y-115264285D01*
X71238095Y-115073809D01*
X71238095Y-114930952D01*
X71190476Y-114740476D01*
X71142857Y-114645238D01*
X71047619Y-114550000D01*
X70904761Y-114502380D01*
X70809523Y-114502380D01*
X70666666Y-114550000D01*
X70619047Y-114597619D01*
X69666666Y-115502380D02*
X70238095Y-115502380D01*
X69952380Y-115502380D02*
X69952380Y-114502380D01*
X70047619Y-114645238D01*
X70142857Y-114740476D01*
X70238095Y-114788095D01*
X68809523Y-114502380D02*
X69000000Y-114502380D01*
X69095238Y-114550000D01*
X69142857Y-114597619D01*
X69238095Y-114740476D01*
X69285714Y-114930952D01*
X69285714Y-115311904D01*
X69238095Y-115407142D01*
X69190476Y-115454761D01*
X69095238Y-115502380D01*
X68904761Y-115502380D01*
X68809523Y-115454761D01*
X68761904Y-115407142D01*
X68714285Y-115311904D01*
X68714285Y-115073809D01*
X68761904Y-114978571D01*
X68809523Y-114930952D01*
X68904761Y-114883333D01*
X69095238Y-114883333D01*
X69190476Y-114930952D01*
X69238095Y-114978571D01*
X69285714Y-115073809D01*
X68238095Y-115502380D02*
X68047619Y-115502380D01*
X67952380Y-115454761D01*
X67904761Y-115407142D01*
X67809523Y-115264285D01*
X67761904Y-115073809D01*
X67761904Y-114692857D01*
X67809523Y-114597619D01*
X67857142Y-114550000D01*
X67952380Y-114502380D01*
X68142857Y-114502380D01*
X68238095Y-114550000D01*
X68285714Y-114597619D01*
X68333333Y-114692857D01*
X68333333Y-114930952D01*
X68285714Y-115026190D01*
X68238095Y-115073809D01*
X68142857Y-115121428D01*
X67952380Y-115121428D01*
X67857142Y-115073809D01*
X67809523Y-115026190D01*
X67761904Y-114930952D01*
X64369047Y-105957142D02*
X64416666Y-106004761D01*
X64559523Y-106052380D01*
X64654761Y-106052380D01*
X64797619Y-106004761D01*
X64892857Y-105909523D01*
X64940476Y-105814285D01*
X64988095Y-105623809D01*
X64988095Y-105480952D01*
X64940476Y-105290476D01*
X64892857Y-105195238D01*
X64797619Y-105100000D01*
X64654761Y-105052380D01*
X64559523Y-105052380D01*
X64416666Y-105100000D01*
X64369047Y-105147619D01*
X63416666Y-106052380D02*
X63988095Y-106052380D01*
X63702380Y-106052380D02*
X63702380Y-105052380D01*
X63797619Y-105195238D01*
X63892857Y-105290476D01*
X63988095Y-105338095D01*
X63083333Y-105052380D02*
X62416666Y-105052380D01*
X62845238Y-106052380D01*
X61511904Y-106052380D02*
X62083333Y-106052380D01*
X61797619Y-106052380D02*
X61797619Y-105052380D01*
X61892857Y-105195238D01*
X61988095Y-105290476D01*
X62083333Y-105338095D01*
X106619047Y-113407142D02*
X106666666Y-113454761D01*
X106809523Y-113502380D01*
X106904761Y-113502380D01*
X107047619Y-113454761D01*
X107142857Y-113359523D01*
X107190476Y-113264285D01*
X107238095Y-113073809D01*
X107238095Y-112930952D01*
X107190476Y-112740476D01*
X107142857Y-112645238D01*
X107047619Y-112550000D01*
X106904761Y-112502380D01*
X106809523Y-112502380D01*
X106666666Y-112550000D01*
X106619047Y-112597619D01*
X105666666Y-113502380D02*
X106238095Y-113502380D01*
X105952380Y-113502380D02*
X105952380Y-112502380D01*
X106047619Y-112645238D01*
X106142857Y-112740476D01*
X106238095Y-112788095D01*
X105333333Y-112502380D02*
X104666666Y-112502380D01*
X105095238Y-113502380D01*
X103809523Y-112502380D02*
X104285714Y-112502380D01*
X104333333Y-112978571D01*
X104285714Y-112930952D01*
X104190476Y-112883333D01*
X103952380Y-112883333D01*
X103857142Y-112930952D01*
X103809523Y-112978571D01*
X103761904Y-113073809D01*
X103761904Y-113311904D01*
X103809523Y-113407142D01*
X103857142Y-113454761D01*
X103952380Y-113502380D01*
X104190476Y-113502380D01*
X104285714Y-113454761D01*
X104333333Y-113407142D01*
X224892857Y-125002380D02*
X225226190Y-124526190D01*
X225464285Y-125002380D02*
X225464285Y-124002380D01*
X225083333Y-124002380D01*
X224988095Y-124050000D01*
X224940476Y-124097619D01*
X224892857Y-124192857D01*
X224892857Y-124335714D01*
X224940476Y-124430952D01*
X224988095Y-124478571D01*
X225083333Y-124526190D01*
X225464285Y-124526190D01*
X223988095Y-124002380D02*
X224464285Y-124002380D01*
X224511904Y-124478571D01*
X224464285Y-124430952D01*
X224369047Y-124383333D01*
X224130952Y-124383333D01*
X224035714Y-124430952D01*
X223988095Y-124478571D01*
X223940476Y-124573809D01*
X223940476Y-124811904D01*
X223988095Y-124907142D01*
X224035714Y-124954761D01*
X224130952Y-125002380D01*
X224369047Y-125002380D01*
X224464285Y-124954761D01*
X224511904Y-124907142D01*
X222988095Y-125002380D02*
X223559523Y-125002380D01*
X223273809Y-125002380D02*
X223273809Y-124002380D01*
X223369047Y-124145238D01*
X223464285Y-124240476D01*
X223559523Y-124288095D01*
X175292857Y-114052380D02*
X175626190Y-113576190D01*
X175864285Y-114052380D02*
X175864285Y-113052380D01*
X175483333Y-113052380D01*
X175388095Y-113100000D01*
X175340476Y-113147619D01*
X175292857Y-113242857D01*
X175292857Y-113385714D01*
X175340476Y-113480952D01*
X175388095Y-113528571D01*
X175483333Y-113576190D01*
X175864285Y-113576190D01*
X174388095Y-113052380D02*
X174864285Y-113052380D01*
X174911904Y-113528571D01*
X174864285Y-113480952D01*
X174769047Y-113433333D01*
X174530952Y-113433333D01*
X174435714Y-113480952D01*
X174388095Y-113528571D01*
X174340476Y-113623809D01*
X174340476Y-113861904D01*
X174388095Y-113957142D01*
X174435714Y-114004761D01*
X174530952Y-114052380D01*
X174769047Y-114052380D01*
X174864285Y-114004761D01*
X174911904Y-113957142D01*
X173483333Y-113385714D02*
X173483333Y-114052380D01*
X173721428Y-113004761D02*
X173959523Y-113719047D01*
X173340476Y-113719047D01*
X175342857Y-115508624D02*
X175676190Y-115032434D01*
X175914285Y-115508624D02*
X175914285Y-114508624D01*
X175533333Y-114508624D01*
X175438095Y-114556244D01*
X175390476Y-114603863D01*
X175342857Y-114699101D01*
X175342857Y-114841958D01*
X175390476Y-114937196D01*
X175438095Y-114984815D01*
X175533333Y-115032434D01*
X175914285Y-115032434D01*
X174438095Y-114508624D02*
X174914285Y-114508624D01*
X174961904Y-114984815D01*
X174914285Y-114937196D01*
X174819047Y-114889577D01*
X174580952Y-114889577D01*
X174485714Y-114937196D01*
X174438095Y-114984815D01*
X174390476Y-115080053D01*
X174390476Y-115318148D01*
X174438095Y-115413386D01*
X174485714Y-115461005D01*
X174580952Y-115508624D01*
X174819047Y-115508624D01*
X174914285Y-115461005D01*
X174961904Y-115413386D01*
X173485714Y-114508624D02*
X173961904Y-114508624D01*
X174009523Y-114984815D01*
X173961904Y-114937196D01*
X173866666Y-114889577D01*
X173628571Y-114889577D01*
X173533333Y-114937196D01*
X173485714Y-114984815D01*
X173438095Y-115080053D01*
X173438095Y-115318148D01*
X173485714Y-115413386D01*
X173533333Y-115461005D01*
X173628571Y-115508624D01*
X173866666Y-115508624D01*
X173961904Y-115461005D01*
X174009523Y-115413386D01*
X166892857Y-125002380D02*
X167226190Y-124526190D01*
X167464285Y-125002380D02*
X167464285Y-124002380D01*
X167083333Y-124002380D01*
X166988095Y-124050000D01*
X166940476Y-124097619D01*
X166892857Y-124192857D01*
X166892857Y-124335714D01*
X166940476Y-124430952D01*
X166988095Y-124478571D01*
X167083333Y-124526190D01*
X167464285Y-124526190D01*
X166559523Y-124002380D02*
X165892857Y-124002380D01*
X166321428Y-125002380D01*
X165083333Y-124335714D02*
X165083333Y-125002380D01*
X165321428Y-123954761D02*
X165559523Y-124669047D01*
X164940476Y-124669047D01*
X117292857Y-114052380D02*
X117626190Y-113576190D01*
X117864285Y-114052380D02*
X117864285Y-113052380D01*
X117483333Y-113052380D01*
X117388095Y-113100000D01*
X117340476Y-113147619D01*
X117292857Y-113242857D01*
X117292857Y-113385714D01*
X117340476Y-113480952D01*
X117388095Y-113528571D01*
X117483333Y-113576190D01*
X117864285Y-113576190D01*
X116959523Y-113052380D02*
X116292857Y-113052380D01*
X116721428Y-114052380D01*
X116007142Y-113052380D02*
X115340476Y-113052380D01*
X115769047Y-114052380D01*
X117342857Y-115508624D02*
X117676190Y-115032434D01*
X117914285Y-115508624D02*
X117914285Y-114508624D01*
X117533333Y-114508624D01*
X117438095Y-114556244D01*
X117390476Y-114603863D01*
X117342857Y-114699101D01*
X117342857Y-114841958D01*
X117390476Y-114937196D01*
X117438095Y-114984815D01*
X117533333Y-115032434D01*
X117914285Y-115032434D01*
X117009523Y-114508624D02*
X116342857Y-114508624D01*
X116771428Y-115508624D01*
X115819047Y-114937196D02*
X115914285Y-114889577D01*
X115961904Y-114841958D01*
X116009523Y-114746720D01*
X116009523Y-114699101D01*
X115961904Y-114603863D01*
X115914285Y-114556244D01*
X115819047Y-114508624D01*
X115628571Y-114508624D01*
X115533333Y-114556244D01*
X115485714Y-114603863D01*
X115438095Y-114699101D01*
X115438095Y-114746720D01*
X115485714Y-114841958D01*
X115533333Y-114889577D01*
X115628571Y-114937196D01*
X115819047Y-114937196D01*
X115914285Y-114984815D01*
X115961904Y-115032434D01*
X116009523Y-115127672D01*
X116009523Y-115318148D01*
X115961904Y-115413386D01*
X115914285Y-115461005D01*
X115819047Y-115508624D01*
X115628571Y-115508624D01*
X115533333Y-115461005D01*
X115485714Y-115413386D01*
X115438095Y-115318148D01*
X115438095Y-115127672D01*
X115485714Y-115032434D01*
X115533333Y-114984815D01*
X115628571Y-114937196D01*
X108892857Y-125002380D02*
X109226190Y-124526190D01*
X109464285Y-125002380D02*
X109464285Y-124002380D01*
X109083333Y-124002380D01*
X108988095Y-124050000D01*
X108940476Y-124097619D01*
X108892857Y-124192857D01*
X108892857Y-124335714D01*
X108940476Y-124430952D01*
X108988095Y-124478571D01*
X109083333Y-124526190D01*
X109464285Y-124526190D01*
X108416666Y-125002380D02*
X108226190Y-125002380D01*
X108130952Y-124954761D01*
X108083333Y-124907142D01*
X107988095Y-124764285D01*
X107940476Y-124573809D01*
X107940476Y-124192857D01*
X107988095Y-124097619D01*
X108035714Y-124050000D01*
X108130952Y-124002380D01*
X108321428Y-124002380D01*
X108416666Y-124050000D01*
X108464285Y-124097619D01*
X108511904Y-124192857D01*
X108511904Y-124430952D01*
X108464285Y-124526190D01*
X108416666Y-124573809D01*
X108321428Y-124621428D01*
X108130952Y-124621428D01*
X108035714Y-124573809D01*
X107988095Y-124526190D01*
X107940476Y-124430952D01*
X107607142Y-124002380D02*
X106940476Y-124002380D01*
X107369047Y-125002380D01*
X59769047Y-114052380D02*
X60102380Y-113576190D01*
X60340476Y-114052380D02*
X60340476Y-113052380D01*
X59959523Y-113052380D01*
X59864285Y-113100000D01*
X59816666Y-113147619D01*
X59769047Y-113242857D01*
X59769047Y-113385714D01*
X59816666Y-113480952D01*
X59864285Y-113528571D01*
X59959523Y-113576190D01*
X60340476Y-113576190D01*
X58816666Y-114052380D02*
X59388095Y-114052380D01*
X59102380Y-114052380D02*
X59102380Y-113052380D01*
X59197619Y-113195238D01*
X59292857Y-113290476D01*
X59388095Y-113338095D01*
X58197619Y-113052380D02*
X58102380Y-113052380D01*
X58007142Y-113100000D01*
X57959523Y-113147619D01*
X57911904Y-113242857D01*
X57864285Y-113433333D01*
X57864285Y-113671428D01*
X57911904Y-113861904D01*
X57959523Y-113957142D01*
X58007142Y-114004761D01*
X58102380Y-114052380D01*
X58197619Y-114052380D01*
X58292857Y-114004761D01*
X58340476Y-113957142D01*
X58388095Y-113861904D01*
X58435714Y-113671428D01*
X58435714Y-113433333D01*
X58388095Y-113242857D01*
X58340476Y-113147619D01*
X58292857Y-113100000D01*
X58197619Y-113052380D01*
X57245238Y-113052380D02*
X57150000Y-113052380D01*
X57054761Y-113100000D01*
X57007142Y-113147619D01*
X56959523Y-113242857D01*
X56911904Y-113433333D01*
X56911904Y-113671428D01*
X56959523Y-113861904D01*
X57007142Y-113957142D01*
X57054761Y-114004761D01*
X57150000Y-114052380D01*
X57245238Y-114052380D01*
X57340476Y-114004761D01*
X57388095Y-113957142D01*
X57435714Y-113861904D01*
X57483333Y-113671428D01*
X57483333Y-113433333D01*
X57435714Y-113242857D01*
X57388095Y-113147619D01*
X57340476Y-113100000D01*
X57245238Y-113052380D01*
X59819047Y-115508624D02*
X60152380Y-115032434D01*
X60390476Y-115508624D02*
X60390476Y-114508624D01*
X60009523Y-114508624D01*
X59914285Y-114556244D01*
X59866666Y-114603863D01*
X59819047Y-114699101D01*
X59819047Y-114841958D01*
X59866666Y-114937196D01*
X59914285Y-114984815D01*
X60009523Y-115032434D01*
X60390476Y-115032434D01*
X58866666Y-115508624D02*
X59438095Y-115508624D01*
X59152380Y-115508624D02*
X59152380Y-114508624D01*
X59247619Y-114651482D01*
X59342857Y-114746720D01*
X59438095Y-114794339D01*
X58247619Y-114508624D02*
X58152380Y-114508624D01*
X58057142Y-114556244D01*
X58009523Y-114603863D01*
X57961904Y-114699101D01*
X57914285Y-114889577D01*
X57914285Y-115127672D01*
X57961904Y-115318148D01*
X58009523Y-115413386D01*
X58057142Y-115461005D01*
X58152380Y-115508624D01*
X58247619Y-115508624D01*
X58342857Y-115461005D01*
X58390476Y-115413386D01*
X58438095Y-115318148D01*
X58485714Y-115127672D01*
X58485714Y-114889577D01*
X58438095Y-114699101D01*
X58390476Y-114603863D01*
X58342857Y-114556244D01*
X58247619Y-114508624D01*
X56961904Y-115508624D02*
X57533333Y-115508624D01*
X57247619Y-115508624D02*
X57247619Y-114508624D01*
X57342857Y-114651482D01*
X57438095Y-114746720D01*
X57533333Y-114794339D01*
X182652380Y-118261904D02*
X183461904Y-118261904D01*
X183557142Y-118309523D01*
X183604761Y-118357142D01*
X183652380Y-118452380D01*
X183652380Y-118642857D01*
X183604761Y-118738095D01*
X183557142Y-118785714D01*
X183461904Y-118833333D01*
X182652380Y-118833333D01*
X183652380Y-119833333D02*
X183652380Y-119261904D01*
X183652380Y-119547619D02*
X182652380Y-119547619D01*
X182795238Y-119452380D01*
X182890476Y-119357142D01*
X182938095Y-119261904D01*
X182985714Y-120690476D02*
X183652380Y-120690476D01*
X182604761Y-120452380D02*
X183319047Y-120214285D01*
X183319047Y-120833333D01*
X181189176Y-121135244D02*
X181427272Y-121135244D01*
X181332034Y-120897148D02*
X181427272Y-121135244D01*
X181332034Y-121373339D01*
X181617748Y-120992386D02*
X181427272Y-121135244D01*
X181617748Y-121278101D01*
X181189176Y-121135244D02*
X181427272Y-121135244D01*
X181332034Y-120897148D02*
X181427272Y-121135244D01*
X181332034Y-121373339D01*
X181617748Y-120992386D02*
X181427272Y-121135244D01*
X181617748Y-121278101D01*
X223402380Y-126661904D02*
X224211904Y-126661904D01*
X224307142Y-126709523D01*
X224354761Y-126757142D01*
X224402380Y-126852380D01*
X224402380Y-127042857D01*
X224354761Y-127138095D01*
X224307142Y-127185714D01*
X224211904Y-127233333D01*
X223402380Y-127233333D01*
X224402380Y-128233333D02*
X224402380Y-127661904D01*
X224402380Y-127947619D02*
X223402380Y-127947619D01*
X223545238Y-127852380D01*
X223640476Y-127757142D01*
X223688095Y-127661904D01*
X223402380Y-129138095D02*
X223402380Y-128661904D01*
X223878571Y-128614285D01*
X223830952Y-128661904D01*
X223783333Y-128757142D01*
X223783333Y-128995238D01*
X223830952Y-129090476D01*
X223878571Y-129138095D01*
X223973809Y-129185714D01*
X224211904Y-129185714D01*
X224307142Y-129138095D01*
X224354761Y-129090476D01*
X224402380Y-128995238D01*
X224402380Y-128757142D01*
X224354761Y-128661904D01*
X224307142Y-128614285D01*
X124652380Y-118261904D02*
X125461904Y-118261904D01*
X125557142Y-118309523D01*
X125604761Y-118357142D01*
X125652380Y-118452380D01*
X125652380Y-118642857D01*
X125604761Y-118738095D01*
X125557142Y-118785714D01*
X125461904Y-118833333D01*
X124652380Y-118833333D01*
X124747619Y-119261904D02*
X124700000Y-119309523D01*
X124652380Y-119404761D01*
X124652380Y-119642857D01*
X124700000Y-119738095D01*
X124747619Y-119785714D01*
X124842857Y-119833333D01*
X124938095Y-119833333D01*
X125080952Y-119785714D01*
X125652380Y-119214285D01*
X125652380Y-119833333D01*
X124652380Y-120452380D02*
X124652380Y-120547619D01*
X124700000Y-120642857D01*
X124747619Y-120690476D01*
X124842857Y-120738095D01*
X125033333Y-120785714D01*
X125271428Y-120785714D01*
X125461904Y-120738095D01*
X125557142Y-120690476D01*
X125604761Y-120642857D01*
X125652380Y-120547619D01*
X125652380Y-120452380D01*
X125604761Y-120357142D01*
X125557142Y-120309523D01*
X125461904Y-120261904D01*
X125271428Y-120214285D01*
X125033333Y-120214285D01*
X124842857Y-120261904D01*
X124747619Y-120309523D01*
X124700000Y-120357142D01*
X124652380Y-120452380D01*
X123189176Y-121135244D02*
X123427272Y-121135244D01*
X123332034Y-120897148D02*
X123427272Y-121135244D01*
X123332034Y-121373339D01*
X123617748Y-120992386D02*
X123427272Y-121135244D01*
X123617748Y-121278101D01*
X123189176Y-121135244D02*
X123427272Y-121135244D01*
X123332034Y-120897148D02*
X123427272Y-121135244D01*
X123332034Y-121373339D01*
X123617748Y-120992386D02*
X123427272Y-121135244D01*
X123617748Y-121278101D01*
X165402380Y-126661904D02*
X166211904Y-126661904D01*
X166307142Y-126709523D01*
X166354761Y-126757142D01*
X166402380Y-126852380D01*
X166402380Y-127042857D01*
X166354761Y-127138095D01*
X166307142Y-127185714D01*
X166211904Y-127233333D01*
X165402380Y-127233333D01*
X165497619Y-127661904D02*
X165450000Y-127709523D01*
X165402380Y-127804761D01*
X165402380Y-128042857D01*
X165450000Y-128138095D01*
X165497619Y-128185714D01*
X165592857Y-128233333D01*
X165688095Y-128233333D01*
X165830952Y-128185714D01*
X166402380Y-127614285D01*
X166402380Y-128233333D01*
X166402380Y-129185714D02*
X166402380Y-128614285D01*
X166402380Y-128900000D02*
X165402380Y-128900000D01*
X165545238Y-128804761D01*
X165640476Y-128709523D01*
X165688095Y-128614285D01*
X66652380Y-118261904D02*
X67461904Y-118261904D01*
X67557142Y-118309523D01*
X67604761Y-118357142D01*
X67652380Y-118452380D01*
X67652380Y-118642857D01*
X67604761Y-118738095D01*
X67557142Y-118785714D01*
X67461904Y-118833333D01*
X66652380Y-118833333D01*
X66747619Y-119261904D02*
X66700000Y-119309523D01*
X66652380Y-119404761D01*
X66652380Y-119642857D01*
X66700000Y-119738095D01*
X66747619Y-119785714D01*
X66842857Y-119833333D01*
X66938095Y-119833333D01*
X67080952Y-119785714D01*
X67652380Y-119214285D01*
X67652380Y-119833333D01*
X66652380Y-120690476D02*
X66652380Y-120500000D01*
X66700000Y-120404761D01*
X66747619Y-120357142D01*
X66890476Y-120261904D01*
X67080952Y-120214285D01*
X67461904Y-120214285D01*
X67557142Y-120261904D01*
X67604761Y-120309523D01*
X67652380Y-120404761D01*
X67652380Y-120595238D01*
X67604761Y-120690476D01*
X67557142Y-120738095D01*
X67461904Y-120785714D01*
X67223809Y-120785714D01*
X67128571Y-120738095D01*
X67080952Y-120690476D01*
X67033333Y-120595238D01*
X67033333Y-120404761D01*
X67080952Y-120309523D01*
X67128571Y-120261904D01*
X67223809Y-120214285D01*
X64223976Y-120152244D02*
X64462072Y-120152244D01*
X64366834Y-119914148D02*
X64462072Y-120152244D01*
X64366834Y-120390339D01*
X64652548Y-120009386D02*
X64462072Y-120152244D01*
X64652548Y-120295101D01*
X65189176Y-121135244D02*
X65427272Y-121135244D01*
X65332034Y-120897148D02*
X65427272Y-121135244D01*
X65332034Y-121373339D01*
X65617748Y-120992386D02*
X65427272Y-121135244D01*
X65617748Y-121278101D01*
X107402380Y-126661904D02*
X108211904Y-126661904D01*
X108307142Y-126709523D01*
X108354761Y-126757142D01*
X108402380Y-126852380D01*
X108402380Y-127042857D01*
X108354761Y-127138095D01*
X108307142Y-127185714D01*
X108211904Y-127233333D01*
X107402380Y-127233333D01*
X107497619Y-127661904D02*
X107450000Y-127709523D01*
X107402380Y-127804761D01*
X107402380Y-128042857D01*
X107450000Y-128138095D01*
X107497619Y-128185714D01*
X107592857Y-128233333D01*
X107688095Y-128233333D01*
X107830952Y-128185714D01*
X108402380Y-127614285D01*
X108402380Y-128233333D01*
X107402380Y-128566666D02*
X107402380Y-129233333D01*
X108402380Y-128804761D01*
M02*
