%TF.GenerationSoftware,KiCad,Pcbnew,(5.1.5)-3*%
%TF.CreationDate,2020-04-08T11:38:32+01:00*%
%TF.ProjectId,PLL_v1,504c4c5f-7631-42e6-9b69-6361645f7063,rev?*%
%TF.SameCoordinates,Original*%
%TF.FileFunction,Soldermask,Bot*%
%TF.FilePolarity,Negative*%
%FSLAX46Y46*%
G04 Gerber Fmt 4.6, Leading zero omitted, Abs format (unit mm)*
G04 Created by KiCad (PCBNEW (5.1.5)-3) date 2020-04-08 11:38:32*
%MOMM*%
%LPD*%
G04 APERTURE LIST*
%ADD10C,0.150000*%
%ADD11C,0.600000*%
G04 APERTURE END LIST*
D10*
X345000000Y-169500000D02*
X345000000Y-36500000D01*
X55000000Y-169500000D02*
X345000000Y-169500000D01*
X55000000Y-36500000D02*
X55000000Y-169500000D01*
X345000000Y-36500000D02*
X55000000Y-36500000D01*
D11*
G36*
X91575256Y-164191298D02*
G01*
X91681579Y-164212447D01*
X91982042Y-164336903D01*
X92252451Y-164517585D01*
X92482415Y-164747549D01*
X92663097Y-165017958D01*
X92764519Y-165262811D01*
X92787553Y-165318422D01*
X92831109Y-165537389D01*
X92851000Y-165637391D01*
X92851000Y-165962609D01*
X92787553Y-166281579D01*
X92663097Y-166582042D01*
X92482415Y-166852451D01*
X92252451Y-167082415D01*
X91982042Y-167263097D01*
X91681579Y-167387553D01*
X91575256Y-167408702D01*
X91362611Y-167451000D01*
X91037389Y-167451000D01*
X90824744Y-167408702D01*
X90718421Y-167387553D01*
X90417958Y-167263097D01*
X90147549Y-167082415D01*
X89917585Y-166852451D01*
X89736903Y-166582042D01*
X89612447Y-166281579D01*
X89549000Y-165962609D01*
X89549000Y-165637391D01*
X89568892Y-165537389D01*
X89612447Y-165318422D01*
X89635482Y-165262811D01*
X89736903Y-165017958D01*
X89917585Y-164747549D01*
X90147549Y-164517585D01*
X90417958Y-164336903D01*
X90718421Y-164212447D01*
X90824744Y-164191298D01*
X91037389Y-164149000D01*
X91362611Y-164149000D01*
X91575256Y-164191298D01*
G37*
G36*
X325375256Y-164091298D02*
G01*
X325481579Y-164112447D01*
X325782042Y-164236903D01*
X326052451Y-164417585D01*
X326282415Y-164647549D01*
X326349233Y-164747549D01*
X326463098Y-164917960D01*
X326587553Y-165218422D01*
X326651000Y-165537389D01*
X326651000Y-165862611D01*
X326608702Y-166075256D01*
X326587553Y-166181579D01*
X326463097Y-166482042D01*
X326282415Y-166752451D01*
X326052451Y-166982415D01*
X325782042Y-167163097D01*
X325481579Y-167287553D01*
X325375256Y-167308702D01*
X325162611Y-167351000D01*
X324837389Y-167351000D01*
X324624744Y-167308702D01*
X324518421Y-167287553D01*
X324217958Y-167163097D01*
X323947549Y-166982415D01*
X323717585Y-166752451D01*
X323536903Y-166482042D01*
X323412447Y-166181579D01*
X323391298Y-166075256D01*
X323349000Y-165862611D01*
X323349000Y-165537389D01*
X323412447Y-165218422D01*
X323536902Y-164917960D01*
X323650767Y-164747549D01*
X323717585Y-164647549D01*
X323947549Y-164417585D01*
X324217958Y-164236903D01*
X324518421Y-164112447D01*
X324624744Y-164091298D01*
X324837389Y-164049000D01*
X325162611Y-164049000D01*
X325375256Y-164091298D01*
G37*
G36*
X71533512Y-164103927D02*
G01*
X71682812Y-164133624D01*
X71846784Y-164201544D01*
X71994354Y-164300147D01*
X72119853Y-164425646D01*
X72218456Y-164573216D01*
X72286376Y-164737188D01*
X72321000Y-164911259D01*
X72321000Y-165088741D01*
X72286376Y-165262812D01*
X72218456Y-165426784D01*
X72119853Y-165574354D01*
X71994354Y-165699853D01*
X71846784Y-165798456D01*
X71682812Y-165866376D01*
X71533512Y-165896073D01*
X71508742Y-165901000D01*
X71331258Y-165901000D01*
X71306488Y-165896073D01*
X71157188Y-165866376D01*
X70993216Y-165798456D01*
X70845646Y-165699853D01*
X70720147Y-165574354D01*
X70621544Y-165426784D01*
X70553624Y-165262812D01*
X70519000Y-165088741D01*
X70519000Y-164911259D01*
X70553624Y-164737188D01*
X70621544Y-164573216D01*
X70720147Y-164425646D01*
X70845646Y-164300147D01*
X70993216Y-164201544D01*
X71157188Y-164133624D01*
X71306488Y-164103927D01*
X71331258Y-164099000D01*
X71508742Y-164099000D01*
X71533512Y-164103927D01*
G37*
G36*
X65901000Y-165901000D02*
G01*
X64099000Y-165901000D01*
X64099000Y-164099000D01*
X65901000Y-164099000D01*
X65901000Y-165901000D01*
G37*
G36*
X62573512Y-164103927D02*
G01*
X62722812Y-164133624D01*
X62886784Y-164201544D01*
X63034354Y-164300147D01*
X63159853Y-164425646D01*
X63258456Y-164573216D01*
X63326376Y-164737188D01*
X63361000Y-164911259D01*
X63361000Y-165088741D01*
X63326376Y-165262812D01*
X63258456Y-165426784D01*
X63159853Y-165574354D01*
X63034354Y-165699853D01*
X62886784Y-165798456D01*
X62722812Y-165866376D01*
X62573512Y-165896073D01*
X62548742Y-165901000D01*
X62371258Y-165901000D01*
X62346488Y-165896073D01*
X62197188Y-165866376D01*
X62033216Y-165798456D01*
X61885646Y-165699853D01*
X61760147Y-165574354D01*
X61661544Y-165426784D01*
X61593624Y-165262812D01*
X61559000Y-165088741D01*
X61559000Y-164911259D01*
X61593624Y-164737188D01*
X61661544Y-164573216D01*
X61760147Y-164425646D01*
X61885646Y-164300147D01*
X62033216Y-164201544D01*
X62197188Y-164133624D01*
X62346488Y-164103927D01*
X62371258Y-164099000D01*
X62548742Y-164099000D01*
X62573512Y-164103927D01*
G37*
G36*
X60033512Y-164103927D02*
G01*
X60182812Y-164133624D01*
X60346784Y-164201544D01*
X60494354Y-164300147D01*
X60619853Y-164425646D01*
X60718456Y-164573216D01*
X60786376Y-164737188D01*
X60821000Y-164911259D01*
X60821000Y-165088741D01*
X60786376Y-165262812D01*
X60718456Y-165426784D01*
X60619853Y-165574354D01*
X60494354Y-165699853D01*
X60346784Y-165798456D01*
X60182812Y-165866376D01*
X60033512Y-165896073D01*
X60008742Y-165901000D01*
X59831258Y-165901000D01*
X59806488Y-165896073D01*
X59657188Y-165866376D01*
X59493216Y-165798456D01*
X59345646Y-165699853D01*
X59220147Y-165574354D01*
X59121544Y-165426784D01*
X59053624Y-165262812D01*
X59019000Y-165088741D01*
X59019000Y-164911259D01*
X59053624Y-164737188D01*
X59121544Y-164573216D01*
X59220147Y-164425646D01*
X59345646Y-164300147D01*
X59493216Y-164201544D01*
X59657188Y-164133624D01*
X59806488Y-164103927D01*
X59831258Y-164099000D01*
X60008742Y-164099000D01*
X60033512Y-164103927D01*
G37*
G36*
X57493512Y-164103927D02*
G01*
X57642812Y-164133624D01*
X57806784Y-164201544D01*
X57954354Y-164300147D01*
X58079853Y-164425646D01*
X58178456Y-164573216D01*
X58246376Y-164737188D01*
X58281000Y-164911259D01*
X58281000Y-165088741D01*
X58246376Y-165262812D01*
X58178456Y-165426784D01*
X58079853Y-165574354D01*
X57954354Y-165699853D01*
X57806784Y-165798456D01*
X57642812Y-165866376D01*
X57493512Y-165896073D01*
X57468742Y-165901000D01*
X57291258Y-165901000D01*
X57266488Y-165896073D01*
X57117188Y-165866376D01*
X56953216Y-165798456D01*
X56805646Y-165699853D01*
X56680147Y-165574354D01*
X56581544Y-165426784D01*
X56513624Y-165262812D01*
X56479000Y-165088741D01*
X56479000Y-164911259D01*
X56513624Y-164737188D01*
X56581544Y-164573216D01*
X56680147Y-164425646D01*
X56805646Y-164300147D01*
X56953216Y-164201544D01*
X57117188Y-164133624D01*
X57266488Y-164103927D01*
X57291258Y-164099000D01*
X57468742Y-164099000D01*
X57493512Y-164103927D01*
G37*
G36*
X74073512Y-164103927D02*
G01*
X74222812Y-164133624D01*
X74386784Y-164201544D01*
X74534354Y-164300147D01*
X74659853Y-164425646D01*
X74758456Y-164573216D01*
X74826376Y-164737188D01*
X74861000Y-164911259D01*
X74861000Y-165088741D01*
X74826376Y-165262812D01*
X74758456Y-165426784D01*
X74659853Y-165574354D01*
X74534354Y-165699853D01*
X74386784Y-165798456D01*
X74222812Y-165866376D01*
X74073512Y-165896073D01*
X74048742Y-165901000D01*
X73871258Y-165901000D01*
X73846488Y-165896073D01*
X73697188Y-165866376D01*
X73533216Y-165798456D01*
X73385646Y-165699853D01*
X73260147Y-165574354D01*
X73161544Y-165426784D01*
X73093624Y-165262812D01*
X73059000Y-165088741D01*
X73059000Y-164911259D01*
X73093624Y-164737188D01*
X73161544Y-164573216D01*
X73260147Y-164425646D01*
X73385646Y-164300147D01*
X73533216Y-164201544D01*
X73697188Y-164133624D01*
X73846488Y-164103927D01*
X73871258Y-164099000D01*
X74048742Y-164099000D01*
X74073512Y-164103927D01*
G37*
G36*
X77401000Y-165901000D02*
G01*
X75599000Y-165901000D01*
X75599000Y-164099000D01*
X77401000Y-164099000D01*
X77401000Y-165901000D01*
G37*
G36*
X68993512Y-164103927D02*
G01*
X69142812Y-164133624D01*
X69306784Y-164201544D01*
X69454354Y-164300147D01*
X69579853Y-164425646D01*
X69678456Y-164573216D01*
X69746376Y-164737188D01*
X69781000Y-164911259D01*
X69781000Y-165088741D01*
X69746376Y-165262812D01*
X69678456Y-165426784D01*
X69579853Y-165574354D01*
X69454354Y-165699853D01*
X69306784Y-165798456D01*
X69142812Y-165866376D01*
X68993512Y-165896073D01*
X68968742Y-165901000D01*
X68791258Y-165901000D01*
X68766488Y-165896073D01*
X68617188Y-165866376D01*
X68453216Y-165798456D01*
X68305646Y-165699853D01*
X68180147Y-165574354D01*
X68081544Y-165426784D01*
X68013624Y-165262812D01*
X67979000Y-165088741D01*
X67979000Y-164911259D01*
X68013624Y-164737188D01*
X68081544Y-164573216D01*
X68180147Y-164425646D01*
X68305646Y-164300147D01*
X68453216Y-164201544D01*
X68617188Y-164133624D01*
X68766488Y-164103927D01*
X68791258Y-164099000D01*
X68968742Y-164099000D01*
X68993512Y-164103927D01*
G37*
G36*
X337153512Y-158803927D02*
G01*
X337302812Y-158833624D01*
X337466784Y-158901544D01*
X337614354Y-159000147D01*
X337739853Y-159125646D01*
X337838456Y-159273216D01*
X337906376Y-159437188D01*
X337941000Y-159611259D01*
X337941000Y-159788741D01*
X337906376Y-159962812D01*
X337838456Y-160126784D01*
X337739853Y-160274354D01*
X337614354Y-160399853D01*
X337466784Y-160498456D01*
X337302812Y-160566376D01*
X337153512Y-160596073D01*
X337128742Y-160601000D01*
X336951258Y-160601000D01*
X336926488Y-160596073D01*
X336777188Y-160566376D01*
X336613216Y-160498456D01*
X336465646Y-160399853D01*
X336340147Y-160274354D01*
X336241544Y-160126784D01*
X336173624Y-159962812D01*
X336139000Y-159788741D01*
X336139000Y-159611259D01*
X336173624Y-159437188D01*
X336241544Y-159273216D01*
X336340147Y-159125646D01*
X336465646Y-159000147D01*
X336613216Y-158901544D01*
X336777188Y-158833624D01*
X336926488Y-158803927D01*
X336951258Y-158799000D01*
X337128742Y-158799000D01*
X337153512Y-158803927D01*
G37*
G36*
X334613512Y-158803927D02*
G01*
X334762812Y-158833624D01*
X334926784Y-158901544D01*
X335074354Y-159000147D01*
X335199853Y-159125646D01*
X335298456Y-159273216D01*
X335366376Y-159437188D01*
X335401000Y-159611259D01*
X335401000Y-159788741D01*
X335366376Y-159962812D01*
X335298456Y-160126784D01*
X335199853Y-160274354D01*
X335074354Y-160399853D01*
X334926784Y-160498456D01*
X334762812Y-160566376D01*
X334613512Y-160596073D01*
X334588742Y-160601000D01*
X334411258Y-160601000D01*
X334386488Y-160596073D01*
X334237188Y-160566376D01*
X334073216Y-160498456D01*
X333925646Y-160399853D01*
X333800147Y-160274354D01*
X333701544Y-160126784D01*
X333633624Y-159962812D01*
X333599000Y-159788741D01*
X333599000Y-159611259D01*
X333633624Y-159437188D01*
X333701544Y-159273216D01*
X333800147Y-159125646D01*
X333925646Y-159000147D01*
X334073216Y-158901544D01*
X334237188Y-158833624D01*
X334386488Y-158803927D01*
X334411258Y-158799000D01*
X334588742Y-158799000D01*
X334613512Y-158803927D01*
G37*
G36*
X83153512Y-158803927D02*
G01*
X83302812Y-158833624D01*
X83466784Y-158901544D01*
X83614354Y-159000147D01*
X83739853Y-159125646D01*
X83838456Y-159273216D01*
X83906376Y-159437188D01*
X83941000Y-159611259D01*
X83941000Y-159788741D01*
X83906376Y-159962812D01*
X83838456Y-160126784D01*
X83739853Y-160274354D01*
X83614354Y-160399853D01*
X83466784Y-160498456D01*
X83302812Y-160566376D01*
X83153512Y-160596073D01*
X83128742Y-160601000D01*
X82951258Y-160601000D01*
X82926488Y-160596073D01*
X82777188Y-160566376D01*
X82613216Y-160498456D01*
X82465646Y-160399853D01*
X82340147Y-160274354D01*
X82241544Y-160126784D01*
X82173624Y-159962812D01*
X82139000Y-159788741D01*
X82139000Y-159611259D01*
X82173624Y-159437188D01*
X82241544Y-159273216D01*
X82340147Y-159125646D01*
X82465646Y-159000147D01*
X82613216Y-158901544D01*
X82777188Y-158833624D01*
X82926488Y-158803927D01*
X82951258Y-158799000D01*
X83128742Y-158799000D01*
X83153512Y-158803927D01*
G37*
G36*
X80613512Y-158803927D02*
G01*
X80762812Y-158833624D01*
X80926784Y-158901544D01*
X81074354Y-159000147D01*
X81199853Y-159125646D01*
X81298456Y-159273216D01*
X81366376Y-159437188D01*
X81401000Y-159611259D01*
X81401000Y-159788741D01*
X81366376Y-159962812D01*
X81298456Y-160126784D01*
X81199853Y-160274354D01*
X81074354Y-160399853D01*
X80926784Y-160498456D01*
X80762812Y-160566376D01*
X80613512Y-160596073D01*
X80588742Y-160601000D01*
X80411258Y-160601000D01*
X80386488Y-160596073D01*
X80237188Y-160566376D01*
X80073216Y-160498456D01*
X79925646Y-160399853D01*
X79800147Y-160274354D01*
X79701544Y-160126784D01*
X79633624Y-159962812D01*
X79599000Y-159788741D01*
X79599000Y-159611259D01*
X79633624Y-159437188D01*
X79701544Y-159273216D01*
X79800147Y-159125646D01*
X79925646Y-159000147D01*
X80073216Y-158901544D01*
X80237188Y-158833624D01*
X80386488Y-158803927D01*
X80411258Y-158799000D01*
X80588742Y-158799000D01*
X80613512Y-158803927D01*
G37*
G36*
X341001000Y-159551000D02*
G01*
X339999000Y-159551000D01*
X339999000Y-158949000D01*
X341001000Y-158949000D01*
X341001000Y-159551000D01*
G37*
G36*
X78001000Y-159551000D02*
G01*
X76999000Y-159551000D01*
X76999000Y-158949000D01*
X78001000Y-158949000D01*
X78001000Y-159551000D01*
G37*
G36*
X337153512Y-156263927D02*
G01*
X337302812Y-156293624D01*
X337466784Y-156361544D01*
X337614354Y-156460147D01*
X337739853Y-156585646D01*
X337838456Y-156733216D01*
X337906376Y-156897188D01*
X337941000Y-157071259D01*
X337941000Y-157248741D01*
X337906376Y-157422812D01*
X337838456Y-157586784D01*
X337739853Y-157734354D01*
X337614354Y-157859853D01*
X337466784Y-157958456D01*
X337302812Y-158026376D01*
X337153512Y-158056073D01*
X337128742Y-158061000D01*
X336951258Y-158061000D01*
X336926488Y-158056073D01*
X336777188Y-158026376D01*
X336613216Y-157958456D01*
X336465646Y-157859853D01*
X336340147Y-157734354D01*
X336241544Y-157586784D01*
X336173624Y-157422812D01*
X336139000Y-157248741D01*
X336139000Y-157071259D01*
X336173624Y-156897188D01*
X336241544Y-156733216D01*
X336340147Y-156585646D01*
X336465646Y-156460147D01*
X336613216Y-156361544D01*
X336777188Y-156293624D01*
X336926488Y-156263927D01*
X336951258Y-156259000D01*
X337128742Y-156259000D01*
X337153512Y-156263927D01*
G37*
G36*
X334613512Y-156263927D02*
G01*
X334762812Y-156293624D01*
X334926784Y-156361544D01*
X335074354Y-156460147D01*
X335199853Y-156585646D01*
X335298456Y-156733216D01*
X335366376Y-156897188D01*
X335401000Y-157071259D01*
X335401000Y-157248741D01*
X335366376Y-157422812D01*
X335298456Y-157586784D01*
X335199853Y-157734354D01*
X335074354Y-157859853D01*
X334926784Y-157958456D01*
X334762812Y-158026376D01*
X334613512Y-158056073D01*
X334588742Y-158061000D01*
X334411258Y-158061000D01*
X334386488Y-158056073D01*
X334237188Y-158026376D01*
X334073216Y-157958456D01*
X333925646Y-157859853D01*
X333800147Y-157734354D01*
X333701544Y-157586784D01*
X333633624Y-157422812D01*
X333599000Y-157248741D01*
X333599000Y-157071259D01*
X333633624Y-156897188D01*
X333701544Y-156733216D01*
X333800147Y-156585646D01*
X333925646Y-156460147D01*
X334073216Y-156361544D01*
X334237188Y-156293624D01*
X334386488Y-156263927D01*
X334411258Y-156259000D01*
X334588742Y-156259000D01*
X334613512Y-156263927D01*
G37*
G36*
X83153512Y-156263927D02*
G01*
X83302812Y-156293624D01*
X83466784Y-156361544D01*
X83614354Y-156460147D01*
X83739853Y-156585646D01*
X83838456Y-156733216D01*
X83906376Y-156897188D01*
X83941000Y-157071259D01*
X83941000Y-157248741D01*
X83906376Y-157422812D01*
X83838456Y-157586784D01*
X83739853Y-157734354D01*
X83614354Y-157859853D01*
X83466784Y-157958456D01*
X83302812Y-158026376D01*
X83153512Y-158056073D01*
X83128742Y-158061000D01*
X82951258Y-158061000D01*
X82926488Y-158056073D01*
X82777188Y-158026376D01*
X82613216Y-157958456D01*
X82465646Y-157859853D01*
X82340147Y-157734354D01*
X82241544Y-157586784D01*
X82173624Y-157422812D01*
X82139000Y-157248741D01*
X82139000Y-157071259D01*
X82173624Y-156897188D01*
X82241544Y-156733216D01*
X82340147Y-156585646D01*
X82465646Y-156460147D01*
X82613216Y-156361544D01*
X82777188Y-156293624D01*
X82926488Y-156263927D01*
X82951258Y-156259000D01*
X83128742Y-156259000D01*
X83153512Y-156263927D01*
G37*
G36*
X80613512Y-156263927D02*
G01*
X80762812Y-156293624D01*
X80926784Y-156361544D01*
X81074354Y-156460147D01*
X81199853Y-156585646D01*
X81298456Y-156733216D01*
X81366376Y-156897188D01*
X81401000Y-157071259D01*
X81401000Y-157248741D01*
X81366376Y-157422812D01*
X81298456Y-157586784D01*
X81199853Y-157734354D01*
X81074354Y-157859853D01*
X80926784Y-157958456D01*
X80762812Y-158026376D01*
X80613512Y-158056073D01*
X80588742Y-158061000D01*
X80411258Y-158061000D01*
X80386488Y-158056073D01*
X80237188Y-158026376D01*
X80073216Y-157958456D01*
X79925646Y-157859853D01*
X79800147Y-157734354D01*
X79701544Y-157586784D01*
X79633624Y-157422812D01*
X79599000Y-157248741D01*
X79599000Y-157071259D01*
X79633624Y-156897188D01*
X79701544Y-156733216D01*
X79800147Y-156585646D01*
X79925646Y-156460147D01*
X80073216Y-156361544D01*
X80237188Y-156293624D01*
X80386488Y-156263927D01*
X80411258Y-156259000D01*
X80588742Y-156259000D01*
X80613512Y-156263927D01*
G37*
G36*
X341001000Y-158051000D02*
G01*
X339999000Y-158051000D01*
X339999000Y-157449000D01*
X341001000Y-157449000D01*
X341001000Y-158051000D01*
G37*
G36*
X78001000Y-158051000D02*
G01*
X76999000Y-158051000D01*
X76999000Y-157449000D01*
X78001000Y-157449000D01*
X78001000Y-158051000D01*
G37*
G36*
X58951000Y-156701000D02*
G01*
X55899000Y-156701000D01*
X55899000Y-153899000D01*
X58951000Y-153899000D01*
X58951000Y-156701000D01*
G37*
G36*
X65701000Y-156701000D02*
G01*
X62649000Y-156701000D01*
X62649000Y-153899000D01*
X65701000Y-153899000D01*
X65701000Y-156701000D01*
G37*
G36*
X80613512Y-153723927D02*
G01*
X80762812Y-153753624D01*
X80926784Y-153821544D01*
X81074354Y-153920147D01*
X81199853Y-154045646D01*
X81298456Y-154193216D01*
X81366376Y-154357188D01*
X81401000Y-154531259D01*
X81401000Y-154708741D01*
X81366376Y-154882812D01*
X81298456Y-155046784D01*
X81199853Y-155194354D01*
X81074354Y-155319853D01*
X80926784Y-155418456D01*
X80762812Y-155486376D01*
X80613512Y-155516073D01*
X80588742Y-155521000D01*
X80411258Y-155521000D01*
X80386488Y-155516073D01*
X80237188Y-155486376D01*
X80073216Y-155418456D01*
X79925646Y-155319853D01*
X79800147Y-155194354D01*
X79701544Y-155046784D01*
X79633624Y-154882812D01*
X79599000Y-154708741D01*
X79599000Y-154531259D01*
X79633624Y-154357188D01*
X79701544Y-154193216D01*
X79800147Y-154045646D01*
X79925646Y-153920147D01*
X80073216Y-153821544D01*
X80237188Y-153753624D01*
X80386488Y-153723927D01*
X80411258Y-153719000D01*
X80588742Y-153719000D01*
X80613512Y-153723927D01*
G37*
G36*
X334613512Y-153723927D02*
G01*
X334762812Y-153753624D01*
X334926784Y-153821544D01*
X335074354Y-153920147D01*
X335199853Y-154045646D01*
X335298456Y-154193216D01*
X335366376Y-154357188D01*
X335401000Y-154531259D01*
X335401000Y-154708741D01*
X335366376Y-154882812D01*
X335298456Y-155046784D01*
X335199853Y-155194354D01*
X335074354Y-155319853D01*
X334926784Y-155418456D01*
X334762812Y-155486376D01*
X334613512Y-155516073D01*
X334588742Y-155521000D01*
X334411258Y-155521000D01*
X334386488Y-155516073D01*
X334237188Y-155486376D01*
X334073216Y-155418456D01*
X333925646Y-155319853D01*
X333800147Y-155194354D01*
X333701544Y-155046784D01*
X333633624Y-154882812D01*
X333599000Y-154708741D01*
X333599000Y-154531259D01*
X333633624Y-154357188D01*
X333701544Y-154193216D01*
X333800147Y-154045646D01*
X333925646Y-153920147D01*
X334073216Y-153821544D01*
X334237188Y-153753624D01*
X334386488Y-153723927D01*
X334411258Y-153719000D01*
X334588742Y-153719000D01*
X334613512Y-153723927D01*
G37*
G36*
X337153512Y-153723927D02*
G01*
X337302812Y-153753624D01*
X337466784Y-153821544D01*
X337614354Y-153920147D01*
X337739853Y-154045646D01*
X337838456Y-154193216D01*
X337906376Y-154357188D01*
X337941000Y-154531259D01*
X337941000Y-154708741D01*
X337906376Y-154882812D01*
X337838456Y-155046784D01*
X337739853Y-155194354D01*
X337614354Y-155319853D01*
X337466784Y-155418456D01*
X337302812Y-155486376D01*
X337153512Y-155516073D01*
X337128742Y-155521000D01*
X336951258Y-155521000D01*
X336926488Y-155516073D01*
X336777188Y-155486376D01*
X336613216Y-155418456D01*
X336465646Y-155319853D01*
X336340147Y-155194354D01*
X336241544Y-155046784D01*
X336173624Y-154882812D01*
X336139000Y-154708741D01*
X336139000Y-154531259D01*
X336173624Y-154357188D01*
X336241544Y-154193216D01*
X336340147Y-154045646D01*
X336465646Y-153920147D01*
X336613216Y-153821544D01*
X336777188Y-153753624D01*
X336926488Y-153723927D01*
X336951258Y-153719000D01*
X337128742Y-153719000D01*
X337153512Y-153723927D01*
G37*
G36*
X83153512Y-153723927D02*
G01*
X83302812Y-153753624D01*
X83466784Y-153821544D01*
X83614354Y-153920147D01*
X83739853Y-154045646D01*
X83838456Y-154193216D01*
X83906376Y-154357188D01*
X83941000Y-154531259D01*
X83941000Y-154708741D01*
X83906376Y-154882812D01*
X83838456Y-155046784D01*
X83739853Y-155194354D01*
X83614354Y-155319853D01*
X83466784Y-155418456D01*
X83302812Y-155486376D01*
X83153512Y-155516073D01*
X83128742Y-155521000D01*
X82951258Y-155521000D01*
X82926488Y-155516073D01*
X82777188Y-155486376D01*
X82613216Y-155418456D01*
X82465646Y-155319853D01*
X82340147Y-155194354D01*
X82241544Y-155046784D01*
X82173624Y-154882812D01*
X82139000Y-154708741D01*
X82139000Y-154531259D01*
X82173624Y-154357188D01*
X82241544Y-154193216D01*
X82340147Y-154045646D01*
X82465646Y-153920147D01*
X82613216Y-153821544D01*
X82777188Y-153753624D01*
X82926488Y-153723927D01*
X82951258Y-153719000D01*
X83128742Y-153719000D01*
X83153512Y-153723927D01*
G37*
G36*
X83153512Y-151183927D02*
G01*
X83302812Y-151213624D01*
X83466784Y-151281544D01*
X83614354Y-151380147D01*
X83739853Y-151505646D01*
X83838456Y-151653216D01*
X83906376Y-151817188D01*
X83941000Y-151991259D01*
X83941000Y-152168741D01*
X83906376Y-152342812D01*
X83838456Y-152506784D01*
X83739853Y-152654354D01*
X83614354Y-152779853D01*
X83466784Y-152878456D01*
X83302812Y-152946376D01*
X83153512Y-152976073D01*
X83128742Y-152981000D01*
X82951258Y-152981000D01*
X82926488Y-152976073D01*
X82777188Y-152946376D01*
X82613216Y-152878456D01*
X82465646Y-152779853D01*
X82340147Y-152654354D01*
X82241544Y-152506784D01*
X82173624Y-152342812D01*
X82139000Y-152168741D01*
X82139000Y-151991259D01*
X82173624Y-151817188D01*
X82241544Y-151653216D01*
X82340147Y-151505646D01*
X82465646Y-151380147D01*
X82613216Y-151281544D01*
X82777188Y-151213624D01*
X82926488Y-151183927D01*
X82951258Y-151179000D01*
X83128742Y-151179000D01*
X83153512Y-151183927D01*
G37*
G36*
X80613512Y-151183927D02*
G01*
X80762812Y-151213624D01*
X80926784Y-151281544D01*
X81074354Y-151380147D01*
X81199853Y-151505646D01*
X81298456Y-151653216D01*
X81366376Y-151817188D01*
X81401000Y-151991259D01*
X81401000Y-152168741D01*
X81366376Y-152342812D01*
X81298456Y-152506784D01*
X81199853Y-152654354D01*
X81074354Y-152779853D01*
X80926784Y-152878456D01*
X80762812Y-152946376D01*
X80613512Y-152976073D01*
X80588742Y-152981000D01*
X80411258Y-152981000D01*
X80386488Y-152976073D01*
X80237188Y-152946376D01*
X80073216Y-152878456D01*
X79925646Y-152779853D01*
X79800147Y-152654354D01*
X79701544Y-152506784D01*
X79633624Y-152342812D01*
X79599000Y-152168741D01*
X79599000Y-151991259D01*
X79633624Y-151817188D01*
X79701544Y-151653216D01*
X79800147Y-151505646D01*
X79925646Y-151380147D01*
X80073216Y-151281544D01*
X80237188Y-151213624D01*
X80386488Y-151183927D01*
X80411258Y-151179000D01*
X80588742Y-151179000D01*
X80613512Y-151183927D01*
G37*
G36*
X334613512Y-151183927D02*
G01*
X334762812Y-151213624D01*
X334926784Y-151281544D01*
X335074354Y-151380147D01*
X335199853Y-151505646D01*
X335298456Y-151653216D01*
X335366376Y-151817188D01*
X335401000Y-151991259D01*
X335401000Y-152168741D01*
X335366376Y-152342812D01*
X335298456Y-152506784D01*
X335199853Y-152654354D01*
X335074354Y-152779853D01*
X334926784Y-152878456D01*
X334762812Y-152946376D01*
X334613512Y-152976073D01*
X334588742Y-152981000D01*
X334411258Y-152981000D01*
X334386488Y-152976073D01*
X334237188Y-152946376D01*
X334073216Y-152878456D01*
X333925646Y-152779853D01*
X333800147Y-152654354D01*
X333701544Y-152506784D01*
X333633624Y-152342812D01*
X333599000Y-152168741D01*
X333599000Y-151991259D01*
X333633624Y-151817188D01*
X333701544Y-151653216D01*
X333800147Y-151505646D01*
X333925646Y-151380147D01*
X334073216Y-151281544D01*
X334237188Y-151213624D01*
X334386488Y-151183927D01*
X334411258Y-151179000D01*
X334588742Y-151179000D01*
X334613512Y-151183927D01*
G37*
G36*
X337153512Y-151183927D02*
G01*
X337302812Y-151213624D01*
X337466784Y-151281544D01*
X337614354Y-151380147D01*
X337739853Y-151505646D01*
X337838456Y-151653216D01*
X337906376Y-151817188D01*
X337941000Y-151991259D01*
X337941000Y-152168741D01*
X337906376Y-152342812D01*
X337838456Y-152506784D01*
X337739853Y-152654354D01*
X337614354Y-152779853D01*
X337466784Y-152878456D01*
X337302812Y-152946376D01*
X337153512Y-152976073D01*
X337128742Y-152981000D01*
X336951258Y-152981000D01*
X336926488Y-152976073D01*
X336777188Y-152946376D01*
X336613216Y-152878456D01*
X336465646Y-152779853D01*
X336340147Y-152654354D01*
X336241544Y-152506784D01*
X336173624Y-152342812D01*
X336139000Y-152168741D01*
X336139000Y-151991259D01*
X336173624Y-151817188D01*
X336241544Y-151653216D01*
X336340147Y-151505646D01*
X336465646Y-151380147D01*
X336613216Y-151281544D01*
X336777188Y-151213624D01*
X336926488Y-151183927D01*
X336951258Y-151179000D01*
X337128742Y-151179000D01*
X337153512Y-151183927D01*
G37*
G36*
X58951000Y-150801000D02*
G01*
X55899000Y-150801000D01*
X55899000Y-147999000D01*
X58951000Y-147999000D01*
X58951000Y-150801000D01*
G37*
G36*
X65701000Y-150801000D02*
G01*
X62649000Y-150801000D01*
X62649000Y-147999000D01*
X65701000Y-147999000D01*
X65701000Y-150801000D01*
G37*
G36*
X80613512Y-148643927D02*
G01*
X80762812Y-148673624D01*
X80926784Y-148741544D01*
X81074354Y-148840147D01*
X81199853Y-148965646D01*
X81298456Y-149113216D01*
X81366376Y-149277188D01*
X81396073Y-149426488D01*
X81400949Y-149451000D01*
X81401000Y-149451259D01*
X81401000Y-149628741D01*
X81366376Y-149802812D01*
X81298456Y-149966784D01*
X81199853Y-150114354D01*
X81074354Y-150239853D01*
X80926784Y-150338456D01*
X80762812Y-150406376D01*
X80613512Y-150436073D01*
X80588742Y-150441000D01*
X80411258Y-150441000D01*
X80386488Y-150436073D01*
X80237188Y-150406376D01*
X80073216Y-150338456D01*
X79925646Y-150239853D01*
X79800147Y-150114354D01*
X79701544Y-149966784D01*
X79633624Y-149802812D01*
X79599000Y-149628741D01*
X79599000Y-149451259D01*
X79599052Y-149451000D01*
X79603927Y-149426488D01*
X79633624Y-149277188D01*
X79701544Y-149113216D01*
X79800147Y-148965646D01*
X79925646Y-148840147D01*
X80073216Y-148741544D01*
X80237188Y-148673624D01*
X80386488Y-148643927D01*
X80411258Y-148639000D01*
X80588742Y-148639000D01*
X80613512Y-148643927D01*
G37*
G36*
X334613512Y-148643927D02*
G01*
X334762812Y-148673624D01*
X334926784Y-148741544D01*
X335074354Y-148840147D01*
X335199853Y-148965646D01*
X335298456Y-149113216D01*
X335366376Y-149277188D01*
X335396073Y-149426488D01*
X335400949Y-149451000D01*
X335401000Y-149451259D01*
X335401000Y-149628741D01*
X335366376Y-149802812D01*
X335298456Y-149966784D01*
X335199853Y-150114354D01*
X335074354Y-150239853D01*
X334926784Y-150338456D01*
X334762812Y-150406376D01*
X334613512Y-150436073D01*
X334588742Y-150441000D01*
X334411258Y-150441000D01*
X334386488Y-150436073D01*
X334237188Y-150406376D01*
X334073216Y-150338456D01*
X333925646Y-150239853D01*
X333800147Y-150114354D01*
X333701544Y-149966784D01*
X333633624Y-149802812D01*
X333599000Y-149628741D01*
X333599000Y-149451259D01*
X333599052Y-149451000D01*
X333603927Y-149426488D01*
X333633624Y-149277188D01*
X333701544Y-149113216D01*
X333800147Y-148965646D01*
X333925646Y-148840147D01*
X334073216Y-148741544D01*
X334237188Y-148673624D01*
X334386488Y-148643927D01*
X334411258Y-148639000D01*
X334588742Y-148639000D01*
X334613512Y-148643927D01*
G37*
G36*
X337153512Y-148643927D02*
G01*
X337302812Y-148673624D01*
X337466784Y-148741544D01*
X337614354Y-148840147D01*
X337739853Y-148965646D01*
X337838456Y-149113216D01*
X337906376Y-149277188D01*
X337936073Y-149426488D01*
X337940949Y-149451000D01*
X337941000Y-149451259D01*
X337941000Y-149628741D01*
X337906376Y-149802812D01*
X337838456Y-149966784D01*
X337739853Y-150114354D01*
X337614354Y-150239853D01*
X337466784Y-150338456D01*
X337302812Y-150406376D01*
X337153512Y-150436073D01*
X337128742Y-150441000D01*
X336951258Y-150441000D01*
X336926488Y-150436073D01*
X336777188Y-150406376D01*
X336613216Y-150338456D01*
X336465646Y-150239853D01*
X336340147Y-150114354D01*
X336241544Y-149966784D01*
X336173624Y-149802812D01*
X336139000Y-149628741D01*
X336139000Y-149451259D01*
X336139052Y-149451000D01*
X336143927Y-149426488D01*
X336173624Y-149277188D01*
X336241544Y-149113216D01*
X336340147Y-148965646D01*
X336465646Y-148840147D01*
X336613216Y-148741544D01*
X336777188Y-148673624D01*
X336926488Y-148643927D01*
X336951258Y-148639000D01*
X337128742Y-148639000D01*
X337153512Y-148643927D01*
G37*
G36*
X83153512Y-148643927D02*
G01*
X83302812Y-148673624D01*
X83466784Y-148741544D01*
X83614354Y-148840147D01*
X83739853Y-148965646D01*
X83838456Y-149113216D01*
X83906376Y-149277188D01*
X83936073Y-149426488D01*
X83940949Y-149451000D01*
X83941000Y-149451259D01*
X83941000Y-149628741D01*
X83906376Y-149802812D01*
X83838456Y-149966784D01*
X83739853Y-150114354D01*
X83614354Y-150239853D01*
X83466784Y-150338456D01*
X83302812Y-150406376D01*
X83153512Y-150436073D01*
X83128742Y-150441000D01*
X82951258Y-150441000D01*
X82926488Y-150436073D01*
X82777188Y-150406376D01*
X82613216Y-150338456D01*
X82465646Y-150239853D01*
X82340147Y-150114354D01*
X82241544Y-149966784D01*
X82173624Y-149802812D01*
X82139000Y-149628741D01*
X82139000Y-149451259D01*
X82139052Y-149451000D01*
X82143927Y-149426488D01*
X82173624Y-149277188D01*
X82241544Y-149113216D01*
X82340147Y-148965646D01*
X82465646Y-148840147D01*
X82613216Y-148741544D01*
X82777188Y-148673624D01*
X82926488Y-148643927D01*
X82951258Y-148639000D01*
X83128742Y-148639000D01*
X83153512Y-148643927D01*
G37*
G36*
X341001000Y-149551000D02*
G01*
X339999000Y-149551000D01*
X339999000Y-148949000D01*
X341001000Y-148949000D01*
X341001000Y-149551000D01*
G37*
G36*
X77901000Y-149451000D02*
G01*
X76899000Y-149451000D01*
X76899000Y-148849000D01*
X77901000Y-148849000D01*
X77901000Y-149451000D01*
G37*
G36*
X341001000Y-148051000D02*
G01*
X339999000Y-148051000D01*
X339999000Y-147449000D01*
X341001000Y-147449000D01*
X341001000Y-148051000D01*
G37*
G36*
X77901000Y-147951000D02*
G01*
X76899000Y-147951000D01*
X76899000Y-147349000D01*
X77901000Y-147349000D01*
X77901000Y-147951000D01*
G37*
G36*
X81401000Y-147901000D02*
G01*
X79599000Y-147901000D01*
X79599000Y-146099000D01*
X81401000Y-146099000D01*
X81401000Y-147901000D01*
G37*
G36*
X83153512Y-146103927D02*
G01*
X83302812Y-146133624D01*
X83466784Y-146201544D01*
X83614354Y-146300147D01*
X83739853Y-146425646D01*
X83838456Y-146573216D01*
X83906376Y-146737188D01*
X83941000Y-146911259D01*
X83941000Y-147088741D01*
X83906376Y-147262812D01*
X83838456Y-147426784D01*
X83739853Y-147574354D01*
X83614354Y-147699853D01*
X83466784Y-147798456D01*
X83302812Y-147866376D01*
X83153512Y-147896073D01*
X83128742Y-147901000D01*
X82951258Y-147901000D01*
X82926488Y-147896073D01*
X82777188Y-147866376D01*
X82613216Y-147798456D01*
X82465646Y-147699853D01*
X82340147Y-147574354D01*
X82241544Y-147426784D01*
X82173624Y-147262812D01*
X82139000Y-147088741D01*
X82139000Y-146911259D01*
X82173624Y-146737188D01*
X82241544Y-146573216D01*
X82340147Y-146425646D01*
X82465646Y-146300147D01*
X82613216Y-146201544D01*
X82777188Y-146133624D01*
X82926488Y-146103927D01*
X82951258Y-146099000D01*
X83128742Y-146099000D01*
X83153512Y-146103927D01*
G37*
G36*
X337153512Y-146103927D02*
G01*
X337302812Y-146133624D01*
X337466784Y-146201544D01*
X337614354Y-146300147D01*
X337739853Y-146425646D01*
X337838456Y-146573216D01*
X337906376Y-146737188D01*
X337941000Y-146911259D01*
X337941000Y-147088741D01*
X337906376Y-147262812D01*
X337838456Y-147426784D01*
X337739853Y-147574354D01*
X337614354Y-147699853D01*
X337466784Y-147798456D01*
X337302812Y-147866376D01*
X337153512Y-147896073D01*
X337128742Y-147901000D01*
X336951258Y-147901000D01*
X336926488Y-147896073D01*
X336777188Y-147866376D01*
X336613216Y-147798456D01*
X336465646Y-147699853D01*
X336340147Y-147574354D01*
X336241544Y-147426784D01*
X336173624Y-147262812D01*
X336139000Y-147088741D01*
X336139000Y-146911259D01*
X336173624Y-146737188D01*
X336241544Y-146573216D01*
X336340147Y-146425646D01*
X336465646Y-146300147D01*
X336613216Y-146201544D01*
X336777188Y-146133624D01*
X336926488Y-146103927D01*
X336951258Y-146099000D01*
X337128742Y-146099000D01*
X337153512Y-146103927D01*
G37*
G36*
X335401000Y-147901000D02*
G01*
X333599000Y-147901000D01*
X333599000Y-146099000D01*
X335401000Y-146099000D01*
X335401000Y-147901000D01*
G37*
G36*
X69351000Y-143101000D02*
G01*
X66299000Y-143101000D01*
X66299000Y-140299000D01*
X69351000Y-140299000D01*
X69351000Y-143101000D01*
G37*
G36*
X76101000Y-143101000D02*
G01*
X73049000Y-143101000D01*
X73049000Y-140299000D01*
X76101000Y-140299000D01*
X76101000Y-143101000D01*
G37*
G36*
X76101000Y-137401000D02*
G01*
X73049000Y-137401000D01*
X73049000Y-134599000D01*
X76101000Y-134599000D01*
X76101000Y-137401000D01*
G37*
G36*
X69351000Y-137401000D02*
G01*
X66299000Y-137401000D01*
X66299000Y-134599000D01*
X69351000Y-134599000D01*
X69351000Y-137401000D01*
G37*
G36*
X281951000Y-133426000D02*
G01*
X281049000Y-133426000D01*
X281049000Y-132574000D01*
X281951000Y-132574000D01*
X281951000Y-133426000D01*
G37*
G36*
X339951000Y-133426000D02*
G01*
X339049000Y-133426000D01*
X339049000Y-132574000D01*
X339951000Y-132574000D01*
X339951000Y-133426000D01*
G37*
G36*
X338451000Y-133426000D02*
G01*
X337549000Y-133426000D01*
X337549000Y-132574000D01*
X338451000Y-132574000D01*
X338451000Y-133426000D01*
G37*
G36*
X223951000Y-133426000D02*
G01*
X223049000Y-133426000D01*
X223049000Y-132574000D01*
X223951000Y-132574000D01*
X223951000Y-133426000D01*
G37*
G36*
X222451000Y-133426000D02*
G01*
X221549000Y-133426000D01*
X221549000Y-132574000D01*
X222451000Y-132574000D01*
X222451000Y-133426000D01*
G37*
G36*
X165951000Y-133426000D02*
G01*
X165049000Y-133426000D01*
X165049000Y-132574000D01*
X165951000Y-132574000D01*
X165951000Y-133426000D01*
G37*
G36*
X164451000Y-133426000D02*
G01*
X163549000Y-133426000D01*
X163549000Y-132574000D01*
X164451000Y-132574000D01*
X164451000Y-133426000D01*
G37*
G36*
X107951000Y-133426000D02*
G01*
X107049000Y-133426000D01*
X107049000Y-132574000D01*
X107951000Y-132574000D01*
X107951000Y-133426000D01*
G37*
G36*
X106451000Y-133426000D02*
G01*
X105549000Y-133426000D01*
X105549000Y-132574000D01*
X106451000Y-132574000D01*
X106451000Y-133426000D01*
G37*
G36*
X280451000Y-133426000D02*
G01*
X279549000Y-133426000D01*
X279549000Y-132574000D01*
X280451000Y-132574000D01*
X280451000Y-133426000D01*
G37*
G36*
X338376000Y-129581000D02*
G01*
X335724000Y-129581000D01*
X335724000Y-128419000D01*
X338376000Y-128419000D01*
X338376000Y-129581000D01*
G37*
G36*
X164376000Y-129581000D02*
G01*
X161724000Y-129581000D01*
X161724000Y-128419000D01*
X164376000Y-128419000D01*
X164376000Y-129581000D01*
G37*
G36*
X222376000Y-129581000D02*
G01*
X219724000Y-129581000D01*
X219724000Y-128419000D01*
X222376000Y-128419000D01*
X222376000Y-129581000D01*
G37*
G36*
X106376000Y-129581000D02*
G01*
X103724000Y-129581000D01*
X103724000Y-128419000D01*
X106376000Y-128419000D01*
X106376000Y-129581000D01*
G37*
G36*
X280376000Y-129581000D02*
G01*
X277724000Y-129581000D01*
X277724000Y-128419000D01*
X280376000Y-128419000D01*
X280376000Y-129581000D01*
G37*
G36*
X278476000Y-127381000D02*
G01*
X277724000Y-127381000D01*
X277724000Y-126219000D01*
X278476000Y-126219000D01*
X278476000Y-127381000D01*
G37*
G36*
X164376000Y-127381000D02*
G01*
X163624000Y-127381000D01*
X163624000Y-126219000D01*
X164376000Y-126219000D01*
X164376000Y-127381000D01*
G37*
G36*
X162476000Y-127381000D02*
G01*
X161724000Y-127381000D01*
X161724000Y-126219000D01*
X162476000Y-126219000D01*
X162476000Y-127381000D01*
G37*
G36*
X220476000Y-127381000D02*
G01*
X219724000Y-127381000D01*
X219724000Y-126219000D01*
X220476000Y-126219000D01*
X220476000Y-127381000D01*
G37*
G36*
X106376000Y-127381000D02*
G01*
X105624000Y-127381000D01*
X105624000Y-126219000D01*
X106376000Y-126219000D01*
X106376000Y-127381000D01*
G37*
G36*
X104476000Y-127381000D02*
G01*
X103724000Y-127381000D01*
X103724000Y-126219000D01*
X104476000Y-126219000D01*
X104476000Y-127381000D01*
G37*
G36*
X336476000Y-127381000D02*
G01*
X335724000Y-127381000D01*
X335724000Y-126219000D01*
X336476000Y-126219000D01*
X336476000Y-127381000D01*
G37*
G36*
X280376000Y-127381000D02*
G01*
X279624000Y-127381000D01*
X279624000Y-126219000D01*
X280376000Y-126219000D01*
X280376000Y-127381000D01*
G37*
G36*
X222376000Y-127381000D02*
G01*
X221624000Y-127381000D01*
X221624000Y-126219000D01*
X222376000Y-126219000D01*
X222376000Y-127381000D01*
G37*
G36*
X338376000Y-127381000D02*
G01*
X337624000Y-127381000D01*
X337624000Y-126219000D01*
X338376000Y-126219000D01*
X338376000Y-127381000D01*
G37*
G36*
X104301000Y-125001000D02*
G01*
X103699000Y-125001000D01*
X103699000Y-123999000D01*
X104301000Y-123999000D01*
X104301000Y-125001000D01*
G37*
G36*
X336301000Y-125001000D02*
G01*
X335699000Y-125001000D01*
X335699000Y-123999000D01*
X336301000Y-123999000D01*
X336301000Y-125001000D01*
G37*
G36*
X278301000Y-125001000D02*
G01*
X277699000Y-125001000D01*
X277699000Y-123999000D01*
X278301000Y-123999000D01*
X278301000Y-125001000D01*
G37*
G36*
X221801000Y-125001000D02*
G01*
X221199000Y-125001000D01*
X221199000Y-123999000D01*
X221801000Y-123999000D01*
X221801000Y-125001000D01*
G37*
G36*
X220301000Y-125001000D02*
G01*
X219699000Y-125001000D01*
X219699000Y-123999000D01*
X220301000Y-123999000D01*
X220301000Y-125001000D01*
G37*
G36*
X105801000Y-125001000D02*
G01*
X105199000Y-125001000D01*
X105199000Y-123999000D01*
X105801000Y-123999000D01*
X105801000Y-125001000D01*
G37*
G36*
X162301000Y-125001000D02*
G01*
X161699000Y-125001000D01*
X161699000Y-123999000D01*
X162301000Y-123999000D01*
X162301000Y-125001000D01*
G37*
G36*
X337801000Y-125001000D02*
G01*
X337199000Y-125001000D01*
X337199000Y-123999000D01*
X337801000Y-123999000D01*
X337801000Y-125001000D01*
G37*
G36*
X163801000Y-125001000D02*
G01*
X163199000Y-125001000D01*
X163199000Y-123999000D01*
X163801000Y-123999000D01*
X163801000Y-125001000D01*
G37*
G36*
X279801000Y-125001000D02*
G01*
X279199000Y-125001000D01*
X279199000Y-123999000D01*
X279801000Y-123999000D01*
X279801000Y-125001000D01*
G37*
G36*
X181451000Y-123926000D02*
G01*
X180549000Y-123926000D01*
X180549000Y-123074000D01*
X181451000Y-123074000D01*
X181451000Y-123926000D01*
G37*
G36*
X298951000Y-123926000D02*
G01*
X298049000Y-123926000D01*
X298049000Y-123074000D01*
X298951000Y-123074000D01*
X298951000Y-123926000D01*
G37*
G36*
X66951000Y-123926000D02*
G01*
X66049000Y-123926000D01*
X66049000Y-123074000D01*
X66951000Y-123074000D01*
X66951000Y-123926000D01*
G37*
G36*
X65451000Y-123926000D02*
G01*
X64549000Y-123926000D01*
X64549000Y-123074000D01*
X65451000Y-123074000D01*
X65451000Y-123926000D01*
G37*
G36*
X240951000Y-123926000D02*
G01*
X240049000Y-123926000D01*
X240049000Y-123074000D01*
X240951000Y-123074000D01*
X240951000Y-123926000D01*
G37*
G36*
X297451000Y-123926000D02*
G01*
X296549000Y-123926000D01*
X296549000Y-123074000D01*
X297451000Y-123074000D01*
X297451000Y-123926000D01*
G37*
G36*
X124951000Y-123926000D02*
G01*
X124049000Y-123926000D01*
X124049000Y-123074000D01*
X124951000Y-123074000D01*
X124951000Y-123926000D01*
G37*
G36*
X123451000Y-123926000D02*
G01*
X122549000Y-123926000D01*
X122549000Y-123074000D01*
X123451000Y-123074000D01*
X123451000Y-123926000D01*
G37*
G36*
X239451000Y-123926000D02*
G01*
X238549000Y-123926000D01*
X238549000Y-123074000D01*
X239451000Y-123074000D01*
X239451000Y-123926000D01*
G37*
G36*
X182951000Y-123926000D02*
G01*
X182049000Y-123926000D01*
X182049000Y-123074000D01*
X182951000Y-123074000D01*
X182951000Y-123926000D01*
G37*
G36*
X104451000Y-122926000D02*
G01*
X103549000Y-122926000D01*
X103549000Y-122074000D01*
X104451000Y-122074000D01*
X104451000Y-122926000D01*
G37*
G36*
X337951000Y-122926000D02*
G01*
X337049000Y-122926000D01*
X337049000Y-122074000D01*
X337951000Y-122074000D01*
X337951000Y-122926000D01*
G37*
G36*
X336451000Y-122926000D02*
G01*
X335549000Y-122926000D01*
X335549000Y-122074000D01*
X336451000Y-122074000D01*
X336451000Y-122926000D01*
G37*
G36*
X163951000Y-122926000D02*
G01*
X163049000Y-122926000D01*
X163049000Y-122074000D01*
X163951000Y-122074000D01*
X163951000Y-122926000D01*
G37*
G36*
X220451000Y-122926000D02*
G01*
X219549000Y-122926000D01*
X219549000Y-122074000D01*
X220451000Y-122074000D01*
X220451000Y-122926000D01*
G37*
G36*
X162451000Y-122926000D02*
G01*
X161549000Y-122926000D01*
X161549000Y-122074000D01*
X162451000Y-122074000D01*
X162451000Y-122926000D01*
G37*
G36*
X105951000Y-122926000D02*
G01*
X105049000Y-122926000D01*
X105049000Y-122074000D01*
X105951000Y-122074000D01*
X105951000Y-122926000D01*
G37*
G36*
X278451000Y-122926000D02*
G01*
X277549000Y-122926000D01*
X277549000Y-122074000D01*
X278451000Y-122074000D01*
X278451000Y-122926000D01*
G37*
G36*
X279951000Y-122926000D02*
G01*
X279049000Y-122926000D01*
X279049000Y-122074000D01*
X279951000Y-122074000D01*
X279951000Y-122926000D01*
G37*
G36*
X221951000Y-122926000D02*
G01*
X221049000Y-122926000D01*
X221049000Y-122074000D01*
X221951000Y-122074000D01*
X221951000Y-122926000D01*
G37*
G36*
X180414797Y-121407242D02*
G01*
X179852797Y-121407242D01*
X179852797Y-120355244D01*
X180414797Y-120355244D01*
X180414797Y-121407242D01*
G37*
G36*
X238414797Y-121407242D02*
G01*
X237852797Y-121407242D01*
X237852797Y-120355244D01*
X238414797Y-120355244D01*
X238414797Y-121407242D01*
G37*
G36*
X236514795Y-121407242D02*
G01*
X235952795Y-121407242D01*
X235952795Y-120355244D01*
X236514795Y-120355244D01*
X236514795Y-121407242D01*
G37*
G36*
X179464796Y-121407242D02*
G01*
X178902796Y-121407242D01*
X178902796Y-120355244D01*
X179464796Y-120355244D01*
X179464796Y-121407242D01*
G37*
G36*
X178514795Y-121407242D02*
G01*
X177952795Y-121407242D01*
X177952795Y-120355244D01*
X178514795Y-120355244D01*
X178514795Y-121407242D01*
G37*
G36*
X122414797Y-121407242D02*
G01*
X121852797Y-121407242D01*
X121852797Y-120355244D01*
X122414797Y-120355244D01*
X122414797Y-121407242D01*
G37*
G36*
X121464796Y-121407242D02*
G01*
X120902796Y-121407242D01*
X120902796Y-120355244D01*
X121464796Y-120355244D01*
X121464796Y-121407242D01*
G37*
G36*
X64414797Y-121407242D02*
G01*
X63852797Y-121407242D01*
X63852797Y-120355244D01*
X64414797Y-120355244D01*
X64414797Y-121407242D01*
G37*
G36*
X63464796Y-121407242D02*
G01*
X62902796Y-121407242D01*
X62902796Y-120355244D01*
X63464796Y-120355244D01*
X63464796Y-121407242D01*
G37*
G36*
X62514795Y-121407242D02*
G01*
X61952795Y-121407242D01*
X61952795Y-120355244D01*
X62514795Y-120355244D01*
X62514795Y-121407242D01*
G37*
G36*
X294514795Y-121407242D02*
G01*
X293952795Y-121407242D01*
X293952795Y-120355244D01*
X294514795Y-120355244D01*
X294514795Y-121407242D01*
G37*
G36*
X295464796Y-121407242D02*
G01*
X294902796Y-121407242D01*
X294902796Y-120355244D01*
X295464796Y-120355244D01*
X295464796Y-121407242D01*
G37*
G36*
X296414797Y-121407242D02*
G01*
X295852797Y-121407242D01*
X295852797Y-120355244D01*
X296414797Y-120355244D01*
X296414797Y-121407242D01*
G37*
G36*
X237464796Y-121407242D02*
G01*
X236902796Y-121407242D01*
X236902796Y-120355244D01*
X237464796Y-120355244D01*
X237464796Y-121407242D01*
G37*
G36*
X120514795Y-121407242D02*
G01*
X119952795Y-121407242D01*
X119952795Y-120355244D01*
X120514795Y-120355244D01*
X120514795Y-121407242D01*
G37*
G36*
X122414797Y-118857244D02*
G01*
X121852797Y-118857244D01*
X121852797Y-117805246D01*
X122414797Y-117805246D01*
X122414797Y-118857244D01*
G37*
G36*
X62514795Y-118857244D02*
G01*
X61952795Y-118857244D01*
X61952795Y-117805246D01*
X62514795Y-117805246D01*
X62514795Y-118857244D01*
G37*
G36*
X64414797Y-118857244D02*
G01*
X63852797Y-118857244D01*
X63852797Y-117805246D01*
X64414797Y-117805246D01*
X64414797Y-118857244D01*
G37*
G36*
X120514795Y-118857244D02*
G01*
X119952795Y-118857244D01*
X119952795Y-117805246D01*
X120514795Y-117805246D01*
X120514795Y-118857244D01*
G37*
G36*
X236514795Y-118857244D02*
G01*
X235952795Y-118857244D01*
X235952795Y-117805246D01*
X236514795Y-117805246D01*
X236514795Y-118857244D01*
G37*
G36*
X238414797Y-118857244D02*
G01*
X237852797Y-118857244D01*
X237852797Y-117805246D01*
X238414797Y-117805246D01*
X238414797Y-118857244D01*
G37*
G36*
X296414797Y-118857244D02*
G01*
X295852797Y-118857244D01*
X295852797Y-117805246D01*
X296414797Y-117805246D01*
X296414797Y-118857244D01*
G37*
G36*
X178514795Y-118857244D02*
G01*
X177952795Y-118857244D01*
X177952795Y-117805246D01*
X178514795Y-117805246D01*
X178514795Y-118857244D01*
G37*
G36*
X180414797Y-118857244D02*
G01*
X179852797Y-118857244D01*
X179852797Y-117805246D01*
X180414797Y-117805246D01*
X180414797Y-118857244D01*
G37*
G36*
X294514795Y-118857244D02*
G01*
X293952795Y-118857244D01*
X293952795Y-117805246D01*
X294514795Y-117805246D01*
X294514795Y-118857244D01*
G37*
G36*
X284401000Y-117901000D02*
G01*
X281349000Y-117901000D01*
X281349000Y-115099000D01*
X284401000Y-115099000D01*
X284401000Y-117901000D01*
G37*
G36*
X342401000Y-117901000D02*
G01*
X339349000Y-117901000D01*
X339349000Y-115099000D01*
X342401000Y-115099000D01*
X342401000Y-117901000D01*
G37*
G36*
X103651000Y-117901000D02*
G01*
X100599000Y-117901000D01*
X100599000Y-115099000D01*
X103651000Y-115099000D01*
X103651000Y-117901000D01*
G37*
G36*
X110401000Y-117901000D02*
G01*
X107349000Y-117901000D01*
X107349000Y-115099000D01*
X110401000Y-115099000D01*
X110401000Y-117901000D01*
G37*
G36*
X161651000Y-117901000D02*
G01*
X158599000Y-117901000D01*
X158599000Y-115099000D01*
X161651000Y-115099000D01*
X161651000Y-117901000D01*
G37*
G36*
X277651000Y-117901000D02*
G01*
X274599000Y-117901000D01*
X274599000Y-115099000D01*
X277651000Y-115099000D01*
X277651000Y-117901000D01*
G37*
G36*
X335651000Y-117901000D02*
G01*
X332599000Y-117901000D01*
X332599000Y-115099000D01*
X335651000Y-115099000D01*
X335651000Y-117901000D01*
G37*
G36*
X226401000Y-117901000D02*
G01*
X223349000Y-117901000D01*
X223349000Y-115099000D01*
X226401000Y-115099000D01*
X226401000Y-117901000D01*
G37*
G36*
X219651000Y-117901000D02*
G01*
X216599000Y-117901000D01*
X216599000Y-115099000D01*
X219651000Y-115099000D01*
X219651000Y-117901000D01*
G37*
G36*
X168401000Y-117901000D02*
G01*
X165349000Y-117901000D01*
X165349000Y-115099000D01*
X168401000Y-115099000D01*
X168401000Y-117901000D01*
G37*
G36*
X62484796Y-115607244D02*
G01*
X61882796Y-115607244D01*
X61882796Y-114605244D01*
X62484796Y-114605244D01*
X62484796Y-115607244D01*
G37*
G36*
X234984796Y-115607244D02*
G01*
X234382796Y-115607244D01*
X234382796Y-114605244D01*
X234984796Y-114605244D01*
X234984796Y-115607244D01*
G37*
G36*
X60984796Y-115607244D02*
G01*
X60382796Y-115607244D01*
X60382796Y-114605244D01*
X60984796Y-114605244D01*
X60984796Y-115607244D01*
G37*
G36*
X236484796Y-115607244D02*
G01*
X235882796Y-115607244D01*
X235882796Y-114605244D01*
X236484796Y-114605244D01*
X236484796Y-115607244D01*
G37*
G36*
X294484796Y-115607244D02*
G01*
X293882796Y-115607244D01*
X293882796Y-114605244D01*
X294484796Y-114605244D01*
X294484796Y-115607244D01*
G37*
G36*
X118984796Y-115607244D02*
G01*
X118382796Y-115607244D01*
X118382796Y-114605244D01*
X118984796Y-114605244D01*
X118984796Y-115607244D01*
G37*
G36*
X120484796Y-115607244D02*
G01*
X119882796Y-115607244D01*
X119882796Y-114605244D01*
X120484796Y-114605244D01*
X120484796Y-115607244D01*
G37*
G36*
X292984796Y-115607244D02*
G01*
X292382796Y-115607244D01*
X292382796Y-114605244D01*
X292984796Y-114605244D01*
X292984796Y-115607244D01*
G37*
G36*
X176984796Y-115607244D02*
G01*
X176382796Y-115607244D01*
X176382796Y-114605244D01*
X176984796Y-114605244D01*
X176984796Y-115607244D01*
G37*
G36*
X178484796Y-115607244D02*
G01*
X177882796Y-115607244D01*
X177882796Y-114605244D01*
X178484796Y-114605244D01*
X178484796Y-115607244D01*
G37*
G36*
X65701000Y-115426000D02*
G01*
X64799000Y-115426000D01*
X64799000Y-114574000D01*
X65701000Y-114574000D01*
X65701000Y-115426000D01*
G37*
G36*
X297701000Y-115426000D02*
G01*
X296799000Y-115426000D01*
X296799000Y-114574000D01*
X297701000Y-114574000D01*
X297701000Y-115426000D01*
G37*
G36*
X180201000Y-115426000D02*
G01*
X179299000Y-115426000D01*
X179299000Y-114574000D01*
X180201000Y-114574000D01*
X180201000Y-115426000D01*
G37*
G36*
X123701000Y-115426000D02*
G01*
X122799000Y-115426000D01*
X122799000Y-114574000D01*
X123701000Y-114574000D01*
X123701000Y-115426000D01*
G37*
G36*
X122201000Y-115426000D02*
G01*
X121299000Y-115426000D01*
X121299000Y-114574000D01*
X122201000Y-114574000D01*
X122201000Y-115426000D01*
G37*
G36*
X181701000Y-115426000D02*
G01*
X180799000Y-115426000D01*
X180799000Y-114574000D01*
X181701000Y-114574000D01*
X181701000Y-115426000D01*
G37*
G36*
X296201000Y-115426000D02*
G01*
X295299000Y-115426000D01*
X295299000Y-114574000D01*
X296201000Y-114574000D01*
X296201000Y-115426000D01*
G37*
G36*
X64201000Y-115426000D02*
G01*
X63299000Y-115426000D01*
X63299000Y-114574000D01*
X64201000Y-114574000D01*
X64201000Y-115426000D01*
G37*
G36*
X238201000Y-115426000D02*
G01*
X237299000Y-115426000D01*
X237299000Y-114574000D01*
X238201000Y-114574000D01*
X238201000Y-115426000D01*
G37*
G36*
X239701000Y-115426000D02*
G01*
X238799000Y-115426000D01*
X238799000Y-114574000D01*
X239701000Y-114574000D01*
X239701000Y-115426000D01*
G37*
G36*
X118984796Y-114107244D02*
G01*
X118382796Y-114107244D01*
X118382796Y-113105244D01*
X118984796Y-113105244D01*
X118984796Y-114107244D01*
G37*
G36*
X62484796Y-114107244D02*
G01*
X61882796Y-114107244D01*
X61882796Y-113105244D01*
X62484796Y-113105244D01*
X62484796Y-114107244D01*
G37*
G36*
X60984796Y-114107244D02*
G01*
X60382796Y-114107244D01*
X60382796Y-113105244D01*
X60984796Y-113105244D01*
X60984796Y-114107244D01*
G37*
G36*
X120484796Y-114107244D02*
G01*
X119882796Y-114107244D01*
X119882796Y-113105244D01*
X120484796Y-113105244D01*
X120484796Y-114107244D01*
G37*
G36*
X178484796Y-114107244D02*
G01*
X177882796Y-114107244D01*
X177882796Y-113105244D01*
X178484796Y-113105244D01*
X178484796Y-114107244D01*
G37*
G36*
X176984796Y-114107244D02*
G01*
X176382796Y-114107244D01*
X176382796Y-113105244D01*
X176984796Y-113105244D01*
X176984796Y-114107244D01*
G37*
G36*
X234984796Y-114107244D02*
G01*
X234382796Y-114107244D01*
X234382796Y-113105244D01*
X234984796Y-113105244D01*
X234984796Y-114107244D01*
G37*
G36*
X292984796Y-114107244D02*
G01*
X292382796Y-114107244D01*
X292382796Y-113105244D01*
X292984796Y-113105244D01*
X292984796Y-114107244D01*
G37*
G36*
X294484796Y-114107244D02*
G01*
X293882796Y-114107244D01*
X293882796Y-113105244D01*
X294484796Y-113105244D01*
X294484796Y-114107244D01*
G37*
G36*
X236484796Y-114107244D02*
G01*
X235882796Y-114107244D01*
X235882796Y-113105244D01*
X236484796Y-113105244D01*
X236484796Y-114107244D01*
G37*
G36*
X68209796Y-110507244D02*
G01*
X65157796Y-110507244D01*
X65157796Y-107705244D01*
X68209796Y-107705244D01*
X68209796Y-110507244D01*
G37*
G36*
X126209796Y-110507244D02*
G01*
X123157796Y-110507244D01*
X123157796Y-107705244D01*
X126209796Y-107705244D01*
X126209796Y-110507244D01*
G37*
G36*
X119459796Y-110507244D02*
G01*
X116407796Y-110507244D01*
X116407796Y-107705244D01*
X119459796Y-107705244D01*
X119459796Y-110507244D01*
G37*
G36*
X61459796Y-110507244D02*
G01*
X58407796Y-110507244D01*
X58407796Y-107705244D01*
X61459796Y-107705244D01*
X61459796Y-110507244D01*
G37*
G36*
X184209796Y-110507244D02*
G01*
X181157796Y-110507244D01*
X181157796Y-107705244D01*
X184209796Y-107705244D01*
X184209796Y-110507244D01*
G37*
G36*
X242209796Y-110507244D02*
G01*
X239157796Y-110507244D01*
X239157796Y-107705244D01*
X242209796Y-107705244D01*
X242209796Y-110507244D01*
G37*
G36*
X235459796Y-110507244D02*
G01*
X232407796Y-110507244D01*
X232407796Y-107705244D01*
X235459796Y-107705244D01*
X235459796Y-110507244D01*
G37*
G36*
X293459796Y-110507244D02*
G01*
X290407796Y-110507244D01*
X290407796Y-107705244D01*
X293459796Y-107705244D01*
X293459796Y-110507244D01*
G37*
G36*
X300209796Y-110507244D02*
G01*
X297157796Y-110507244D01*
X297157796Y-107705244D01*
X300209796Y-107705244D01*
X300209796Y-110507244D01*
G37*
G36*
X177459796Y-110507244D02*
G01*
X174407796Y-110507244D01*
X174407796Y-107705244D01*
X177459796Y-107705244D01*
X177459796Y-110507244D01*
G37*
G36*
X108476000Y-106976000D02*
G01*
X107524000Y-106976000D01*
X107524000Y-106024000D01*
X108476000Y-106024000D01*
X108476000Y-106976000D01*
G37*
G36*
X282476000Y-106976000D02*
G01*
X281524000Y-106976000D01*
X281524000Y-106024000D01*
X282476000Y-106024000D01*
X282476000Y-106976000D01*
G37*
G36*
X340476000Y-106976000D02*
G01*
X339524000Y-106976000D01*
X339524000Y-106024000D01*
X340476000Y-106024000D01*
X340476000Y-106976000D01*
G37*
G36*
X166476000Y-106976000D02*
G01*
X165524000Y-106976000D01*
X165524000Y-106024000D01*
X166476000Y-106024000D01*
X166476000Y-106976000D01*
G37*
G36*
X224476000Y-106976000D02*
G01*
X223524000Y-106976000D01*
X223524000Y-106024000D01*
X224476000Y-106024000D01*
X224476000Y-106976000D01*
G37*
G36*
X108476000Y-104476000D02*
G01*
X107524000Y-104476000D01*
X107524000Y-103524000D01*
X108476000Y-103524000D01*
X108476000Y-104476000D01*
G37*
G36*
X224476000Y-104476000D02*
G01*
X223524000Y-104476000D01*
X223524000Y-103524000D01*
X224476000Y-103524000D01*
X224476000Y-104476000D01*
G37*
G36*
X166476000Y-104476000D02*
G01*
X165524000Y-104476000D01*
X165524000Y-103524000D01*
X166476000Y-103524000D01*
X166476000Y-104476000D01*
G37*
G36*
X340476000Y-104476000D02*
G01*
X339524000Y-104476000D01*
X339524000Y-103524000D01*
X340476000Y-103524000D01*
X340476000Y-104476000D01*
G37*
G36*
X282476000Y-104476000D02*
G01*
X281524000Y-104476000D01*
X281524000Y-103524000D01*
X282476000Y-103524000D01*
X282476000Y-104476000D01*
G37*
G36*
X78102383Y-75662489D02*
G01*
X78102386Y-75662490D01*
X78102385Y-75662490D01*
X78166258Y-75688946D01*
X78223748Y-75727360D01*
X78272640Y-75776252D01*
X78311054Y-75833742D01*
X78332624Y-75885818D01*
X78337511Y-75897617D01*
X78351000Y-75965430D01*
X78351000Y-76034570D01*
X78337511Y-76102383D01*
X78337510Y-76102385D01*
X78311054Y-76166258D01*
X78272640Y-76223748D01*
X78223748Y-76272640D01*
X78166258Y-76311054D01*
X78114182Y-76332624D01*
X78102383Y-76337511D01*
X78034570Y-76351000D01*
X77965430Y-76351000D01*
X77897617Y-76337511D01*
X77885818Y-76332624D01*
X77833742Y-76311054D01*
X77776252Y-76272640D01*
X77727360Y-76223748D01*
X77688946Y-76166258D01*
X77662490Y-76102385D01*
X77662489Y-76102383D01*
X77649000Y-76034570D01*
X77649000Y-75965430D01*
X77662489Y-75897617D01*
X77667376Y-75885818D01*
X77688946Y-75833742D01*
X77727360Y-75776252D01*
X77776252Y-75727360D01*
X77833742Y-75688946D01*
X77897615Y-75662490D01*
X77897614Y-75662490D01*
X77897617Y-75662489D01*
X77965430Y-75649000D01*
X78034570Y-75649000D01*
X78102383Y-75662489D01*
G37*
G36*
X134102383Y-75662489D02*
G01*
X134102386Y-75662490D01*
X134102385Y-75662490D01*
X134166258Y-75688946D01*
X134223748Y-75727360D01*
X134272640Y-75776252D01*
X134311054Y-75833742D01*
X134332624Y-75885818D01*
X134337511Y-75897617D01*
X134351000Y-75965430D01*
X134351000Y-76034570D01*
X134337511Y-76102383D01*
X134337510Y-76102385D01*
X134311054Y-76166258D01*
X134272640Y-76223748D01*
X134223748Y-76272640D01*
X134166258Y-76311054D01*
X134114182Y-76332624D01*
X134102383Y-76337511D01*
X134034570Y-76351000D01*
X133965430Y-76351000D01*
X133897617Y-76337511D01*
X133885818Y-76332624D01*
X133833742Y-76311054D01*
X133776252Y-76272640D01*
X133727360Y-76223748D01*
X133688946Y-76166258D01*
X133662490Y-76102385D01*
X133662489Y-76102383D01*
X133649000Y-76034570D01*
X133649000Y-75965430D01*
X133662489Y-75897617D01*
X133667376Y-75885818D01*
X133688946Y-75833742D01*
X133727360Y-75776252D01*
X133776252Y-75727360D01*
X133833742Y-75688946D01*
X133897615Y-75662490D01*
X133897614Y-75662490D01*
X133897617Y-75662489D01*
X133965430Y-75649000D01*
X134034570Y-75649000D01*
X134102383Y-75662489D01*
G37*
G36*
X77102383Y-75662489D02*
G01*
X77102386Y-75662490D01*
X77102385Y-75662490D01*
X77166258Y-75688946D01*
X77223748Y-75727360D01*
X77272640Y-75776252D01*
X77311054Y-75833742D01*
X77332624Y-75885818D01*
X77337511Y-75897617D01*
X77351000Y-75965430D01*
X77351000Y-76034570D01*
X77337511Y-76102383D01*
X77337510Y-76102385D01*
X77311054Y-76166258D01*
X77272640Y-76223748D01*
X77223748Y-76272640D01*
X77166258Y-76311054D01*
X77114182Y-76332624D01*
X77102383Y-76337511D01*
X77034570Y-76351000D01*
X76965430Y-76351000D01*
X76897617Y-76337511D01*
X76885818Y-76332624D01*
X76833742Y-76311054D01*
X76776252Y-76272640D01*
X76727360Y-76223748D01*
X76688946Y-76166258D01*
X76662490Y-76102385D01*
X76662489Y-76102383D01*
X76649000Y-76034570D01*
X76649000Y-75965430D01*
X76662489Y-75897617D01*
X76667376Y-75885818D01*
X76688946Y-75833742D01*
X76727360Y-75776252D01*
X76776252Y-75727360D01*
X76833742Y-75688946D01*
X76897615Y-75662490D01*
X76897614Y-75662490D01*
X76897617Y-75662489D01*
X76965430Y-75649000D01*
X77034570Y-75649000D01*
X77102383Y-75662489D01*
G37*
G36*
X76102383Y-75662489D02*
G01*
X76102386Y-75662490D01*
X76102385Y-75662490D01*
X76166258Y-75688946D01*
X76223748Y-75727360D01*
X76272640Y-75776252D01*
X76311054Y-75833742D01*
X76332624Y-75885818D01*
X76337511Y-75897617D01*
X76351000Y-75965430D01*
X76351000Y-76034570D01*
X76337511Y-76102383D01*
X76337510Y-76102385D01*
X76311054Y-76166258D01*
X76272640Y-76223748D01*
X76223748Y-76272640D01*
X76166258Y-76311054D01*
X76114182Y-76332624D01*
X76102383Y-76337511D01*
X76034570Y-76351000D01*
X75965430Y-76351000D01*
X75897617Y-76337511D01*
X75885818Y-76332624D01*
X75833742Y-76311054D01*
X75776252Y-76272640D01*
X75727360Y-76223748D01*
X75688946Y-76166258D01*
X75662490Y-76102385D01*
X75662489Y-76102383D01*
X75649000Y-76034570D01*
X75649000Y-75965430D01*
X75662489Y-75897617D01*
X75667376Y-75885818D01*
X75688946Y-75833742D01*
X75727360Y-75776252D01*
X75776252Y-75727360D01*
X75833742Y-75688946D01*
X75897615Y-75662490D01*
X75897614Y-75662490D01*
X75897617Y-75662489D01*
X75965430Y-75649000D01*
X76034570Y-75649000D01*
X76102383Y-75662489D01*
G37*
G36*
X310102383Y-75662489D02*
G01*
X310102386Y-75662490D01*
X310102385Y-75662490D01*
X310166258Y-75688946D01*
X310223748Y-75727360D01*
X310272640Y-75776252D01*
X310311054Y-75833742D01*
X310332624Y-75885818D01*
X310337511Y-75897617D01*
X310351000Y-75965430D01*
X310351000Y-76034570D01*
X310337511Y-76102383D01*
X310337510Y-76102385D01*
X310311054Y-76166258D01*
X310272640Y-76223748D01*
X310223748Y-76272640D01*
X310166258Y-76311054D01*
X310114182Y-76332624D01*
X310102383Y-76337511D01*
X310034570Y-76351000D01*
X309965430Y-76351000D01*
X309897617Y-76337511D01*
X309885818Y-76332624D01*
X309833742Y-76311054D01*
X309776252Y-76272640D01*
X309727360Y-76223748D01*
X309688946Y-76166258D01*
X309662490Y-76102385D01*
X309662489Y-76102383D01*
X309649000Y-76034570D01*
X309649000Y-75965430D01*
X309662489Y-75897617D01*
X309667376Y-75885818D01*
X309688946Y-75833742D01*
X309727360Y-75776252D01*
X309776252Y-75727360D01*
X309833742Y-75688946D01*
X309897615Y-75662490D01*
X309897614Y-75662490D01*
X309897617Y-75662489D01*
X309965430Y-75649000D01*
X310034570Y-75649000D01*
X310102383Y-75662489D01*
G37*
G36*
X308102383Y-75662489D02*
G01*
X308102386Y-75662490D01*
X308102385Y-75662490D01*
X308166258Y-75688946D01*
X308223748Y-75727360D01*
X308272640Y-75776252D01*
X308311054Y-75833742D01*
X308332624Y-75885818D01*
X308337511Y-75897617D01*
X308351000Y-75965430D01*
X308351000Y-76034570D01*
X308337511Y-76102383D01*
X308337510Y-76102385D01*
X308311054Y-76166258D01*
X308272640Y-76223748D01*
X308223748Y-76272640D01*
X308166258Y-76311054D01*
X308114182Y-76332624D01*
X308102383Y-76337511D01*
X308034570Y-76351000D01*
X307965430Y-76351000D01*
X307897617Y-76337511D01*
X307885818Y-76332624D01*
X307833742Y-76311054D01*
X307776252Y-76272640D01*
X307727360Y-76223748D01*
X307688946Y-76166258D01*
X307662490Y-76102385D01*
X307662489Y-76102383D01*
X307649000Y-76034570D01*
X307649000Y-75965430D01*
X307662489Y-75897617D01*
X307667376Y-75885818D01*
X307688946Y-75833742D01*
X307727360Y-75776252D01*
X307776252Y-75727360D01*
X307833742Y-75688946D01*
X307897615Y-75662490D01*
X307897614Y-75662490D01*
X307897617Y-75662489D01*
X307965430Y-75649000D01*
X308034570Y-75649000D01*
X308102383Y-75662489D01*
G37*
G36*
X309102383Y-75662489D02*
G01*
X309102386Y-75662490D01*
X309102385Y-75662490D01*
X309166258Y-75688946D01*
X309223748Y-75727360D01*
X309272640Y-75776252D01*
X309311054Y-75833742D01*
X309332624Y-75885818D01*
X309337511Y-75897617D01*
X309351000Y-75965430D01*
X309351000Y-76034570D01*
X309337511Y-76102383D01*
X309337510Y-76102385D01*
X309311054Y-76166258D01*
X309272640Y-76223748D01*
X309223748Y-76272640D01*
X309166258Y-76311054D01*
X309114182Y-76332624D01*
X309102383Y-76337511D01*
X309034570Y-76351000D01*
X308965430Y-76351000D01*
X308897617Y-76337511D01*
X308885818Y-76332624D01*
X308833742Y-76311054D01*
X308776252Y-76272640D01*
X308727360Y-76223748D01*
X308688946Y-76166258D01*
X308662490Y-76102385D01*
X308662489Y-76102383D01*
X308649000Y-76034570D01*
X308649000Y-75965430D01*
X308662489Y-75897617D01*
X308667376Y-75885818D01*
X308688946Y-75833742D01*
X308727360Y-75776252D01*
X308776252Y-75727360D01*
X308833742Y-75688946D01*
X308897615Y-75662490D01*
X308897614Y-75662490D01*
X308897617Y-75662489D01*
X308965430Y-75649000D01*
X309034570Y-75649000D01*
X309102383Y-75662489D01*
G37*
G36*
X136102383Y-75662489D02*
G01*
X136102386Y-75662490D01*
X136102385Y-75662490D01*
X136166258Y-75688946D01*
X136223748Y-75727360D01*
X136272640Y-75776252D01*
X136311054Y-75833742D01*
X136332624Y-75885818D01*
X136337511Y-75897617D01*
X136351000Y-75965430D01*
X136351000Y-76034570D01*
X136337511Y-76102383D01*
X136337510Y-76102385D01*
X136311054Y-76166258D01*
X136272640Y-76223748D01*
X136223748Y-76272640D01*
X136166258Y-76311054D01*
X136114182Y-76332624D01*
X136102383Y-76337511D01*
X136034570Y-76351000D01*
X135965430Y-76351000D01*
X135897617Y-76337511D01*
X135885818Y-76332624D01*
X135833742Y-76311054D01*
X135776252Y-76272640D01*
X135727360Y-76223748D01*
X135688946Y-76166258D01*
X135662490Y-76102385D01*
X135662489Y-76102383D01*
X135649000Y-76034570D01*
X135649000Y-75965430D01*
X135662489Y-75897617D01*
X135667376Y-75885818D01*
X135688946Y-75833742D01*
X135727360Y-75776252D01*
X135776252Y-75727360D01*
X135833742Y-75688946D01*
X135897615Y-75662490D01*
X135897614Y-75662490D01*
X135897617Y-75662489D01*
X135965430Y-75649000D01*
X136034570Y-75649000D01*
X136102383Y-75662489D01*
G37*
G36*
X193102383Y-75662489D02*
G01*
X193102386Y-75662490D01*
X193102385Y-75662490D01*
X193166258Y-75688946D01*
X193223748Y-75727360D01*
X193272640Y-75776252D01*
X193311054Y-75833742D01*
X193332624Y-75885818D01*
X193337511Y-75897617D01*
X193351000Y-75965430D01*
X193351000Y-76034570D01*
X193337511Y-76102383D01*
X193337510Y-76102385D01*
X193311054Y-76166258D01*
X193272640Y-76223748D01*
X193223748Y-76272640D01*
X193166258Y-76311054D01*
X193114182Y-76332624D01*
X193102383Y-76337511D01*
X193034570Y-76351000D01*
X192965430Y-76351000D01*
X192897617Y-76337511D01*
X192885818Y-76332624D01*
X192833742Y-76311054D01*
X192776252Y-76272640D01*
X192727360Y-76223748D01*
X192688946Y-76166258D01*
X192662490Y-76102385D01*
X192662489Y-76102383D01*
X192649000Y-76034570D01*
X192649000Y-75965430D01*
X192662489Y-75897617D01*
X192667376Y-75885818D01*
X192688946Y-75833742D01*
X192727360Y-75776252D01*
X192776252Y-75727360D01*
X192833742Y-75688946D01*
X192897615Y-75662490D01*
X192897614Y-75662490D01*
X192897617Y-75662489D01*
X192965430Y-75649000D01*
X193034570Y-75649000D01*
X193102383Y-75662489D01*
G37*
G36*
X252102383Y-75662489D02*
G01*
X252102386Y-75662490D01*
X252102385Y-75662490D01*
X252166258Y-75688946D01*
X252223748Y-75727360D01*
X252272640Y-75776252D01*
X252311054Y-75833742D01*
X252332624Y-75885818D01*
X252337511Y-75897617D01*
X252351000Y-75965430D01*
X252351000Y-76034570D01*
X252337511Y-76102383D01*
X252337510Y-76102385D01*
X252311054Y-76166258D01*
X252272640Y-76223748D01*
X252223748Y-76272640D01*
X252166258Y-76311054D01*
X252114182Y-76332624D01*
X252102383Y-76337511D01*
X252034570Y-76351000D01*
X251965430Y-76351000D01*
X251897617Y-76337511D01*
X251885818Y-76332624D01*
X251833742Y-76311054D01*
X251776252Y-76272640D01*
X251727360Y-76223748D01*
X251688946Y-76166258D01*
X251662490Y-76102385D01*
X251662489Y-76102383D01*
X251649000Y-76034570D01*
X251649000Y-75965430D01*
X251662489Y-75897617D01*
X251667376Y-75885818D01*
X251688946Y-75833742D01*
X251727360Y-75776252D01*
X251776252Y-75727360D01*
X251833742Y-75688946D01*
X251897615Y-75662490D01*
X251897614Y-75662490D01*
X251897617Y-75662489D01*
X251965430Y-75649000D01*
X252034570Y-75649000D01*
X252102383Y-75662489D01*
G37*
G36*
X251102383Y-75662489D02*
G01*
X251102386Y-75662490D01*
X251102385Y-75662490D01*
X251166258Y-75688946D01*
X251223748Y-75727360D01*
X251272640Y-75776252D01*
X251311054Y-75833742D01*
X251332624Y-75885818D01*
X251337511Y-75897617D01*
X251351000Y-75965430D01*
X251351000Y-76034570D01*
X251337511Y-76102383D01*
X251337510Y-76102385D01*
X251311054Y-76166258D01*
X251272640Y-76223748D01*
X251223748Y-76272640D01*
X251166258Y-76311054D01*
X251114182Y-76332624D01*
X251102383Y-76337511D01*
X251034570Y-76351000D01*
X250965430Y-76351000D01*
X250897617Y-76337511D01*
X250885818Y-76332624D01*
X250833742Y-76311054D01*
X250776252Y-76272640D01*
X250727360Y-76223748D01*
X250688946Y-76166258D01*
X250662490Y-76102385D01*
X250662489Y-76102383D01*
X250649000Y-76034570D01*
X250649000Y-75965430D01*
X250662489Y-75897617D01*
X250667376Y-75885818D01*
X250688946Y-75833742D01*
X250727360Y-75776252D01*
X250776252Y-75727360D01*
X250833742Y-75688946D01*
X250897615Y-75662490D01*
X250897614Y-75662490D01*
X250897617Y-75662489D01*
X250965430Y-75649000D01*
X251034570Y-75649000D01*
X251102383Y-75662489D01*
G37*
G36*
X250102383Y-75662489D02*
G01*
X250102386Y-75662490D01*
X250102385Y-75662490D01*
X250166258Y-75688946D01*
X250223748Y-75727360D01*
X250272640Y-75776252D01*
X250311054Y-75833742D01*
X250332624Y-75885818D01*
X250337511Y-75897617D01*
X250351000Y-75965430D01*
X250351000Y-76034570D01*
X250337511Y-76102383D01*
X250337510Y-76102385D01*
X250311054Y-76166258D01*
X250272640Y-76223748D01*
X250223748Y-76272640D01*
X250166258Y-76311054D01*
X250114182Y-76332624D01*
X250102383Y-76337511D01*
X250034570Y-76351000D01*
X249965430Y-76351000D01*
X249897617Y-76337511D01*
X249885818Y-76332624D01*
X249833742Y-76311054D01*
X249776252Y-76272640D01*
X249727360Y-76223748D01*
X249688946Y-76166258D01*
X249662490Y-76102385D01*
X249662489Y-76102383D01*
X249649000Y-76034570D01*
X249649000Y-75965430D01*
X249662489Y-75897617D01*
X249667376Y-75885818D01*
X249688946Y-75833742D01*
X249727360Y-75776252D01*
X249776252Y-75727360D01*
X249833742Y-75688946D01*
X249897615Y-75662490D01*
X249897614Y-75662490D01*
X249897617Y-75662489D01*
X249965430Y-75649000D01*
X250034570Y-75649000D01*
X250102383Y-75662489D01*
G37*
G36*
X192102383Y-75662489D02*
G01*
X192102386Y-75662490D01*
X192102385Y-75662490D01*
X192166258Y-75688946D01*
X192223748Y-75727360D01*
X192272640Y-75776252D01*
X192311054Y-75833742D01*
X192332624Y-75885818D01*
X192337511Y-75897617D01*
X192351000Y-75965430D01*
X192351000Y-76034570D01*
X192337511Y-76102383D01*
X192337510Y-76102385D01*
X192311054Y-76166258D01*
X192272640Y-76223748D01*
X192223748Y-76272640D01*
X192166258Y-76311054D01*
X192114182Y-76332624D01*
X192102383Y-76337511D01*
X192034570Y-76351000D01*
X191965430Y-76351000D01*
X191897617Y-76337511D01*
X191885818Y-76332624D01*
X191833742Y-76311054D01*
X191776252Y-76272640D01*
X191727360Y-76223748D01*
X191688946Y-76166258D01*
X191662490Y-76102385D01*
X191662489Y-76102383D01*
X191649000Y-76034570D01*
X191649000Y-75965430D01*
X191662489Y-75897617D01*
X191667376Y-75885818D01*
X191688946Y-75833742D01*
X191727360Y-75776252D01*
X191776252Y-75727360D01*
X191833742Y-75688946D01*
X191897615Y-75662490D01*
X191897614Y-75662490D01*
X191897617Y-75662489D01*
X191965430Y-75649000D01*
X192034570Y-75649000D01*
X192102383Y-75662489D01*
G37*
G36*
X194102383Y-75662489D02*
G01*
X194102386Y-75662490D01*
X194102385Y-75662490D01*
X194166258Y-75688946D01*
X194223748Y-75727360D01*
X194272640Y-75776252D01*
X194311054Y-75833742D01*
X194332624Y-75885818D01*
X194337511Y-75897617D01*
X194351000Y-75965430D01*
X194351000Y-76034570D01*
X194337511Y-76102383D01*
X194337510Y-76102385D01*
X194311054Y-76166258D01*
X194272640Y-76223748D01*
X194223748Y-76272640D01*
X194166258Y-76311054D01*
X194114182Y-76332624D01*
X194102383Y-76337511D01*
X194034570Y-76351000D01*
X193965430Y-76351000D01*
X193897617Y-76337511D01*
X193885818Y-76332624D01*
X193833742Y-76311054D01*
X193776252Y-76272640D01*
X193727360Y-76223748D01*
X193688946Y-76166258D01*
X193662490Y-76102385D01*
X193662489Y-76102383D01*
X193649000Y-76034570D01*
X193649000Y-75965430D01*
X193662489Y-75897617D01*
X193667376Y-75885818D01*
X193688946Y-75833742D01*
X193727360Y-75776252D01*
X193776252Y-75727360D01*
X193833742Y-75688946D01*
X193897615Y-75662490D01*
X193897614Y-75662490D01*
X193897617Y-75662489D01*
X193965430Y-75649000D01*
X194034570Y-75649000D01*
X194102383Y-75662489D01*
G37*
G36*
X135102383Y-75662489D02*
G01*
X135102386Y-75662490D01*
X135102385Y-75662490D01*
X135166258Y-75688946D01*
X135223748Y-75727360D01*
X135272640Y-75776252D01*
X135311054Y-75833742D01*
X135332624Y-75885818D01*
X135337511Y-75897617D01*
X135351000Y-75965430D01*
X135351000Y-76034570D01*
X135337511Y-76102383D01*
X135337510Y-76102385D01*
X135311054Y-76166258D01*
X135272640Y-76223748D01*
X135223748Y-76272640D01*
X135166258Y-76311054D01*
X135114182Y-76332624D01*
X135102383Y-76337511D01*
X135034570Y-76351000D01*
X134965430Y-76351000D01*
X134897617Y-76337511D01*
X134885818Y-76332624D01*
X134833742Y-76311054D01*
X134776252Y-76272640D01*
X134727360Y-76223748D01*
X134688946Y-76166258D01*
X134662490Y-76102385D01*
X134662489Y-76102383D01*
X134649000Y-76034570D01*
X134649000Y-75965430D01*
X134662489Y-75897617D01*
X134667376Y-75885818D01*
X134688946Y-75833742D01*
X134727360Y-75776252D01*
X134776252Y-75727360D01*
X134833742Y-75688946D01*
X134897615Y-75662490D01*
X134897614Y-75662490D01*
X134897617Y-75662489D01*
X134965430Y-75649000D01*
X135034570Y-75649000D01*
X135102383Y-75662489D01*
G37*
G36*
X135102383Y-74662489D02*
G01*
X135102386Y-74662490D01*
X135102385Y-74662490D01*
X135166258Y-74688946D01*
X135223748Y-74727360D01*
X135272640Y-74776252D01*
X135311054Y-74833742D01*
X135332624Y-74885818D01*
X135337511Y-74897617D01*
X135351000Y-74965430D01*
X135351000Y-75034570D01*
X135337511Y-75102383D01*
X135337510Y-75102385D01*
X135311054Y-75166258D01*
X135272640Y-75223748D01*
X135223748Y-75272640D01*
X135166258Y-75311054D01*
X135114182Y-75332624D01*
X135102383Y-75337511D01*
X135034570Y-75351000D01*
X134965430Y-75351000D01*
X134897617Y-75337511D01*
X134885818Y-75332624D01*
X134833742Y-75311054D01*
X134776252Y-75272640D01*
X134727360Y-75223748D01*
X134688946Y-75166258D01*
X134662490Y-75102385D01*
X134662489Y-75102383D01*
X134649000Y-75034570D01*
X134649000Y-74965430D01*
X134662489Y-74897617D01*
X134667376Y-74885818D01*
X134688946Y-74833742D01*
X134727360Y-74776252D01*
X134776252Y-74727360D01*
X134833742Y-74688946D01*
X134897615Y-74662490D01*
X134897614Y-74662490D01*
X134897617Y-74662489D01*
X134965430Y-74649000D01*
X135034570Y-74649000D01*
X135102383Y-74662489D01*
G37*
G36*
X134102383Y-74662489D02*
G01*
X134102386Y-74662490D01*
X134102385Y-74662490D01*
X134166258Y-74688946D01*
X134223748Y-74727360D01*
X134272640Y-74776252D01*
X134311054Y-74833742D01*
X134332624Y-74885818D01*
X134337511Y-74897617D01*
X134351000Y-74965430D01*
X134351000Y-75034570D01*
X134337511Y-75102383D01*
X134337510Y-75102385D01*
X134311054Y-75166258D01*
X134272640Y-75223748D01*
X134223748Y-75272640D01*
X134166258Y-75311054D01*
X134114182Y-75332624D01*
X134102383Y-75337511D01*
X134034570Y-75351000D01*
X133965430Y-75351000D01*
X133897617Y-75337511D01*
X133885818Y-75332624D01*
X133833742Y-75311054D01*
X133776252Y-75272640D01*
X133727360Y-75223748D01*
X133688946Y-75166258D01*
X133662490Y-75102385D01*
X133662489Y-75102383D01*
X133649000Y-75034570D01*
X133649000Y-74965430D01*
X133662489Y-74897617D01*
X133667376Y-74885818D01*
X133688946Y-74833742D01*
X133727360Y-74776252D01*
X133776252Y-74727360D01*
X133833742Y-74688946D01*
X133897615Y-74662490D01*
X133897614Y-74662490D01*
X133897617Y-74662489D01*
X133965430Y-74649000D01*
X134034570Y-74649000D01*
X134102383Y-74662489D01*
G37*
G36*
X76102383Y-74662489D02*
G01*
X76102386Y-74662490D01*
X76102385Y-74662490D01*
X76166258Y-74688946D01*
X76223748Y-74727360D01*
X76272640Y-74776252D01*
X76311054Y-74833742D01*
X76332624Y-74885818D01*
X76337511Y-74897617D01*
X76351000Y-74965430D01*
X76351000Y-75034570D01*
X76337511Y-75102383D01*
X76337510Y-75102385D01*
X76311054Y-75166258D01*
X76272640Y-75223748D01*
X76223748Y-75272640D01*
X76166258Y-75311054D01*
X76114182Y-75332624D01*
X76102383Y-75337511D01*
X76034570Y-75351000D01*
X75965430Y-75351000D01*
X75897617Y-75337511D01*
X75885818Y-75332624D01*
X75833742Y-75311054D01*
X75776252Y-75272640D01*
X75727360Y-75223748D01*
X75688946Y-75166258D01*
X75662490Y-75102385D01*
X75662489Y-75102383D01*
X75649000Y-75034570D01*
X75649000Y-74965430D01*
X75662489Y-74897617D01*
X75667376Y-74885818D01*
X75688946Y-74833742D01*
X75727360Y-74776252D01*
X75776252Y-74727360D01*
X75833742Y-74688946D01*
X75897615Y-74662490D01*
X75897614Y-74662490D01*
X75897617Y-74662489D01*
X75965430Y-74649000D01*
X76034570Y-74649000D01*
X76102383Y-74662489D01*
G37*
G36*
X78102383Y-74662489D02*
G01*
X78102386Y-74662490D01*
X78102385Y-74662490D01*
X78166258Y-74688946D01*
X78223748Y-74727360D01*
X78272640Y-74776252D01*
X78311054Y-74833742D01*
X78332624Y-74885818D01*
X78337511Y-74897617D01*
X78351000Y-74965430D01*
X78351000Y-75034570D01*
X78337511Y-75102383D01*
X78337510Y-75102385D01*
X78311054Y-75166258D01*
X78272640Y-75223748D01*
X78223748Y-75272640D01*
X78166258Y-75311054D01*
X78114182Y-75332624D01*
X78102383Y-75337511D01*
X78034570Y-75351000D01*
X77965430Y-75351000D01*
X77897617Y-75337511D01*
X77885818Y-75332624D01*
X77833742Y-75311054D01*
X77776252Y-75272640D01*
X77727360Y-75223748D01*
X77688946Y-75166258D01*
X77662490Y-75102385D01*
X77662489Y-75102383D01*
X77649000Y-75034570D01*
X77649000Y-74965430D01*
X77662489Y-74897617D01*
X77667376Y-74885818D01*
X77688946Y-74833742D01*
X77727360Y-74776252D01*
X77776252Y-74727360D01*
X77833742Y-74688946D01*
X77897615Y-74662490D01*
X77897614Y-74662490D01*
X77897617Y-74662489D01*
X77965430Y-74649000D01*
X78034570Y-74649000D01*
X78102383Y-74662489D01*
G37*
G36*
X250102383Y-74662489D02*
G01*
X250102386Y-74662490D01*
X250102385Y-74662490D01*
X250166258Y-74688946D01*
X250223748Y-74727360D01*
X250272640Y-74776252D01*
X250311054Y-74833742D01*
X250332624Y-74885818D01*
X250337511Y-74897617D01*
X250351000Y-74965430D01*
X250351000Y-75034570D01*
X250337511Y-75102383D01*
X250337510Y-75102385D01*
X250311054Y-75166258D01*
X250272640Y-75223748D01*
X250223748Y-75272640D01*
X250166258Y-75311054D01*
X250114182Y-75332624D01*
X250102383Y-75337511D01*
X250034570Y-75351000D01*
X249965430Y-75351000D01*
X249897617Y-75337511D01*
X249885818Y-75332624D01*
X249833742Y-75311054D01*
X249776252Y-75272640D01*
X249727360Y-75223748D01*
X249688946Y-75166258D01*
X249662490Y-75102385D01*
X249662489Y-75102383D01*
X249649000Y-75034570D01*
X249649000Y-74965430D01*
X249662489Y-74897617D01*
X249667376Y-74885818D01*
X249688946Y-74833742D01*
X249727360Y-74776252D01*
X249776252Y-74727360D01*
X249833742Y-74688946D01*
X249897615Y-74662490D01*
X249897614Y-74662490D01*
X249897617Y-74662489D01*
X249965430Y-74649000D01*
X250034570Y-74649000D01*
X250102383Y-74662489D01*
G37*
G36*
X251102383Y-74662489D02*
G01*
X251102386Y-74662490D01*
X251102385Y-74662490D01*
X251166258Y-74688946D01*
X251223748Y-74727360D01*
X251272640Y-74776252D01*
X251311054Y-74833742D01*
X251332624Y-74885818D01*
X251337511Y-74897617D01*
X251351000Y-74965430D01*
X251351000Y-75034570D01*
X251337511Y-75102383D01*
X251337510Y-75102385D01*
X251311054Y-75166258D01*
X251272640Y-75223748D01*
X251223748Y-75272640D01*
X251166258Y-75311054D01*
X251114182Y-75332624D01*
X251102383Y-75337511D01*
X251034570Y-75351000D01*
X250965430Y-75351000D01*
X250897617Y-75337511D01*
X250885818Y-75332624D01*
X250833742Y-75311054D01*
X250776252Y-75272640D01*
X250727360Y-75223748D01*
X250688946Y-75166258D01*
X250662490Y-75102385D01*
X250662489Y-75102383D01*
X250649000Y-75034570D01*
X250649000Y-74965430D01*
X250662489Y-74897617D01*
X250667376Y-74885818D01*
X250688946Y-74833742D01*
X250727360Y-74776252D01*
X250776252Y-74727360D01*
X250833742Y-74688946D01*
X250897615Y-74662490D01*
X250897614Y-74662490D01*
X250897617Y-74662489D01*
X250965430Y-74649000D01*
X251034570Y-74649000D01*
X251102383Y-74662489D01*
G37*
G36*
X77102383Y-74662489D02*
G01*
X77102386Y-74662490D01*
X77102385Y-74662490D01*
X77166258Y-74688946D01*
X77223748Y-74727360D01*
X77272640Y-74776252D01*
X77311054Y-74833742D01*
X77332624Y-74885818D01*
X77337511Y-74897617D01*
X77351000Y-74965430D01*
X77351000Y-75034570D01*
X77337511Y-75102383D01*
X77337510Y-75102385D01*
X77311054Y-75166258D01*
X77272640Y-75223748D01*
X77223748Y-75272640D01*
X77166258Y-75311054D01*
X77114182Y-75332624D01*
X77102383Y-75337511D01*
X77034570Y-75351000D01*
X76965430Y-75351000D01*
X76897617Y-75337511D01*
X76885818Y-75332624D01*
X76833742Y-75311054D01*
X76776252Y-75272640D01*
X76727360Y-75223748D01*
X76688946Y-75166258D01*
X76662490Y-75102385D01*
X76662489Y-75102383D01*
X76649000Y-75034570D01*
X76649000Y-74965430D01*
X76662489Y-74897617D01*
X76667376Y-74885818D01*
X76688946Y-74833742D01*
X76727360Y-74776252D01*
X76776252Y-74727360D01*
X76833742Y-74688946D01*
X76897615Y-74662490D01*
X76897614Y-74662490D01*
X76897617Y-74662489D01*
X76965430Y-74649000D01*
X77034570Y-74649000D01*
X77102383Y-74662489D01*
G37*
G36*
X192102383Y-74662489D02*
G01*
X192102386Y-74662490D01*
X192102385Y-74662490D01*
X192166258Y-74688946D01*
X192223748Y-74727360D01*
X192272640Y-74776252D01*
X192311054Y-74833742D01*
X192332624Y-74885818D01*
X192337511Y-74897617D01*
X192351000Y-74965430D01*
X192351000Y-75034570D01*
X192337511Y-75102383D01*
X192337510Y-75102385D01*
X192311054Y-75166258D01*
X192272640Y-75223748D01*
X192223748Y-75272640D01*
X192166258Y-75311054D01*
X192114182Y-75332624D01*
X192102383Y-75337511D01*
X192034570Y-75351000D01*
X191965430Y-75351000D01*
X191897617Y-75337511D01*
X191885818Y-75332624D01*
X191833742Y-75311054D01*
X191776252Y-75272640D01*
X191727360Y-75223748D01*
X191688946Y-75166258D01*
X191662490Y-75102385D01*
X191662489Y-75102383D01*
X191649000Y-75034570D01*
X191649000Y-74965430D01*
X191662489Y-74897617D01*
X191667376Y-74885818D01*
X191688946Y-74833742D01*
X191727360Y-74776252D01*
X191776252Y-74727360D01*
X191833742Y-74688946D01*
X191897615Y-74662490D01*
X191897614Y-74662490D01*
X191897617Y-74662489D01*
X191965430Y-74649000D01*
X192034570Y-74649000D01*
X192102383Y-74662489D01*
G37*
G36*
X193102383Y-74662489D02*
G01*
X193102386Y-74662490D01*
X193102385Y-74662490D01*
X193166258Y-74688946D01*
X193223748Y-74727360D01*
X193272640Y-74776252D01*
X193311054Y-74833742D01*
X193332624Y-74885818D01*
X193337511Y-74897617D01*
X193351000Y-74965430D01*
X193351000Y-75034570D01*
X193337511Y-75102383D01*
X193337510Y-75102385D01*
X193311054Y-75166258D01*
X193272640Y-75223748D01*
X193223748Y-75272640D01*
X193166258Y-75311054D01*
X193114182Y-75332624D01*
X193102383Y-75337511D01*
X193034570Y-75351000D01*
X192965430Y-75351000D01*
X192897617Y-75337511D01*
X192885818Y-75332624D01*
X192833742Y-75311054D01*
X192776252Y-75272640D01*
X192727360Y-75223748D01*
X192688946Y-75166258D01*
X192662490Y-75102385D01*
X192662489Y-75102383D01*
X192649000Y-75034570D01*
X192649000Y-74965430D01*
X192662489Y-74897617D01*
X192667376Y-74885818D01*
X192688946Y-74833742D01*
X192727360Y-74776252D01*
X192776252Y-74727360D01*
X192833742Y-74688946D01*
X192897615Y-74662490D01*
X192897614Y-74662490D01*
X192897617Y-74662489D01*
X192965430Y-74649000D01*
X193034570Y-74649000D01*
X193102383Y-74662489D01*
G37*
G36*
X194102383Y-74662489D02*
G01*
X194102386Y-74662490D01*
X194102385Y-74662490D01*
X194166258Y-74688946D01*
X194223748Y-74727360D01*
X194272640Y-74776252D01*
X194311054Y-74833742D01*
X194332624Y-74885818D01*
X194337511Y-74897617D01*
X194351000Y-74965430D01*
X194351000Y-75034570D01*
X194337511Y-75102383D01*
X194337510Y-75102385D01*
X194311054Y-75166258D01*
X194272640Y-75223748D01*
X194223748Y-75272640D01*
X194166258Y-75311054D01*
X194114182Y-75332624D01*
X194102383Y-75337511D01*
X194034570Y-75351000D01*
X193965430Y-75351000D01*
X193897617Y-75337511D01*
X193885818Y-75332624D01*
X193833742Y-75311054D01*
X193776252Y-75272640D01*
X193727360Y-75223748D01*
X193688946Y-75166258D01*
X193662490Y-75102385D01*
X193662489Y-75102383D01*
X193649000Y-75034570D01*
X193649000Y-74965430D01*
X193662489Y-74897617D01*
X193667376Y-74885818D01*
X193688946Y-74833742D01*
X193727360Y-74776252D01*
X193776252Y-74727360D01*
X193833742Y-74688946D01*
X193897615Y-74662490D01*
X193897614Y-74662490D01*
X193897617Y-74662489D01*
X193965430Y-74649000D01*
X194034570Y-74649000D01*
X194102383Y-74662489D01*
G37*
G36*
X136102383Y-74662489D02*
G01*
X136102386Y-74662490D01*
X136102385Y-74662490D01*
X136166258Y-74688946D01*
X136223748Y-74727360D01*
X136272640Y-74776252D01*
X136311054Y-74833742D01*
X136332624Y-74885818D01*
X136337511Y-74897617D01*
X136351000Y-74965430D01*
X136351000Y-75034570D01*
X136337511Y-75102383D01*
X136337510Y-75102385D01*
X136311054Y-75166258D01*
X136272640Y-75223748D01*
X136223748Y-75272640D01*
X136166258Y-75311054D01*
X136114182Y-75332624D01*
X136102383Y-75337511D01*
X136034570Y-75351000D01*
X135965430Y-75351000D01*
X135897617Y-75337511D01*
X135885818Y-75332624D01*
X135833742Y-75311054D01*
X135776252Y-75272640D01*
X135727360Y-75223748D01*
X135688946Y-75166258D01*
X135662490Y-75102385D01*
X135662489Y-75102383D01*
X135649000Y-75034570D01*
X135649000Y-74965430D01*
X135662489Y-74897617D01*
X135667376Y-74885818D01*
X135688946Y-74833742D01*
X135727360Y-74776252D01*
X135776252Y-74727360D01*
X135833742Y-74688946D01*
X135897615Y-74662490D01*
X135897614Y-74662490D01*
X135897617Y-74662489D01*
X135965430Y-74649000D01*
X136034570Y-74649000D01*
X136102383Y-74662489D01*
G37*
G36*
X252102383Y-74662489D02*
G01*
X252102386Y-74662490D01*
X252102385Y-74662490D01*
X252166258Y-74688946D01*
X252223748Y-74727360D01*
X252272640Y-74776252D01*
X252311054Y-74833742D01*
X252332624Y-74885818D01*
X252337511Y-74897617D01*
X252351000Y-74965430D01*
X252351000Y-75034570D01*
X252337511Y-75102383D01*
X252337510Y-75102385D01*
X252311054Y-75166258D01*
X252272640Y-75223748D01*
X252223748Y-75272640D01*
X252166258Y-75311054D01*
X252114182Y-75332624D01*
X252102383Y-75337511D01*
X252034570Y-75351000D01*
X251965430Y-75351000D01*
X251897617Y-75337511D01*
X251885818Y-75332624D01*
X251833742Y-75311054D01*
X251776252Y-75272640D01*
X251727360Y-75223748D01*
X251688946Y-75166258D01*
X251662490Y-75102385D01*
X251662489Y-75102383D01*
X251649000Y-75034570D01*
X251649000Y-74965430D01*
X251662489Y-74897617D01*
X251667376Y-74885818D01*
X251688946Y-74833742D01*
X251727360Y-74776252D01*
X251776252Y-74727360D01*
X251833742Y-74688946D01*
X251897615Y-74662490D01*
X251897614Y-74662490D01*
X251897617Y-74662489D01*
X251965430Y-74649000D01*
X252034570Y-74649000D01*
X252102383Y-74662489D01*
G37*
G36*
X308102383Y-74662489D02*
G01*
X308102386Y-74662490D01*
X308102385Y-74662490D01*
X308166258Y-74688946D01*
X308223748Y-74727360D01*
X308272640Y-74776252D01*
X308311054Y-74833742D01*
X308332624Y-74885818D01*
X308337511Y-74897617D01*
X308351000Y-74965430D01*
X308351000Y-75034570D01*
X308337511Y-75102383D01*
X308337510Y-75102385D01*
X308311054Y-75166258D01*
X308272640Y-75223748D01*
X308223748Y-75272640D01*
X308166258Y-75311054D01*
X308114182Y-75332624D01*
X308102383Y-75337511D01*
X308034570Y-75351000D01*
X307965430Y-75351000D01*
X307897617Y-75337511D01*
X307885818Y-75332624D01*
X307833742Y-75311054D01*
X307776252Y-75272640D01*
X307727360Y-75223748D01*
X307688946Y-75166258D01*
X307662490Y-75102385D01*
X307662489Y-75102383D01*
X307649000Y-75034570D01*
X307649000Y-74965430D01*
X307662489Y-74897617D01*
X307667376Y-74885818D01*
X307688946Y-74833742D01*
X307727360Y-74776252D01*
X307776252Y-74727360D01*
X307833742Y-74688946D01*
X307897615Y-74662490D01*
X307897614Y-74662490D01*
X307897617Y-74662489D01*
X307965430Y-74649000D01*
X308034570Y-74649000D01*
X308102383Y-74662489D01*
G37*
G36*
X309102383Y-74662489D02*
G01*
X309102386Y-74662490D01*
X309102385Y-74662490D01*
X309166258Y-74688946D01*
X309223748Y-74727360D01*
X309272640Y-74776252D01*
X309311054Y-74833742D01*
X309332624Y-74885818D01*
X309337511Y-74897617D01*
X309351000Y-74965430D01*
X309351000Y-75034570D01*
X309337511Y-75102383D01*
X309337510Y-75102385D01*
X309311054Y-75166258D01*
X309272640Y-75223748D01*
X309223748Y-75272640D01*
X309166258Y-75311054D01*
X309114182Y-75332624D01*
X309102383Y-75337511D01*
X309034570Y-75351000D01*
X308965430Y-75351000D01*
X308897617Y-75337511D01*
X308885818Y-75332624D01*
X308833742Y-75311054D01*
X308776252Y-75272640D01*
X308727360Y-75223748D01*
X308688946Y-75166258D01*
X308662490Y-75102385D01*
X308662489Y-75102383D01*
X308649000Y-75034570D01*
X308649000Y-74965430D01*
X308662489Y-74897617D01*
X308667376Y-74885818D01*
X308688946Y-74833742D01*
X308727360Y-74776252D01*
X308776252Y-74727360D01*
X308833742Y-74688946D01*
X308897615Y-74662490D01*
X308897614Y-74662490D01*
X308897617Y-74662489D01*
X308965430Y-74649000D01*
X309034570Y-74649000D01*
X309102383Y-74662489D01*
G37*
G36*
X310102383Y-74662489D02*
G01*
X310102386Y-74662490D01*
X310102385Y-74662490D01*
X310166258Y-74688946D01*
X310223748Y-74727360D01*
X310272640Y-74776252D01*
X310311054Y-74833742D01*
X310332624Y-74885818D01*
X310337511Y-74897617D01*
X310351000Y-74965430D01*
X310351000Y-75034570D01*
X310337511Y-75102383D01*
X310337510Y-75102385D01*
X310311054Y-75166258D01*
X310272640Y-75223748D01*
X310223748Y-75272640D01*
X310166258Y-75311054D01*
X310114182Y-75332624D01*
X310102383Y-75337511D01*
X310034570Y-75351000D01*
X309965430Y-75351000D01*
X309897617Y-75337511D01*
X309885818Y-75332624D01*
X309833742Y-75311054D01*
X309776252Y-75272640D01*
X309727360Y-75223748D01*
X309688946Y-75166258D01*
X309662490Y-75102385D01*
X309662489Y-75102383D01*
X309649000Y-75034570D01*
X309649000Y-74965430D01*
X309662489Y-74897617D01*
X309667376Y-74885818D01*
X309688946Y-74833742D01*
X309727360Y-74776252D01*
X309776252Y-74727360D01*
X309833742Y-74688946D01*
X309897615Y-74662490D01*
X309897614Y-74662490D01*
X309897617Y-74662489D01*
X309965430Y-74649000D01*
X310034570Y-74649000D01*
X310102383Y-74662489D01*
G37*
G36*
X308102383Y-73662489D02*
G01*
X308102386Y-73662490D01*
X308102385Y-73662490D01*
X308166258Y-73688946D01*
X308223748Y-73727360D01*
X308272640Y-73776252D01*
X308311054Y-73833742D01*
X308332624Y-73885818D01*
X308337511Y-73897617D01*
X308351000Y-73965430D01*
X308351000Y-74034570D01*
X308337511Y-74102383D01*
X308337510Y-74102385D01*
X308311054Y-74166258D01*
X308272640Y-74223748D01*
X308223748Y-74272640D01*
X308166258Y-74311054D01*
X308114182Y-74332624D01*
X308102383Y-74337511D01*
X308034570Y-74351000D01*
X307965430Y-74351000D01*
X307897617Y-74337511D01*
X307885818Y-74332624D01*
X307833742Y-74311054D01*
X307776252Y-74272640D01*
X307727360Y-74223748D01*
X307688946Y-74166258D01*
X307662490Y-74102385D01*
X307662489Y-74102383D01*
X307649000Y-74034570D01*
X307649000Y-73965430D01*
X307662489Y-73897617D01*
X307667376Y-73885818D01*
X307688946Y-73833742D01*
X307727360Y-73776252D01*
X307776252Y-73727360D01*
X307833742Y-73688946D01*
X307897615Y-73662490D01*
X307897614Y-73662490D01*
X307897617Y-73662489D01*
X307965430Y-73649000D01*
X308034570Y-73649000D01*
X308102383Y-73662489D01*
G37*
G36*
X309102383Y-73662489D02*
G01*
X309102386Y-73662490D01*
X309102385Y-73662490D01*
X309166258Y-73688946D01*
X309223748Y-73727360D01*
X309272640Y-73776252D01*
X309311054Y-73833742D01*
X309332624Y-73885818D01*
X309337511Y-73897617D01*
X309351000Y-73965430D01*
X309351000Y-74034570D01*
X309337511Y-74102383D01*
X309337510Y-74102385D01*
X309311054Y-74166258D01*
X309272640Y-74223748D01*
X309223748Y-74272640D01*
X309166258Y-74311054D01*
X309114182Y-74332624D01*
X309102383Y-74337511D01*
X309034570Y-74351000D01*
X308965430Y-74351000D01*
X308897617Y-74337511D01*
X308885818Y-74332624D01*
X308833742Y-74311054D01*
X308776252Y-74272640D01*
X308727360Y-74223748D01*
X308688946Y-74166258D01*
X308662490Y-74102385D01*
X308662489Y-74102383D01*
X308649000Y-74034570D01*
X308649000Y-73965430D01*
X308662489Y-73897617D01*
X308667376Y-73885818D01*
X308688946Y-73833742D01*
X308727360Y-73776252D01*
X308776252Y-73727360D01*
X308833742Y-73688946D01*
X308897615Y-73662490D01*
X308897614Y-73662490D01*
X308897617Y-73662489D01*
X308965430Y-73649000D01*
X309034570Y-73649000D01*
X309102383Y-73662489D01*
G37*
G36*
X310102383Y-73662489D02*
G01*
X310102386Y-73662490D01*
X310102385Y-73662490D01*
X310166258Y-73688946D01*
X310223748Y-73727360D01*
X310272640Y-73776252D01*
X310311054Y-73833742D01*
X310332624Y-73885818D01*
X310337511Y-73897617D01*
X310351000Y-73965430D01*
X310351000Y-74034570D01*
X310337511Y-74102383D01*
X310337510Y-74102385D01*
X310311054Y-74166258D01*
X310272640Y-74223748D01*
X310223748Y-74272640D01*
X310166258Y-74311054D01*
X310114182Y-74332624D01*
X310102383Y-74337511D01*
X310034570Y-74351000D01*
X309965430Y-74351000D01*
X309897617Y-74337511D01*
X309885818Y-74332624D01*
X309833742Y-74311054D01*
X309776252Y-74272640D01*
X309727360Y-74223748D01*
X309688946Y-74166258D01*
X309662490Y-74102385D01*
X309662489Y-74102383D01*
X309649000Y-74034570D01*
X309649000Y-73965430D01*
X309662489Y-73897617D01*
X309667376Y-73885818D01*
X309688946Y-73833742D01*
X309727360Y-73776252D01*
X309776252Y-73727360D01*
X309833742Y-73688946D01*
X309897615Y-73662490D01*
X309897614Y-73662490D01*
X309897617Y-73662489D01*
X309965430Y-73649000D01*
X310034570Y-73649000D01*
X310102383Y-73662489D01*
G37*
G36*
X77102383Y-73662489D02*
G01*
X77102386Y-73662490D01*
X77102385Y-73662490D01*
X77166258Y-73688946D01*
X77223748Y-73727360D01*
X77272640Y-73776252D01*
X77311054Y-73833742D01*
X77332624Y-73885818D01*
X77337511Y-73897617D01*
X77351000Y-73965430D01*
X77351000Y-74034570D01*
X77337511Y-74102383D01*
X77337510Y-74102385D01*
X77311054Y-74166258D01*
X77272640Y-74223748D01*
X77223748Y-74272640D01*
X77166258Y-74311054D01*
X77114182Y-74332624D01*
X77102383Y-74337511D01*
X77034570Y-74351000D01*
X76965430Y-74351000D01*
X76897617Y-74337511D01*
X76885818Y-74332624D01*
X76833742Y-74311054D01*
X76776252Y-74272640D01*
X76727360Y-74223748D01*
X76688946Y-74166258D01*
X76662490Y-74102385D01*
X76662489Y-74102383D01*
X76649000Y-74034570D01*
X76649000Y-73965430D01*
X76662489Y-73897617D01*
X76667376Y-73885818D01*
X76688946Y-73833742D01*
X76727360Y-73776252D01*
X76776252Y-73727360D01*
X76833742Y-73688946D01*
X76897615Y-73662490D01*
X76897614Y-73662490D01*
X76897617Y-73662489D01*
X76965430Y-73649000D01*
X77034570Y-73649000D01*
X77102383Y-73662489D01*
G37*
G36*
X78102383Y-73662489D02*
G01*
X78102386Y-73662490D01*
X78102385Y-73662490D01*
X78166258Y-73688946D01*
X78223748Y-73727360D01*
X78272640Y-73776252D01*
X78311054Y-73833742D01*
X78332624Y-73885818D01*
X78337511Y-73897617D01*
X78351000Y-73965430D01*
X78351000Y-74034570D01*
X78337511Y-74102383D01*
X78337510Y-74102385D01*
X78311054Y-74166258D01*
X78272640Y-74223748D01*
X78223748Y-74272640D01*
X78166258Y-74311054D01*
X78114182Y-74332624D01*
X78102383Y-74337511D01*
X78034570Y-74351000D01*
X77965430Y-74351000D01*
X77897617Y-74337511D01*
X77885818Y-74332624D01*
X77833742Y-74311054D01*
X77776252Y-74272640D01*
X77727360Y-74223748D01*
X77688946Y-74166258D01*
X77662490Y-74102385D01*
X77662489Y-74102383D01*
X77649000Y-74034570D01*
X77649000Y-73965430D01*
X77662489Y-73897617D01*
X77667376Y-73885818D01*
X77688946Y-73833742D01*
X77727360Y-73776252D01*
X77776252Y-73727360D01*
X77833742Y-73688946D01*
X77897615Y-73662490D01*
X77897614Y-73662490D01*
X77897617Y-73662489D01*
X77965430Y-73649000D01*
X78034570Y-73649000D01*
X78102383Y-73662489D01*
G37*
G36*
X134102383Y-73662489D02*
G01*
X134102386Y-73662490D01*
X134102385Y-73662490D01*
X134166258Y-73688946D01*
X134223748Y-73727360D01*
X134272640Y-73776252D01*
X134311054Y-73833742D01*
X134332624Y-73885818D01*
X134337511Y-73897617D01*
X134351000Y-73965430D01*
X134351000Y-74034570D01*
X134337511Y-74102383D01*
X134337510Y-74102385D01*
X134311054Y-74166258D01*
X134272640Y-74223748D01*
X134223748Y-74272640D01*
X134166258Y-74311054D01*
X134114182Y-74332624D01*
X134102383Y-74337511D01*
X134034570Y-74351000D01*
X133965430Y-74351000D01*
X133897617Y-74337511D01*
X133885818Y-74332624D01*
X133833742Y-74311054D01*
X133776252Y-74272640D01*
X133727360Y-74223748D01*
X133688946Y-74166258D01*
X133662490Y-74102385D01*
X133662489Y-74102383D01*
X133649000Y-74034570D01*
X133649000Y-73965430D01*
X133662489Y-73897617D01*
X133667376Y-73885818D01*
X133688946Y-73833742D01*
X133727360Y-73776252D01*
X133776252Y-73727360D01*
X133833742Y-73688946D01*
X133897615Y-73662490D01*
X133897614Y-73662490D01*
X133897617Y-73662489D01*
X133965430Y-73649000D01*
X134034570Y-73649000D01*
X134102383Y-73662489D01*
G37*
G36*
X136102383Y-73662489D02*
G01*
X136102386Y-73662490D01*
X136102385Y-73662490D01*
X136166258Y-73688946D01*
X136223748Y-73727360D01*
X136272640Y-73776252D01*
X136311054Y-73833742D01*
X136332624Y-73885818D01*
X136337511Y-73897617D01*
X136351000Y-73965430D01*
X136351000Y-74034570D01*
X136337511Y-74102383D01*
X136337510Y-74102385D01*
X136311054Y-74166258D01*
X136272640Y-74223748D01*
X136223748Y-74272640D01*
X136166258Y-74311054D01*
X136114182Y-74332624D01*
X136102383Y-74337511D01*
X136034570Y-74351000D01*
X135965430Y-74351000D01*
X135897617Y-74337511D01*
X135885818Y-74332624D01*
X135833742Y-74311054D01*
X135776252Y-74272640D01*
X135727360Y-74223748D01*
X135688946Y-74166258D01*
X135662490Y-74102385D01*
X135662489Y-74102383D01*
X135649000Y-74034570D01*
X135649000Y-73965430D01*
X135662489Y-73897617D01*
X135667376Y-73885818D01*
X135688946Y-73833742D01*
X135727360Y-73776252D01*
X135776252Y-73727360D01*
X135833742Y-73688946D01*
X135897615Y-73662490D01*
X135897614Y-73662490D01*
X135897617Y-73662489D01*
X135965430Y-73649000D01*
X136034570Y-73649000D01*
X136102383Y-73662489D01*
G37*
G36*
X193102383Y-73662489D02*
G01*
X193102386Y-73662490D01*
X193102385Y-73662490D01*
X193166258Y-73688946D01*
X193223748Y-73727360D01*
X193272640Y-73776252D01*
X193311054Y-73833742D01*
X193332624Y-73885818D01*
X193337511Y-73897617D01*
X193351000Y-73965430D01*
X193351000Y-74034570D01*
X193337511Y-74102383D01*
X193337510Y-74102385D01*
X193311054Y-74166258D01*
X193272640Y-74223748D01*
X193223748Y-74272640D01*
X193166258Y-74311054D01*
X193114182Y-74332624D01*
X193102383Y-74337511D01*
X193034570Y-74351000D01*
X192965430Y-74351000D01*
X192897617Y-74337511D01*
X192885818Y-74332624D01*
X192833742Y-74311054D01*
X192776252Y-74272640D01*
X192727360Y-74223748D01*
X192688946Y-74166258D01*
X192662490Y-74102385D01*
X192662489Y-74102383D01*
X192649000Y-74034570D01*
X192649000Y-73965430D01*
X192662489Y-73897617D01*
X192667376Y-73885818D01*
X192688946Y-73833742D01*
X192727360Y-73776252D01*
X192776252Y-73727360D01*
X192833742Y-73688946D01*
X192897615Y-73662490D01*
X192897614Y-73662490D01*
X192897617Y-73662489D01*
X192965430Y-73649000D01*
X193034570Y-73649000D01*
X193102383Y-73662489D01*
G37*
G36*
X194102383Y-73662489D02*
G01*
X194102386Y-73662490D01*
X194102385Y-73662490D01*
X194166258Y-73688946D01*
X194223748Y-73727360D01*
X194272640Y-73776252D01*
X194311054Y-73833742D01*
X194332624Y-73885818D01*
X194337511Y-73897617D01*
X194351000Y-73965430D01*
X194351000Y-74034570D01*
X194337511Y-74102383D01*
X194337510Y-74102385D01*
X194311054Y-74166258D01*
X194272640Y-74223748D01*
X194223748Y-74272640D01*
X194166258Y-74311054D01*
X194114182Y-74332624D01*
X194102383Y-74337511D01*
X194034570Y-74351000D01*
X193965430Y-74351000D01*
X193897617Y-74337511D01*
X193885818Y-74332624D01*
X193833742Y-74311054D01*
X193776252Y-74272640D01*
X193727360Y-74223748D01*
X193688946Y-74166258D01*
X193662490Y-74102385D01*
X193662489Y-74102383D01*
X193649000Y-74034570D01*
X193649000Y-73965430D01*
X193662489Y-73897617D01*
X193667376Y-73885818D01*
X193688946Y-73833742D01*
X193727360Y-73776252D01*
X193776252Y-73727360D01*
X193833742Y-73688946D01*
X193897615Y-73662490D01*
X193897614Y-73662490D01*
X193897617Y-73662489D01*
X193965430Y-73649000D01*
X194034570Y-73649000D01*
X194102383Y-73662489D01*
G37*
G36*
X76102383Y-73662489D02*
G01*
X76102386Y-73662490D01*
X76102385Y-73662490D01*
X76166258Y-73688946D01*
X76223748Y-73727360D01*
X76272640Y-73776252D01*
X76311054Y-73833742D01*
X76332624Y-73885818D01*
X76337511Y-73897617D01*
X76351000Y-73965430D01*
X76351000Y-74034570D01*
X76337511Y-74102383D01*
X76337510Y-74102385D01*
X76311054Y-74166258D01*
X76272640Y-74223748D01*
X76223748Y-74272640D01*
X76166258Y-74311054D01*
X76114182Y-74332624D01*
X76102383Y-74337511D01*
X76034570Y-74351000D01*
X75965430Y-74351000D01*
X75897617Y-74337511D01*
X75885818Y-74332624D01*
X75833742Y-74311054D01*
X75776252Y-74272640D01*
X75727360Y-74223748D01*
X75688946Y-74166258D01*
X75662490Y-74102385D01*
X75662489Y-74102383D01*
X75649000Y-74034570D01*
X75649000Y-73965430D01*
X75662489Y-73897617D01*
X75667376Y-73885818D01*
X75688946Y-73833742D01*
X75727360Y-73776252D01*
X75776252Y-73727360D01*
X75833742Y-73688946D01*
X75897615Y-73662490D01*
X75897614Y-73662490D01*
X75897617Y-73662489D01*
X75965430Y-73649000D01*
X76034570Y-73649000D01*
X76102383Y-73662489D01*
G37*
G36*
X250102383Y-73662489D02*
G01*
X250102386Y-73662490D01*
X250102385Y-73662490D01*
X250166258Y-73688946D01*
X250223748Y-73727360D01*
X250272640Y-73776252D01*
X250311054Y-73833742D01*
X250332624Y-73885818D01*
X250337511Y-73897617D01*
X250351000Y-73965430D01*
X250351000Y-74034570D01*
X250337511Y-74102383D01*
X250337510Y-74102385D01*
X250311054Y-74166258D01*
X250272640Y-74223748D01*
X250223748Y-74272640D01*
X250166258Y-74311054D01*
X250114182Y-74332624D01*
X250102383Y-74337511D01*
X250034570Y-74351000D01*
X249965430Y-74351000D01*
X249897617Y-74337511D01*
X249885818Y-74332624D01*
X249833742Y-74311054D01*
X249776252Y-74272640D01*
X249727360Y-74223748D01*
X249688946Y-74166258D01*
X249662490Y-74102385D01*
X249662489Y-74102383D01*
X249649000Y-74034570D01*
X249649000Y-73965430D01*
X249662489Y-73897617D01*
X249667376Y-73885818D01*
X249688946Y-73833742D01*
X249727360Y-73776252D01*
X249776252Y-73727360D01*
X249833742Y-73688946D01*
X249897615Y-73662490D01*
X249897614Y-73662490D01*
X249897617Y-73662489D01*
X249965430Y-73649000D01*
X250034570Y-73649000D01*
X250102383Y-73662489D01*
G37*
G36*
X251102383Y-73662489D02*
G01*
X251102386Y-73662490D01*
X251102385Y-73662490D01*
X251166258Y-73688946D01*
X251223748Y-73727360D01*
X251272640Y-73776252D01*
X251311054Y-73833742D01*
X251332624Y-73885818D01*
X251337511Y-73897617D01*
X251351000Y-73965430D01*
X251351000Y-74034570D01*
X251337511Y-74102383D01*
X251337510Y-74102385D01*
X251311054Y-74166258D01*
X251272640Y-74223748D01*
X251223748Y-74272640D01*
X251166258Y-74311054D01*
X251114182Y-74332624D01*
X251102383Y-74337511D01*
X251034570Y-74351000D01*
X250965430Y-74351000D01*
X250897617Y-74337511D01*
X250885818Y-74332624D01*
X250833742Y-74311054D01*
X250776252Y-74272640D01*
X250727360Y-74223748D01*
X250688946Y-74166258D01*
X250662490Y-74102385D01*
X250662489Y-74102383D01*
X250649000Y-74034570D01*
X250649000Y-73965430D01*
X250662489Y-73897617D01*
X250667376Y-73885818D01*
X250688946Y-73833742D01*
X250727360Y-73776252D01*
X250776252Y-73727360D01*
X250833742Y-73688946D01*
X250897615Y-73662490D01*
X250897614Y-73662490D01*
X250897617Y-73662489D01*
X250965430Y-73649000D01*
X251034570Y-73649000D01*
X251102383Y-73662489D01*
G37*
G36*
X252102383Y-73662489D02*
G01*
X252102386Y-73662490D01*
X252102385Y-73662490D01*
X252166258Y-73688946D01*
X252223748Y-73727360D01*
X252272640Y-73776252D01*
X252311054Y-73833742D01*
X252332624Y-73885818D01*
X252337511Y-73897617D01*
X252351000Y-73965430D01*
X252351000Y-74034570D01*
X252337511Y-74102383D01*
X252337510Y-74102385D01*
X252311054Y-74166258D01*
X252272640Y-74223748D01*
X252223748Y-74272640D01*
X252166258Y-74311054D01*
X252114182Y-74332624D01*
X252102383Y-74337511D01*
X252034570Y-74351000D01*
X251965430Y-74351000D01*
X251897617Y-74337511D01*
X251885818Y-74332624D01*
X251833742Y-74311054D01*
X251776252Y-74272640D01*
X251727360Y-74223748D01*
X251688946Y-74166258D01*
X251662490Y-74102385D01*
X251662489Y-74102383D01*
X251649000Y-74034570D01*
X251649000Y-73965430D01*
X251662489Y-73897617D01*
X251667376Y-73885818D01*
X251688946Y-73833742D01*
X251727360Y-73776252D01*
X251776252Y-73727360D01*
X251833742Y-73688946D01*
X251897615Y-73662490D01*
X251897614Y-73662490D01*
X251897617Y-73662489D01*
X251965430Y-73649000D01*
X252034570Y-73649000D01*
X252102383Y-73662489D01*
G37*
G36*
X135102383Y-73662489D02*
G01*
X135102386Y-73662490D01*
X135102385Y-73662490D01*
X135166258Y-73688946D01*
X135223748Y-73727360D01*
X135272640Y-73776252D01*
X135311054Y-73833742D01*
X135332624Y-73885818D01*
X135337511Y-73897617D01*
X135351000Y-73965430D01*
X135351000Y-74034570D01*
X135337511Y-74102383D01*
X135337510Y-74102385D01*
X135311054Y-74166258D01*
X135272640Y-74223748D01*
X135223748Y-74272640D01*
X135166258Y-74311054D01*
X135114182Y-74332624D01*
X135102383Y-74337511D01*
X135034570Y-74351000D01*
X134965430Y-74351000D01*
X134897617Y-74337511D01*
X134885818Y-74332624D01*
X134833742Y-74311054D01*
X134776252Y-74272640D01*
X134727360Y-74223748D01*
X134688946Y-74166258D01*
X134662490Y-74102385D01*
X134662489Y-74102383D01*
X134649000Y-74034570D01*
X134649000Y-73965430D01*
X134662489Y-73897617D01*
X134667376Y-73885818D01*
X134688946Y-73833742D01*
X134727360Y-73776252D01*
X134776252Y-73727360D01*
X134833742Y-73688946D01*
X134897615Y-73662490D01*
X134897614Y-73662490D01*
X134897617Y-73662489D01*
X134965430Y-73649000D01*
X135034570Y-73649000D01*
X135102383Y-73662489D01*
G37*
G36*
X192102383Y-73662489D02*
G01*
X192102386Y-73662490D01*
X192102385Y-73662490D01*
X192166258Y-73688946D01*
X192223748Y-73727360D01*
X192272640Y-73776252D01*
X192311054Y-73833742D01*
X192332624Y-73885818D01*
X192337511Y-73897617D01*
X192351000Y-73965430D01*
X192351000Y-74034570D01*
X192337511Y-74102383D01*
X192337510Y-74102385D01*
X192311054Y-74166258D01*
X192272640Y-74223748D01*
X192223748Y-74272640D01*
X192166258Y-74311054D01*
X192114182Y-74332624D01*
X192102383Y-74337511D01*
X192034570Y-74351000D01*
X191965430Y-74351000D01*
X191897617Y-74337511D01*
X191885818Y-74332624D01*
X191833742Y-74311054D01*
X191776252Y-74272640D01*
X191727360Y-74223748D01*
X191688946Y-74166258D01*
X191662490Y-74102385D01*
X191662489Y-74102383D01*
X191649000Y-74034570D01*
X191649000Y-73965430D01*
X191662489Y-73897617D01*
X191667376Y-73885818D01*
X191688946Y-73833742D01*
X191727360Y-73776252D01*
X191776252Y-73727360D01*
X191833742Y-73688946D01*
X191897615Y-73662490D01*
X191897614Y-73662490D01*
X191897617Y-73662489D01*
X191965430Y-73649000D01*
X192034570Y-73649000D01*
X192102383Y-73662489D01*
G37*
G36*
X251102383Y-72662489D02*
G01*
X251102386Y-72662490D01*
X251102385Y-72662490D01*
X251166258Y-72688946D01*
X251223748Y-72727360D01*
X251272640Y-72776252D01*
X251311054Y-72833742D01*
X251332624Y-72885818D01*
X251337511Y-72897617D01*
X251351000Y-72965430D01*
X251351000Y-73034570D01*
X251337511Y-73102383D01*
X251337510Y-73102385D01*
X251311054Y-73166258D01*
X251272640Y-73223748D01*
X251223748Y-73272640D01*
X251166258Y-73311054D01*
X251114182Y-73332624D01*
X251102383Y-73337511D01*
X251034570Y-73351000D01*
X250965430Y-73351000D01*
X250897617Y-73337511D01*
X250885818Y-73332624D01*
X250833742Y-73311054D01*
X250776252Y-73272640D01*
X250727360Y-73223748D01*
X250688946Y-73166258D01*
X250662490Y-73102385D01*
X250662489Y-73102383D01*
X250649000Y-73034570D01*
X250649000Y-72965430D01*
X250662489Y-72897617D01*
X250667376Y-72885818D01*
X250688946Y-72833742D01*
X250727360Y-72776252D01*
X250776252Y-72727360D01*
X250833742Y-72688946D01*
X250897615Y-72662490D01*
X250897614Y-72662490D01*
X250897617Y-72662489D01*
X250965430Y-72649000D01*
X251034570Y-72649000D01*
X251102383Y-72662489D01*
G37*
G36*
X252102383Y-72662489D02*
G01*
X252102386Y-72662490D01*
X252102385Y-72662490D01*
X252166258Y-72688946D01*
X252223748Y-72727360D01*
X252272640Y-72776252D01*
X252311054Y-72833742D01*
X252332624Y-72885818D01*
X252337511Y-72897617D01*
X252351000Y-72965430D01*
X252351000Y-73034570D01*
X252337511Y-73102383D01*
X252337510Y-73102385D01*
X252311054Y-73166258D01*
X252272640Y-73223748D01*
X252223748Y-73272640D01*
X252166258Y-73311054D01*
X252114182Y-73332624D01*
X252102383Y-73337511D01*
X252034570Y-73351000D01*
X251965430Y-73351000D01*
X251897617Y-73337511D01*
X251885818Y-73332624D01*
X251833742Y-73311054D01*
X251776252Y-73272640D01*
X251727360Y-73223748D01*
X251688946Y-73166258D01*
X251662490Y-73102385D01*
X251662489Y-73102383D01*
X251649000Y-73034570D01*
X251649000Y-72965430D01*
X251662489Y-72897617D01*
X251667376Y-72885818D01*
X251688946Y-72833742D01*
X251727360Y-72776252D01*
X251776252Y-72727360D01*
X251833742Y-72688946D01*
X251897615Y-72662490D01*
X251897614Y-72662490D01*
X251897617Y-72662489D01*
X251965430Y-72649000D01*
X252034570Y-72649000D01*
X252102383Y-72662489D01*
G37*
G36*
X250102383Y-72662489D02*
G01*
X250102386Y-72662490D01*
X250102385Y-72662490D01*
X250166258Y-72688946D01*
X250223748Y-72727360D01*
X250272640Y-72776252D01*
X250311054Y-72833742D01*
X250332624Y-72885818D01*
X250337511Y-72897617D01*
X250351000Y-72965430D01*
X250351000Y-73034570D01*
X250337511Y-73102383D01*
X250337510Y-73102385D01*
X250311054Y-73166258D01*
X250272640Y-73223748D01*
X250223748Y-73272640D01*
X250166258Y-73311054D01*
X250114182Y-73332624D01*
X250102383Y-73337511D01*
X250034570Y-73351000D01*
X249965430Y-73351000D01*
X249897617Y-73337511D01*
X249885818Y-73332624D01*
X249833742Y-73311054D01*
X249776252Y-73272640D01*
X249727360Y-73223748D01*
X249688946Y-73166258D01*
X249662490Y-73102385D01*
X249662489Y-73102383D01*
X249649000Y-73034570D01*
X249649000Y-72965430D01*
X249662489Y-72897617D01*
X249667376Y-72885818D01*
X249688946Y-72833742D01*
X249727360Y-72776252D01*
X249776252Y-72727360D01*
X249833742Y-72688946D01*
X249897615Y-72662490D01*
X249897614Y-72662490D01*
X249897617Y-72662489D01*
X249965430Y-72649000D01*
X250034570Y-72649000D01*
X250102383Y-72662489D01*
G37*
G36*
X134102383Y-72662489D02*
G01*
X134102386Y-72662490D01*
X134102385Y-72662490D01*
X134166258Y-72688946D01*
X134223748Y-72727360D01*
X134272640Y-72776252D01*
X134311054Y-72833742D01*
X134332624Y-72885818D01*
X134337511Y-72897617D01*
X134351000Y-72965430D01*
X134351000Y-73034570D01*
X134337511Y-73102383D01*
X134337510Y-73102385D01*
X134311054Y-73166258D01*
X134272640Y-73223748D01*
X134223748Y-73272640D01*
X134166258Y-73311054D01*
X134114182Y-73332624D01*
X134102383Y-73337511D01*
X134034570Y-73351000D01*
X133965430Y-73351000D01*
X133897617Y-73337511D01*
X133885818Y-73332624D01*
X133833742Y-73311054D01*
X133776252Y-73272640D01*
X133727360Y-73223748D01*
X133688946Y-73166258D01*
X133662490Y-73102385D01*
X133662489Y-73102383D01*
X133649000Y-73034570D01*
X133649000Y-72965430D01*
X133662489Y-72897617D01*
X133667376Y-72885818D01*
X133688946Y-72833742D01*
X133727360Y-72776252D01*
X133776252Y-72727360D01*
X133833742Y-72688946D01*
X133897615Y-72662490D01*
X133897614Y-72662490D01*
X133897617Y-72662489D01*
X133965430Y-72649000D01*
X134034570Y-72649000D01*
X134102383Y-72662489D01*
G37*
G36*
X135102383Y-72662489D02*
G01*
X135102386Y-72662490D01*
X135102385Y-72662490D01*
X135166258Y-72688946D01*
X135223748Y-72727360D01*
X135272640Y-72776252D01*
X135311054Y-72833742D01*
X135332624Y-72885818D01*
X135337511Y-72897617D01*
X135351000Y-72965430D01*
X135351000Y-73034570D01*
X135337511Y-73102383D01*
X135337510Y-73102385D01*
X135311054Y-73166258D01*
X135272640Y-73223748D01*
X135223748Y-73272640D01*
X135166258Y-73311054D01*
X135114182Y-73332624D01*
X135102383Y-73337511D01*
X135034570Y-73351000D01*
X134965430Y-73351000D01*
X134897617Y-73337511D01*
X134885818Y-73332624D01*
X134833742Y-73311054D01*
X134776252Y-73272640D01*
X134727360Y-73223748D01*
X134688946Y-73166258D01*
X134662490Y-73102385D01*
X134662489Y-73102383D01*
X134649000Y-73034570D01*
X134649000Y-72965430D01*
X134662489Y-72897617D01*
X134667376Y-72885818D01*
X134688946Y-72833742D01*
X134727360Y-72776252D01*
X134776252Y-72727360D01*
X134833742Y-72688946D01*
X134897615Y-72662490D01*
X134897614Y-72662490D01*
X134897617Y-72662489D01*
X134965430Y-72649000D01*
X135034570Y-72649000D01*
X135102383Y-72662489D01*
G37*
G36*
X136102383Y-72662489D02*
G01*
X136102386Y-72662490D01*
X136102385Y-72662490D01*
X136166258Y-72688946D01*
X136223748Y-72727360D01*
X136272640Y-72776252D01*
X136311054Y-72833742D01*
X136332624Y-72885818D01*
X136337511Y-72897617D01*
X136351000Y-72965430D01*
X136351000Y-73034570D01*
X136337511Y-73102383D01*
X136337510Y-73102385D01*
X136311054Y-73166258D01*
X136272640Y-73223748D01*
X136223748Y-73272640D01*
X136166258Y-73311054D01*
X136114182Y-73332624D01*
X136102383Y-73337511D01*
X136034570Y-73351000D01*
X135965430Y-73351000D01*
X135897617Y-73337511D01*
X135885818Y-73332624D01*
X135833742Y-73311054D01*
X135776252Y-73272640D01*
X135727360Y-73223748D01*
X135688946Y-73166258D01*
X135662490Y-73102385D01*
X135662489Y-73102383D01*
X135649000Y-73034570D01*
X135649000Y-72965430D01*
X135662489Y-72897617D01*
X135667376Y-72885818D01*
X135688946Y-72833742D01*
X135727360Y-72776252D01*
X135776252Y-72727360D01*
X135833742Y-72688946D01*
X135897615Y-72662490D01*
X135897614Y-72662490D01*
X135897617Y-72662489D01*
X135965430Y-72649000D01*
X136034570Y-72649000D01*
X136102383Y-72662489D01*
G37*
G36*
X308102383Y-72662489D02*
G01*
X308102386Y-72662490D01*
X308102385Y-72662490D01*
X308166258Y-72688946D01*
X308223748Y-72727360D01*
X308272640Y-72776252D01*
X308311054Y-72833742D01*
X308332624Y-72885818D01*
X308337511Y-72897617D01*
X308351000Y-72965430D01*
X308351000Y-73034570D01*
X308337511Y-73102383D01*
X308337510Y-73102385D01*
X308311054Y-73166258D01*
X308272640Y-73223748D01*
X308223748Y-73272640D01*
X308166258Y-73311054D01*
X308114182Y-73332624D01*
X308102383Y-73337511D01*
X308034570Y-73351000D01*
X307965430Y-73351000D01*
X307897617Y-73337511D01*
X307885818Y-73332624D01*
X307833742Y-73311054D01*
X307776252Y-73272640D01*
X307727360Y-73223748D01*
X307688946Y-73166258D01*
X307662490Y-73102385D01*
X307662489Y-73102383D01*
X307649000Y-73034570D01*
X307649000Y-72965430D01*
X307662489Y-72897617D01*
X307667376Y-72885818D01*
X307688946Y-72833742D01*
X307727360Y-72776252D01*
X307776252Y-72727360D01*
X307833742Y-72688946D01*
X307897615Y-72662490D01*
X307897614Y-72662490D01*
X307897617Y-72662489D01*
X307965430Y-72649000D01*
X308034570Y-72649000D01*
X308102383Y-72662489D01*
G37*
G36*
X310102383Y-72662489D02*
G01*
X310102386Y-72662490D01*
X310102385Y-72662490D01*
X310166258Y-72688946D01*
X310223748Y-72727360D01*
X310272640Y-72776252D01*
X310311054Y-72833742D01*
X310332624Y-72885818D01*
X310337511Y-72897617D01*
X310351000Y-72965430D01*
X310351000Y-73034570D01*
X310337511Y-73102383D01*
X310337510Y-73102385D01*
X310311054Y-73166258D01*
X310272640Y-73223748D01*
X310223748Y-73272640D01*
X310166258Y-73311054D01*
X310114182Y-73332624D01*
X310102383Y-73337511D01*
X310034570Y-73351000D01*
X309965430Y-73351000D01*
X309897617Y-73337511D01*
X309885818Y-73332624D01*
X309833742Y-73311054D01*
X309776252Y-73272640D01*
X309727360Y-73223748D01*
X309688946Y-73166258D01*
X309662490Y-73102385D01*
X309662489Y-73102383D01*
X309649000Y-73034570D01*
X309649000Y-72965430D01*
X309662489Y-72897617D01*
X309667376Y-72885818D01*
X309688946Y-72833742D01*
X309727360Y-72776252D01*
X309776252Y-72727360D01*
X309833742Y-72688946D01*
X309897615Y-72662490D01*
X309897614Y-72662490D01*
X309897617Y-72662489D01*
X309965430Y-72649000D01*
X310034570Y-72649000D01*
X310102383Y-72662489D01*
G37*
G36*
X309102383Y-72662489D02*
G01*
X309102386Y-72662490D01*
X309102385Y-72662490D01*
X309166258Y-72688946D01*
X309223748Y-72727360D01*
X309272640Y-72776252D01*
X309311054Y-72833742D01*
X309332624Y-72885818D01*
X309337511Y-72897617D01*
X309351000Y-72965430D01*
X309351000Y-73034570D01*
X309337511Y-73102383D01*
X309337510Y-73102385D01*
X309311054Y-73166258D01*
X309272640Y-73223748D01*
X309223748Y-73272640D01*
X309166258Y-73311054D01*
X309114182Y-73332624D01*
X309102383Y-73337511D01*
X309034570Y-73351000D01*
X308965430Y-73351000D01*
X308897617Y-73337511D01*
X308885818Y-73332624D01*
X308833742Y-73311054D01*
X308776252Y-73272640D01*
X308727360Y-73223748D01*
X308688946Y-73166258D01*
X308662490Y-73102385D01*
X308662489Y-73102383D01*
X308649000Y-73034570D01*
X308649000Y-72965430D01*
X308662489Y-72897617D01*
X308667376Y-72885818D01*
X308688946Y-72833742D01*
X308727360Y-72776252D01*
X308776252Y-72727360D01*
X308833742Y-72688946D01*
X308897615Y-72662490D01*
X308897614Y-72662490D01*
X308897617Y-72662489D01*
X308965430Y-72649000D01*
X309034570Y-72649000D01*
X309102383Y-72662489D01*
G37*
G36*
X193102383Y-72662489D02*
G01*
X193102386Y-72662490D01*
X193102385Y-72662490D01*
X193166258Y-72688946D01*
X193223748Y-72727360D01*
X193272640Y-72776252D01*
X193311054Y-72833742D01*
X193332624Y-72885818D01*
X193337511Y-72897617D01*
X193351000Y-72965430D01*
X193351000Y-73034570D01*
X193337511Y-73102383D01*
X193337510Y-73102385D01*
X193311054Y-73166258D01*
X193272640Y-73223748D01*
X193223748Y-73272640D01*
X193166258Y-73311054D01*
X193114182Y-73332624D01*
X193102383Y-73337511D01*
X193034570Y-73351000D01*
X192965430Y-73351000D01*
X192897617Y-73337511D01*
X192885818Y-73332624D01*
X192833742Y-73311054D01*
X192776252Y-73272640D01*
X192727360Y-73223748D01*
X192688946Y-73166258D01*
X192662490Y-73102385D01*
X192662489Y-73102383D01*
X192649000Y-73034570D01*
X192649000Y-72965430D01*
X192662489Y-72897617D01*
X192667376Y-72885818D01*
X192688946Y-72833742D01*
X192727360Y-72776252D01*
X192776252Y-72727360D01*
X192833742Y-72688946D01*
X192897615Y-72662490D01*
X192897614Y-72662490D01*
X192897617Y-72662489D01*
X192965430Y-72649000D01*
X193034570Y-72649000D01*
X193102383Y-72662489D01*
G37*
G36*
X76102383Y-72662489D02*
G01*
X76102386Y-72662490D01*
X76102385Y-72662490D01*
X76166258Y-72688946D01*
X76223748Y-72727360D01*
X76272640Y-72776252D01*
X76311054Y-72833742D01*
X76332624Y-72885818D01*
X76337511Y-72897617D01*
X76351000Y-72965430D01*
X76351000Y-73034570D01*
X76337511Y-73102383D01*
X76337510Y-73102385D01*
X76311054Y-73166258D01*
X76272640Y-73223748D01*
X76223748Y-73272640D01*
X76166258Y-73311054D01*
X76114182Y-73332624D01*
X76102383Y-73337511D01*
X76034570Y-73351000D01*
X75965430Y-73351000D01*
X75897617Y-73337511D01*
X75885818Y-73332624D01*
X75833742Y-73311054D01*
X75776252Y-73272640D01*
X75727360Y-73223748D01*
X75688946Y-73166258D01*
X75662490Y-73102385D01*
X75662489Y-73102383D01*
X75649000Y-73034570D01*
X75649000Y-72965430D01*
X75662489Y-72897617D01*
X75667376Y-72885818D01*
X75688946Y-72833742D01*
X75727360Y-72776252D01*
X75776252Y-72727360D01*
X75833742Y-72688946D01*
X75897615Y-72662490D01*
X75897614Y-72662490D01*
X75897617Y-72662489D01*
X75965430Y-72649000D01*
X76034570Y-72649000D01*
X76102383Y-72662489D01*
G37*
G36*
X194102383Y-72662489D02*
G01*
X194102386Y-72662490D01*
X194102385Y-72662490D01*
X194166258Y-72688946D01*
X194223748Y-72727360D01*
X194272640Y-72776252D01*
X194311054Y-72833742D01*
X194332624Y-72885818D01*
X194337511Y-72897617D01*
X194351000Y-72965430D01*
X194351000Y-73034570D01*
X194337511Y-73102383D01*
X194337510Y-73102385D01*
X194311054Y-73166258D01*
X194272640Y-73223748D01*
X194223748Y-73272640D01*
X194166258Y-73311054D01*
X194114182Y-73332624D01*
X194102383Y-73337511D01*
X194034570Y-73351000D01*
X193965430Y-73351000D01*
X193897617Y-73337511D01*
X193885818Y-73332624D01*
X193833742Y-73311054D01*
X193776252Y-73272640D01*
X193727360Y-73223748D01*
X193688946Y-73166258D01*
X193662490Y-73102385D01*
X193662489Y-73102383D01*
X193649000Y-73034570D01*
X193649000Y-72965430D01*
X193662489Y-72897617D01*
X193667376Y-72885818D01*
X193688946Y-72833742D01*
X193727360Y-72776252D01*
X193776252Y-72727360D01*
X193833742Y-72688946D01*
X193897615Y-72662490D01*
X193897614Y-72662490D01*
X193897617Y-72662489D01*
X193965430Y-72649000D01*
X194034570Y-72649000D01*
X194102383Y-72662489D01*
G37*
G36*
X192102383Y-72662489D02*
G01*
X192102386Y-72662490D01*
X192102385Y-72662490D01*
X192166258Y-72688946D01*
X192223748Y-72727360D01*
X192272640Y-72776252D01*
X192311054Y-72833742D01*
X192332624Y-72885818D01*
X192337511Y-72897617D01*
X192351000Y-72965430D01*
X192351000Y-73034570D01*
X192337511Y-73102383D01*
X192337510Y-73102385D01*
X192311054Y-73166258D01*
X192272640Y-73223748D01*
X192223748Y-73272640D01*
X192166258Y-73311054D01*
X192114182Y-73332624D01*
X192102383Y-73337511D01*
X192034570Y-73351000D01*
X191965430Y-73351000D01*
X191897617Y-73337511D01*
X191885818Y-73332624D01*
X191833742Y-73311054D01*
X191776252Y-73272640D01*
X191727360Y-73223748D01*
X191688946Y-73166258D01*
X191662490Y-73102385D01*
X191662489Y-73102383D01*
X191649000Y-73034570D01*
X191649000Y-72965430D01*
X191662489Y-72897617D01*
X191667376Y-72885818D01*
X191688946Y-72833742D01*
X191727360Y-72776252D01*
X191776252Y-72727360D01*
X191833742Y-72688946D01*
X191897615Y-72662490D01*
X191897614Y-72662490D01*
X191897617Y-72662489D01*
X191965430Y-72649000D01*
X192034570Y-72649000D01*
X192102383Y-72662489D01*
G37*
G36*
X77102383Y-72662489D02*
G01*
X77102386Y-72662490D01*
X77102385Y-72662490D01*
X77166258Y-72688946D01*
X77223748Y-72727360D01*
X77272640Y-72776252D01*
X77311054Y-72833742D01*
X77332624Y-72885818D01*
X77337511Y-72897617D01*
X77351000Y-72965430D01*
X77351000Y-73034570D01*
X77337511Y-73102383D01*
X77337510Y-73102385D01*
X77311054Y-73166258D01*
X77272640Y-73223748D01*
X77223748Y-73272640D01*
X77166258Y-73311054D01*
X77114182Y-73332624D01*
X77102383Y-73337511D01*
X77034570Y-73351000D01*
X76965430Y-73351000D01*
X76897617Y-73337511D01*
X76885818Y-73332624D01*
X76833742Y-73311054D01*
X76776252Y-73272640D01*
X76727360Y-73223748D01*
X76688946Y-73166258D01*
X76662490Y-73102385D01*
X76662489Y-73102383D01*
X76649000Y-73034570D01*
X76649000Y-72965430D01*
X76662489Y-72897617D01*
X76667376Y-72885818D01*
X76688946Y-72833742D01*
X76727360Y-72776252D01*
X76776252Y-72727360D01*
X76833742Y-72688946D01*
X76897615Y-72662490D01*
X76897614Y-72662490D01*
X76897617Y-72662489D01*
X76965430Y-72649000D01*
X77034570Y-72649000D01*
X77102383Y-72662489D01*
G37*
G36*
X78102383Y-72662489D02*
G01*
X78102386Y-72662490D01*
X78102385Y-72662490D01*
X78166258Y-72688946D01*
X78223748Y-72727360D01*
X78272640Y-72776252D01*
X78311054Y-72833742D01*
X78332624Y-72885818D01*
X78337511Y-72897617D01*
X78351000Y-72965430D01*
X78351000Y-73034570D01*
X78337511Y-73102383D01*
X78337510Y-73102385D01*
X78311054Y-73166258D01*
X78272640Y-73223748D01*
X78223748Y-73272640D01*
X78166258Y-73311054D01*
X78114182Y-73332624D01*
X78102383Y-73337511D01*
X78034570Y-73351000D01*
X77965430Y-73351000D01*
X77897617Y-73337511D01*
X77885818Y-73332624D01*
X77833742Y-73311054D01*
X77776252Y-73272640D01*
X77727360Y-73223748D01*
X77688946Y-73166258D01*
X77662490Y-73102385D01*
X77662489Y-73102383D01*
X77649000Y-73034570D01*
X77649000Y-72965430D01*
X77662489Y-72897617D01*
X77667376Y-72885818D01*
X77688946Y-72833742D01*
X77727360Y-72776252D01*
X77776252Y-72727360D01*
X77833742Y-72688946D01*
X77897615Y-72662490D01*
X77897614Y-72662490D01*
X77897617Y-72662489D01*
X77965430Y-72649000D01*
X78034570Y-72649000D01*
X78102383Y-72662489D01*
G37*
G36*
X62534239Y-46711467D02*
G01*
X62848282Y-46773934D01*
X63439926Y-47019001D01*
X63972392Y-47374784D01*
X64425216Y-47827608D01*
X64780999Y-48360074D01*
X65026066Y-48951718D01*
X65151000Y-49579804D01*
X65151000Y-50220196D01*
X65026066Y-50848282D01*
X64780999Y-51439926D01*
X64425216Y-51972392D01*
X63972392Y-52425216D01*
X63439926Y-52780999D01*
X62848282Y-53026066D01*
X62534239Y-53088533D01*
X62220197Y-53151000D01*
X61579803Y-53151000D01*
X61265761Y-53088533D01*
X60951718Y-53026066D01*
X60360074Y-52780999D01*
X59827608Y-52425216D01*
X59374784Y-51972392D01*
X59019001Y-51439926D01*
X58773934Y-50848282D01*
X58649000Y-50220196D01*
X58649000Y-49579804D01*
X58773934Y-48951718D01*
X59019001Y-48360074D01*
X59374784Y-47827608D01*
X59827608Y-47374784D01*
X60360074Y-47019001D01*
X60951718Y-46773934D01*
X61265761Y-46711467D01*
X61579803Y-46649000D01*
X62220197Y-46649000D01*
X62534239Y-46711467D01*
G37*
G36*
X337334239Y-46711467D02*
G01*
X337648282Y-46773934D01*
X338239926Y-47019001D01*
X338772392Y-47374784D01*
X339225216Y-47827608D01*
X339580999Y-48360074D01*
X339826066Y-48951718D01*
X339951000Y-49579804D01*
X339951000Y-50220196D01*
X339826066Y-50848282D01*
X339580999Y-51439926D01*
X339225216Y-51972392D01*
X338772392Y-52425216D01*
X338239926Y-52780999D01*
X337648282Y-53026066D01*
X337334239Y-53088533D01*
X337020197Y-53151000D01*
X336379803Y-53151000D01*
X336065761Y-53088533D01*
X335751718Y-53026066D01*
X335160074Y-52780999D01*
X334627608Y-52425216D01*
X334174784Y-51972392D01*
X333819001Y-51439926D01*
X333573934Y-50848282D01*
X333449000Y-50220196D01*
X333449000Y-49579804D01*
X333573934Y-48951718D01*
X333819001Y-48360074D01*
X334174784Y-47827608D01*
X334627608Y-47374784D01*
X335160074Y-47019001D01*
X335751718Y-46773934D01*
X336065761Y-46711467D01*
X336379803Y-46649000D01*
X337020197Y-46649000D01*
X337334239Y-46711467D01*
G37*
G36*
X105653512Y-38103927D02*
G01*
X105802812Y-38133624D01*
X105966784Y-38201544D01*
X106114354Y-38300147D01*
X106239853Y-38425646D01*
X106338456Y-38573216D01*
X106406376Y-38737188D01*
X106441000Y-38911259D01*
X106441000Y-39088741D01*
X106406376Y-39262812D01*
X106338456Y-39426784D01*
X106239853Y-39574354D01*
X106114354Y-39699853D01*
X105966784Y-39798456D01*
X105802812Y-39866376D01*
X105653512Y-39896073D01*
X105628742Y-39901000D01*
X105451258Y-39901000D01*
X105426488Y-39896073D01*
X105277188Y-39866376D01*
X105113216Y-39798456D01*
X104965646Y-39699853D01*
X104840147Y-39574354D01*
X104741544Y-39426784D01*
X104673624Y-39262812D01*
X104639000Y-39088741D01*
X104639000Y-38911259D01*
X104673624Y-38737188D01*
X104741544Y-38573216D01*
X104840147Y-38425646D01*
X104965646Y-38300147D01*
X105113216Y-38201544D01*
X105277188Y-38133624D01*
X105426488Y-38103927D01*
X105451258Y-38099000D01*
X105628742Y-38099000D01*
X105653512Y-38103927D01*
G37*
G36*
X108193512Y-38103927D02*
G01*
X108342812Y-38133624D01*
X108506784Y-38201544D01*
X108654354Y-38300147D01*
X108779853Y-38425646D01*
X108878456Y-38573216D01*
X108946376Y-38737188D01*
X108981000Y-38911259D01*
X108981000Y-39088741D01*
X108946376Y-39262812D01*
X108878456Y-39426784D01*
X108779853Y-39574354D01*
X108654354Y-39699853D01*
X108506784Y-39798456D01*
X108342812Y-39866376D01*
X108193512Y-39896073D01*
X108168742Y-39901000D01*
X107991258Y-39901000D01*
X107966488Y-39896073D01*
X107817188Y-39866376D01*
X107653216Y-39798456D01*
X107505646Y-39699853D01*
X107380147Y-39574354D01*
X107281544Y-39426784D01*
X107213624Y-39262812D01*
X107179000Y-39088741D01*
X107179000Y-38911259D01*
X107213624Y-38737188D01*
X107281544Y-38573216D01*
X107380147Y-38425646D01*
X107505646Y-38300147D01*
X107653216Y-38201544D01*
X107817188Y-38133624D01*
X107966488Y-38103927D01*
X107991258Y-38099000D01*
X108168742Y-38099000D01*
X108193512Y-38103927D01*
G37*
G36*
X110733512Y-38103927D02*
G01*
X110882812Y-38133624D01*
X111046784Y-38201544D01*
X111194354Y-38300147D01*
X111319853Y-38425646D01*
X111418456Y-38573216D01*
X111486376Y-38737188D01*
X111521000Y-38911259D01*
X111521000Y-39088741D01*
X111486376Y-39262812D01*
X111418456Y-39426784D01*
X111319853Y-39574354D01*
X111194354Y-39699853D01*
X111046784Y-39798456D01*
X110882812Y-39866376D01*
X110733512Y-39896073D01*
X110708742Y-39901000D01*
X110531258Y-39901000D01*
X110506488Y-39896073D01*
X110357188Y-39866376D01*
X110193216Y-39798456D01*
X110045646Y-39699853D01*
X109920147Y-39574354D01*
X109821544Y-39426784D01*
X109753624Y-39262812D01*
X109719000Y-39088741D01*
X109719000Y-38911259D01*
X109753624Y-38737188D01*
X109821544Y-38573216D01*
X109920147Y-38425646D01*
X110045646Y-38300147D01*
X110193216Y-38201544D01*
X110357188Y-38133624D01*
X110506488Y-38103927D01*
X110531258Y-38099000D01*
X110708742Y-38099000D01*
X110733512Y-38103927D01*
G37*
G36*
X226733512Y-38103927D02*
G01*
X226882812Y-38133624D01*
X227046784Y-38201544D01*
X227194354Y-38300147D01*
X227319853Y-38425646D01*
X227418456Y-38573216D01*
X227486376Y-38737188D01*
X227521000Y-38911259D01*
X227521000Y-39088741D01*
X227486376Y-39262812D01*
X227418456Y-39426784D01*
X227319853Y-39574354D01*
X227194354Y-39699853D01*
X227046784Y-39798456D01*
X226882812Y-39866376D01*
X226733512Y-39896073D01*
X226708742Y-39901000D01*
X226531258Y-39901000D01*
X226506488Y-39896073D01*
X226357188Y-39866376D01*
X226193216Y-39798456D01*
X226045646Y-39699853D01*
X225920147Y-39574354D01*
X225821544Y-39426784D01*
X225753624Y-39262812D01*
X225719000Y-39088741D01*
X225719000Y-38911259D01*
X225753624Y-38737188D01*
X225821544Y-38573216D01*
X225920147Y-38425646D01*
X226045646Y-38300147D01*
X226193216Y-38201544D01*
X226357188Y-38133624D01*
X226506488Y-38103927D01*
X226531258Y-38099000D01*
X226708742Y-38099000D01*
X226733512Y-38103927D01*
G37*
G36*
X224193512Y-38103927D02*
G01*
X224342812Y-38133624D01*
X224506784Y-38201544D01*
X224654354Y-38300147D01*
X224779853Y-38425646D01*
X224878456Y-38573216D01*
X224946376Y-38737188D01*
X224981000Y-38911259D01*
X224981000Y-39088741D01*
X224946376Y-39262812D01*
X224878456Y-39426784D01*
X224779853Y-39574354D01*
X224654354Y-39699853D01*
X224506784Y-39798456D01*
X224342812Y-39866376D01*
X224193512Y-39896073D01*
X224168742Y-39901000D01*
X223991258Y-39901000D01*
X223966488Y-39896073D01*
X223817188Y-39866376D01*
X223653216Y-39798456D01*
X223505646Y-39699853D01*
X223380147Y-39574354D01*
X223281544Y-39426784D01*
X223213624Y-39262812D01*
X223179000Y-39088741D01*
X223179000Y-38911259D01*
X223213624Y-38737188D01*
X223281544Y-38573216D01*
X223380147Y-38425646D01*
X223505646Y-38300147D01*
X223653216Y-38201544D01*
X223817188Y-38133624D01*
X223966488Y-38103927D01*
X223991258Y-38099000D01*
X224168742Y-38099000D01*
X224193512Y-38103927D01*
G37*
G36*
X221653512Y-38103927D02*
G01*
X221802812Y-38133624D01*
X221966784Y-38201544D01*
X222114354Y-38300147D01*
X222239853Y-38425646D01*
X222338456Y-38573216D01*
X222406376Y-38737188D01*
X222441000Y-38911259D01*
X222441000Y-39088741D01*
X222406376Y-39262812D01*
X222338456Y-39426784D01*
X222239853Y-39574354D01*
X222114354Y-39699853D01*
X221966784Y-39798456D01*
X221802812Y-39866376D01*
X221653512Y-39896073D01*
X221628742Y-39901000D01*
X221451258Y-39901000D01*
X221426488Y-39896073D01*
X221277188Y-39866376D01*
X221113216Y-39798456D01*
X220965646Y-39699853D01*
X220840147Y-39574354D01*
X220741544Y-39426784D01*
X220673624Y-39262812D01*
X220639000Y-39088741D01*
X220639000Y-38911259D01*
X220673624Y-38737188D01*
X220741544Y-38573216D01*
X220840147Y-38425646D01*
X220965646Y-38300147D01*
X221113216Y-38201544D01*
X221277188Y-38133624D01*
X221426488Y-38103927D01*
X221451258Y-38099000D01*
X221628742Y-38099000D01*
X221653512Y-38103927D01*
G37*
G36*
X219901000Y-39901000D02*
G01*
X218099000Y-39901000D01*
X218099000Y-38099000D01*
X219901000Y-38099000D01*
X219901000Y-39901000D01*
G37*
G36*
X168733512Y-38103927D02*
G01*
X168882812Y-38133624D01*
X169046784Y-38201544D01*
X169194354Y-38300147D01*
X169319853Y-38425646D01*
X169418456Y-38573216D01*
X169486376Y-38737188D01*
X169521000Y-38911259D01*
X169521000Y-39088741D01*
X169486376Y-39262812D01*
X169418456Y-39426784D01*
X169319853Y-39574354D01*
X169194354Y-39699853D01*
X169046784Y-39798456D01*
X168882812Y-39866376D01*
X168733512Y-39896073D01*
X168708742Y-39901000D01*
X168531258Y-39901000D01*
X168506488Y-39896073D01*
X168357188Y-39866376D01*
X168193216Y-39798456D01*
X168045646Y-39699853D01*
X167920147Y-39574354D01*
X167821544Y-39426784D01*
X167753624Y-39262812D01*
X167719000Y-39088741D01*
X167719000Y-38911259D01*
X167753624Y-38737188D01*
X167821544Y-38573216D01*
X167920147Y-38425646D01*
X168045646Y-38300147D01*
X168193216Y-38201544D01*
X168357188Y-38133624D01*
X168506488Y-38103927D01*
X168531258Y-38099000D01*
X168708742Y-38099000D01*
X168733512Y-38103927D01*
G37*
G36*
X166193512Y-38103927D02*
G01*
X166342812Y-38133624D01*
X166506784Y-38201544D01*
X166654354Y-38300147D01*
X166779853Y-38425646D01*
X166878456Y-38573216D01*
X166946376Y-38737188D01*
X166981000Y-38911259D01*
X166981000Y-39088741D01*
X166946376Y-39262812D01*
X166878456Y-39426784D01*
X166779853Y-39574354D01*
X166654354Y-39699853D01*
X166506784Y-39798456D01*
X166342812Y-39866376D01*
X166193512Y-39896073D01*
X166168742Y-39901000D01*
X165991258Y-39901000D01*
X165966488Y-39896073D01*
X165817188Y-39866376D01*
X165653216Y-39798456D01*
X165505646Y-39699853D01*
X165380147Y-39574354D01*
X165281544Y-39426784D01*
X165213624Y-39262812D01*
X165179000Y-39088741D01*
X165179000Y-38911259D01*
X165213624Y-38737188D01*
X165281544Y-38573216D01*
X165380147Y-38425646D01*
X165505646Y-38300147D01*
X165653216Y-38201544D01*
X165817188Y-38133624D01*
X165966488Y-38103927D01*
X165991258Y-38099000D01*
X166168742Y-38099000D01*
X166193512Y-38103927D01*
G37*
G36*
X163653512Y-38103927D02*
G01*
X163802812Y-38133624D01*
X163966784Y-38201544D01*
X164114354Y-38300147D01*
X164239853Y-38425646D01*
X164338456Y-38573216D01*
X164406376Y-38737188D01*
X164441000Y-38911259D01*
X164441000Y-39088741D01*
X164406376Y-39262812D01*
X164338456Y-39426784D01*
X164239853Y-39574354D01*
X164114354Y-39699853D01*
X163966784Y-39798456D01*
X163802812Y-39866376D01*
X163653512Y-39896073D01*
X163628742Y-39901000D01*
X163451258Y-39901000D01*
X163426488Y-39896073D01*
X163277188Y-39866376D01*
X163113216Y-39798456D01*
X162965646Y-39699853D01*
X162840147Y-39574354D01*
X162741544Y-39426784D01*
X162673624Y-39262812D01*
X162639000Y-39088741D01*
X162639000Y-38911259D01*
X162673624Y-38737188D01*
X162741544Y-38573216D01*
X162840147Y-38425646D01*
X162965646Y-38300147D01*
X163113216Y-38201544D01*
X163277188Y-38133624D01*
X163426488Y-38103927D01*
X163451258Y-38099000D01*
X163628742Y-38099000D01*
X163653512Y-38103927D01*
G37*
G36*
X161901000Y-39901000D02*
G01*
X160099000Y-39901000D01*
X160099000Y-38099000D01*
X161901000Y-38099000D01*
X161901000Y-39901000D01*
G37*
G36*
X103901000Y-39901000D02*
G01*
X102099000Y-39901000D01*
X102099000Y-38099000D01*
X103901000Y-38099000D01*
X103901000Y-39901000D01*
G37*
G36*
X335901000Y-39901000D02*
G01*
X334099000Y-39901000D01*
X334099000Y-38099000D01*
X335901000Y-38099000D01*
X335901000Y-39901000D01*
G37*
G36*
X277901000Y-39901000D02*
G01*
X276099000Y-39901000D01*
X276099000Y-38099000D01*
X277901000Y-38099000D01*
X277901000Y-39901000D01*
G37*
G36*
X279653512Y-38103927D02*
G01*
X279802812Y-38133624D01*
X279966784Y-38201544D01*
X280114354Y-38300147D01*
X280239853Y-38425646D01*
X280338456Y-38573216D01*
X280406376Y-38737188D01*
X280441000Y-38911259D01*
X280441000Y-39088741D01*
X280406376Y-39262812D01*
X280338456Y-39426784D01*
X280239853Y-39574354D01*
X280114354Y-39699853D01*
X279966784Y-39798456D01*
X279802812Y-39866376D01*
X279653512Y-39896073D01*
X279628742Y-39901000D01*
X279451258Y-39901000D01*
X279426488Y-39896073D01*
X279277188Y-39866376D01*
X279113216Y-39798456D01*
X278965646Y-39699853D01*
X278840147Y-39574354D01*
X278741544Y-39426784D01*
X278673624Y-39262812D01*
X278639000Y-39088741D01*
X278639000Y-38911259D01*
X278673624Y-38737188D01*
X278741544Y-38573216D01*
X278840147Y-38425646D01*
X278965646Y-38300147D01*
X279113216Y-38201544D01*
X279277188Y-38133624D01*
X279426488Y-38103927D01*
X279451258Y-38099000D01*
X279628742Y-38099000D01*
X279653512Y-38103927D01*
G37*
G36*
X282193512Y-38103927D02*
G01*
X282342812Y-38133624D01*
X282506784Y-38201544D01*
X282654354Y-38300147D01*
X282779853Y-38425646D01*
X282878456Y-38573216D01*
X282946376Y-38737188D01*
X282981000Y-38911259D01*
X282981000Y-39088741D01*
X282946376Y-39262812D01*
X282878456Y-39426784D01*
X282779853Y-39574354D01*
X282654354Y-39699853D01*
X282506784Y-39798456D01*
X282342812Y-39866376D01*
X282193512Y-39896073D01*
X282168742Y-39901000D01*
X281991258Y-39901000D01*
X281966488Y-39896073D01*
X281817188Y-39866376D01*
X281653216Y-39798456D01*
X281505646Y-39699853D01*
X281380147Y-39574354D01*
X281281544Y-39426784D01*
X281213624Y-39262812D01*
X281179000Y-39088741D01*
X281179000Y-38911259D01*
X281213624Y-38737188D01*
X281281544Y-38573216D01*
X281380147Y-38425646D01*
X281505646Y-38300147D01*
X281653216Y-38201544D01*
X281817188Y-38133624D01*
X281966488Y-38103927D01*
X281991258Y-38099000D01*
X282168742Y-38099000D01*
X282193512Y-38103927D01*
G37*
G36*
X284733512Y-38103927D02*
G01*
X284882812Y-38133624D01*
X285046784Y-38201544D01*
X285194354Y-38300147D01*
X285319853Y-38425646D01*
X285418456Y-38573216D01*
X285486376Y-38737188D01*
X285521000Y-38911259D01*
X285521000Y-39088741D01*
X285486376Y-39262812D01*
X285418456Y-39426784D01*
X285319853Y-39574354D01*
X285194354Y-39699853D01*
X285046784Y-39798456D01*
X284882812Y-39866376D01*
X284733512Y-39896073D01*
X284708742Y-39901000D01*
X284531258Y-39901000D01*
X284506488Y-39896073D01*
X284357188Y-39866376D01*
X284193216Y-39798456D01*
X284045646Y-39699853D01*
X283920147Y-39574354D01*
X283821544Y-39426784D01*
X283753624Y-39262812D01*
X283719000Y-39088741D01*
X283719000Y-38911259D01*
X283753624Y-38737188D01*
X283821544Y-38573216D01*
X283920147Y-38425646D01*
X284045646Y-38300147D01*
X284193216Y-38201544D01*
X284357188Y-38133624D01*
X284506488Y-38103927D01*
X284531258Y-38099000D01*
X284708742Y-38099000D01*
X284733512Y-38103927D01*
G37*
G36*
X337653512Y-38103927D02*
G01*
X337802812Y-38133624D01*
X337966784Y-38201544D01*
X338114354Y-38300147D01*
X338239853Y-38425646D01*
X338338456Y-38573216D01*
X338406376Y-38737188D01*
X338441000Y-38911259D01*
X338441000Y-39088741D01*
X338406376Y-39262812D01*
X338338456Y-39426784D01*
X338239853Y-39574354D01*
X338114354Y-39699853D01*
X337966784Y-39798456D01*
X337802812Y-39866376D01*
X337653512Y-39896073D01*
X337628742Y-39901000D01*
X337451258Y-39901000D01*
X337426488Y-39896073D01*
X337277188Y-39866376D01*
X337113216Y-39798456D01*
X336965646Y-39699853D01*
X336840147Y-39574354D01*
X336741544Y-39426784D01*
X336673624Y-39262812D01*
X336639000Y-39088741D01*
X336639000Y-38911259D01*
X336673624Y-38737188D01*
X336741544Y-38573216D01*
X336840147Y-38425646D01*
X336965646Y-38300147D01*
X337113216Y-38201544D01*
X337277188Y-38133624D01*
X337426488Y-38103927D01*
X337451258Y-38099000D01*
X337628742Y-38099000D01*
X337653512Y-38103927D01*
G37*
G36*
X340193512Y-38103927D02*
G01*
X340342812Y-38133624D01*
X340506784Y-38201544D01*
X340654354Y-38300147D01*
X340779853Y-38425646D01*
X340878456Y-38573216D01*
X340946376Y-38737188D01*
X340981000Y-38911259D01*
X340981000Y-39088741D01*
X340946376Y-39262812D01*
X340878456Y-39426784D01*
X340779853Y-39574354D01*
X340654354Y-39699853D01*
X340506784Y-39798456D01*
X340342812Y-39866376D01*
X340193512Y-39896073D01*
X340168742Y-39901000D01*
X339991258Y-39901000D01*
X339966488Y-39896073D01*
X339817188Y-39866376D01*
X339653216Y-39798456D01*
X339505646Y-39699853D01*
X339380147Y-39574354D01*
X339281544Y-39426784D01*
X339213624Y-39262812D01*
X339179000Y-39088741D01*
X339179000Y-38911259D01*
X339213624Y-38737188D01*
X339281544Y-38573216D01*
X339380147Y-38425646D01*
X339505646Y-38300147D01*
X339653216Y-38201544D01*
X339817188Y-38133624D01*
X339966488Y-38103927D01*
X339991258Y-38099000D01*
X340168742Y-38099000D01*
X340193512Y-38103927D01*
G37*
G36*
X342733512Y-38103927D02*
G01*
X342882812Y-38133624D01*
X343046784Y-38201544D01*
X343194354Y-38300147D01*
X343319853Y-38425646D01*
X343418456Y-38573216D01*
X343486376Y-38737188D01*
X343521000Y-38911259D01*
X343521000Y-39088741D01*
X343486376Y-39262812D01*
X343418456Y-39426784D01*
X343319853Y-39574354D01*
X343194354Y-39699853D01*
X343046784Y-39798456D01*
X342882812Y-39866376D01*
X342733512Y-39896073D01*
X342708742Y-39901000D01*
X342531258Y-39901000D01*
X342506488Y-39896073D01*
X342357188Y-39866376D01*
X342193216Y-39798456D01*
X342045646Y-39699853D01*
X341920147Y-39574354D01*
X341821544Y-39426784D01*
X341753624Y-39262812D01*
X341719000Y-39088741D01*
X341719000Y-38911259D01*
X341753624Y-38737188D01*
X341821544Y-38573216D01*
X341920147Y-38425646D01*
X342045646Y-38300147D01*
X342193216Y-38201544D01*
X342357188Y-38133624D01*
X342506488Y-38103927D01*
X342531258Y-38099000D01*
X342708742Y-38099000D01*
X342733512Y-38103927D01*
G37*
M02*
