M48
INCH
T1C0.0098
T2C0.0118
T3C0.0157
T4C0.0197
T5C0.0394
T6C0.1260
T7C0.2520
%
G90
G05
T1
X2.8319Y-1.8937
X2.8425Y-1.8579
X2.8429Y-1.6008
X2.8441Y-1.5122
X2.8449Y-1.5618
X2.8469Y-1.478
X2.8488Y-1.8138
X2.8528Y-1.778
X2.8606Y-1.6366
X2.8925Y-2.6921
X2.8972Y-1.6429
X2.8976Y-1.8937
X2.8976Y-2.9035
X2.901Y-2.9823
X2.9059Y-2.5768
X2.9067Y-2.6055
X2.9071Y-2.5528
X2.9071Y-2.6311
X2.9094Y-2.6579
X2.9094Y-2.6579
X2.9094Y-2.6579
X2.9106Y-2.7201
X2.9122Y-2.5268
X2.9126Y-2.5004
X2.9134Y-2.4535
X2.9134Y-2.4776
X2.9154Y-2.4276
X2.926Y-2.6783
X2.926Y-2.6783
X2.926Y-2.6783
X2.9319Y-2.7358
X2.9339Y-2.4063
X2.9437Y-2.7
X2.9441Y-1.8933
X2.9543Y-2.3854
X2.9563Y-2.7248
X2.9665Y-1.6102
X2.9665Y-1.7244
X2.9665Y-1.748
X2.9665Y-1.7717
X2.9665Y-1.7953
X2.9665Y-1.8189
X2.9744Y-1.6299
X2.9744Y-1.6535
X2.9744Y-1.6772
X2.9744Y-1.7008
X2.9744Y-1.8425
X2.9744Y-1.8661
X2.9744Y-1.8898
X2.9744Y-2.2504
X2.9744Y-2.2728
X2.9744Y-2.2945
X2.9744Y-2.3181
X2.9752Y-2.3413
X2.9752Y-2.3634
X2.9764Y-1.9134
X2.9921Y-2.4768
X2.9925Y-2.5031
X2.9925Y-2.5276
X2.9965Y-2.4508
X3.0008Y-2.5598
X3.0016Y-2.6102
X3.002Y-2.585
X3.0028Y-2.6425
X3.0079Y-2.0236
X3.0165Y-2.4311
X3.0165Y-2.4311
X3.0165Y-2.4311
X3.0382Y-2.4106
X3.0382Y-2.4106
X3.0382Y-2.4106
X3.0433Y-1.8465
X3.0484Y-2.2776
X3.0496Y-2.3004
X3.05Y-2.3232
X3.05Y-2.3461
X3.0508Y-2.3677
X3.0508Y-2.3898
X3.0512Y-1.6417
X3.0512Y-1.6654
X3.0512Y-1.689
X3.0551Y-1.6181
X3.0551Y-1.7126
X3.0551Y-1.8268
X3.0591Y-1.7362
X3.0591Y-1.7598
X3.0591Y-1.7835
X3.0591Y-1.8071
X3.1283Y-1.6445
X3.1638Y-1.6445
X3.187Y-1.487
X3.189Y-1.5299
X3.1913Y-1.6236
X3.1917Y-1.5756
X5.1154Y-1.8937
X5.126Y-1.8579
X5.1264Y-1.6008
X5.1276Y-1.5122
X5.1283Y-1.5618
X5.1303Y-1.478
X5.1323Y-1.8138
X5.1362Y-1.778
X5.1441Y-1.6366
X5.176Y-2.6921
X5.1807Y-1.6429
X5.1811Y-1.8937
X5.1811Y-2.9035
X5.1844Y-2.9823
X5.1894Y-2.5768
X5.1902Y-2.6055
X5.1906Y-2.5528
X5.1906Y-2.6311
X5.1929Y-2.6579
X5.1929Y-2.6579
X5.1929Y-2.6579
X5.1941Y-2.7201
X5.1957Y-2.5268
X5.1961Y-2.5004
X5.1969Y-2.4535
X5.1969Y-2.4776
X5.1988Y-2.4276
X5.2094Y-2.6783
X5.2094Y-2.6783
X5.2094Y-2.6783
X5.2154Y-2.7358
X5.2173Y-2.4063
X5.2272Y-2.7
X5.2276Y-1.8933
X5.2378Y-2.3854
X5.2398Y-2.7248
X5.25Y-1.6102
X5.25Y-1.7244
X5.25Y-1.748
X5.25Y-1.7717
X5.25Y-1.7953
X5.25Y-1.8189
X5.2579Y-1.6299
X5.2579Y-1.6535
X5.2579Y-1.6772
X5.2579Y-1.7008
X5.2579Y-1.8425
X5.2579Y-1.8661
X5.2579Y-1.8898
X5.2579Y-1.9134
X5.2579Y-2.2504
X5.2579Y-2.2728
X5.2579Y-2.2945
X5.2579Y-2.3181
X5.2587Y-2.3413
X5.2587Y-2.3634
X5.2756Y-2.4768
X5.276Y-2.5031
X5.276Y-2.5276
X5.2799Y-2.4508
X5.2843Y-2.5598
X5.285Y-2.6102
X5.2854Y-2.585
X5.2862Y-2.6425
X5.2913Y-2.0236
X5.3Y-2.4311
X5.3Y-2.4311
X5.3Y-2.4311
X5.3217Y-2.4106
X5.3217Y-2.4106
X5.3217Y-2.4106
X5.3268Y-1.8465
X5.3319Y-2.2776
X5.3331Y-2.3004
X5.3335Y-2.3232
X5.3335Y-2.3461
X5.3343Y-2.3677
X5.3343Y-2.3898
X5.3346Y-1.6417
X5.3346Y-1.6654
X5.3346Y-1.689
X5.3386Y-1.6181
X5.3386Y-1.7126
X5.3386Y-1.8268
X5.3425Y-1.7362
X5.3425Y-1.7598
X5.3425Y-1.7835
X5.3425Y-1.8071
X5.4118Y-1.6445
X5.4472Y-1.6445
X5.4705Y-1.487
X5.4724Y-1.5299
X5.4748Y-1.6236
X5.4752Y-1.5756
X7.3988Y-1.8937
X7.4094Y-1.8579
X7.4098Y-1.6008
X7.411Y-1.5122
X7.4118Y-1.5618
X7.4138Y-1.478
X7.4157Y-1.8138
X7.4197Y-1.778
X7.4276Y-1.6366
X7.4594Y-2.6921
X7.4642Y-1.6429
X7.4646Y-1.8937
X7.4646Y-2.9035
X7.4679Y-2.9823
X7.4728Y-2.5768
X7.4736Y-2.6055
X7.474Y-2.5528
X7.474Y-2.6311
X7.4764Y-2.6579
X7.4764Y-2.6579
X7.4764Y-2.6579
X7.4776Y-2.7201
X7.4791Y-2.5268
X7.4795Y-2.5004
X7.4803Y-2.4535
X7.4803Y-2.4776
X7.4823Y-2.4276
X7.4929Y-2.6783
X7.4929Y-2.6783
X7.4929Y-2.6783
X7.4988Y-2.7358
X7.5008Y-2.4063
X7.5106Y-2.7
X7.511Y-1.8933
X7.5213Y-2.3854
X7.5232Y-2.7248
X7.5335Y-1.6102
X7.5335Y-1.7244
X7.5335Y-1.748
X7.5335Y-1.7717
X7.5335Y-1.7953
X7.5335Y-1.8189
X7.5413Y-1.6299
X7.5413Y-1.6535
X7.5413Y-1.6772
X7.5413Y-1.7008
X7.5413Y-1.8425
X7.5413Y-1.8661
X7.5413Y-1.8898
X7.5413Y-1.9134
X7.5413Y-2.2504
X7.5413Y-2.2728
X7.5413Y-2.2945
X7.5413Y-2.3181
X7.5421Y-2.3413
X7.5421Y-2.3634
X7.5591Y-2.4768
X7.5594Y-2.5031
X7.5594Y-2.5276
X7.5634Y-2.4508
X7.5677Y-2.5598
X7.5685Y-2.6102
X7.5689Y-2.585
X7.5697Y-2.6425
X7.5748Y-2.0236
X7.5835Y-2.4311
X7.5835Y-2.4311
X7.5835Y-2.4311
X7.6051Y-2.4106
X7.6051Y-2.4106
X7.6051Y-2.4106
X7.6102Y-1.8465
X7.6154Y-2.2776
X7.6165Y-2.3004
X7.6169Y-2.3232
X7.6169Y-2.3461
X7.6177Y-2.3677
X7.6177Y-2.3898
X7.6181Y-1.6417
X7.6181Y-1.6654
X7.6181Y-1.689
X7.622Y-1.6181
X7.622Y-1.7126
X7.622Y-1.8268
X7.626Y-1.7362
X7.626Y-1.7598
X7.626Y-1.7835
X7.626Y-1.8071
X7.6953Y-1.6445
X7.7307Y-1.6445
X7.7539Y-1.487
X7.7559Y-1.5299
X7.7583Y-1.6236
X7.7587Y-1.5756
X9.6823Y-1.8937
X9.6929Y-1.8579
X9.6933Y-1.6008
X9.6945Y-1.5122
X9.6953Y-1.5618
X9.6972Y-1.478
X9.6992Y-1.8138
X9.7031Y-1.778
X9.711Y-1.6366
X9.7429Y-2.6921
X9.7476Y-1.6429
X9.748Y-1.8937
X9.748Y-2.9035
X9.7514Y-2.9823
X9.7563Y-2.5768
X9.7571Y-2.6055
X9.7575Y-2.5528
X9.7575Y-2.6311
X9.7598Y-2.6579
X9.7598Y-2.6579
X9.7598Y-2.6579
X9.761Y-2.7201
X9.7626Y-2.5268
X9.763Y-2.5004
X9.7638Y-2.4535
X9.7638Y-2.4776
X9.7657Y-2.4276
X9.7764Y-2.6783
X9.7764Y-2.6783
X9.7764Y-2.6783
X9.7823Y-2.7358
X9.7843Y-2.4063
X9.7941Y-2.7
X9.7945Y-1.8933
X9.8047Y-2.3854
X9.8067Y-2.7248
X9.8169Y-1.6102
X9.8169Y-1.7244
X9.8169Y-1.748
X9.8169Y-1.7717
X9.8169Y-1.7953
X9.8169Y-1.8189
X9.8248Y-1.6299
X9.8248Y-1.6535
X9.8248Y-1.6772
X9.8248Y-1.7008
X9.8248Y-1.8425
X9.8248Y-1.8661
X9.8248Y-1.8898
X9.8248Y-1.9134
X9.8248Y-2.2504
X9.8248Y-2.2728
X9.8248Y-2.2945
X9.8248Y-2.3181
X9.8256Y-2.3413
X9.8256Y-2.3634
X9.8425Y-2.4768
X9.8429Y-2.5031
X9.8429Y-2.5276
X9.8469Y-2.4508
X9.8512Y-2.5598
X9.852Y-2.6102
X9.8524Y-2.585
X9.8531Y-2.6425
X9.8583Y-2.0236
X9.8669Y-2.4311
X9.8669Y-2.4311
X9.8669Y-2.4311
X9.8886Y-2.4106
X9.8886Y-2.4106
X9.8886Y-2.4106
X9.8937Y-1.8465
X9.8988Y-2.2776
X9.9Y-2.3004
X9.9004Y-2.3232
X9.9004Y-2.3461
X9.9012Y-2.3677
X9.9012Y-2.3898
X9.9016Y-1.6417
X9.9016Y-1.6654
X9.9016Y-1.689
X9.9055Y-1.6181
X9.9055Y-1.7126
X9.9055Y-1.8268
X9.9094Y-1.7362
X9.9094Y-1.7598
X9.9094Y-1.7835
X9.9094Y-1.8071
X9.9787Y-1.6445
X10.0142Y-1.6445
X10.0374Y-1.487
X10.0394Y-1.5299
X10.0417Y-1.6236
X10.0421Y-1.5756
X11.9657Y-1.8937
X11.9764Y-1.8579
X11.9768Y-1.6008
X11.978Y-1.5122
X11.9787Y-1.5618
X11.9807Y-1.478
X11.9827Y-1.8138
X11.9866Y-1.778
X11.9945Y-1.6366
X12.0264Y-2.6921
X12.0311Y-1.6429
X12.0315Y-1.8937
X12.0315Y-2.9035
X12.0348Y-2.9823
X12.0398Y-2.5768
X12.0406Y-2.6055
X12.0409Y-2.5528
X12.0409Y-2.6311
X12.0433Y-2.6579
X12.0433Y-2.6579
X12.0433Y-2.6579
X12.0445Y-2.7201
X12.0461Y-2.5268
X12.0465Y-2.5004
X12.0472Y-2.4535
X12.0472Y-2.4776
X12.0492Y-2.4276
X12.0598Y-2.6783
X12.0598Y-2.6783
X12.0598Y-2.6783
X12.0657Y-2.7358
X12.0677Y-2.4063
X12.0776Y-2.7
X12.078Y-1.8933
X12.0882Y-2.3854
X12.0902Y-2.7248
X12.1004Y-1.7244
X12.1004Y-1.748
X12.1004Y-1.7717
X12.1004Y-1.7953
X12.1004Y-1.8189
X12.1024Y-1.6102
X12.1083Y-1.6299
X12.1083Y-1.6535
X12.1083Y-1.6772
X12.1083Y-1.7008
X12.1083Y-2.2504
X12.1083Y-2.2728
X12.1083Y-2.2945
X12.1083Y-2.3181
X12.1091Y-2.3413
X12.1091Y-2.3634
X12.1102Y-1.8425
X12.1102Y-1.8661
X12.1102Y-1.8898
X12.1102Y-1.9134
X12.126Y-2.4768
X12.1264Y-2.5031
X12.1264Y-2.5276
X12.1303Y-2.4508
X12.1346Y-2.5598
X12.1354Y-2.6102
X12.1358Y-2.585
X12.1366Y-2.6425
X12.1417Y-2.0236
X12.1504Y-2.4311
X12.1504Y-2.4311
X12.1504Y-2.4311
X12.172Y-2.4106
X12.172Y-2.4106
X12.172Y-2.4106
X12.1772Y-1.8465
X12.1823Y-2.2776
X12.1835Y-2.3004
X12.1839Y-2.3232
X12.1839Y-2.3461
X12.1846Y-2.3677
X12.1846Y-2.3898
X12.185Y-1.6417
X12.185Y-1.6654
X12.185Y-1.689
X12.189Y-1.6181
X12.189Y-1.7126
X12.189Y-1.8268
X12.1929Y-1.7362
X12.1929Y-1.7598
X12.1929Y-1.7835
X12.1929Y-1.8071
X12.2622Y-1.6445
X12.2976Y-1.6445
X12.3209Y-1.487
X12.3228Y-1.5299
X12.3252Y-1.6236
X12.3256Y-1.5756
T2
X2.252Y-1.5079
X2.252Y-1.6654
X2.252Y-1.8228
X2.252Y-1.9803
X2.252Y-2.1378
X2.252Y-2.2953
X2.252Y-2.4528
X2.252Y-2.6102
X2.252Y-2.7677
X2.252Y-4.437
X2.252Y-4.5945
X2.2835Y-2.8937
X2.3465Y-1.5709
X2.3465Y-1.7283
X2.3465Y-2.2008
X2.3465Y-2.3583
X2.3465Y-2.5157
X2.3465Y-2.6732
X2.378Y-2.7992
X2.4409Y-1.5079
X2.4409Y-1.6654
X2.4409Y-2.2638
X2.4409Y-2.4213
X2.4409Y-2.5787
X2.4409Y-2.8937
X2.4724Y-2.7047
X2.5039Y-1.7598
X2.5039Y-2.1693
X2.5354Y-1.5709
X2.5354Y-2.3268
X2.5354Y-2.4843
X2.5354Y-2.7992
X2.5669Y-2.6102
X2.5984Y-1.6969
X2.5984Y-1.8543
X2.5984Y-2.0748
X2.5984Y-2.9528
X2.5984Y-2.9921
X2.5984Y-4.437
X2.5984Y-4.5945
X2.6299Y-2.3898
X2.6299Y-2.7047
X2.6378Y-2.9528
X2.6378Y-2.9921
X2.6614Y-2.5157
X2.6929Y-1.6339
X2.6929Y-3.4606
X2.6929Y-3.6181
X2.6929Y-3.7756
X2.6929Y-3.9331
X2.7244Y-1.5079
X2.7244Y-2.6102
X2.7244Y-4.4055
X2.7244Y-4.563
X2.7559Y-2.4213
X2.7559Y-3.3504
X2.7559Y-3.3858
X2.7559Y-4.0276
X2.7677Y-2.7343
X2.7677Y-2.7657
X2.7874Y-3.5236
X2.7874Y-3.6811
X2.7874Y-3.8386
X2.8189Y-2.5157
X2.8189Y-4.4685
X2.8189Y-4.626
X2.8504Y-3.4291
X2.8819Y-1.6969
X2.8819Y-2.2638
X2.9134Y-1.8228
X2.9134Y-4.248
X2.9134Y-4.4055
X2.9134Y-4.563
X2.9449Y-3.9646
X3.0079Y-2.0472
X3.0079Y-2.0709
X3.0315Y-2.0236
X3.0315Y-2.0472
X3.0315Y-2.0709
X3.0413Y-2.7362
X3.0551Y-2.0236
X3.0551Y-2.0472
X3.0551Y-2.0709
X3.0709Y-3.5866
X3.1024Y-2.3583
X3.1102Y-2.7756
X3.1339Y-2.1378
X3.1339Y-2.4843
X3.1339Y-3.3976
X3.1339Y-4.0591
X3.1339Y-4.2165
X3.1339Y-4.374
X3.1339Y-4.5315
X3.1811Y-2.7559
X3.2087Y-3.1063
X3.2087Y-3.1378
X3.2126Y-2.7559
X3.2283Y-1.6969
X3.2283Y-2.3268
X3.2283Y-2.6417
X3.2283Y-4.4685
X3.2598Y-1.5079
X3.2598Y-2.4528
X3.2913Y-2.1378
X3.2913Y-4.563
X3.3228Y-1.6024
X3.3504Y-5.685
X3.3543Y-1.8543
X3.3543Y-2.6732
X3.3602Y-5.9055
X3.3642Y-5.7598
X3.3858Y-1.6969
X3.3858Y-4.5
X3.4173Y-1.5079
X3.4272Y-6.0787
X3.4646Y-5.5768
X3.4705Y-5.6693
X3.4724Y-5.7894
X3.4803Y-1.6024
X3.4803Y-4.563
X3.4961Y-5.9646
X3.5315Y-6.1752
X3.5433Y-1.6969
X3.5433Y-4.4685
X3.561Y-6.2953
X3.5748Y-1.5079
X3.5827Y-6.0433
X3.5965Y-6.3976
X3.6378Y-1.6024
X3.6457Y-5.876
X3.6673Y-6.1319
X3.6693Y-5.8051
X3.6929Y-6.2992
X3.7402Y-6.2067
X3.7717Y-6.2776
X3.7953Y-4.5315
X3.8189Y-4.4685
X3.8307Y-6.3976
X3.8898Y-1.5079
X3.9528Y-1.6024
X4.1417Y-1.6969
X4.1417Y-1.8543
X4.1417Y-2.0118
X4.1417Y-2.1693
X4.1417Y-2.3268
X4.1417Y-4.3425
X4.1732Y-4.4685
X4.2047Y-2.4213
X4.2362Y-1.9173
X4.2362Y-2.0748
X4.2362Y-2.2323
X4.2677Y-4.374
X4.2992Y-1.8228
X4.2992Y-2.3268
X4.2992Y-2.4843
X4.3307Y-1.9803
X4.3307Y-2.1378
X4.3622Y-2.5787
X4.3937Y-4.3425
X4.4252Y-1.6339
X4.4252Y-4.4685
X4.4252Y-4.626
X4.4567Y-1.5079
X4.4567Y-1.7598
X4.4567Y-1.9173
X4.4567Y-2.0748
X4.4567Y-2.2323
X4.4567Y-2.3898
X4.4567Y-2.6417
X4.4567Y-2.7992
X4.4882Y-2.5157
X4.5197Y-2.8937
X4.5197Y-4.5315
X4.5512Y-1.5709
X4.5512Y-1.8228
X4.5512Y-1.9803
X4.5512Y-2.1378
X4.5512Y-2.2953
X4.5512Y-2.7047
X4.5827Y-1.6969
X4.5827Y-2.4213
X4.5827Y-2.5787
X4.5827Y-4.437
X4.5827Y-4.626
X4.6142Y-2.7992
X4.6457Y-1.5079
X4.6457Y-1.8858
X4.6457Y-2.0433
X4.6457Y-2.2008
X4.6772Y-1.6339
X4.6772Y-2.3268
X4.6772Y-2.4843
X4.6772Y-2.6417
X4.6772Y-2.8937
X4.7087Y-1.7598
X4.7402Y-1.9488
X4.7402Y-2.1063
X4.7402Y-2.7362
X4.7717Y-1.5394
X4.7717Y-2.2323
X4.7717Y-2.3898
X4.7717Y-2.5472
X4.8031Y-1.6654
X4.8031Y-1.8228
X4.8346Y-2.0118
X4.8346Y-2.6417
X4.8346Y-2.7992
X4.8661Y-2.1378
X4.8661Y-2.4528
X4.8661Y-4.437
X4.8819Y-2.9528
X4.8819Y-2.9921
X4.8976Y-1.5079
X4.8976Y-4.626
X4.9213Y-2.9528
X4.9213Y-2.9921
X4.9291Y-1.6339
X4.9291Y-2.5472
X4.9291Y-2.7047
X4.9606Y-2.3898
X4.9921Y-3.4606
X4.9921Y-3.6181
X4.9921Y-3.7756
X4.9921Y-3.9331
X4.9921Y-4.4685
X5.0236Y-1.5394
X5.0236Y-2.4843
X5.0236Y-2.6417
X5.0236Y-4.5945
X5.0394Y-3.3504
X5.0394Y-3.3858
X5.0512Y-2.7343
X5.0512Y-2.7677
X5.0551Y-1.6654
X5.0551Y-4.0276
X5.0866Y-3.5236
X5.0866Y-3.6811
X5.0866Y-3.8386
X5.0866Y-4.4055
X5.1181Y-2.3898
X5.1181Y-2.5472
X5.1181Y-4.248
X5.1181Y-4.5315
X5.1496Y-2.2638
X5.1496Y-3.3976
X5.1811Y-1.6969
X5.2126Y-3.6181
X5.2126Y-3.9646
X5.2913Y-2.0472
X5.2913Y-2.0709
X5.315Y-2.0236
X5.315Y-2.0472
X5.315Y-2.0709
X5.3248Y-2.7362
X5.3386Y-2.0236
X5.3386Y-2.0472
X5.3386Y-2.0709
X5.3386Y-3.5866
X5.3937Y-2.7756
X5.4016Y-2.1378
X5.4016Y-2.3583
X5.4016Y-2.5157
X5.4016Y-3.3976
X5.4016Y-4.0591
X5.4232Y-6.4291
X5.4331Y-4.4685
X5.4646Y-2.7559
X5.4921Y-3.1063
X5.4921Y-3.1378
X5.4961Y-2.4213
X5.4961Y-2.7559
X5.4961Y-4.563
X5.5276Y-1.5079
X5.5276Y-1.6654
X5.5276Y-2.6417
X5.5591Y-2.1378
X5.5591Y-2.3268
X5.5591Y-2.5157
X5.5906Y-4.4685
X5.622Y-1.5709
X5.622Y-1.8543
X5.6535Y-1.6969
X5.6535Y-2.4213
X5.6535Y-2.6732
X5.6535Y-4.563
X5.6909Y-6.4331
X5.7165Y-1.5079
X5.748Y-1.6339
X5.748Y-4.4685
X5.7559Y-6.2067
X5.7953Y-6.2776
X5.811Y-4.563
X5.8425Y-1.5394
X5.8425Y-1.6969
X5.9291Y-5.876
X5.937Y-1.6024
X5.9528Y-5.8051
X5.9685Y-4.5
X6.0551Y-6.4291
X6.0945Y-4.5315
X6.1024Y-4.4685
X6.1575Y-1.6024
X6.2205Y-1.5079
X6.4409Y-1.6969
X6.4409Y-1.8543
X6.4409Y-2.0118
X6.4409Y-2.1693
X6.4409Y-2.3268
X6.4409Y-4.3425
X6.4409Y-4.5
X6.4783Y-6.4311
X6.5039Y-2.4213
X6.5354Y-1.9173
X6.5354Y-2.0748
X6.5354Y-2.2323
X6.5669Y-2.5157
X6.5669Y-4.374
X6.5984Y-1.7913
X6.5984Y-2.3268
X6.6299Y-1.9803
X6.6299Y-2.1378
X6.6929Y-1.6339
X6.6929Y-4.311
X6.6929Y-4.4685
X6.6929Y-4.626
X6.7441Y-6.4213
X6.7559Y-1.5079
X6.7559Y-1.7283
X6.7559Y-1.8858
X6.7559Y-2.0433
X6.7559Y-2.2008
X6.7559Y-2.3583
X6.7559Y-2.5157
X6.7559Y-2.6732
X6.7559Y-2.8307
X6.7874Y-4.5315
X6.8189Y-1.6024
X6.8504Y-1.7913
X6.8504Y-1.9488
X6.8504Y-2.1063
X6.8504Y-2.2638
X6.8504Y-2.4213
X6.8504Y-2.5787
X6.8504Y-2.7362
X6.8504Y-2.8937
X6.8504Y-4.437
X6.8504Y-4.626
X6.9134Y-1.5079
X6.9134Y-1.6654
X6.9449Y-1.8543
X6.9449Y-2.0118
X6.9449Y-2.1693
X6.9449Y-2.3268
X6.9449Y-2.4843
X6.9449Y-2.6417
X6.9449Y-2.7992
X7.0079Y-1.5709
X7.0079Y-1.7283
X7.0079Y-2.8937
X7.0394Y-1.9173
X7.0394Y-2.0748
X7.0394Y-2.2323
X7.0394Y-2.3898
X7.0394Y-2.5472
X7.0394Y-2.7047
X7.1024Y-1.5079
X7.1024Y-1.6654
X7.1024Y-1.8228
X7.1024Y-2.7992
X7.1339Y-1.9803
X7.1339Y-2.1378
X7.1339Y-2.2953
X7.1339Y-2.4528
X7.1339Y-2.6102
X7.1654Y-2.9528
X7.1654Y-2.9921
X7.1654Y-4.437
X7.1654Y-4.5945
X7.1969Y-1.5709
X7.1969Y-2.7047
X7.2047Y-2.9528
X7.2047Y-2.9921
X7.2283Y-2.3898
X7.2283Y-2.5472
X7.2579Y-6.3268
X7.2598Y-1.6654
X7.2598Y-3.4606
X7.2598Y-3.6181
X7.2598Y-3.7756
X7.2598Y-3.9331
X7.2913Y-1.5079
X7.2913Y-2.6417
X7.2913Y-4.4055
X7.2913Y-4.563
X7.3228Y-2.4528
X7.3228Y-3.3504
X7.3228Y-3.3858
X7.3228Y-4.0276
X7.3465Y-2.7343
X7.3465Y-2.7598
X7.3543Y-1.6024
X7.3543Y-3.5236
X7.3543Y-3.6811
X7.3543Y-3.8386
X7.3858Y-2.5472
X7.3858Y-4.4685
X7.3858Y-4.626
X7.4075Y-5.9823
X7.4173Y-2.3898
X7.4173Y-3.4291
X7.437Y-5.6476
X7.439Y-6.1378
X7.4488Y-1.6969
X7.4488Y-2.2638
X7.4606Y-5.8819
X7.4803Y-1.8228
X7.4803Y-4.248
X7.4803Y-4.4055
X7.4803Y-4.563
X7.5079Y-5.9803
X7.5118Y-3.9646
X7.5177Y-6.0453
X7.5197Y-5.7224
X7.5748Y-2.0472
X7.5748Y-2.0709
X7.5906Y-5.7815
X7.5925Y-5.9764
X7.5984Y-2.0236
X7.5984Y-2.0472
X7.5984Y-2.0709
X7.6004Y-5.8878
X7.6083Y-2.7362
X7.622Y-2.0236
X7.622Y-2.0472
X7.622Y-2.0709
X7.6378Y-3.5866
X7.6693Y-2.3583
X7.6772Y-2.7756
X7.7008Y-2.1378
X7.7008Y-2.4843
X7.7008Y-3.3976
X7.7008Y-4.0591
X7.7008Y-4.2165
X7.7008Y-4.374
X7.7008Y-4.5315
X7.7244Y-5.8819
X7.748Y-2.7559
X7.7756Y-3.1063
X7.7756Y-3.1378
X7.7795Y-2.7559
X7.7953Y-1.6969
X7.7953Y-2.3268
X7.7953Y-2.6417
X7.7953Y-4.4685
X7.8268Y-1.5079
X7.8268Y-2.4528
X7.8583Y-2.1378
X7.8583Y-4.563
X7.8898Y-1.6024
X7.8996Y-5.8799
X7.9213Y-1.8543
X7.9213Y-2.6732
X7.9528Y-1.6969
X7.9528Y-4.5
X7.9843Y-1.5079
X8.0472Y-1.6024
X8.0472Y-4.563
X8.1102Y-1.6969
X8.1102Y-4.4685
X8.1417Y-1.5079
X8.2047Y-1.6024
X8.3622Y-4.5315
X8.3858Y-4.4685
X8.4567Y-1.5079
X8.5079Y-5.9409
X8.5197Y-1.6024
X8.5551Y-6.2717
X8.6004Y-6.185
X8.6043Y-6.315
X8.6063Y-6.0512
X8.6713Y-5.8051
X8.6772Y-6.2717
X8.685Y-6.3839
X8.687Y-6.2047
X8.7028Y-5.872
X8.7087Y-1.6969
X8.7087Y-1.8543
X8.7087Y-2.0118
X8.7087Y-2.1693
X8.7087Y-2.3268
X8.7087Y-4.3425
X8.7264Y-6.2756
X8.7323Y-6.4449
X8.7402Y-4.4685
X8.7598Y-6.374
X8.7717Y-2.4213
X8.7913Y-6.4843
X8.8031Y-1.9173
X8.8031Y-2.0748
X8.8031Y-2.2323
X8.8346Y-4.374
X8.8661Y-1.8228
X8.8661Y-2.3268
X8.8661Y-2.4843
X8.8976Y-1.9803
X8.8976Y-2.1378
X8.9291Y-2.5787
X8.9606Y-4.3425
X8.9921Y-1.6339
X8.9921Y-4.4685
X8.9921Y-4.626
X9.0236Y-1.5079
X9.0236Y-1.7598
X9.0236Y-1.9173
X9.0236Y-2.0748
X9.0236Y-2.2323
X9.0236Y-2.3898
X9.0236Y-2.6417
X9.0236Y-2.7992
X9.0551Y-2.5157
X9.0866Y-2.8937
X9.0866Y-4.5315
X9.1181Y-1.5709
X9.1181Y-1.8228
X9.1181Y-1.9803
X9.1181Y-2.1378
X9.1181Y-2.2953
X9.1181Y-2.7047
X9.1496Y-1.6969
X9.1496Y-2.4213
X9.1496Y-2.5787
X9.1496Y-4.437
X9.1496Y-4.626
X9.1811Y-2.7992
X9.2126Y-1.5079
X9.2126Y-1.8858
X9.2126Y-2.0433
X9.2126Y-2.2008
X9.2441Y-1.6339
X9.2441Y-2.3268
X9.2441Y-2.4843
X9.2441Y-2.6417
X9.2441Y-2.8937
X9.2756Y-1.7598
X9.3071Y-1.9488
X9.3071Y-2.1063
X9.3071Y-2.7362
X9.3386Y-1.5394
X9.3386Y-2.2323
X9.3386Y-2.3898
X9.3386Y-2.5472
X9.3701Y-1.6654
X9.3701Y-1.8228
X9.4016Y-2.0118
X9.4016Y-2.6417
X9.4016Y-2.7992
X9.4331Y-2.1378
X9.4331Y-2.4528
X9.4331Y-4.437
X9.4488Y-2.9528
X9.4488Y-2.9921
X9.4646Y-1.5079
X9.4646Y-4.626
X9.4882Y-2.9528
X9.4882Y-2.9921
X9.4961Y-1.6339
X9.4961Y-2.5472
X9.4961Y-2.7047
X9.5276Y-2.3898
X9.5591Y-3.4606
X9.5591Y-3.6181
X9.5591Y-3.7756
X9.5591Y-3.9331
X9.5591Y-4.4685
X9.5906Y-1.5394
X9.5906Y-2.4843
X9.5906Y-2.6417
X9.5906Y-4.5945
X9.6063Y-3.3504
X9.6063Y-3.3858
X9.622Y-1.6654
X9.622Y-4.0276
X9.624Y-2.7343
X9.624Y-2.7697
X9.6535Y-3.5236
X9.6535Y-3.6811
X9.6535Y-3.8386
X9.6535Y-4.4055
X9.685Y-2.3898
X9.685Y-2.5472
X9.685Y-4.248
X9.685Y-4.5315
X9.7165Y-2.2638
X9.7165Y-3.3976
X9.748Y-1.6969
X9.7795Y-3.6181
X9.7795Y-3.9646
X9.8583Y-2.0472
X9.8583Y-2.0709
X9.8819Y-2.0236
X9.8819Y-2.0472
X9.8819Y-2.0709
X9.8917Y-2.7362
X9.9055Y-2.0236
X9.9055Y-2.0472
X9.9055Y-2.0709
X9.9055Y-3.5866
X9.9606Y-2.7756
X9.9685Y-2.1378
X9.9685Y-2.3583
X9.9685Y-2.5157
X9.9685Y-3.3976
X9.9685Y-4.0591
X10.0Y-4.4685
X10.0315Y-2.7559
X10.0591Y-3.1063
X10.0591Y-3.1378
X10.063Y-2.4213
X10.063Y-2.7559
X10.063Y-4.563
X10.0945Y-1.5079
X10.0945Y-1.6654
X10.0945Y-2.6417
X10.126Y-2.1378
X10.126Y-2.3268
X10.126Y-2.5157
X10.1575Y-4.4685
X10.189Y-1.5709
X10.189Y-1.8543
X10.2205Y-1.6969
X10.2205Y-2.4213
X10.2205Y-2.6732
X10.2205Y-4.563
X10.2835Y-1.5079
X10.315Y-1.6339
X10.315Y-4.4685
X10.3228Y-6.2067
X10.3622Y-6.2776
X10.378Y-4.563
X10.4094Y-1.5394
X10.4094Y-1.6969
X10.4961Y-5.876
X10.5039Y-1.6024
X10.5197Y-5.8051
X10.5354Y-4.5
X10.6614Y-4.5315
X10.6693Y-4.4685
X10.7244Y-1.6024
X10.7874Y-1.5079
X11.0079Y-1.6969
X11.0079Y-1.8543
X11.0079Y-2.0118
X11.0079Y-2.1693
X11.0079Y-2.3268
X11.0079Y-4.3425
X11.0079Y-4.5
X11.0709Y-2.4213
X11.1024Y-1.9173
X11.1024Y-2.0748
X11.1024Y-2.2323
X11.1339Y-2.5157
X11.1339Y-4.374
X11.1654Y-1.7913
X11.1654Y-2.3268
X11.1969Y-1.9803
X11.1969Y-2.1378
X11.2598Y-1.6339
X11.2598Y-4.311
X11.2598Y-4.4685
X11.2598Y-4.626
X11.3228Y-1.5079
X11.3228Y-1.7283
X11.3228Y-1.8858
X11.3228Y-2.0433
X11.3228Y-2.2008
X11.3228Y-2.3583
X11.3228Y-2.5157
X11.3228Y-2.6732
X11.3228Y-2.8307
X11.3543Y-4.5315
X11.3858Y-1.6024
X11.4173Y-1.7913
X11.4173Y-1.9488
X11.4173Y-2.1063
X11.4173Y-2.2638
X11.4173Y-2.4213
X11.4173Y-2.5787
X11.4173Y-2.7362
X11.4173Y-2.8937
X11.4173Y-4.437
X11.4173Y-4.626
X11.4803Y-1.5079
X11.4803Y-1.6654
X11.5118Y-1.8543
X11.5118Y-2.0118
X11.5118Y-2.1693
X11.5118Y-2.3268
X11.5118Y-2.4843
X11.5118Y-2.6417
X11.5118Y-2.7992
X11.5748Y-1.5709
X11.5748Y-1.7283
X11.6063Y-1.9173
X11.6063Y-2.0748
X11.6063Y-2.2323
X11.6063Y-2.3898
X11.6063Y-2.5472
X11.6063Y-2.7047
X11.6693Y-1.5079
X11.6693Y-1.6654
X11.6693Y-1.8228
X11.6693Y-2.7992
X11.7008Y-1.9803
X11.7008Y-2.1378
X11.7008Y-2.2953
X11.7008Y-2.4528
X11.7008Y-2.6102
X11.7323Y-2.9528
X11.7323Y-2.9921
X11.7323Y-4.437
X11.7323Y-4.5945
X11.7638Y-1.5709
X11.7638Y-2.7047
X11.7717Y-2.9528
X11.7717Y-2.9921
X11.7953Y-2.3898
X11.7953Y-2.5472
X11.8268Y-1.6654
X11.8268Y-3.4606
X11.8268Y-3.6181
X11.8268Y-3.7756
X11.8268Y-3.9331
X11.8583Y-1.5079
X11.8583Y-2.6417
X11.8583Y-4.4055
X11.8583Y-4.563
X11.8898Y-2.4528
X11.8898Y-3.3504
X11.8898Y-3.3858
X11.8898Y-4.0276
X11.9035Y-2.7343
X11.9035Y-2.7638
X11.9213Y-1.6024
X11.9213Y-3.5236
X11.9213Y-3.6811
X11.9213Y-3.8386
X11.9528Y-2.5472
X11.9528Y-4.4685
X11.9528Y-4.626
X11.9843Y-2.3898
X11.9843Y-3.4291
X12.0157Y-1.6969
X12.0157Y-2.2638
X12.0472Y-1.8228
X12.0472Y-4.248
X12.0472Y-4.4055
X12.0472Y-4.563
X12.0787Y-3.9646
X12.1417Y-2.0472
X12.1417Y-2.0709
X12.1654Y-2.0236
X12.1654Y-2.0472
X12.1654Y-2.0709
X12.1752Y-2.7362
X12.189Y-2.0236
X12.189Y-2.0472
X12.189Y-2.0709
X12.2047Y-3.5866
X12.2362Y-2.3583
X12.2441Y-2.7756
X12.2677Y-2.1378
X12.2677Y-2.5157
X12.2677Y-3.3976
X12.2677Y-4.0591
X12.2677Y-4.2165
X12.2677Y-4.374
X12.2677Y-4.5315
X12.315Y-2.7559
X12.3307Y-4.626
X12.3425Y-3.1063
X12.3425Y-3.1378
X12.3465Y-2.7559
X12.3622Y-1.6969
X12.3622Y-2.6417
X12.3622Y-4.4685
X12.3937Y-1.5079
X12.4252Y-2.1378
X12.4252Y-2.5157
X12.4252Y-4.563
X12.4567Y-1.6024
X12.4882Y-1.8543
X12.4882Y-2.4213
X12.4882Y-2.6732
X12.5197Y-1.6969
X12.5197Y-4.5
X12.5512Y-1.5079
X12.5512Y-4.626
X12.6063Y-6.2047
X12.6142Y-1.6024
X12.6457Y-4.4685
X12.6457Y-6.2756
X12.6772Y-1.6969
X12.6772Y-4.5945
X12.7087Y-1.5079
X12.7717Y-1.6024
X12.7795Y-5.874
X12.8031Y-5.8031
X12.9291Y-4.5315
X12.9528Y-4.4685
X12.9921Y-4.626
X13.0236Y-1.5079
X13.0866Y-1.6024
X13.2756Y-2.1693
X13.2756Y-2.3268
X13.2756Y-4.3425
X13.2913Y-1.687
X13.3071Y-4.4685
X13.3386Y-2.4213
X13.3701Y-2.2323
X13.4016Y-1.8228
X13.4016Y-2.1063
X13.4016Y-4.374
X13.4331Y-2.3268
X13.4331Y-2.4843
X13.4646Y-1.9173
X13.4961Y-2.0433
X13.4961Y-2.2008
X13.4961Y-2.5787
X9.8425Y-2.874
X9.8425Y-2.9134
X9.8425Y-2.9528
X9.8425Y-2.9921
X9.8819Y-2.874
X9.8819Y-2.9134
X9.8819Y-2.9528
X9.8819Y-2.9921
X9.9213Y-2.874
X9.9213Y-2.9134
X9.9213Y-2.9528
X9.9213Y-2.9921
X5.2756Y-2.874
X5.2756Y-2.9134
X5.2756Y-2.9528
X5.2756Y-2.9921
X5.315Y-2.874
X5.315Y-2.9134
X5.315Y-2.9528
X5.315Y-2.9921
X5.3543Y-2.874
X5.3543Y-2.9134
X5.3543Y-2.9528
X5.3543Y-2.9921
X12.126Y-2.874
X12.126Y-2.9134
X12.126Y-2.9528
X12.126Y-2.9921
X12.1654Y-2.874
X12.1654Y-2.9134
X12.1654Y-2.9528
X12.1654Y-2.9921
X12.2047Y-2.874
X12.2047Y-2.9134
X12.2047Y-2.9528
X12.2047Y-2.9921
X7.5591Y-2.874
X7.5591Y-2.9134
X7.5591Y-2.9528
X7.5591Y-2.9921
X7.5984Y-2.874
X7.5984Y-2.9134
X7.5984Y-2.9528
X7.5984Y-2.9921
X7.6378Y-2.874
X7.6378Y-2.9134
X7.6378Y-2.9528
X7.6378Y-2.9921
X2.9921Y-2.874
X2.9921Y-2.9134
X2.9921Y-2.9528
X2.9921Y-2.9921
X3.0315Y-2.874
X3.0315Y-2.9134
X3.0315Y-2.9528
X3.0315Y-2.9921
X3.0709Y-2.874
X3.0709Y-2.9134
X3.0709Y-2.9528
X3.0709Y-2.9921
T3
X2.2205Y-6.0236
X2.2244Y-5.7874
X2.2244Y-5.9724
X2.2244Y-6.2008
X2.2598Y-6.0236
X2.2638Y-5.7874
X2.2638Y-5.9724
X2.2638Y-6.2008
X2.2835Y-4.1732
X2.2835Y-4.2126
X2.2992Y-6.0236
X2.3031Y-5.7874
X2.3031Y-5.9724
X2.3031Y-6.2008
X2.3228Y-4.1732
X2.3228Y-4.1732
X2.3228Y-4.2126
X2.3622Y-4.1732
X2.3622Y-4.2126
X2.4016Y-4.1732
X2.4016Y-4.2126
X2.4409Y-4.4291
X2.5Y-4.8228
X2.5Y-4.9213
X2.5Y-4.9606
X2.5Y-5.0
X2.5394Y-4.9213
X2.5394Y-4.9606
X2.5394Y-5.0
X2.5787Y-3.0512
X2.5787Y-4.9213
X2.5787Y-4.9606
X2.5787Y-5.0
X2.626Y-5.2165
X2.626Y-5.2559
X2.626Y-5.6575
X2.626Y-5.6969
X2.6299Y-5.8228
X2.6299Y-5.8819
X2.6299Y-5.9409
X2.6299Y-6.0551
X2.6299Y-6.1142
X2.6299Y-6.1732
X2.6378Y-1.5413
X2.6378Y-2.3228
X2.6378Y-4.5276
X2.6476Y-2.9035
X2.6654Y-5.2165
X2.6654Y-5.2559
X2.6654Y-5.6575
X2.6654Y-5.6969
X2.6669Y-4.8622
X2.689Y-5.8228
X2.689Y-5.8819
X2.689Y-5.9409
X2.689Y-6.0551
X2.689Y-6.1142
X2.689Y-6.1732
X2.7047Y-5.2165
X2.7047Y-5.2559
X2.7047Y-5.6575
X2.7047Y-5.6969
X2.7165Y-1.7323
X2.7165Y-2.3228
X2.7165Y-4.252
X2.7165Y-4.2913
X2.7165Y-4.3307
X2.7537Y-3.0908
X2.7559Y-2.815
X2.7559Y-2.8937
X2.7559Y-3.1496
X2.7559Y-4.252
X2.7559Y-4.2913
X2.7559Y-4.3307
X2.7667Y-3.0118
X2.7756Y-3.2283
X2.7953Y-1.7323
X2.7953Y-2.3228
X2.811Y-3.126
X2.811Y-3.185
X2.8346Y-2.0472
X2.8346Y-2.626
X2.8976Y-3.2835
X2.8976Y-3.3228
X2.9449Y-3.4035
X2.9921Y-3.1102
X3.0Y-3.6496
X3.0039Y-3.4055
X3.0236Y-3.9764
X3.0394Y-5.315
X3.0394Y-5.3543
X3.0394Y-5.3937
X3.0394Y-5.5394
X3.0394Y-5.5787
X3.0394Y-5.6181
X3.0512Y-2.5394
X3.0787Y-5.315
X3.0787Y-5.3543
X3.0787Y-5.3937
X3.0787Y-5.5394
X3.0787Y-5.5787
X3.0787Y-5.6181
X3.1181Y-1.9252
X3.1339Y-3.7402
X3.1339Y-3.8425
X3.1496Y-1.752
X3.1496Y-1.7913
X3.1496Y-3.2283
X3.1555Y-5.439
X3.1594Y-5.3228
X3.1634Y-5.1535
X3.1693Y-1.9685
X3.2402Y-3.3858
X3.248Y-1.9488
X3.2677Y-1.8504
X3.2677Y-3.1102
X3.2756Y-5.2638
X3.2756Y-5.4134
X3.2874Y-4.311
X3.3071Y-2.815
X3.3268Y-1.9488
X3.3268Y-3.248
X3.3465Y-2.5787
X3.3858Y-3.3071
X3.3858Y-3.937
X3.4149Y-5.1457
X3.4154Y-4.3602
X3.4154Y-4.3996
X3.4252Y-2.0669
X3.4252Y-2.1063
X3.4252Y-4.2126
X3.4646Y-2.0669
X3.4646Y-2.1063
X3.4843Y-3.1496
X3.4843Y-3.7697
X3.5433Y-3.2677
X3.5433Y-3.6417
X3.5433Y-4.3701
X3.622Y-2.3228
X3.622Y-2.4016
X3.622Y-2.5197
X3.622Y-2.5984
X3.622Y-3.6417
X3.6234Y-2.7179
X3.6234Y-2.7966
X3.6417Y-4.4094
X3.6535Y-5.124
X3.6811Y-1.5157
X3.7598Y-3.6417
X3.7795Y-5.1063
X3.7992Y-5.1654
X3.8189Y-3.749
X3.8386Y-3.8583
X3.8445Y-4.6293
X3.8445Y-4.6614
X3.8445Y-4.6909
X3.9173Y-3.6811
X3.9567Y-4.4488
X3.9567Y-4.4882
X3.9961Y-4.4488
X3.9961Y-4.4882
X4.0354Y-4.4488
X4.0354Y-4.4882
X4.0354Y-4.4882
X4.0354Y-4.4882
X4.0748Y-4.4488
X4.0748Y-4.4882
X4.0748Y-4.7648
X4.0748Y-5.2953
X4.0748Y-5.3346
X4.0748Y-5.374
X4.1339Y-5.2953
X4.1339Y-5.3346
X4.1339Y-5.374
X4.1358Y-5.1555
X4.1929Y-5.2953
X4.1929Y-5.3346
X4.1929Y-5.374
X4.252Y-3.3858
X4.252Y-4.4488
X4.252Y-4.4882
X4.2913Y-4.4488
X4.2913Y-4.4882
X4.2913Y-5.2362
X4.3307Y-4.4488
X4.3307Y-4.4882
X4.5669Y-4.1732
X4.5669Y-4.2126
X4.6063Y-4.1732
X4.6063Y-4.1732
X4.6063Y-4.2126
X4.6457Y-4.1732
X4.6457Y-4.2126
X4.685Y-4.1732
X4.685Y-4.2126
X4.7244Y-4.4291
X4.7835Y-4.8228
X4.7835Y-4.9213
X4.7835Y-4.9606
X4.7835Y-5.0
X4.8228Y-4.9213
X4.8228Y-4.9606
X4.8228Y-5.0
X4.8622Y-3.0512
X4.8622Y-4.9213
X4.8622Y-4.9606
X4.8622Y-5.0
X4.9213Y-1.7323
X4.9213Y-2.3228
X4.9213Y-4.5276
X4.9311Y-2.9035
X4.9504Y-4.8622
X5.0Y-1.7323
X5.0Y-2.3228
X5.0Y-4.252
X5.0Y-4.2913
X5.0Y-4.3307
X5.0372Y-3.0908
X5.0394Y-2.815
X5.0394Y-2.8937
X5.0394Y-3.1496
X5.0394Y-4.252
X5.0394Y-4.2913
X5.0394Y-4.3307
X5.0502Y-3.0118
X5.0591Y-3.2283
X5.0787Y-1.7323
X5.0787Y-2.3228
X5.0945Y-3.126
X5.0945Y-3.185
X5.1181Y-2.0472
X5.1181Y-2.626
X5.1811Y-3.2835
X5.1811Y-3.3228
X5.2283Y-3.4035
X5.2756Y-3.1102
X5.2835Y-3.6496
X5.2874Y-3.4055
X5.3071Y-3.9764
X5.3346Y-2.5394
X5.4016Y-1.9252
X5.4173Y-3.7402
X5.4173Y-3.8425
X5.4331Y-1.752
X5.4331Y-1.7913
X5.4331Y-3.2283
X5.4528Y-1.9685
X5.5236Y-3.3858
X5.5315Y-1.9488
X5.5315Y-4.9606
X5.5512Y-1.8504
X5.5512Y-3.1102
X5.5709Y-4.311
X5.5906Y-2.815
X5.6102Y-1.9488
X5.6102Y-3.248
X5.6299Y-2.5787
X5.6693Y-3.3071
X5.6693Y-3.937
X5.6984Y-5.1457
X5.6988Y-4.3602
X5.6988Y-4.3996
X5.7087Y-2.0669
X5.7087Y-2.1063
X5.7087Y-4.2126
X5.748Y-2.0669
X5.748Y-2.1063
X5.7677Y-3.1496
X5.7677Y-3.7697
X5.8268Y-3.2677
X5.8268Y-3.6417
X5.8268Y-4.3701
X5.9055Y-2.3228
X5.9055Y-2.4016
X5.9055Y-2.5197
X5.9055Y-2.5984
X5.9055Y-3.6417
X5.9069Y-2.7179
X5.9069Y-2.7966
X5.9252Y-4.4094
X5.935Y-5.126
X5.9646Y-1.5157
X6.0433Y-3.6417
X6.063Y-5.1063
X6.0827Y-5.1654
X6.1024Y-3.749
X6.122Y-3.8583
X6.128Y-4.6293
X6.128Y-4.6614
X6.128Y-4.6909
X6.2008Y-3.6811
X6.2402Y-4.4488
X6.2402Y-4.4882
X6.2795Y-4.4488
X6.2795Y-4.4882
X6.3189Y-4.4488
X6.3189Y-4.4882
X6.3189Y-4.4882
X6.3189Y-4.4882
X6.3583Y-4.4488
X6.3583Y-4.4882
X6.3583Y-4.7648
X6.3583Y-5.2953
X6.3583Y-5.3346
X6.3583Y-5.374
X6.4173Y-5.2953
X6.4173Y-5.3346
X6.4173Y-5.374
X6.4193Y-5.1555
X6.4764Y-5.2953
X6.4764Y-5.3346
X6.4764Y-5.374
X6.5354Y-3.3858
X6.5354Y-4.4488
X6.5354Y-4.4882
X6.5748Y-4.4488
X6.5748Y-4.4882
X6.5748Y-5.2362
X6.6142Y-4.4488
X6.6142Y-4.4882
X6.8504Y-4.1732
X6.8504Y-4.2126
X6.8898Y-4.1732
X6.8898Y-4.1732
X6.8898Y-4.2126
X6.9291Y-4.1732
X6.9291Y-4.2126
X6.9685Y-4.1732
X6.9685Y-4.2126
X7.0079Y-4.4291
X7.0669Y-4.8228
X7.0669Y-4.9213
X7.0669Y-4.9606
X7.0669Y-5.0
X7.1063Y-4.9213
X7.1063Y-4.9606
X7.1063Y-5.0
X7.1457Y-3.0512
X7.1457Y-4.9213
X7.1457Y-4.9606
X7.1457Y-5.0
X7.2047Y-1.7323
X7.2047Y-2.3228
X7.2047Y-4.5276
X7.2146Y-2.9035
X7.2339Y-4.8622
X7.2835Y-1.7323
X7.2835Y-2.3228
X7.2835Y-4.252
X7.2835Y-4.2913
X7.2835Y-4.3307
X7.3207Y-3.0908
X7.3228Y-2.815
X7.3228Y-2.8937
X7.3228Y-3.1496
X7.3228Y-4.252
X7.3228Y-4.2913
X7.3228Y-4.3307
X7.3337Y-3.0118
X7.3425Y-3.2283
X7.3622Y-1.7323
X7.3622Y-2.3228
X7.378Y-3.126
X7.378Y-3.185
X7.4016Y-2.0472
X7.4016Y-2.626
X7.4646Y-3.2835
X7.4646Y-3.3228
X7.5118Y-3.4035
X7.5591Y-3.1102
X7.5669Y-3.6496
X7.5709Y-3.4055
X7.5906Y-3.9764
X7.6181Y-2.5394
X7.685Y-1.9252
X7.7008Y-3.7402
X7.7008Y-3.8425
X7.7165Y-1.752
X7.7165Y-1.7913
X7.7165Y-3.2283
X7.7362Y-1.9685
X7.811Y-3.3858
X7.815Y-1.9488
X7.815Y-4.9606
X7.815Y-4.9941
X7.815Y-5.689
X7.815Y-6.0433
X7.8346Y-1.8504
X7.8346Y-3.1102
X7.8543Y-4.311
X7.874Y-2.815
X7.8937Y-1.9488
X7.8937Y-3.248
X7.9134Y-2.5787
X7.9528Y-3.3071
X7.9528Y-3.937
X7.9818Y-5.1457
X7.9823Y-4.3602
X7.9823Y-4.3996
X7.9921Y-2.0669
X7.9921Y-2.1063
X7.9921Y-4.2126
X8.0315Y-2.0669
X8.0315Y-2.1063
X8.0315Y-6.4961
X8.0315Y-6.5748
X8.0315Y-6.6339
X8.0512Y-3.1496
X8.0512Y-3.7697
X8.1102Y-3.2677
X8.1102Y-3.6417
X8.1102Y-4.3701
X8.189Y-2.3228
X8.189Y-2.4016
X8.189Y-2.5197
X8.189Y-2.5984
X8.189Y-3.6417
X8.1903Y-2.7179
X8.1903Y-2.7966
X8.2087Y-4.4094
X8.2205Y-5.1122
X8.248Y-1.5157
X8.3268Y-3.6417
X8.3406Y-5.7795
X8.3465Y-5.1063
X8.3661Y-5.1654
X8.3858Y-3.749
X8.4055Y-3.8583
X8.4055Y-6.4961
X8.4055Y-6.5748
X8.4055Y-6.6339
X8.4114Y-4.6293
X8.4114Y-4.6614
X8.4114Y-4.6909
X8.4843Y-3.6811
X8.5236Y-4.4488
X8.5236Y-4.4882
X8.563Y-4.4488
X8.563Y-4.4882
X8.6024Y-4.4488
X8.6024Y-4.4882
X8.6024Y-4.4882
X8.6024Y-4.4882
X8.6417Y-4.4488
X8.6417Y-4.4882
X8.6417Y-4.7648
X8.6417Y-5.2953
X8.6417Y-5.3346
X8.6417Y-5.374
X8.7008Y-5.2953
X8.7008Y-5.3346
X8.7008Y-5.374
X8.7028Y-5.1555
X8.7598Y-5.2953
X8.7598Y-5.3346
X8.7598Y-5.374
X8.8189Y-3.3858
X8.8189Y-4.4488
X8.8189Y-4.4882
X8.8583Y-4.4488
X8.8583Y-4.4882
X8.8583Y-5.2362
X8.8976Y-4.4488
X8.8976Y-4.4882
X9.1339Y-4.1732
X9.1339Y-4.2126
X9.1732Y-4.1732
X9.1732Y-4.1732
X9.1732Y-4.2126
X9.2126Y-4.1732
X9.2126Y-4.2126
X9.252Y-4.1732
X9.252Y-4.2126
X9.2913Y-4.4291
X9.3504Y-4.8228
X9.3504Y-4.9213
X9.3504Y-4.9606
X9.3504Y-5.0
X9.3898Y-4.9213
X9.3898Y-4.9606
X9.3898Y-5.0
X9.4291Y-3.0512
X9.4291Y-4.9213
X9.4291Y-4.9606
X9.4291Y-5.0
X9.4882Y-1.7323
X9.4882Y-2.3228
X9.4882Y-4.5276
X9.498Y-2.9035
X9.5173Y-4.8622
X9.5669Y-1.7323
X9.5669Y-2.3228
X9.5669Y-4.252
X9.5669Y-4.2913
X9.5669Y-4.3307
X9.6041Y-3.0908
X9.6063Y-2.815
X9.6063Y-2.8937
X9.6063Y-3.1496
X9.6063Y-4.252
X9.6063Y-4.2913
X9.6063Y-4.3307
X9.6171Y-3.0118
X9.626Y-3.2283
X9.6457Y-1.7323
X9.6457Y-2.3228
X9.6614Y-3.126
X9.6614Y-3.185
X9.685Y-2.0472
X9.685Y-2.626
X9.748Y-3.2835
X9.748Y-3.3228
X9.7953Y-3.4035
X9.8425Y-3.1102
X9.8504Y-3.6496
X9.8543Y-3.4055
X9.874Y-3.9764
X9.9016Y-2.5394
X9.9685Y-1.9252
X9.9843Y-3.7402
X9.9843Y-3.8425
X10.0Y-1.752
X10.0Y-1.7913
X10.0Y-3.2283
X10.0197Y-1.9685
X10.0866Y-3.3858
X10.0984Y-1.9488
X10.1181Y-1.8504
X10.1181Y-3.1102
X10.1378Y-4.311
X10.1575Y-2.815
X10.1772Y-1.9488
X10.1772Y-3.248
X10.1969Y-2.5787
X10.2362Y-3.3071
X10.2362Y-3.937
X10.2653Y-5.1457
X10.2657Y-4.3602
X10.2657Y-4.3996
X10.2756Y-2.0669
X10.2756Y-2.1063
X10.2756Y-4.2126
X10.315Y-2.0669
X10.315Y-2.1063
X10.3346Y-3.1496
X10.3346Y-3.7697
X10.3937Y-3.2677
X10.3937Y-3.6417
X10.3937Y-4.3701
X10.4724Y-2.3228
X10.4724Y-2.4016
X10.4724Y-2.5197
X10.4724Y-2.5984
X10.4724Y-3.6417
X10.4738Y-2.7179
X10.4738Y-2.7966
X10.4921Y-4.4094
X10.5039Y-5.124
X10.5315Y-1.5157
X10.6102Y-3.6417
X10.6299Y-5.1063
X10.6496Y-5.1654
X10.6693Y-3.749
X10.689Y-3.8583
X10.6949Y-4.6293
X10.6949Y-4.6614
X10.6949Y-4.6909
X10.7677Y-3.6811
X10.8071Y-4.4488
X10.8071Y-4.4882
X10.8465Y-4.4488
X10.8465Y-4.4882
X10.8858Y-4.4488
X10.8858Y-4.4882
X10.8858Y-4.4882
X10.8858Y-4.4882
X10.9252Y-4.4488
X10.9252Y-4.4882
X10.9252Y-4.7648
X10.9252Y-5.2953
X10.9252Y-5.3346
X10.9252Y-5.374
X10.9843Y-5.2953
X10.9843Y-5.3346
X10.9843Y-5.374
X10.9862Y-5.1555
X11.0433Y-5.2953
X11.0433Y-5.3346
X11.0433Y-5.374
X11.1024Y-3.3858
X11.1024Y-4.4488
X11.1024Y-4.4882
X11.1417Y-4.4488
X11.1417Y-4.4882
X11.1417Y-5.2362
X11.1811Y-4.4488
X11.1811Y-4.4882
X11.4173Y-4.1732
X11.4173Y-4.2126
X11.4567Y-4.1732
X11.4567Y-4.1732
X11.4567Y-4.2126
X11.4961Y-4.1732
X11.4961Y-4.2126
X11.5354Y-4.1732
X11.5354Y-4.2126
X11.5748Y-4.4291
X11.6339Y-4.8228
X11.6339Y-4.9213
X11.6339Y-4.9606
X11.6339Y-5.0
X11.6732Y-4.9213
X11.6732Y-4.9606
X11.6732Y-5.0
X11.7126Y-3.0512
X11.7126Y-4.9213
X11.7126Y-4.9606
X11.7126Y-5.0
X11.7717Y-1.7323
X11.7717Y-2.3228
X11.7717Y-4.5276
X11.7815Y-2.9035
X11.8008Y-4.8622
X11.8504Y-1.7323
X11.8504Y-2.3228
X11.8504Y-4.252
X11.8504Y-4.2913
X11.8504Y-4.3307
X11.8876Y-3.0908
X11.8898Y-2.815
X11.8898Y-2.8937
X11.8898Y-3.1496
X11.8898Y-4.252
X11.8898Y-4.2913
X11.8898Y-4.3307
X11.9006Y-3.0118
X11.9094Y-3.2283
X11.9291Y-1.7323
X11.9291Y-2.3228
X11.9449Y-3.126
X11.9449Y-3.185
X11.9685Y-2.0472
X11.9685Y-2.626
X12.0315Y-3.2835
X12.0315Y-3.3228
X12.0787Y-3.4035
X12.126Y-3.1102
X12.1339Y-3.6496
X12.1378Y-3.4055
X12.1575Y-3.9764
X12.185Y-2.5394
X12.252Y-1.9252
X12.2677Y-3.7402
X12.2677Y-3.8425
X12.2835Y-1.752
X12.2835Y-1.7913
X12.2835Y-3.2283
X12.3031Y-1.9685
X12.378Y-3.3858
X12.3819Y-1.9488
X12.4016Y-1.8504
X12.4016Y-3.1102
X12.4213Y-4.311
X12.4409Y-2.815
X12.4606Y-1.9488
X12.4734Y-3.2693
X12.4803Y-2.5787
X12.5197Y-3.3071
X12.5197Y-3.937
X12.5488Y-5.1457
X12.5492Y-4.3602
X12.5492Y-4.3996
X12.5591Y-2.0669
X12.5591Y-2.1063
X12.5591Y-4.2126
X12.5984Y-2.0669
X12.5984Y-2.1063
X12.6181Y-3.1496
X12.6181Y-3.7697
X12.6772Y-3.2677
X12.6772Y-3.6417
X12.6772Y-4.3701
X12.7559Y-2.3228
X12.7559Y-2.4016
X12.7559Y-2.5197
X12.7559Y-2.5984
X12.7559Y-3.6417
X12.7573Y-2.7179
X12.7573Y-2.7966
X12.7756Y-4.4094
X12.7874Y-5.1181
X12.815Y-1.5157
X12.8937Y-3.6417
X12.9134Y-5.1063
X12.9331Y-5.1654
X12.9528Y-3.749
X12.9724Y-3.8583
X13.0029Y-5.5206
X13.0059Y-5.0374
X13.0354Y-5.0374
X13.0512Y-3.6811
X13.0675Y-5.0374
X13.0906Y-4.4488
X13.0906Y-4.4882
X13.1299Y-4.4488
X13.1299Y-4.4882
X13.1693Y-4.4488
X13.1693Y-4.4882
X13.1693Y-4.4882
X13.1693Y-4.4882
X13.2087Y-4.4488
X13.2087Y-4.4882
X13.2087Y-4.7648
X13.2087Y-5.2953
X13.2087Y-5.3346
X13.2087Y-5.374
X13.2677Y-5.2953
X13.2677Y-5.3346
X13.2677Y-5.374
X13.2697Y-5.1555
X13.3268Y-5.2953
X13.3268Y-5.3346
X13.3268Y-5.374
X13.3858Y-3.3858
X13.3858Y-4.4488
X13.3858Y-4.4882
X13.4252Y-4.4488
X13.4252Y-4.4882
X13.4252Y-5.2362
X13.4646Y-4.4488
X13.4646Y-4.4882
T4
X4.252Y-4.0945
X13.3858Y-4.0945
X6.5354Y-4.1929
X6.5354Y-4.0945
X11.1024Y-4.1929
X8.8189Y-4.1929
X8.8189Y-4.0945
X11.1024Y-4.0945
X13.3858Y-4.1929
X4.252Y-4.1929
T5
X13.1693Y-5.7874
X13.1693Y-5.8874
X13.1693Y-5.9874
X13.1693Y-6.0874
X13.1693Y-6.1874
X13.1693Y-6.2874
X13.2693Y-5.7874
X13.2693Y-5.8874
X13.2693Y-5.9874
X13.2693Y-6.0874
X13.2693Y-6.1874
X13.2693Y-6.2874
X2.2591Y-6.4961
X2.3591Y-6.4961
X2.4591Y-6.4961
X2.5591Y-6.4961
X3.1693Y-5.7874
X3.1693Y-5.8874
X3.1693Y-5.9874
X3.1693Y-6.0874
X3.1693Y-6.1874
X3.1693Y-6.2874
X3.2693Y-5.7874
X3.2693Y-5.8874
X3.2693Y-5.9874
X3.2693Y-6.0874
X3.2693Y-6.1874
X3.2693Y-6.2874
X13.189Y-1.5354
X13.289Y-1.5354
X13.389Y-1.5354
X13.489Y-1.5354
X2.7118Y-6.4961
X2.8118Y-6.4961
X2.9118Y-6.4961
X3.0118Y-6.4961
X10.9055Y-1.5354
X11.0055Y-1.5354
X11.1055Y-1.5354
X11.2055Y-1.5354
X4.0551Y-1.5354
X4.1551Y-1.5354
X4.2551Y-1.5354
X4.3551Y-1.5354
X6.3386Y-1.5354
X6.4386Y-1.5354
X6.5386Y-1.5354
X6.6386Y-1.5354
X8.622Y-1.5354
X8.722Y-1.5354
X8.822Y-1.5354
X8.922Y-1.5354
T6
X12.7953Y-6.5236
X3.5906Y-6.5276
T7
X13.2559Y-1.9646
X2.437Y-1.9646
T0
M30
