M48
INCH,TZ
T1C0.0197
T2C0.0300
T3C0.0394
T4C0.0300
T5C0.1260
%
G90
G05
T1
X20748Y-54882
X21850Y-50118
X22559Y-62835
X24252Y-57874
X24409Y-53740
X25709Y-51575
X25709Y-53622
X26693Y-49961
X27717Y-62677
X28071Y-58976
X31260Y-57087
X31575Y-57874
X31732Y-56378
X31772Y-50118
X31890Y-62835
X32283Y-57244
X29567Y-59055
X29094Y-51063
X25394Y-55315
X26457Y-59094
X31496Y-54528
X29528Y-60630
T2
X33610Y-55596
X33610Y-56396
X33610Y-57195
X33610Y-57994
X34409Y-55195
X34409Y-55994
X34409Y-56793
X34409Y-57593
T3
X22126Y-54134
X22126Y-55134
X22126Y-56134
X22126Y-57134
X22126Y-58134
X22126Y-59134
X31598Y-61260
X32598Y-61260
T4
X36378Y-54344
X36378Y-58844
T5
X36299Y-62598
X18583Y-62598
X18583Y-50394
X36299Y-50394
T0
M30
