G04 #@! TF.GenerationSoftware,KiCad,Pcbnew,(5.0.2)-1*
G04 #@! TF.CreationDate,2019-11-05T15:10:29+00:00*
G04 #@! TF.ProjectId,RS-485_FTDI,52532d34-3835-45f4-9654-44492e6b6963,rev?*
G04 #@! TF.SameCoordinates,Original*
G04 #@! TF.FileFunction,Copper,L1,Top*
G04 #@! TF.FilePolarity,Positive*
%FSLAX46Y46*%
G04 Gerber Fmt 4.6, Leading zero omitted, Abs format (unit mm)*
G04 Created by KiCad (PCBNEW (5.0.2)-1) date 05/11/2019 15:10:29*
%MOMM*%
%LPD*%
G01*
G04 APERTURE LIST*
G04 #@! TA.AperFunction,SMDPad,CuDef*
%ADD10R,2.600000X1.800000*%
G04 #@! TD*
G04 #@! TA.AperFunction,SMDPad,CuDef*
%ADD11R,0.800000X0.750000*%
G04 #@! TD*
G04 #@! TA.AperFunction,ComponentPad*
%ADD12O,1.700000X1.700000*%
G04 #@! TD*
G04 #@! TA.AperFunction,ComponentPad*
%ADD13R,1.700000X1.700000*%
G04 #@! TD*
G04 #@! TA.AperFunction,ComponentPad*
%ADD14R,0.850000X0.850000*%
G04 #@! TD*
G04 #@! TA.AperFunction,SMDPad,CuDef*
%ADD15R,1.969999X0.542600*%
G04 #@! TD*
G04 #@! TA.AperFunction,WasherPad*
%ADD16C,1.500000*%
G04 #@! TD*
G04 #@! TA.AperFunction,ComponentPad*
%ADD17C,0.900000*%
G04 #@! TD*
G04 #@! TA.AperFunction,ViaPad*
%ADD18C,0.900000*%
G04 #@! TD*
G04 #@! TA.AperFunction,Conductor*
%ADD19C,0.400000*%
G04 #@! TD*
G04 #@! TA.AperFunction,Conductor*
%ADD20C,0.800000*%
G04 #@! TD*
G04 #@! TA.AperFunction,Conductor*
%ADD21C,0.600000*%
G04 #@! TD*
G04 #@! TA.AperFunction,Conductor*
%ADD22C,0.500000*%
G04 #@! TD*
G04 APERTURE END LIST*
D10*
G04 #@! TO.P,C1,2*
G04 #@! TO.N,GND*
X77300000Y-133600000D03*
G04 #@! TO.P,C1,1*
G04 #@! TO.N,+5V*
X73900000Y-133600000D03*
G04 #@! TD*
D11*
G04 #@! TO.P,C2,1*
G04 #@! TO.N,+5V*
X74800000Y-136500000D03*
G04 #@! TO.P,C2,2*
G04 #@! TO.N,GND*
X76300000Y-136500000D03*
G04 #@! TD*
D12*
G04 #@! TO.P,J1,6*
G04 #@! TO.N,N/C*
X56200000Y-137500000D03*
G04 #@! TO.P,J1,5*
G04 #@! TO.N,RXI*
X56200000Y-140040000D03*
G04 #@! TO.P,J1,4*
G04 #@! TO.N,TXO*
X56200000Y-142580000D03*
G04 #@! TO.P,J1,3*
G04 #@! TO.N,+5V*
X56200000Y-145120000D03*
G04 #@! TO.P,J1,2*
G04 #@! TO.N,N/C*
X56200000Y-147660000D03*
D13*
G04 #@! TO.P,J1,1*
G04 #@! TO.N,GND*
X56200000Y-150200000D03*
G04 #@! TD*
D14*
G04 #@! TO.P,J2,1*
G04 #@! TO.N,Net-(J2-Pad1)*
X67200000Y-150100000D03*
G04 #@! TD*
D15*
G04 #@! TO.P,U1,1*
G04 #@! TO.N,GND*
X70572400Y-139090000D03*
G04 #@! TO.P,U1,2*
G04 #@! TO.N,RXI*
X70572400Y-140360000D03*
G04 #@! TO.P,U1,3*
G04 #@! TO.N,Net-(J8-Pad1)*
X70572400Y-141630000D03*
G04 #@! TO.P,U1,4*
G04 #@! TO.N,+5V*
X70572400Y-142900000D03*
G04 #@! TO.P,U1,5*
G04 #@! TO.N,TXO*
X70572400Y-144170000D03*
G04 #@! TO.P,U1,6*
G04 #@! TO.N,Net-(J2-Pad1)*
X70572400Y-145440000D03*
G04 #@! TO.P,U1,7*
G04 #@! TO.N,GND*
X70572400Y-146710000D03*
G04 #@! TO.P,U1,8*
G04 #@! TO.N,Net-(J5-Pad1)*
X75500000Y-146710000D03*
G04 #@! TO.P,U1,9*
G04 #@! TO.N,orange*
X75500000Y-145440000D03*
G04 #@! TO.P,U1,10*
G04 #@! TO.N,w_orange*
X75500000Y-144170000D03*
G04 #@! TO.P,U1,11*
G04 #@! TO.N,w_blue*
X75500000Y-142900000D03*
G04 #@! TO.P,U1,12*
G04 #@! TO.N,blue*
X75500000Y-141630000D03*
G04 #@! TO.P,U1,13*
G04 #@! TO.N,Net-(J9-Pad1)*
X75500000Y-140360000D03*
G04 #@! TO.P,U1,14*
G04 #@! TO.N,+5V*
X75500000Y-139090000D03*
G04 #@! TD*
D14*
G04 #@! TO.P,J4,1*
G04 #@! TO.N,+5V*
X73900000Y-129700000D03*
G04 #@! TD*
G04 #@! TO.P,J5,1*
G04 #@! TO.N,Net-(J5-Pad1)*
X75100000Y-150000000D03*
G04 #@! TD*
G04 #@! TO.P,J6,1*
G04 #@! TO.N,GND*
X75000000Y-154000000D03*
G04 #@! TD*
D12*
G04 #@! TO.P,J3,2*
G04 #@! TO.N,Net-(J3-Pad2)*
X80260000Y-155600000D03*
D13*
G04 #@! TO.P,J3,1*
G04 #@! TO.N,Net-(J3-Pad1)*
X82800000Y-155600000D03*
G04 #@! TD*
D16*
G04 #@! TO.P,J7,*
G04 #@! TO.N,*
X92400001Y-138034999D03*
X92400001Y-149464999D03*
D17*
G04 #@! TO.P,J7,8*
G04 #@! TO.N,Net-(J3-Pad1)*
X87400001Y-146284999D03*
G04 #@! TO.P,J7,4*
G04 #@! TO.N,blue*
X87400001Y-144254999D03*
G04 #@! TO.P,J7,3*
G04 #@! TO.N,w_orange*
X87400001Y-142224999D03*
G04 #@! TO.P,J7,2*
G04 #@! TO.N,GND*
X87400001Y-140194999D03*
G04 #@! TO.P,J7,1*
X85370001Y-141214999D03*
G04 #@! TO.P,J7,5*
G04 #@! TO.N,w_blue*
X85370001Y-143244999D03*
G04 #@! TO.P,J7,6*
G04 #@! TO.N,orange*
X85370001Y-145274999D03*
G04 #@! TO.P,J7,7*
G04 #@! TO.N,Net-(J3-Pad2)*
X85370001Y-147304999D03*
G04 #@! TD*
D14*
G04 #@! TO.P,J8,1*
G04 #@! TO.N,Net-(J8-Pad1)*
X64500000Y-140500000D03*
G04 #@! TD*
G04 #@! TO.P,J9,1*
G04 #@! TO.N,Net-(J9-Pad1)*
X80000000Y-138500000D03*
G04 #@! TD*
D18*
G04 #@! TO.N,GND*
X64500000Y-135800000D03*
X55500000Y-127300000D03*
X67800000Y-126900000D03*
X80700000Y-127300000D03*
X81000000Y-159600000D03*
X70400000Y-159200000D03*
X57300000Y-159600000D03*
X60800000Y-150500000D03*
X71300000Y-149800000D03*
X82800000Y-133300000D03*
G04 #@! TO.N,blue*
X82000000Y-145400000D03*
G04 #@! TO.N,w_orange*
X79400000Y-145000000D03*
G04 #@! TO.N,w_blue*
X80600000Y-143200000D03*
G04 #@! TO.N,orange*
X80200000Y-147000000D03*
G04 #@! TD*
D19*
G04 #@! TO.N,GND*
X70572400Y-147381300D02*
X70800000Y-147608900D01*
X70572400Y-146710000D02*
X70572400Y-147381300D01*
X70800000Y-148300000D02*
X70900000Y-148400000D01*
X70800000Y-148200000D02*
X70800000Y-148300000D01*
X70800000Y-147608900D02*
X70900000Y-148400000D01*
D20*
G04 #@! TO.N,+5V*
X54997919Y-145120000D02*
X54977919Y-145100000D01*
X56200000Y-145120000D02*
X54997919Y-145120000D01*
X54977919Y-145100000D02*
X53700000Y-145100000D01*
D19*
X75500000Y-138418700D02*
X74800000Y-137718700D01*
X75500000Y-139090000D02*
X75500000Y-138418700D01*
X74800000Y-137718700D02*
X74800000Y-136500000D01*
X72057399Y-143000000D02*
X73100000Y-143000000D01*
X71957399Y-142900000D02*
X72057399Y-143000000D01*
X70572400Y-142900000D02*
X71957399Y-142900000D01*
X73030000Y-141630000D02*
X73100000Y-141700000D01*
X73100000Y-137500000D02*
X73100000Y-141700000D01*
X73100000Y-141700000D02*
X73100000Y-143000000D01*
D20*
X56200000Y-145120000D02*
X50880000Y-145120000D01*
D21*
X73100000Y-137200000D02*
X73100000Y-137500000D01*
X73800000Y-136500000D02*
X73100000Y-137200000D01*
X74800000Y-136500000D02*
X73800000Y-136500000D01*
X50880000Y-145120000D02*
X50820000Y-145120000D01*
X50820000Y-145120000D02*
X49500000Y-143800000D01*
X49500000Y-143800000D02*
X49500000Y-135700000D01*
X51600000Y-133600000D02*
X73900000Y-133600000D01*
X49500000Y-135700000D02*
X51600000Y-133600000D01*
X74800000Y-134500000D02*
X73900000Y-133600000D01*
X74800000Y-136500000D02*
X74800000Y-134500000D01*
X73900000Y-133600000D02*
X73900000Y-129700000D01*
D19*
G04 #@! TO.N,RXI*
X60460000Y-140040000D02*
X59960000Y-140040000D01*
X59960000Y-140040000D02*
X56200000Y-140040000D01*
X61000000Y-139500000D02*
X60460000Y-140040000D01*
X61000000Y-138500000D02*
X61000000Y-139500000D01*
X67860000Y-140360000D02*
X67500000Y-140000000D01*
X70572400Y-140360000D02*
X67860000Y-140360000D01*
X67500000Y-140000000D02*
X67500000Y-138500000D01*
X67500000Y-138500000D02*
X67000000Y-138000000D01*
X67000000Y-138000000D02*
X61500000Y-138000000D01*
X61500000Y-138000000D02*
X61000000Y-138500000D01*
G04 #@! TO.N,TXO*
X70572400Y-144170000D02*
X66670000Y-144170000D01*
X65080000Y-142580000D02*
X56200000Y-142580000D01*
X66670000Y-144170000D02*
X65080000Y-142580000D01*
G04 #@! TO.N,Net-(J2-Pad1)*
X69187401Y-145440000D02*
X69127401Y-145500000D01*
X70572400Y-145440000D02*
X69187401Y-145440000D01*
X69127401Y-145500000D02*
X67800000Y-145500000D01*
X67200000Y-146100000D02*
X67200000Y-150100000D01*
X67800000Y-145500000D02*
X67200000Y-146100000D01*
G04 #@! TO.N,Net-(J5-Pad1)*
X75500000Y-146710000D02*
X75500000Y-147700000D01*
X75100000Y-148100000D02*
X75100000Y-150100000D01*
X75500000Y-147700000D02*
X75100000Y-148100000D01*
G04 #@! TO.N,Net-(J3-Pad2)*
X80260000Y-155600000D02*
X80260000Y-153140000D01*
X85370001Y-148029999D02*
X85370001Y-147304999D01*
X80260000Y-153140000D02*
X85370001Y-148029999D01*
G04 #@! TO.N,Net-(J3-Pad1)*
X87400001Y-146284999D02*
X87400001Y-148399999D01*
X82800000Y-153000000D02*
X82800000Y-155600000D01*
X87400001Y-148399999D02*
X82800000Y-153000000D01*
G04 #@! TO.N,blue*
X76884999Y-141630000D02*
X76914999Y-141600000D01*
X75500000Y-141630000D02*
X76884999Y-141630000D01*
X76914999Y-141600000D02*
X81400000Y-141600000D01*
X82000000Y-141600000D02*
X81400000Y-141600000D01*
X82800000Y-142400000D02*
X82000000Y-141600000D01*
X82000000Y-145400000D02*
X82800000Y-144600000D01*
X82800000Y-144600000D02*
X82800000Y-142400000D01*
G04 #@! TO.N,w_orange*
X78570000Y-144170000D02*
X75500000Y-144170000D01*
X79400000Y-145000000D02*
X78570000Y-144170000D01*
G04 #@! TO.N,w_blue*
X80300000Y-142900000D02*
X80600000Y-143200000D01*
X75500000Y-142900000D02*
X80300000Y-142900000D01*
G04 #@! TO.N,orange*
X75500000Y-145440000D02*
X77760000Y-145440000D01*
X77760000Y-145440000D02*
X79320000Y-147000000D01*
X79320000Y-147000000D02*
X80200000Y-147000000D01*
G04 #@! TO.N,Net-(J8-Pad1)*
X70572400Y-141630000D02*
X66130000Y-141630000D01*
X66130000Y-141630000D02*
X65000000Y-140500000D01*
X65000000Y-140500000D02*
X64500000Y-140500000D01*
G04 #@! TO.N,Net-(J9-Pad1)*
X76884999Y-140360000D02*
X77024999Y-140500000D01*
X75500000Y-140360000D02*
X76884999Y-140360000D01*
X77024999Y-140500000D02*
X78000000Y-140500000D01*
X78000000Y-140500000D02*
X80000000Y-138500000D01*
G04 #@! TD*
D22*
G04 #@! TO.N,GND*
G36*
X94850000Y-127472882D02*
X94446562Y-126498895D01*
X93701105Y-125753438D01*
X92727118Y-125350000D01*
X91672882Y-125350000D01*
X90698895Y-125753438D01*
X89953438Y-126498895D01*
X89550000Y-127472882D01*
X89550000Y-128527118D01*
X89953438Y-129501105D01*
X90698895Y-130246562D01*
X91672882Y-130650000D01*
X92727118Y-130650000D01*
X93701105Y-130246562D01*
X94446562Y-129501105D01*
X94850000Y-128527118D01*
X94850001Y-161850000D01*
X44150000Y-161850000D01*
X44150000Y-158472882D01*
X44550000Y-158472882D01*
X44550000Y-159527118D01*
X44953438Y-160501105D01*
X45698895Y-161246562D01*
X46672882Y-161650000D01*
X47727118Y-161650000D01*
X48701105Y-161246562D01*
X49446562Y-160501105D01*
X49850000Y-159527118D01*
X49850000Y-158472882D01*
X89550000Y-158472882D01*
X89550000Y-159527118D01*
X89953438Y-160501105D01*
X90698895Y-161246562D01*
X91672882Y-161650000D01*
X92727118Y-161650000D01*
X93701105Y-161246562D01*
X94446562Y-160501105D01*
X94850000Y-159527118D01*
X94850000Y-158472882D01*
X94446562Y-157498895D01*
X93701105Y-156753438D01*
X92727118Y-156350000D01*
X91672882Y-156350000D01*
X90698895Y-156753438D01*
X89953438Y-157498895D01*
X89550000Y-158472882D01*
X49850000Y-158472882D01*
X49446562Y-157498895D01*
X48701105Y-156753438D01*
X47727118Y-156350000D01*
X46672882Y-156350000D01*
X45698895Y-156753438D01*
X44953438Y-157498895D01*
X44550000Y-158472882D01*
X44150000Y-158472882D01*
X44150000Y-154193500D01*
X73817000Y-154193500D01*
X73817000Y-154575775D01*
X73932398Y-154854372D01*
X74145627Y-155067601D01*
X74424224Y-155183000D01*
X74806500Y-155183000D01*
X74996000Y-154993500D01*
X74996000Y-154004000D01*
X75004000Y-154004000D01*
X75004000Y-154993500D01*
X75193500Y-155183000D01*
X75575776Y-155183000D01*
X75854373Y-155067601D01*
X76067602Y-154854372D01*
X76183000Y-154575775D01*
X76183000Y-154193500D01*
X75993500Y-154004000D01*
X75004000Y-154004000D01*
X74996000Y-154004000D01*
X74006500Y-154004000D01*
X73817000Y-154193500D01*
X44150000Y-154193500D01*
X44150000Y-153424225D01*
X73817000Y-153424225D01*
X73817000Y-153806500D01*
X74006500Y-153996000D01*
X74996000Y-153996000D01*
X74996000Y-153006500D01*
X75004000Y-153006500D01*
X75004000Y-153996000D01*
X75993500Y-153996000D01*
X76183000Y-153806500D01*
X76183000Y-153424225D01*
X76067602Y-153145628D01*
X75854373Y-152932399D01*
X75575776Y-152817000D01*
X75193500Y-152817000D01*
X75004000Y-153006500D01*
X74996000Y-153006500D01*
X74806500Y-152817000D01*
X74424224Y-152817000D01*
X74145627Y-152932399D01*
X73932398Y-153145628D01*
X73817000Y-153424225D01*
X44150000Y-153424225D01*
X44150000Y-150393500D01*
X54592000Y-150393500D01*
X54592000Y-151200775D01*
X54707398Y-151479372D01*
X54920627Y-151692601D01*
X55199224Y-151808000D01*
X56006500Y-151808000D01*
X56196000Y-151618500D01*
X56196000Y-150204000D01*
X56204000Y-150204000D01*
X56204000Y-151618500D01*
X56393500Y-151808000D01*
X57200776Y-151808000D01*
X57479373Y-151692601D01*
X57692602Y-151479372D01*
X57808000Y-151200775D01*
X57808000Y-150393500D01*
X57618500Y-150204000D01*
X56204000Y-150204000D01*
X56196000Y-150204000D01*
X54781500Y-150204000D01*
X54592000Y-150393500D01*
X44150000Y-150393500D01*
X44150000Y-135700000D01*
X48123552Y-135700000D01*
X48150001Y-135832968D01*
X48150000Y-143667037D01*
X48123552Y-143800000D01*
X48150000Y-143932962D01*
X48228328Y-144326743D01*
X48526704Y-144773295D01*
X48639424Y-144848612D01*
X49589757Y-145798945D01*
X49834608Y-146165392D01*
X50314238Y-146485870D01*
X50737188Y-146570000D01*
X54232474Y-146570000D01*
X54250007Y-148901880D01*
X54269030Y-148995671D01*
X54323223Y-149076777D01*
X54404329Y-149130970D01*
X54500000Y-149150000D01*
X54612390Y-149150000D01*
X54592000Y-149199225D01*
X54592000Y-150006500D01*
X54781500Y-150196000D01*
X56196000Y-150196000D01*
X56196000Y-150176000D01*
X56204000Y-150176000D01*
X56204000Y-150196000D01*
X57618500Y-150196000D01*
X57808000Y-150006500D01*
X57808000Y-149199225D01*
X57787610Y-149150000D01*
X58000000Y-149150000D01*
X58097405Y-149130244D01*
X58178101Y-149075443D01*
X58231683Y-148993932D01*
X58249993Y-148898120D01*
X58211887Y-143830000D01*
X64562234Y-143830000D01*
X65699064Y-144966830D01*
X65768801Y-145071199D01*
X66028526Y-145244742D01*
X66182274Y-145347473D01*
X66197446Y-145350491D01*
X66022527Y-145612276D01*
X65950000Y-145976892D01*
X65950000Y-145976896D01*
X65925513Y-146100000D01*
X65950000Y-146223104D01*
X65950001Y-149019750D01*
X65785922Y-149265311D01*
X65704430Y-149675000D01*
X65704430Y-150525000D01*
X65785922Y-150934689D01*
X66017993Y-151282007D01*
X66365311Y-151514078D01*
X66775000Y-151595570D01*
X67625000Y-151595570D01*
X68034689Y-151514078D01*
X68382007Y-151282007D01*
X68614078Y-150934689D01*
X68695570Y-150525000D01*
X68695570Y-149675000D01*
X68614078Y-149265311D01*
X68450000Y-149019751D01*
X68450000Y-146750000D01*
X68982901Y-146750000D01*
X68829401Y-146903500D01*
X68829401Y-147132075D01*
X68944799Y-147410672D01*
X69158028Y-147623901D01*
X69436625Y-147739300D01*
X70378900Y-147739300D01*
X70568400Y-147549800D01*
X70568400Y-146781870D01*
X70576400Y-146781870D01*
X70576400Y-147549800D01*
X70765900Y-147739300D01*
X71708175Y-147739300D01*
X71986772Y-147623901D01*
X72200001Y-147410672D01*
X72315399Y-147132075D01*
X72315399Y-146903500D01*
X72125899Y-146714000D01*
X71898605Y-146714000D01*
X71938824Y-146706000D01*
X72125899Y-146706000D01*
X72315399Y-146516500D01*
X72315399Y-146466821D01*
X72546477Y-146120989D01*
X72627969Y-145711300D01*
X72627969Y-145168700D01*
X72555625Y-144805000D01*
X72627969Y-144441300D01*
X72627969Y-144250000D01*
X72976891Y-144250000D01*
X73100000Y-144274488D01*
X73444431Y-144205976D01*
X73444431Y-144441300D01*
X73516775Y-144805000D01*
X73444431Y-145168700D01*
X73444431Y-145711300D01*
X73516775Y-146075000D01*
X73444431Y-146438700D01*
X73444431Y-146981300D01*
X73525923Y-147390989D01*
X73757994Y-147738307D01*
X73881096Y-147820561D01*
X73850000Y-147976892D01*
X73850000Y-147976896D01*
X73825513Y-148100000D01*
X73850000Y-148223104D01*
X73850000Y-148919751D01*
X73685922Y-149165311D01*
X73604430Y-149575000D01*
X73604430Y-150425000D01*
X73685922Y-150834689D01*
X73917993Y-151182007D01*
X74265311Y-151414078D01*
X74675000Y-151495570D01*
X75525000Y-151495570D01*
X75934689Y-151414078D01*
X76282007Y-151182007D01*
X76514078Y-150834689D01*
X76595570Y-150425000D01*
X76595570Y-149575000D01*
X76514078Y-149165311D01*
X76350000Y-148919751D01*
X76350000Y-148635409D01*
X76401199Y-148601199D01*
X76677473Y-148187725D01*
X76713539Y-148006411D01*
X76894688Y-147970378D01*
X77242006Y-147738307D01*
X77474077Y-147390989D01*
X77551913Y-146999680D01*
X77964819Y-147412586D01*
X77975005Y-149001603D01*
X77994030Y-149095671D01*
X78048223Y-149176777D01*
X78129329Y-149230970D01*
X78225000Y-149250000D01*
X82382233Y-149250000D01*
X79463168Y-152169066D01*
X79358802Y-152238801D01*
X79289067Y-152343167D01*
X79289066Y-152343168D01*
X79082528Y-152652275D01*
X78985513Y-153140000D01*
X79010001Y-153263108D01*
X79010001Y-154150112D01*
X78890176Y-154230176D01*
X78470239Y-154858657D01*
X78322777Y-155600000D01*
X78470239Y-156341343D01*
X78890176Y-156969824D01*
X79518657Y-157389761D01*
X80072867Y-157500000D01*
X80447133Y-157500000D01*
X81001343Y-157389761D01*
X81233923Y-157234356D01*
X81540311Y-157439078D01*
X81950000Y-157520570D01*
X83650000Y-157520570D01*
X84059689Y-157439078D01*
X84407007Y-157207007D01*
X84639078Y-156859689D01*
X84720570Y-156450000D01*
X84720570Y-154750000D01*
X84639078Y-154340311D01*
X84407007Y-153992993D01*
X84059689Y-153760922D01*
X84050000Y-153758995D01*
X84050000Y-153517766D01*
X88196834Y-149370933D01*
X88301200Y-149301198D01*
X88335409Y-149250000D01*
X89000000Y-149250000D01*
X89094188Y-149231578D01*
X89175640Y-149177906D01*
X89223707Y-149106957D01*
X90600001Y-149106957D01*
X90600001Y-149823041D01*
X90874035Y-150484617D01*
X91380383Y-150990965D01*
X92041959Y-151264999D01*
X92758043Y-151264999D01*
X93419619Y-150990965D01*
X93925967Y-150484617D01*
X94200001Y-149823041D01*
X94200001Y-149106957D01*
X93925967Y-148445381D01*
X93419619Y-147939033D01*
X92758043Y-147664999D01*
X92041959Y-147664999D01*
X91380383Y-147939033D01*
X90874035Y-148445381D01*
X90600001Y-149106957D01*
X89223707Y-149106957D01*
X89230352Y-149097149D01*
X89249995Y-149001603D01*
X89299995Y-141201603D01*
X89280970Y-141104329D01*
X89226777Y-141023223D01*
X89145671Y-140969030D01*
X89050000Y-140950000D01*
X88241571Y-140950000D01*
X88185395Y-140926731D01*
X88398786Y-140915714D01*
X88598563Y-140478634D01*
X88615871Y-139998374D01*
X88448073Y-139548047D01*
X88398786Y-139474284D01*
X88139746Y-139460910D01*
X87405658Y-140194999D01*
X87419800Y-140209141D01*
X87414143Y-140214798D01*
X87400001Y-140200656D01*
X87385859Y-140214798D01*
X87380202Y-140209141D01*
X87394344Y-140194999D01*
X86660256Y-139460910D01*
X86401216Y-139474284D01*
X86201439Y-139911364D01*
X86184131Y-140391624D01*
X86185104Y-140394236D01*
X86104090Y-140475250D01*
X86090716Y-140216214D01*
X85653636Y-140016437D01*
X85173376Y-139999129D01*
X84723049Y-140166927D01*
X84649286Y-140216214D01*
X84635912Y-140475254D01*
X85110659Y-140950000D01*
X85099345Y-140950000D01*
X84630256Y-140480910D01*
X84371216Y-140494284D01*
X84171439Y-140931364D01*
X84170767Y-140950000D01*
X83117766Y-140950000D01*
X82970936Y-140803169D01*
X82901199Y-140698801D01*
X82487725Y-140422527D01*
X82123109Y-140350000D01*
X82123104Y-140350000D01*
X82000000Y-140325513D01*
X81876896Y-140350000D01*
X79917767Y-140350000D01*
X80272197Y-139995570D01*
X80425000Y-139995570D01*
X80834689Y-139914078D01*
X81182007Y-139682007D01*
X81333518Y-139455254D01*
X86665912Y-139455254D01*
X87400001Y-140189342D01*
X88134090Y-139455254D01*
X88120716Y-139196214D01*
X87683636Y-138996437D01*
X87203376Y-138979129D01*
X86753049Y-139146927D01*
X86679286Y-139196214D01*
X86665912Y-139455254D01*
X81333518Y-139455254D01*
X81414078Y-139334689D01*
X81495570Y-138925000D01*
X81495570Y-138075000D01*
X81416395Y-137676957D01*
X90600001Y-137676957D01*
X90600001Y-138393041D01*
X90874035Y-139054617D01*
X91380383Y-139560965D01*
X92041959Y-139834999D01*
X92758043Y-139834999D01*
X93419619Y-139560965D01*
X93925967Y-139054617D01*
X94200001Y-138393041D01*
X94200001Y-137676957D01*
X93925967Y-137015381D01*
X93419619Y-136509033D01*
X92758043Y-136234999D01*
X92041959Y-136234999D01*
X91380383Y-136509033D01*
X90874035Y-137015381D01*
X90600001Y-137676957D01*
X81416395Y-137676957D01*
X81414078Y-137665311D01*
X81182007Y-137317993D01*
X80834689Y-137085922D01*
X80425000Y-137004430D01*
X79575000Y-137004430D01*
X79165311Y-137085922D01*
X78817993Y-137317993D01*
X78585922Y-137665311D01*
X78504430Y-138075000D01*
X78504430Y-138227803D01*
X77555569Y-139176665D01*
X77555569Y-138818700D01*
X77474077Y-138409011D01*
X77242006Y-138061693D01*
X76894688Y-137829622D01*
X76566076Y-137764257D01*
X76447912Y-137587412D01*
X76493500Y-137633000D01*
X76850776Y-137633000D01*
X77129373Y-137517601D01*
X77342602Y-137304372D01*
X77458000Y-137025775D01*
X77458000Y-136693500D01*
X77268500Y-136504000D01*
X76304000Y-136504000D01*
X76304000Y-136524000D01*
X76296000Y-136524000D01*
X76296000Y-136504000D01*
X76276000Y-136504000D01*
X76276000Y-136496000D01*
X76296000Y-136496000D01*
X76296000Y-135556500D01*
X76304000Y-135556500D01*
X76304000Y-136496000D01*
X77268500Y-136496000D01*
X77458000Y-136306500D01*
X77458000Y-135974225D01*
X77342602Y-135695628D01*
X77129373Y-135482399D01*
X76850776Y-135367000D01*
X76493500Y-135367000D01*
X76304000Y-135556500D01*
X76296000Y-135556500D01*
X76150000Y-135410500D01*
X76150000Y-135258000D01*
X77106500Y-135258000D01*
X77296000Y-135068500D01*
X77296000Y-133604000D01*
X77304000Y-133604000D01*
X77304000Y-135068500D01*
X77493500Y-135258000D01*
X78750776Y-135258000D01*
X79029373Y-135142601D01*
X79242602Y-134929372D01*
X79358000Y-134650775D01*
X79358000Y-133793500D01*
X79168500Y-133604000D01*
X77304000Y-133604000D01*
X77296000Y-133604000D01*
X77276000Y-133604000D01*
X77276000Y-133596000D01*
X77296000Y-133596000D01*
X77296000Y-132131500D01*
X77304000Y-132131500D01*
X77304000Y-133596000D01*
X79168500Y-133596000D01*
X79358000Y-133406500D01*
X79358000Y-132549225D01*
X79242602Y-132270628D01*
X79029373Y-132057399D01*
X78750776Y-131942000D01*
X77493500Y-131942000D01*
X77304000Y-132131500D01*
X77296000Y-132131500D01*
X77106500Y-131942000D01*
X75955521Y-131942000D01*
X75609689Y-131710922D01*
X75250000Y-131639376D01*
X75250000Y-130630588D01*
X75314078Y-130534689D01*
X75395570Y-130125000D01*
X75395570Y-129275000D01*
X75314078Y-128865311D01*
X75082007Y-128517993D01*
X74734689Y-128285922D01*
X74325000Y-128204430D01*
X73475000Y-128204430D01*
X73065311Y-128285922D01*
X72717993Y-128517993D01*
X72485922Y-128865311D01*
X72404430Y-129275000D01*
X72404430Y-130125000D01*
X72485922Y-130534689D01*
X72550001Y-130630589D01*
X72550001Y-131639375D01*
X72190311Y-131710922D01*
X71842993Y-131942993D01*
X71637857Y-132250000D01*
X51732961Y-132250000D01*
X51599999Y-132223552D01*
X51467038Y-132250000D01*
X51467037Y-132250000D01*
X51073256Y-132328328D01*
X50626704Y-132626704D01*
X50551385Y-132739427D01*
X48639425Y-134651387D01*
X48526705Y-134726704D01*
X48451388Y-134839424D01*
X48451387Y-134839425D01*
X48228328Y-135173257D01*
X48123552Y-135700000D01*
X44150000Y-135700000D01*
X44150000Y-127472882D01*
X44550000Y-127472882D01*
X44550000Y-128527118D01*
X44953438Y-129501105D01*
X45698895Y-130246562D01*
X46672882Y-130650000D01*
X47727118Y-130650000D01*
X48701105Y-130246562D01*
X49446562Y-129501105D01*
X49850000Y-128527118D01*
X49850000Y-127472882D01*
X49446562Y-126498895D01*
X48701105Y-125753438D01*
X47727118Y-125350000D01*
X46672882Y-125350000D01*
X45698895Y-125753438D01*
X44953438Y-126498895D01*
X44550000Y-127472882D01*
X44150000Y-127472882D01*
X44150000Y-125150000D01*
X94850000Y-125150000D01*
X94850000Y-127472882D01*
X94850000Y-127472882D01*
G37*
X94850000Y-127472882D02*
X94446562Y-126498895D01*
X93701105Y-125753438D01*
X92727118Y-125350000D01*
X91672882Y-125350000D01*
X90698895Y-125753438D01*
X89953438Y-126498895D01*
X89550000Y-127472882D01*
X89550000Y-128527118D01*
X89953438Y-129501105D01*
X90698895Y-130246562D01*
X91672882Y-130650000D01*
X92727118Y-130650000D01*
X93701105Y-130246562D01*
X94446562Y-129501105D01*
X94850000Y-128527118D01*
X94850001Y-161850000D01*
X44150000Y-161850000D01*
X44150000Y-158472882D01*
X44550000Y-158472882D01*
X44550000Y-159527118D01*
X44953438Y-160501105D01*
X45698895Y-161246562D01*
X46672882Y-161650000D01*
X47727118Y-161650000D01*
X48701105Y-161246562D01*
X49446562Y-160501105D01*
X49850000Y-159527118D01*
X49850000Y-158472882D01*
X89550000Y-158472882D01*
X89550000Y-159527118D01*
X89953438Y-160501105D01*
X90698895Y-161246562D01*
X91672882Y-161650000D01*
X92727118Y-161650000D01*
X93701105Y-161246562D01*
X94446562Y-160501105D01*
X94850000Y-159527118D01*
X94850000Y-158472882D01*
X94446562Y-157498895D01*
X93701105Y-156753438D01*
X92727118Y-156350000D01*
X91672882Y-156350000D01*
X90698895Y-156753438D01*
X89953438Y-157498895D01*
X89550000Y-158472882D01*
X49850000Y-158472882D01*
X49446562Y-157498895D01*
X48701105Y-156753438D01*
X47727118Y-156350000D01*
X46672882Y-156350000D01*
X45698895Y-156753438D01*
X44953438Y-157498895D01*
X44550000Y-158472882D01*
X44150000Y-158472882D01*
X44150000Y-154193500D01*
X73817000Y-154193500D01*
X73817000Y-154575775D01*
X73932398Y-154854372D01*
X74145627Y-155067601D01*
X74424224Y-155183000D01*
X74806500Y-155183000D01*
X74996000Y-154993500D01*
X74996000Y-154004000D01*
X75004000Y-154004000D01*
X75004000Y-154993500D01*
X75193500Y-155183000D01*
X75575776Y-155183000D01*
X75854373Y-155067601D01*
X76067602Y-154854372D01*
X76183000Y-154575775D01*
X76183000Y-154193500D01*
X75993500Y-154004000D01*
X75004000Y-154004000D01*
X74996000Y-154004000D01*
X74006500Y-154004000D01*
X73817000Y-154193500D01*
X44150000Y-154193500D01*
X44150000Y-153424225D01*
X73817000Y-153424225D01*
X73817000Y-153806500D01*
X74006500Y-153996000D01*
X74996000Y-153996000D01*
X74996000Y-153006500D01*
X75004000Y-153006500D01*
X75004000Y-153996000D01*
X75993500Y-153996000D01*
X76183000Y-153806500D01*
X76183000Y-153424225D01*
X76067602Y-153145628D01*
X75854373Y-152932399D01*
X75575776Y-152817000D01*
X75193500Y-152817000D01*
X75004000Y-153006500D01*
X74996000Y-153006500D01*
X74806500Y-152817000D01*
X74424224Y-152817000D01*
X74145627Y-152932399D01*
X73932398Y-153145628D01*
X73817000Y-153424225D01*
X44150000Y-153424225D01*
X44150000Y-150393500D01*
X54592000Y-150393500D01*
X54592000Y-151200775D01*
X54707398Y-151479372D01*
X54920627Y-151692601D01*
X55199224Y-151808000D01*
X56006500Y-151808000D01*
X56196000Y-151618500D01*
X56196000Y-150204000D01*
X56204000Y-150204000D01*
X56204000Y-151618500D01*
X56393500Y-151808000D01*
X57200776Y-151808000D01*
X57479373Y-151692601D01*
X57692602Y-151479372D01*
X57808000Y-151200775D01*
X57808000Y-150393500D01*
X57618500Y-150204000D01*
X56204000Y-150204000D01*
X56196000Y-150204000D01*
X54781500Y-150204000D01*
X54592000Y-150393500D01*
X44150000Y-150393500D01*
X44150000Y-135700000D01*
X48123552Y-135700000D01*
X48150001Y-135832968D01*
X48150000Y-143667037D01*
X48123552Y-143800000D01*
X48150000Y-143932962D01*
X48228328Y-144326743D01*
X48526704Y-144773295D01*
X48639424Y-144848612D01*
X49589757Y-145798945D01*
X49834608Y-146165392D01*
X50314238Y-146485870D01*
X50737188Y-146570000D01*
X54232474Y-146570000D01*
X54250007Y-148901880D01*
X54269030Y-148995671D01*
X54323223Y-149076777D01*
X54404329Y-149130970D01*
X54500000Y-149150000D01*
X54612390Y-149150000D01*
X54592000Y-149199225D01*
X54592000Y-150006500D01*
X54781500Y-150196000D01*
X56196000Y-150196000D01*
X56196000Y-150176000D01*
X56204000Y-150176000D01*
X56204000Y-150196000D01*
X57618500Y-150196000D01*
X57808000Y-150006500D01*
X57808000Y-149199225D01*
X57787610Y-149150000D01*
X58000000Y-149150000D01*
X58097405Y-149130244D01*
X58178101Y-149075443D01*
X58231683Y-148993932D01*
X58249993Y-148898120D01*
X58211887Y-143830000D01*
X64562234Y-143830000D01*
X65699064Y-144966830D01*
X65768801Y-145071199D01*
X66028526Y-145244742D01*
X66182274Y-145347473D01*
X66197446Y-145350491D01*
X66022527Y-145612276D01*
X65950000Y-145976892D01*
X65950000Y-145976896D01*
X65925513Y-146100000D01*
X65950000Y-146223104D01*
X65950001Y-149019750D01*
X65785922Y-149265311D01*
X65704430Y-149675000D01*
X65704430Y-150525000D01*
X65785922Y-150934689D01*
X66017993Y-151282007D01*
X66365311Y-151514078D01*
X66775000Y-151595570D01*
X67625000Y-151595570D01*
X68034689Y-151514078D01*
X68382007Y-151282007D01*
X68614078Y-150934689D01*
X68695570Y-150525000D01*
X68695570Y-149675000D01*
X68614078Y-149265311D01*
X68450000Y-149019751D01*
X68450000Y-146750000D01*
X68982901Y-146750000D01*
X68829401Y-146903500D01*
X68829401Y-147132075D01*
X68944799Y-147410672D01*
X69158028Y-147623901D01*
X69436625Y-147739300D01*
X70378900Y-147739300D01*
X70568400Y-147549800D01*
X70568400Y-146781870D01*
X70576400Y-146781870D01*
X70576400Y-147549800D01*
X70765900Y-147739300D01*
X71708175Y-147739300D01*
X71986772Y-147623901D01*
X72200001Y-147410672D01*
X72315399Y-147132075D01*
X72315399Y-146903500D01*
X72125899Y-146714000D01*
X71898605Y-146714000D01*
X71938824Y-146706000D01*
X72125899Y-146706000D01*
X72315399Y-146516500D01*
X72315399Y-146466821D01*
X72546477Y-146120989D01*
X72627969Y-145711300D01*
X72627969Y-145168700D01*
X72555625Y-144805000D01*
X72627969Y-144441300D01*
X72627969Y-144250000D01*
X72976891Y-144250000D01*
X73100000Y-144274488D01*
X73444431Y-144205976D01*
X73444431Y-144441300D01*
X73516775Y-144805000D01*
X73444431Y-145168700D01*
X73444431Y-145711300D01*
X73516775Y-146075000D01*
X73444431Y-146438700D01*
X73444431Y-146981300D01*
X73525923Y-147390989D01*
X73757994Y-147738307D01*
X73881096Y-147820561D01*
X73850000Y-147976892D01*
X73850000Y-147976896D01*
X73825513Y-148100000D01*
X73850000Y-148223104D01*
X73850000Y-148919751D01*
X73685922Y-149165311D01*
X73604430Y-149575000D01*
X73604430Y-150425000D01*
X73685922Y-150834689D01*
X73917993Y-151182007D01*
X74265311Y-151414078D01*
X74675000Y-151495570D01*
X75525000Y-151495570D01*
X75934689Y-151414078D01*
X76282007Y-151182007D01*
X76514078Y-150834689D01*
X76595570Y-150425000D01*
X76595570Y-149575000D01*
X76514078Y-149165311D01*
X76350000Y-148919751D01*
X76350000Y-148635409D01*
X76401199Y-148601199D01*
X76677473Y-148187725D01*
X76713539Y-148006411D01*
X76894688Y-147970378D01*
X77242006Y-147738307D01*
X77474077Y-147390989D01*
X77551913Y-146999680D01*
X77964819Y-147412586D01*
X77975005Y-149001603D01*
X77994030Y-149095671D01*
X78048223Y-149176777D01*
X78129329Y-149230970D01*
X78225000Y-149250000D01*
X82382233Y-149250000D01*
X79463168Y-152169066D01*
X79358802Y-152238801D01*
X79289067Y-152343167D01*
X79289066Y-152343168D01*
X79082528Y-152652275D01*
X78985513Y-153140000D01*
X79010001Y-153263108D01*
X79010001Y-154150112D01*
X78890176Y-154230176D01*
X78470239Y-154858657D01*
X78322777Y-155600000D01*
X78470239Y-156341343D01*
X78890176Y-156969824D01*
X79518657Y-157389761D01*
X80072867Y-157500000D01*
X80447133Y-157500000D01*
X81001343Y-157389761D01*
X81233923Y-157234356D01*
X81540311Y-157439078D01*
X81950000Y-157520570D01*
X83650000Y-157520570D01*
X84059689Y-157439078D01*
X84407007Y-157207007D01*
X84639078Y-156859689D01*
X84720570Y-156450000D01*
X84720570Y-154750000D01*
X84639078Y-154340311D01*
X84407007Y-153992993D01*
X84059689Y-153760922D01*
X84050000Y-153758995D01*
X84050000Y-153517766D01*
X88196834Y-149370933D01*
X88301200Y-149301198D01*
X88335409Y-149250000D01*
X89000000Y-149250000D01*
X89094188Y-149231578D01*
X89175640Y-149177906D01*
X89223707Y-149106957D01*
X90600001Y-149106957D01*
X90600001Y-149823041D01*
X90874035Y-150484617D01*
X91380383Y-150990965D01*
X92041959Y-151264999D01*
X92758043Y-151264999D01*
X93419619Y-150990965D01*
X93925967Y-150484617D01*
X94200001Y-149823041D01*
X94200001Y-149106957D01*
X93925967Y-148445381D01*
X93419619Y-147939033D01*
X92758043Y-147664999D01*
X92041959Y-147664999D01*
X91380383Y-147939033D01*
X90874035Y-148445381D01*
X90600001Y-149106957D01*
X89223707Y-149106957D01*
X89230352Y-149097149D01*
X89249995Y-149001603D01*
X89299995Y-141201603D01*
X89280970Y-141104329D01*
X89226777Y-141023223D01*
X89145671Y-140969030D01*
X89050000Y-140950000D01*
X88241571Y-140950000D01*
X88185395Y-140926731D01*
X88398786Y-140915714D01*
X88598563Y-140478634D01*
X88615871Y-139998374D01*
X88448073Y-139548047D01*
X88398786Y-139474284D01*
X88139746Y-139460910D01*
X87405658Y-140194999D01*
X87419800Y-140209141D01*
X87414143Y-140214798D01*
X87400001Y-140200656D01*
X87385859Y-140214798D01*
X87380202Y-140209141D01*
X87394344Y-140194999D01*
X86660256Y-139460910D01*
X86401216Y-139474284D01*
X86201439Y-139911364D01*
X86184131Y-140391624D01*
X86185104Y-140394236D01*
X86104090Y-140475250D01*
X86090716Y-140216214D01*
X85653636Y-140016437D01*
X85173376Y-139999129D01*
X84723049Y-140166927D01*
X84649286Y-140216214D01*
X84635912Y-140475254D01*
X85110659Y-140950000D01*
X85099345Y-140950000D01*
X84630256Y-140480910D01*
X84371216Y-140494284D01*
X84171439Y-140931364D01*
X84170767Y-140950000D01*
X83117766Y-140950000D01*
X82970936Y-140803169D01*
X82901199Y-140698801D01*
X82487725Y-140422527D01*
X82123109Y-140350000D01*
X82123104Y-140350000D01*
X82000000Y-140325513D01*
X81876896Y-140350000D01*
X79917767Y-140350000D01*
X80272197Y-139995570D01*
X80425000Y-139995570D01*
X80834689Y-139914078D01*
X81182007Y-139682007D01*
X81333518Y-139455254D01*
X86665912Y-139455254D01*
X87400001Y-140189342D01*
X88134090Y-139455254D01*
X88120716Y-139196214D01*
X87683636Y-138996437D01*
X87203376Y-138979129D01*
X86753049Y-139146927D01*
X86679286Y-139196214D01*
X86665912Y-139455254D01*
X81333518Y-139455254D01*
X81414078Y-139334689D01*
X81495570Y-138925000D01*
X81495570Y-138075000D01*
X81416395Y-137676957D01*
X90600001Y-137676957D01*
X90600001Y-138393041D01*
X90874035Y-139054617D01*
X91380383Y-139560965D01*
X92041959Y-139834999D01*
X92758043Y-139834999D01*
X93419619Y-139560965D01*
X93925967Y-139054617D01*
X94200001Y-138393041D01*
X94200001Y-137676957D01*
X93925967Y-137015381D01*
X93419619Y-136509033D01*
X92758043Y-136234999D01*
X92041959Y-136234999D01*
X91380383Y-136509033D01*
X90874035Y-137015381D01*
X90600001Y-137676957D01*
X81416395Y-137676957D01*
X81414078Y-137665311D01*
X81182007Y-137317993D01*
X80834689Y-137085922D01*
X80425000Y-137004430D01*
X79575000Y-137004430D01*
X79165311Y-137085922D01*
X78817993Y-137317993D01*
X78585922Y-137665311D01*
X78504430Y-138075000D01*
X78504430Y-138227803D01*
X77555569Y-139176665D01*
X77555569Y-138818700D01*
X77474077Y-138409011D01*
X77242006Y-138061693D01*
X76894688Y-137829622D01*
X76566076Y-137764257D01*
X76447912Y-137587412D01*
X76493500Y-137633000D01*
X76850776Y-137633000D01*
X77129373Y-137517601D01*
X77342602Y-137304372D01*
X77458000Y-137025775D01*
X77458000Y-136693500D01*
X77268500Y-136504000D01*
X76304000Y-136504000D01*
X76304000Y-136524000D01*
X76296000Y-136524000D01*
X76296000Y-136504000D01*
X76276000Y-136504000D01*
X76276000Y-136496000D01*
X76296000Y-136496000D01*
X76296000Y-135556500D01*
X76304000Y-135556500D01*
X76304000Y-136496000D01*
X77268500Y-136496000D01*
X77458000Y-136306500D01*
X77458000Y-135974225D01*
X77342602Y-135695628D01*
X77129373Y-135482399D01*
X76850776Y-135367000D01*
X76493500Y-135367000D01*
X76304000Y-135556500D01*
X76296000Y-135556500D01*
X76150000Y-135410500D01*
X76150000Y-135258000D01*
X77106500Y-135258000D01*
X77296000Y-135068500D01*
X77296000Y-133604000D01*
X77304000Y-133604000D01*
X77304000Y-135068500D01*
X77493500Y-135258000D01*
X78750776Y-135258000D01*
X79029373Y-135142601D01*
X79242602Y-134929372D01*
X79358000Y-134650775D01*
X79358000Y-133793500D01*
X79168500Y-133604000D01*
X77304000Y-133604000D01*
X77296000Y-133604000D01*
X77276000Y-133604000D01*
X77276000Y-133596000D01*
X77296000Y-133596000D01*
X77296000Y-132131500D01*
X77304000Y-132131500D01*
X77304000Y-133596000D01*
X79168500Y-133596000D01*
X79358000Y-133406500D01*
X79358000Y-132549225D01*
X79242602Y-132270628D01*
X79029373Y-132057399D01*
X78750776Y-131942000D01*
X77493500Y-131942000D01*
X77304000Y-132131500D01*
X77296000Y-132131500D01*
X77106500Y-131942000D01*
X75955521Y-131942000D01*
X75609689Y-131710922D01*
X75250000Y-131639376D01*
X75250000Y-130630588D01*
X75314078Y-130534689D01*
X75395570Y-130125000D01*
X75395570Y-129275000D01*
X75314078Y-128865311D01*
X75082007Y-128517993D01*
X74734689Y-128285922D01*
X74325000Y-128204430D01*
X73475000Y-128204430D01*
X73065311Y-128285922D01*
X72717993Y-128517993D01*
X72485922Y-128865311D01*
X72404430Y-129275000D01*
X72404430Y-130125000D01*
X72485922Y-130534689D01*
X72550001Y-130630589D01*
X72550001Y-131639375D01*
X72190311Y-131710922D01*
X71842993Y-131942993D01*
X71637857Y-132250000D01*
X51732961Y-132250000D01*
X51599999Y-132223552D01*
X51467038Y-132250000D01*
X51467037Y-132250000D01*
X51073256Y-132328328D01*
X50626704Y-132626704D01*
X50551385Y-132739427D01*
X48639425Y-134651387D01*
X48526705Y-134726704D01*
X48451388Y-134839424D01*
X48451387Y-134839425D01*
X48228328Y-135173257D01*
X48123552Y-135700000D01*
X44150000Y-135700000D01*
X44150000Y-127472882D01*
X44550000Y-127472882D01*
X44550000Y-128527118D01*
X44953438Y-129501105D01*
X45698895Y-130246562D01*
X46672882Y-130650000D01*
X47727118Y-130650000D01*
X48701105Y-130246562D01*
X49446562Y-129501105D01*
X49850000Y-128527118D01*
X49850000Y-127472882D01*
X49446562Y-126498895D01*
X48701105Y-125753438D01*
X47727118Y-125350000D01*
X46672882Y-125350000D01*
X45698895Y-125753438D01*
X44953438Y-126498895D01*
X44550000Y-127472882D01*
X44150000Y-127472882D01*
X44150000Y-125150000D01*
X94850000Y-125150000D01*
X94850000Y-127472882D01*
G36*
X71842993Y-135257007D02*
X72190311Y-135489078D01*
X72600000Y-135570570D01*
X72797394Y-135570570D01*
X72751383Y-135639429D01*
X72239425Y-136151387D01*
X72126704Y-136226705D01*
X72051387Y-136339425D01*
X71828328Y-136673257D01*
X71723552Y-137200000D01*
X71750000Y-137332963D01*
X71750000Y-137632963D01*
X71828328Y-138026744D01*
X71850000Y-138059179D01*
X71850000Y-138119446D01*
X71708175Y-138060700D01*
X70765900Y-138060700D01*
X70576400Y-138250200D01*
X70576400Y-139018130D01*
X70568400Y-139018130D01*
X70568400Y-138250200D01*
X70378900Y-138060700D01*
X69436625Y-138060700D01*
X69158028Y-138176099D01*
X68944799Y-138389328D01*
X68829401Y-138667925D01*
X68829401Y-138896500D01*
X69018901Y-139086000D01*
X69246195Y-139086000D01*
X69205976Y-139094000D01*
X69018901Y-139094000D01*
X69002901Y-139110000D01*
X68750000Y-139110000D01*
X68750000Y-138623108D01*
X68774488Y-138500000D01*
X68739186Y-138322528D01*
X68677473Y-138012275D01*
X68401199Y-137598801D01*
X68296830Y-137529064D01*
X67970936Y-137203170D01*
X67901199Y-137098801D01*
X67487725Y-136822527D01*
X67123109Y-136750000D01*
X67123104Y-136750000D01*
X67000000Y-136725513D01*
X66876896Y-136750000D01*
X61623108Y-136750000D01*
X61500000Y-136725512D01*
X61376892Y-136750000D01*
X61376891Y-136750000D01*
X61012275Y-136822527D01*
X60598801Y-137098801D01*
X60529064Y-137203170D01*
X60203170Y-137529064D01*
X60098801Y-137598801D01*
X59822527Y-138012276D01*
X59750000Y-138376892D01*
X59750000Y-138376896D01*
X59725513Y-138500000D01*
X59750000Y-138623104D01*
X59750000Y-138790000D01*
X58173992Y-138790000D01*
X58149993Y-135598120D01*
X58130970Y-135504329D01*
X58076777Y-135423223D01*
X57995671Y-135369030D01*
X57900000Y-135350000D01*
X54400000Y-135350000D01*
X54302595Y-135369756D01*
X54221899Y-135424557D01*
X54168317Y-135506068D01*
X54150007Y-135601880D01*
X54210519Y-143650000D01*
X53557188Y-143650000D01*
X53456641Y-143670000D01*
X51279189Y-143670000D01*
X50850000Y-143240812D01*
X50850000Y-136259188D01*
X52159188Y-134950000D01*
X71637857Y-134950000D01*
X71842993Y-135257007D01*
X71842993Y-135257007D01*
G37*
X71842993Y-135257007D02*
X72190311Y-135489078D01*
X72600000Y-135570570D01*
X72797394Y-135570570D01*
X72751383Y-135639429D01*
X72239425Y-136151387D01*
X72126704Y-136226705D01*
X72051387Y-136339425D01*
X71828328Y-136673257D01*
X71723552Y-137200000D01*
X71750000Y-137332963D01*
X71750000Y-137632963D01*
X71828328Y-138026744D01*
X71850000Y-138059179D01*
X71850000Y-138119446D01*
X71708175Y-138060700D01*
X70765900Y-138060700D01*
X70576400Y-138250200D01*
X70576400Y-139018130D01*
X70568400Y-139018130D01*
X70568400Y-138250200D01*
X70378900Y-138060700D01*
X69436625Y-138060700D01*
X69158028Y-138176099D01*
X68944799Y-138389328D01*
X68829401Y-138667925D01*
X68829401Y-138896500D01*
X69018901Y-139086000D01*
X69246195Y-139086000D01*
X69205976Y-139094000D01*
X69018901Y-139094000D01*
X69002901Y-139110000D01*
X68750000Y-139110000D01*
X68750000Y-138623108D01*
X68774488Y-138500000D01*
X68739186Y-138322528D01*
X68677473Y-138012275D01*
X68401199Y-137598801D01*
X68296830Y-137529064D01*
X67970936Y-137203170D01*
X67901199Y-137098801D01*
X67487725Y-136822527D01*
X67123109Y-136750000D01*
X67123104Y-136750000D01*
X67000000Y-136725513D01*
X66876896Y-136750000D01*
X61623108Y-136750000D01*
X61500000Y-136725512D01*
X61376892Y-136750000D01*
X61376891Y-136750000D01*
X61012275Y-136822527D01*
X60598801Y-137098801D01*
X60529064Y-137203170D01*
X60203170Y-137529064D01*
X60098801Y-137598801D01*
X59822527Y-138012276D01*
X59750000Y-138376892D01*
X59750000Y-138376896D01*
X59725513Y-138500000D01*
X59750000Y-138623104D01*
X59750000Y-138790000D01*
X58173992Y-138790000D01*
X58149993Y-135598120D01*
X58130970Y-135504329D01*
X58076777Y-135423223D01*
X57995671Y-135369030D01*
X57900000Y-135350000D01*
X54400000Y-135350000D01*
X54302595Y-135369756D01*
X54221899Y-135424557D01*
X54168317Y-135506068D01*
X54150007Y-135601880D01*
X54210519Y-143650000D01*
X53557188Y-143650000D01*
X53456641Y-143670000D01*
X51279189Y-143670000D01*
X50850000Y-143240812D01*
X50850000Y-136259188D01*
X52159188Y-134950000D01*
X71637857Y-134950000D01*
X71842993Y-135257007D01*
G04 #@! TD*
M02*
