M48
;DRILL file {KiCad (5.0.2)-1} date 05/11/2019 15:10:30
;FORMAT={-:-/ absolute / metric / decimal}
FMAT,2
METRIC,TZ
T1C0.500
T2C0.762
T3C1.000
%
G90
G05
T1
X55.5Y-127.3
X57.3Y-159.6
X60.8Y-150.5
X64.5Y-135.8
X67.8Y-126.9
X70.4Y-159.2
X71.3Y-149.8
X79.4Y-145.
X80.2Y-147.
X80.6Y-143.2
X80.7Y-127.3
X81.Y-159.6
X82.Y-145.4
X82.8Y-133.3
X67.2Y-150.1
X73.9Y-129.7
X75.Y-154.
X80.Y-138.5
X75.1Y-150.
X64.5Y-140.5
T2
X85.37Y-141.215
X85.37Y-143.245
X85.37Y-145.275
X85.37Y-147.305
X87.4Y-140.195
X87.4Y-142.225
X87.4Y-144.255
X87.4Y-146.285
T3
X56.2Y-137.5
X56.2Y-140.04
X56.2Y-142.58
X56.2Y-145.12
X56.2Y-147.66
X56.2Y-150.2
X80.26Y-155.6
X82.8Y-155.6
T0
M30
