%TF.GenerationSoftware,KiCad,Pcbnew,(5.1.5)-3*%
%TF.CreationDate,2021-02-05T17:27:38+00:00*%
%TF.ProjectId,Power Board,506f7765-7220-4426-9f61-72642e6b6963,rev?*%
%TF.SameCoordinates,Original*%
%TF.FileFunction,Soldermask,Bot*%
%TF.FilePolarity,Negative*%
%FSLAX46Y46*%
G04 Gerber Fmt 4.6, Leading zero omitted, Abs format (unit mm)*
G04 Created by KiCad (PCBNEW (5.1.5)-3) date 2021-02-05 17:27:38*
%MOMM*%
%LPD*%
G04 APERTURE LIST*
%ADD10O,1.800000X1.800000*%
%ADD11R,1.800000X1.800000*%
%ADD12C,1.900000*%
%ADD13R,1.900000X1.900000*%
%ADD14R,1.700000X1.700000*%
%ADD15C,1.700000*%
%ADD16C,5.600000*%
G04 APERTURE END LIST*
D10*
%TO.C,J1*%
X88000000Y-107620000D03*
X88000000Y-105080000D03*
X88000000Y-102540000D03*
D11*
X88000000Y-100000000D03*
%TD*%
%TO.C,J2*%
X130000000Y-107000000D03*
D10*
X130000000Y-104460000D03*
X130000000Y-101920000D03*
X130000000Y-99380000D03*
%TD*%
D11*
%TO.C,J3*%
X170000000Y-107000000D03*
D10*
X170000000Y-104460000D03*
X170000000Y-101920000D03*
X170000000Y-99380000D03*
%TD*%
D11*
%TO.C,J4*%
X190000000Y-107000000D03*
D10*
X190000000Y-104460000D03*
X190000000Y-101920000D03*
X190000000Y-99380000D03*
%TD*%
%TO.C,J5*%
X247000000Y-99380000D03*
X247000000Y-101920000D03*
X247000000Y-104460000D03*
D11*
X247000000Y-107000000D03*
%TD*%
%TO.C,J6*%
X88000000Y-95500000D03*
D10*
X88000000Y-92960000D03*
X88000000Y-90420000D03*
X88000000Y-87880000D03*
%TD*%
%TO.C,J8*%
X170000000Y-88000000D03*
X170000000Y-90540000D03*
X170000000Y-93080000D03*
D11*
X170000000Y-95620000D03*
%TD*%
D10*
%TO.C,J9*%
X210000000Y-88000000D03*
X210000000Y-90540000D03*
X210000000Y-93080000D03*
D11*
X210000000Y-95620000D03*
%TD*%
%TO.C,J10*%
X247000000Y-95620000D03*
D10*
X247000000Y-93080000D03*
X247000000Y-90540000D03*
X247000000Y-88000000D03*
%TD*%
D11*
%TO.C,J11*%
X84000000Y-100000000D03*
D10*
X84000000Y-102540000D03*
X84000000Y-105080000D03*
X84000000Y-107620000D03*
%TD*%
%TO.C,J12*%
X210000000Y-99380000D03*
X210000000Y-101920000D03*
X210000000Y-104460000D03*
D11*
X210000000Y-107000000D03*
%TD*%
D12*
%TO.C,D1*%
X157000000Y-107960000D03*
D13*
X157000000Y-110500000D03*
%TD*%
D12*
%TO.C,D2*%
X117000000Y-107960000D03*
D13*
X117000000Y-110500000D03*
%TD*%
%TO.C,D3*%
X177000000Y-110500000D03*
D12*
X177000000Y-107960000D03*
%TD*%
%TO.C,D4*%
X234000000Y-107960000D03*
D13*
X234000000Y-110500000D03*
%TD*%
%TO.C,D5*%
X197000000Y-110500000D03*
D12*
X197000000Y-107960000D03*
%TD*%
D10*
%TO.C,J13*%
X84000000Y-87880000D03*
X84000000Y-90420000D03*
X84000000Y-92960000D03*
D11*
X84000000Y-95500000D03*
%TD*%
%TO.C,J14*%
X130000000Y-95620000D03*
D10*
X130000000Y-93080000D03*
X130000000Y-90540000D03*
X130000000Y-88000000D03*
%TD*%
D14*
%TO.C,C1*%
X99000000Y-102000000D03*
D15*
X99000000Y-105500000D03*
%TD*%
%TO.C,C2*%
X98500000Y-93000000D03*
D14*
X98500000Y-89500000D03*
%TD*%
%TO.C,C18*%
X108500000Y-102000000D03*
D15*
X108500000Y-105500000D03*
%TD*%
%TO.C,C19*%
X108500000Y-93000000D03*
D14*
X108500000Y-89500000D03*
%TD*%
D16*
%TO.C,H3*%
X58500000Y-105750000D03*
%TD*%
%TO.C,H4*%
X58500000Y-91250000D03*
%TD*%
M02*
