%TF.GenerationSoftware,KiCad,Pcbnew,(5.1.5)-3*%
%TF.CreationDate,2021-02-05T17:27:38+00:00*%
%TF.ProjectId,Power Board,506f7765-7220-4426-9f61-72642e6b6963,rev?*%
%TF.SameCoordinates,Original*%
%TF.FileFunction,Soldermask,Top*%
%TF.FilePolarity,Negative*%
%FSLAX46Y46*%
G04 Gerber Fmt 4.6, Leading zero omitted, Abs format (unit mm)*
G04 Created by KiCad (PCBNEW (5.1.5)-3) date 2021-02-05 17:27:38*
%MOMM*%
%LPD*%
G04 APERTURE LIST*
%ADD10R,1.600000X1.350000*%
%ADD11R,1.350000X1.600000*%
%ADD12O,1.800000X1.800000*%
%ADD13R,1.800000X1.800000*%
%ADD14C,0.100000*%
%ADD15C,1.900000*%
%ADD16R,1.900000X1.900000*%
%ADD17R,1.000000X1.300000*%
%ADD18R,1.700000X1.700000*%
%ADD19C,1.700000*%
%ADD20C,5.600000*%
G04 APERTURE END LIST*
D10*
%TO.C,C3*%
X159750000Y-100000000D03*
X157250000Y-100000000D03*
%TD*%
D11*
%TO.C,C4*%
X166500000Y-110750000D03*
X166500000Y-108250000D03*
%TD*%
%TO.C,C5*%
X167000000Y-102750000D03*
X167000000Y-100250000D03*
%TD*%
D10*
%TO.C,C6*%
X119750000Y-100000000D03*
X117250000Y-100000000D03*
%TD*%
D11*
%TO.C,C7*%
X126500000Y-108250000D03*
X126500000Y-110750000D03*
%TD*%
%TO.C,C8*%
X127000000Y-102750000D03*
X127000000Y-100250000D03*
%TD*%
D10*
%TO.C,C9*%
X179750000Y-100000000D03*
X177250000Y-100000000D03*
%TD*%
D11*
%TO.C,C10*%
X186500000Y-110500000D03*
X186500000Y-108000000D03*
%TD*%
%TO.C,C11*%
X187000000Y-102750000D03*
X187000000Y-100250000D03*
%TD*%
D10*
%TO.C,C12*%
X236750000Y-100000000D03*
X234250000Y-100000000D03*
%TD*%
D11*
%TO.C,C13*%
X243500000Y-108250000D03*
X243500000Y-110750000D03*
%TD*%
%TO.C,C14*%
X244000000Y-102750000D03*
X244000000Y-100250000D03*
%TD*%
D10*
%TO.C,C15*%
X199750000Y-100000000D03*
X197250000Y-100000000D03*
%TD*%
D11*
%TO.C,C16*%
X206500000Y-110750000D03*
X206500000Y-108250000D03*
%TD*%
%TO.C,C17*%
X207000000Y-102750000D03*
X207000000Y-100250000D03*
%TD*%
D12*
%TO.C,J1*%
X88000000Y-107620000D03*
X88000000Y-105080000D03*
X88000000Y-102540000D03*
D13*
X88000000Y-100000000D03*
%TD*%
%TO.C,J2*%
X130000000Y-107000000D03*
D12*
X130000000Y-104460000D03*
X130000000Y-101920000D03*
X130000000Y-99380000D03*
%TD*%
D13*
%TO.C,J3*%
X170000000Y-107000000D03*
D12*
X170000000Y-104460000D03*
X170000000Y-101920000D03*
X170000000Y-99380000D03*
%TD*%
D13*
%TO.C,J4*%
X190000000Y-107000000D03*
D12*
X190000000Y-104460000D03*
X190000000Y-101920000D03*
X190000000Y-99380000D03*
%TD*%
%TO.C,J5*%
X247000000Y-99380000D03*
X247000000Y-101920000D03*
X247000000Y-104460000D03*
D13*
X247000000Y-107000000D03*
%TD*%
%TO.C,J6*%
X88000000Y-95500000D03*
D12*
X88000000Y-92960000D03*
X88000000Y-90420000D03*
X88000000Y-87880000D03*
%TD*%
%TO.C,J8*%
X170000000Y-88000000D03*
X170000000Y-90540000D03*
X170000000Y-93080000D03*
D13*
X170000000Y-95620000D03*
%TD*%
D12*
%TO.C,J9*%
X210000000Y-88000000D03*
X210000000Y-90540000D03*
X210000000Y-93080000D03*
D13*
X210000000Y-95620000D03*
%TD*%
%TO.C,J10*%
X247000000Y-95620000D03*
D12*
X247000000Y-93080000D03*
X247000000Y-90540000D03*
X247000000Y-88000000D03*
%TD*%
D13*
%TO.C,J11*%
X84000000Y-100000000D03*
D12*
X84000000Y-102540000D03*
X84000000Y-105080000D03*
X84000000Y-107620000D03*
%TD*%
%TO.C,J12*%
X210000000Y-99380000D03*
X210000000Y-101920000D03*
X210000000Y-104460000D03*
D13*
X210000000Y-107000000D03*
%TD*%
D14*
%TO.C,U1*%
G36*
X164812252Y-102625602D02*
G01*
X164824386Y-102627402D01*
X164836286Y-102630382D01*
X164847835Y-102634515D01*
X164858925Y-102639760D01*
X164869446Y-102646066D01*
X164879299Y-102653374D01*
X164888388Y-102661612D01*
X164896626Y-102670701D01*
X164903934Y-102680554D01*
X164910240Y-102691075D01*
X164915485Y-102702165D01*
X164919618Y-102713714D01*
X164922598Y-102725614D01*
X164924398Y-102737748D01*
X164925000Y-102750000D01*
X164925000Y-103000000D01*
X164924398Y-103012252D01*
X164922598Y-103024386D01*
X164919618Y-103036286D01*
X164915485Y-103047835D01*
X164910240Y-103058925D01*
X164903934Y-103069446D01*
X164896626Y-103079299D01*
X164888388Y-103088388D01*
X164879299Y-103096626D01*
X164869446Y-103103934D01*
X164858925Y-103110240D01*
X164847835Y-103115485D01*
X164836286Y-103119618D01*
X164824386Y-103122598D01*
X164812252Y-103124398D01*
X164800000Y-103125000D01*
X163500000Y-103125000D01*
X163487748Y-103124398D01*
X163475614Y-103122598D01*
X163463714Y-103119618D01*
X163452165Y-103115485D01*
X163441075Y-103110240D01*
X163430554Y-103103934D01*
X163420701Y-103096626D01*
X163411612Y-103088388D01*
X163403374Y-103079299D01*
X163396066Y-103069446D01*
X163389760Y-103058925D01*
X163384515Y-103047835D01*
X163380382Y-103036286D01*
X163377402Y-103024386D01*
X163375602Y-103012252D01*
X163375000Y-103000000D01*
X163375000Y-102750000D01*
X163375602Y-102737748D01*
X163377402Y-102725614D01*
X163380382Y-102713714D01*
X163384515Y-102702165D01*
X163389760Y-102691075D01*
X163396066Y-102680554D01*
X163403374Y-102670701D01*
X163411612Y-102661612D01*
X163420701Y-102653374D01*
X163430554Y-102646066D01*
X163441075Y-102639760D01*
X163452165Y-102634515D01*
X163463714Y-102630382D01*
X163475614Y-102627402D01*
X163487748Y-102625602D01*
X163500000Y-102625000D01*
X164800000Y-102625000D01*
X164812252Y-102625602D01*
G37*
G36*
X164812252Y-103275602D02*
G01*
X164824386Y-103277402D01*
X164836286Y-103280382D01*
X164847835Y-103284515D01*
X164858925Y-103289760D01*
X164869446Y-103296066D01*
X164879299Y-103303374D01*
X164888388Y-103311612D01*
X164896626Y-103320701D01*
X164903934Y-103330554D01*
X164910240Y-103341075D01*
X164915485Y-103352165D01*
X164919618Y-103363714D01*
X164922598Y-103375614D01*
X164924398Y-103387748D01*
X164925000Y-103400000D01*
X164925000Y-103650000D01*
X164924398Y-103662252D01*
X164922598Y-103674386D01*
X164919618Y-103686286D01*
X164915485Y-103697835D01*
X164910240Y-103708925D01*
X164903934Y-103719446D01*
X164896626Y-103729299D01*
X164888388Y-103738388D01*
X164879299Y-103746626D01*
X164869446Y-103753934D01*
X164858925Y-103760240D01*
X164847835Y-103765485D01*
X164836286Y-103769618D01*
X164824386Y-103772598D01*
X164812252Y-103774398D01*
X164800000Y-103775000D01*
X163500000Y-103775000D01*
X163487748Y-103774398D01*
X163475614Y-103772598D01*
X163463714Y-103769618D01*
X163452165Y-103765485D01*
X163441075Y-103760240D01*
X163430554Y-103753934D01*
X163420701Y-103746626D01*
X163411612Y-103738388D01*
X163403374Y-103729299D01*
X163396066Y-103719446D01*
X163389760Y-103708925D01*
X163384515Y-103697835D01*
X163380382Y-103686286D01*
X163377402Y-103674386D01*
X163375602Y-103662252D01*
X163375000Y-103650000D01*
X163375000Y-103400000D01*
X163375602Y-103387748D01*
X163377402Y-103375614D01*
X163380382Y-103363714D01*
X163384515Y-103352165D01*
X163389760Y-103341075D01*
X163396066Y-103330554D01*
X163403374Y-103320701D01*
X163411612Y-103311612D01*
X163420701Y-103303374D01*
X163430554Y-103296066D01*
X163441075Y-103289760D01*
X163452165Y-103284515D01*
X163463714Y-103280382D01*
X163475614Y-103277402D01*
X163487748Y-103275602D01*
X163500000Y-103275000D01*
X164800000Y-103275000D01*
X164812252Y-103275602D01*
G37*
G36*
X164812252Y-103925602D02*
G01*
X164824386Y-103927402D01*
X164836286Y-103930382D01*
X164847835Y-103934515D01*
X164858925Y-103939760D01*
X164869446Y-103946066D01*
X164879299Y-103953374D01*
X164888388Y-103961612D01*
X164896626Y-103970701D01*
X164903934Y-103980554D01*
X164910240Y-103991075D01*
X164915485Y-104002165D01*
X164919618Y-104013714D01*
X164922598Y-104025614D01*
X164924398Y-104037748D01*
X164925000Y-104050000D01*
X164925000Y-104300000D01*
X164924398Y-104312252D01*
X164922598Y-104324386D01*
X164919618Y-104336286D01*
X164915485Y-104347835D01*
X164910240Y-104358925D01*
X164903934Y-104369446D01*
X164896626Y-104379299D01*
X164888388Y-104388388D01*
X164879299Y-104396626D01*
X164869446Y-104403934D01*
X164858925Y-104410240D01*
X164847835Y-104415485D01*
X164836286Y-104419618D01*
X164824386Y-104422598D01*
X164812252Y-104424398D01*
X164800000Y-104425000D01*
X163500000Y-104425000D01*
X163487748Y-104424398D01*
X163475614Y-104422598D01*
X163463714Y-104419618D01*
X163452165Y-104415485D01*
X163441075Y-104410240D01*
X163430554Y-104403934D01*
X163420701Y-104396626D01*
X163411612Y-104388388D01*
X163403374Y-104379299D01*
X163396066Y-104369446D01*
X163389760Y-104358925D01*
X163384515Y-104347835D01*
X163380382Y-104336286D01*
X163377402Y-104324386D01*
X163375602Y-104312252D01*
X163375000Y-104300000D01*
X163375000Y-104050000D01*
X163375602Y-104037748D01*
X163377402Y-104025614D01*
X163380382Y-104013714D01*
X163384515Y-104002165D01*
X163389760Y-103991075D01*
X163396066Y-103980554D01*
X163403374Y-103970701D01*
X163411612Y-103961612D01*
X163420701Y-103953374D01*
X163430554Y-103946066D01*
X163441075Y-103939760D01*
X163452165Y-103934515D01*
X163463714Y-103930382D01*
X163475614Y-103927402D01*
X163487748Y-103925602D01*
X163500000Y-103925000D01*
X164800000Y-103925000D01*
X164812252Y-103925602D01*
G37*
G36*
X164812252Y-104575602D02*
G01*
X164824386Y-104577402D01*
X164836286Y-104580382D01*
X164847835Y-104584515D01*
X164858925Y-104589760D01*
X164869446Y-104596066D01*
X164879299Y-104603374D01*
X164888388Y-104611612D01*
X164896626Y-104620701D01*
X164903934Y-104630554D01*
X164910240Y-104641075D01*
X164915485Y-104652165D01*
X164919618Y-104663714D01*
X164922598Y-104675614D01*
X164924398Y-104687748D01*
X164925000Y-104700000D01*
X164925000Y-104950000D01*
X164924398Y-104962252D01*
X164922598Y-104974386D01*
X164919618Y-104986286D01*
X164915485Y-104997835D01*
X164910240Y-105008925D01*
X164903934Y-105019446D01*
X164896626Y-105029299D01*
X164888388Y-105038388D01*
X164879299Y-105046626D01*
X164869446Y-105053934D01*
X164858925Y-105060240D01*
X164847835Y-105065485D01*
X164836286Y-105069618D01*
X164824386Y-105072598D01*
X164812252Y-105074398D01*
X164800000Y-105075000D01*
X163500000Y-105075000D01*
X163487748Y-105074398D01*
X163475614Y-105072598D01*
X163463714Y-105069618D01*
X163452165Y-105065485D01*
X163441075Y-105060240D01*
X163430554Y-105053934D01*
X163420701Y-105046626D01*
X163411612Y-105038388D01*
X163403374Y-105029299D01*
X163396066Y-105019446D01*
X163389760Y-105008925D01*
X163384515Y-104997835D01*
X163380382Y-104986286D01*
X163377402Y-104974386D01*
X163375602Y-104962252D01*
X163375000Y-104950000D01*
X163375000Y-104700000D01*
X163375602Y-104687748D01*
X163377402Y-104675614D01*
X163380382Y-104663714D01*
X163384515Y-104652165D01*
X163389760Y-104641075D01*
X163396066Y-104630554D01*
X163403374Y-104620701D01*
X163411612Y-104611612D01*
X163420701Y-104603374D01*
X163430554Y-104596066D01*
X163441075Y-104589760D01*
X163452165Y-104584515D01*
X163463714Y-104580382D01*
X163475614Y-104577402D01*
X163487748Y-104575602D01*
X163500000Y-104575000D01*
X164800000Y-104575000D01*
X164812252Y-104575602D01*
G37*
G36*
X164812252Y-105225602D02*
G01*
X164824386Y-105227402D01*
X164836286Y-105230382D01*
X164847835Y-105234515D01*
X164858925Y-105239760D01*
X164869446Y-105246066D01*
X164879299Y-105253374D01*
X164888388Y-105261612D01*
X164896626Y-105270701D01*
X164903934Y-105280554D01*
X164910240Y-105291075D01*
X164915485Y-105302165D01*
X164919618Y-105313714D01*
X164922598Y-105325614D01*
X164924398Y-105337748D01*
X164925000Y-105350000D01*
X164925000Y-105600000D01*
X164924398Y-105612252D01*
X164922598Y-105624386D01*
X164919618Y-105636286D01*
X164915485Y-105647835D01*
X164910240Y-105658925D01*
X164903934Y-105669446D01*
X164896626Y-105679299D01*
X164888388Y-105688388D01*
X164879299Y-105696626D01*
X164869446Y-105703934D01*
X164858925Y-105710240D01*
X164847835Y-105715485D01*
X164836286Y-105719618D01*
X164824386Y-105722598D01*
X164812252Y-105724398D01*
X164800000Y-105725000D01*
X163500000Y-105725000D01*
X163487748Y-105724398D01*
X163475614Y-105722598D01*
X163463714Y-105719618D01*
X163452165Y-105715485D01*
X163441075Y-105710240D01*
X163430554Y-105703934D01*
X163420701Y-105696626D01*
X163411612Y-105688388D01*
X163403374Y-105679299D01*
X163396066Y-105669446D01*
X163389760Y-105658925D01*
X163384515Y-105647835D01*
X163380382Y-105636286D01*
X163377402Y-105624386D01*
X163375602Y-105612252D01*
X163375000Y-105600000D01*
X163375000Y-105350000D01*
X163375602Y-105337748D01*
X163377402Y-105325614D01*
X163380382Y-105313714D01*
X163384515Y-105302165D01*
X163389760Y-105291075D01*
X163396066Y-105280554D01*
X163403374Y-105270701D01*
X163411612Y-105261612D01*
X163420701Y-105253374D01*
X163430554Y-105246066D01*
X163441075Y-105239760D01*
X163452165Y-105234515D01*
X163463714Y-105230382D01*
X163475614Y-105227402D01*
X163487748Y-105225602D01*
X163500000Y-105225000D01*
X164800000Y-105225000D01*
X164812252Y-105225602D01*
G37*
G36*
X164812252Y-105875602D02*
G01*
X164824386Y-105877402D01*
X164836286Y-105880382D01*
X164847835Y-105884515D01*
X164858925Y-105889760D01*
X164869446Y-105896066D01*
X164879299Y-105903374D01*
X164888388Y-105911612D01*
X164896626Y-105920701D01*
X164903934Y-105930554D01*
X164910240Y-105941075D01*
X164915485Y-105952165D01*
X164919618Y-105963714D01*
X164922598Y-105975614D01*
X164924398Y-105987748D01*
X164925000Y-106000000D01*
X164925000Y-106250000D01*
X164924398Y-106262252D01*
X164922598Y-106274386D01*
X164919618Y-106286286D01*
X164915485Y-106297835D01*
X164910240Y-106308925D01*
X164903934Y-106319446D01*
X164896626Y-106329299D01*
X164888388Y-106338388D01*
X164879299Y-106346626D01*
X164869446Y-106353934D01*
X164858925Y-106360240D01*
X164847835Y-106365485D01*
X164836286Y-106369618D01*
X164824386Y-106372598D01*
X164812252Y-106374398D01*
X164800000Y-106375000D01*
X163500000Y-106375000D01*
X163487748Y-106374398D01*
X163475614Y-106372598D01*
X163463714Y-106369618D01*
X163452165Y-106365485D01*
X163441075Y-106360240D01*
X163430554Y-106353934D01*
X163420701Y-106346626D01*
X163411612Y-106338388D01*
X163403374Y-106329299D01*
X163396066Y-106319446D01*
X163389760Y-106308925D01*
X163384515Y-106297835D01*
X163380382Y-106286286D01*
X163377402Y-106274386D01*
X163375602Y-106262252D01*
X163375000Y-106250000D01*
X163375000Y-106000000D01*
X163375602Y-105987748D01*
X163377402Y-105975614D01*
X163380382Y-105963714D01*
X163384515Y-105952165D01*
X163389760Y-105941075D01*
X163396066Y-105930554D01*
X163403374Y-105920701D01*
X163411612Y-105911612D01*
X163420701Y-105903374D01*
X163430554Y-105896066D01*
X163441075Y-105889760D01*
X163452165Y-105884515D01*
X163463714Y-105880382D01*
X163475614Y-105877402D01*
X163487748Y-105875602D01*
X163500000Y-105875000D01*
X164800000Y-105875000D01*
X164812252Y-105875602D01*
G37*
G36*
X160512252Y-105875602D02*
G01*
X160524386Y-105877402D01*
X160536286Y-105880382D01*
X160547835Y-105884515D01*
X160558925Y-105889760D01*
X160569446Y-105896066D01*
X160579299Y-105903374D01*
X160588388Y-105911612D01*
X160596626Y-105920701D01*
X160603934Y-105930554D01*
X160610240Y-105941075D01*
X160615485Y-105952165D01*
X160619618Y-105963714D01*
X160622598Y-105975614D01*
X160624398Y-105987748D01*
X160625000Y-106000000D01*
X160625000Y-106250000D01*
X160624398Y-106262252D01*
X160622598Y-106274386D01*
X160619618Y-106286286D01*
X160615485Y-106297835D01*
X160610240Y-106308925D01*
X160603934Y-106319446D01*
X160596626Y-106329299D01*
X160588388Y-106338388D01*
X160579299Y-106346626D01*
X160569446Y-106353934D01*
X160558925Y-106360240D01*
X160547835Y-106365485D01*
X160536286Y-106369618D01*
X160524386Y-106372598D01*
X160512252Y-106374398D01*
X160500000Y-106375000D01*
X159200000Y-106375000D01*
X159187748Y-106374398D01*
X159175614Y-106372598D01*
X159163714Y-106369618D01*
X159152165Y-106365485D01*
X159141075Y-106360240D01*
X159130554Y-106353934D01*
X159120701Y-106346626D01*
X159111612Y-106338388D01*
X159103374Y-106329299D01*
X159096066Y-106319446D01*
X159089760Y-106308925D01*
X159084515Y-106297835D01*
X159080382Y-106286286D01*
X159077402Y-106274386D01*
X159075602Y-106262252D01*
X159075000Y-106250000D01*
X159075000Y-106000000D01*
X159075602Y-105987748D01*
X159077402Y-105975614D01*
X159080382Y-105963714D01*
X159084515Y-105952165D01*
X159089760Y-105941075D01*
X159096066Y-105930554D01*
X159103374Y-105920701D01*
X159111612Y-105911612D01*
X159120701Y-105903374D01*
X159130554Y-105896066D01*
X159141075Y-105889760D01*
X159152165Y-105884515D01*
X159163714Y-105880382D01*
X159175614Y-105877402D01*
X159187748Y-105875602D01*
X159200000Y-105875000D01*
X160500000Y-105875000D01*
X160512252Y-105875602D01*
G37*
G36*
X160512252Y-105225602D02*
G01*
X160524386Y-105227402D01*
X160536286Y-105230382D01*
X160547835Y-105234515D01*
X160558925Y-105239760D01*
X160569446Y-105246066D01*
X160579299Y-105253374D01*
X160588388Y-105261612D01*
X160596626Y-105270701D01*
X160603934Y-105280554D01*
X160610240Y-105291075D01*
X160615485Y-105302165D01*
X160619618Y-105313714D01*
X160622598Y-105325614D01*
X160624398Y-105337748D01*
X160625000Y-105350000D01*
X160625000Y-105600000D01*
X160624398Y-105612252D01*
X160622598Y-105624386D01*
X160619618Y-105636286D01*
X160615485Y-105647835D01*
X160610240Y-105658925D01*
X160603934Y-105669446D01*
X160596626Y-105679299D01*
X160588388Y-105688388D01*
X160579299Y-105696626D01*
X160569446Y-105703934D01*
X160558925Y-105710240D01*
X160547835Y-105715485D01*
X160536286Y-105719618D01*
X160524386Y-105722598D01*
X160512252Y-105724398D01*
X160500000Y-105725000D01*
X159200000Y-105725000D01*
X159187748Y-105724398D01*
X159175614Y-105722598D01*
X159163714Y-105719618D01*
X159152165Y-105715485D01*
X159141075Y-105710240D01*
X159130554Y-105703934D01*
X159120701Y-105696626D01*
X159111612Y-105688388D01*
X159103374Y-105679299D01*
X159096066Y-105669446D01*
X159089760Y-105658925D01*
X159084515Y-105647835D01*
X159080382Y-105636286D01*
X159077402Y-105624386D01*
X159075602Y-105612252D01*
X159075000Y-105600000D01*
X159075000Y-105350000D01*
X159075602Y-105337748D01*
X159077402Y-105325614D01*
X159080382Y-105313714D01*
X159084515Y-105302165D01*
X159089760Y-105291075D01*
X159096066Y-105280554D01*
X159103374Y-105270701D01*
X159111612Y-105261612D01*
X159120701Y-105253374D01*
X159130554Y-105246066D01*
X159141075Y-105239760D01*
X159152165Y-105234515D01*
X159163714Y-105230382D01*
X159175614Y-105227402D01*
X159187748Y-105225602D01*
X159200000Y-105225000D01*
X160500000Y-105225000D01*
X160512252Y-105225602D01*
G37*
G36*
X160512252Y-104575602D02*
G01*
X160524386Y-104577402D01*
X160536286Y-104580382D01*
X160547835Y-104584515D01*
X160558925Y-104589760D01*
X160569446Y-104596066D01*
X160579299Y-104603374D01*
X160588388Y-104611612D01*
X160596626Y-104620701D01*
X160603934Y-104630554D01*
X160610240Y-104641075D01*
X160615485Y-104652165D01*
X160619618Y-104663714D01*
X160622598Y-104675614D01*
X160624398Y-104687748D01*
X160625000Y-104700000D01*
X160625000Y-104950000D01*
X160624398Y-104962252D01*
X160622598Y-104974386D01*
X160619618Y-104986286D01*
X160615485Y-104997835D01*
X160610240Y-105008925D01*
X160603934Y-105019446D01*
X160596626Y-105029299D01*
X160588388Y-105038388D01*
X160579299Y-105046626D01*
X160569446Y-105053934D01*
X160558925Y-105060240D01*
X160547835Y-105065485D01*
X160536286Y-105069618D01*
X160524386Y-105072598D01*
X160512252Y-105074398D01*
X160500000Y-105075000D01*
X159200000Y-105075000D01*
X159187748Y-105074398D01*
X159175614Y-105072598D01*
X159163714Y-105069618D01*
X159152165Y-105065485D01*
X159141075Y-105060240D01*
X159130554Y-105053934D01*
X159120701Y-105046626D01*
X159111612Y-105038388D01*
X159103374Y-105029299D01*
X159096066Y-105019446D01*
X159089760Y-105008925D01*
X159084515Y-104997835D01*
X159080382Y-104986286D01*
X159077402Y-104974386D01*
X159075602Y-104962252D01*
X159075000Y-104950000D01*
X159075000Y-104700000D01*
X159075602Y-104687748D01*
X159077402Y-104675614D01*
X159080382Y-104663714D01*
X159084515Y-104652165D01*
X159089760Y-104641075D01*
X159096066Y-104630554D01*
X159103374Y-104620701D01*
X159111612Y-104611612D01*
X159120701Y-104603374D01*
X159130554Y-104596066D01*
X159141075Y-104589760D01*
X159152165Y-104584515D01*
X159163714Y-104580382D01*
X159175614Y-104577402D01*
X159187748Y-104575602D01*
X159200000Y-104575000D01*
X160500000Y-104575000D01*
X160512252Y-104575602D01*
G37*
G36*
X160512252Y-103925602D02*
G01*
X160524386Y-103927402D01*
X160536286Y-103930382D01*
X160547835Y-103934515D01*
X160558925Y-103939760D01*
X160569446Y-103946066D01*
X160579299Y-103953374D01*
X160588388Y-103961612D01*
X160596626Y-103970701D01*
X160603934Y-103980554D01*
X160610240Y-103991075D01*
X160615485Y-104002165D01*
X160619618Y-104013714D01*
X160622598Y-104025614D01*
X160624398Y-104037748D01*
X160625000Y-104050000D01*
X160625000Y-104300000D01*
X160624398Y-104312252D01*
X160622598Y-104324386D01*
X160619618Y-104336286D01*
X160615485Y-104347835D01*
X160610240Y-104358925D01*
X160603934Y-104369446D01*
X160596626Y-104379299D01*
X160588388Y-104388388D01*
X160579299Y-104396626D01*
X160569446Y-104403934D01*
X160558925Y-104410240D01*
X160547835Y-104415485D01*
X160536286Y-104419618D01*
X160524386Y-104422598D01*
X160512252Y-104424398D01*
X160500000Y-104425000D01*
X159200000Y-104425000D01*
X159187748Y-104424398D01*
X159175614Y-104422598D01*
X159163714Y-104419618D01*
X159152165Y-104415485D01*
X159141075Y-104410240D01*
X159130554Y-104403934D01*
X159120701Y-104396626D01*
X159111612Y-104388388D01*
X159103374Y-104379299D01*
X159096066Y-104369446D01*
X159089760Y-104358925D01*
X159084515Y-104347835D01*
X159080382Y-104336286D01*
X159077402Y-104324386D01*
X159075602Y-104312252D01*
X159075000Y-104300000D01*
X159075000Y-104050000D01*
X159075602Y-104037748D01*
X159077402Y-104025614D01*
X159080382Y-104013714D01*
X159084515Y-104002165D01*
X159089760Y-103991075D01*
X159096066Y-103980554D01*
X159103374Y-103970701D01*
X159111612Y-103961612D01*
X159120701Y-103953374D01*
X159130554Y-103946066D01*
X159141075Y-103939760D01*
X159152165Y-103934515D01*
X159163714Y-103930382D01*
X159175614Y-103927402D01*
X159187748Y-103925602D01*
X159200000Y-103925000D01*
X160500000Y-103925000D01*
X160512252Y-103925602D01*
G37*
G36*
X160512252Y-103275602D02*
G01*
X160524386Y-103277402D01*
X160536286Y-103280382D01*
X160547835Y-103284515D01*
X160558925Y-103289760D01*
X160569446Y-103296066D01*
X160579299Y-103303374D01*
X160588388Y-103311612D01*
X160596626Y-103320701D01*
X160603934Y-103330554D01*
X160610240Y-103341075D01*
X160615485Y-103352165D01*
X160619618Y-103363714D01*
X160622598Y-103375614D01*
X160624398Y-103387748D01*
X160625000Y-103400000D01*
X160625000Y-103650000D01*
X160624398Y-103662252D01*
X160622598Y-103674386D01*
X160619618Y-103686286D01*
X160615485Y-103697835D01*
X160610240Y-103708925D01*
X160603934Y-103719446D01*
X160596626Y-103729299D01*
X160588388Y-103738388D01*
X160579299Y-103746626D01*
X160569446Y-103753934D01*
X160558925Y-103760240D01*
X160547835Y-103765485D01*
X160536286Y-103769618D01*
X160524386Y-103772598D01*
X160512252Y-103774398D01*
X160500000Y-103775000D01*
X159200000Y-103775000D01*
X159187748Y-103774398D01*
X159175614Y-103772598D01*
X159163714Y-103769618D01*
X159152165Y-103765485D01*
X159141075Y-103760240D01*
X159130554Y-103753934D01*
X159120701Y-103746626D01*
X159111612Y-103738388D01*
X159103374Y-103729299D01*
X159096066Y-103719446D01*
X159089760Y-103708925D01*
X159084515Y-103697835D01*
X159080382Y-103686286D01*
X159077402Y-103674386D01*
X159075602Y-103662252D01*
X159075000Y-103650000D01*
X159075000Y-103400000D01*
X159075602Y-103387748D01*
X159077402Y-103375614D01*
X159080382Y-103363714D01*
X159084515Y-103352165D01*
X159089760Y-103341075D01*
X159096066Y-103330554D01*
X159103374Y-103320701D01*
X159111612Y-103311612D01*
X159120701Y-103303374D01*
X159130554Y-103296066D01*
X159141075Y-103289760D01*
X159152165Y-103284515D01*
X159163714Y-103280382D01*
X159175614Y-103277402D01*
X159187748Y-103275602D01*
X159200000Y-103275000D01*
X160500000Y-103275000D01*
X160512252Y-103275602D01*
G37*
G36*
X160512252Y-102625602D02*
G01*
X160524386Y-102627402D01*
X160536286Y-102630382D01*
X160547835Y-102634515D01*
X160558925Y-102639760D01*
X160569446Y-102646066D01*
X160579299Y-102653374D01*
X160588388Y-102661612D01*
X160596626Y-102670701D01*
X160603934Y-102680554D01*
X160610240Y-102691075D01*
X160615485Y-102702165D01*
X160619618Y-102713714D01*
X160622598Y-102725614D01*
X160624398Y-102737748D01*
X160625000Y-102750000D01*
X160625000Y-103000000D01*
X160624398Y-103012252D01*
X160622598Y-103024386D01*
X160619618Y-103036286D01*
X160615485Y-103047835D01*
X160610240Y-103058925D01*
X160603934Y-103069446D01*
X160596626Y-103079299D01*
X160588388Y-103088388D01*
X160579299Y-103096626D01*
X160569446Y-103103934D01*
X160558925Y-103110240D01*
X160547835Y-103115485D01*
X160536286Y-103119618D01*
X160524386Y-103122598D01*
X160512252Y-103124398D01*
X160500000Y-103125000D01*
X159200000Y-103125000D01*
X159187748Y-103124398D01*
X159175614Y-103122598D01*
X159163714Y-103119618D01*
X159152165Y-103115485D01*
X159141075Y-103110240D01*
X159130554Y-103103934D01*
X159120701Y-103096626D01*
X159111612Y-103088388D01*
X159103374Y-103079299D01*
X159096066Y-103069446D01*
X159089760Y-103058925D01*
X159084515Y-103047835D01*
X159080382Y-103036286D01*
X159077402Y-103024386D01*
X159075602Y-103012252D01*
X159075000Y-103000000D01*
X159075000Y-102750000D01*
X159075602Y-102737748D01*
X159077402Y-102725614D01*
X159080382Y-102713714D01*
X159084515Y-102702165D01*
X159089760Y-102691075D01*
X159096066Y-102680554D01*
X159103374Y-102670701D01*
X159111612Y-102661612D01*
X159120701Y-102653374D01*
X159130554Y-102646066D01*
X159141075Y-102639760D01*
X159152165Y-102634515D01*
X159163714Y-102630382D01*
X159175614Y-102627402D01*
X159187748Y-102625602D01*
X159200000Y-102625000D01*
X160500000Y-102625000D01*
X160512252Y-102625602D01*
G37*
G36*
X162635838Y-103026277D02*
G01*
X162661577Y-103030095D01*
X162686818Y-103036417D01*
X162711318Y-103045183D01*
X162734840Y-103056309D01*
X162757159Y-103069686D01*
X162778059Y-103085187D01*
X162797339Y-103102661D01*
X162814813Y-103121941D01*
X162830314Y-103142841D01*
X162843691Y-103165160D01*
X162854817Y-103188682D01*
X162863583Y-103213182D01*
X162869905Y-103238423D01*
X162873723Y-103264162D01*
X162875000Y-103290151D01*
X162875000Y-105709849D01*
X162873723Y-105735838D01*
X162869905Y-105761577D01*
X162863583Y-105786818D01*
X162854817Y-105811318D01*
X162843691Y-105834840D01*
X162830314Y-105857159D01*
X162814813Y-105878059D01*
X162797339Y-105897339D01*
X162778059Y-105914813D01*
X162757159Y-105930314D01*
X162734840Y-105943691D01*
X162711318Y-105954817D01*
X162686818Y-105963583D01*
X162661577Y-105969905D01*
X162635838Y-105973723D01*
X162609849Y-105975000D01*
X161390151Y-105975000D01*
X161364162Y-105973723D01*
X161338423Y-105969905D01*
X161313182Y-105963583D01*
X161288682Y-105954817D01*
X161265160Y-105943691D01*
X161242841Y-105930314D01*
X161221941Y-105914813D01*
X161202661Y-105897339D01*
X161185187Y-105878059D01*
X161169686Y-105857159D01*
X161156309Y-105834840D01*
X161145183Y-105811318D01*
X161136417Y-105786818D01*
X161130095Y-105761577D01*
X161126277Y-105735838D01*
X161125000Y-105709849D01*
X161125000Y-103290151D01*
X161126277Y-103264162D01*
X161130095Y-103238423D01*
X161136417Y-103213182D01*
X161145183Y-103188682D01*
X161156309Y-103165160D01*
X161169686Y-103142841D01*
X161185187Y-103121941D01*
X161202661Y-103102661D01*
X161221941Y-103085187D01*
X161242841Y-103069686D01*
X161265160Y-103056309D01*
X161288682Y-103045183D01*
X161313182Y-103036417D01*
X161338423Y-103030095D01*
X161364162Y-103026277D01*
X161390151Y-103025000D01*
X162609849Y-103025000D01*
X162635838Y-103026277D01*
G37*
%TD*%
%TO.C,U2*%
G36*
X124812252Y-102625602D02*
G01*
X124824386Y-102627402D01*
X124836286Y-102630382D01*
X124847835Y-102634515D01*
X124858925Y-102639760D01*
X124869446Y-102646066D01*
X124879299Y-102653374D01*
X124888388Y-102661612D01*
X124896626Y-102670701D01*
X124903934Y-102680554D01*
X124910240Y-102691075D01*
X124915485Y-102702165D01*
X124919618Y-102713714D01*
X124922598Y-102725614D01*
X124924398Y-102737748D01*
X124925000Y-102750000D01*
X124925000Y-103000000D01*
X124924398Y-103012252D01*
X124922598Y-103024386D01*
X124919618Y-103036286D01*
X124915485Y-103047835D01*
X124910240Y-103058925D01*
X124903934Y-103069446D01*
X124896626Y-103079299D01*
X124888388Y-103088388D01*
X124879299Y-103096626D01*
X124869446Y-103103934D01*
X124858925Y-103110240D01*
X124847835Y-103115485D01*
X124836286Y-103119618D01*
X124824386Y-103122598D01*
X124812252Y-103124398D01*
X124800000Y-103125000D01*
X123500000Y-103125000D01*
X123487748Y-103124398D01*
X123475614Y-103122598D01*
X123463714Y-103119618D01*
X123452165Y-103115485D01*
X123441075Y-103110240D01*
X123430554Y-103103934D01*
X123420701Y-103096626D01*
X123411612Y-103088388D01*
X123403374Y-103079299D01*
X123396066Y-103069446D01*
X123389760Y-103058925D01*
X123384515Y-103047835D01*
X123380382Y-103036286D01*
X123377402Y-103024386D01*
X123375602Y-103012252D01*
X123375000Y-103000000D01*
X123375000Y-102750000D01*
X123375602Y-102737748D01*
X123377402Y-102725614D01*
X123380382Y-102713714D01*
X123384515Y-102702165D01*
X123389760Y-102691075D01*
X123396066Y-102680554D01*
X123403374Y-102670701D01*
X123411612Y-102661612D01*
X123420701Y-102653374D01*
X123430554Y-102646066D01*
X123441075Y-102639760D01*
X123452165Y-102634515D01*
X123463714Y-102630382D01*
X123475614Y-102627402D01*
X123487748Y-102625602D01*
X123500000Y-102625000D01*
X124800000Y-102625000D01*
X124812252Y-102625602D01*
G37*
G36*
X124812252Y-103275602D02*
G01*
X124824386Y-103277402D01*
X124836286Y-103280382D01*
X124847835Y-103284515D01*
X124858925Y-103289760D01*
X124869446Y-103296066D01*
X124879299Y-103303374D01*
X124888388Y-103311612D01*
X124896626Y-103320701D01*
X124903934Y-103330554D01*
X124910240Y-103341075D01*
X124915485Y-103352165D01*
X124919618Y-103363714D01*
X124922598Y-103375614D01*
X124924398Y-103387748D01*
X124925000Y-103400000D01*
X124925000Y-103650000D01*
X124924398Y-103662252D01*
X124922598Y-103674386D01*
X124919618Y-103686286D01*
X124915485Y-103697835D01*
X124910240Y-103708925D01*
X124903934Y-103719446D01*
X124896626Y-103729299D01*
X124888388Y-103738388D01*
X124879299Y-103746626D01*
X124869446Y-103753934D01*
X124858925Y-103760240D01*
X124847835Y-103765485D01*
X124836286Y-103769618D01*
X124824386Y-103772598D01*
X124812252Y-103774398D01*
X124800000Y-103775000D01*
X123500000Y-103775000D01*
X123487748Y-103774398D01*
X123475614Y-103772598D01*
X123463714Y-103769618D01*
X123452165Y-103765485D01*
X123441075Y-103760240D01*
X123430554Y-103753934D01*
X123420701Y-103746626D01*
X123411612Y-103738388D01*
X123403374Y-103729299D01*
X123396066Y-103719446D01*
X123389760Y-103708925D01*
X123384515Y-103697835D01*
X123380382Y-103686286D01*
X123377402Y-103674386D01*
X123375602Y-103662252D01*
X123375000Y-103650000D01*
X123375000Y-103400000D01*
X123375602Y-103387748D01*
X123377402Y-103375614D01*
X123380382Y-103363714D01*
X123384515Y-103352165D01*
X123389760Y-103341075D01*
X123396066Y-103330554D01*
X123403374Y-103320701D01*
X123411612Y-103311612D01*
X123420701Y-103303374D01*
X123430554Y-103296066D01*
X123441075Y-103289760D01*
X123452165Y-103284515D01*
X123463714Y-103280382D01*
X123475614Y-103277402D01*
X123487748Y-103275602D01*
X123500000Y-103275000D01*
X124800000Y-103275000D01*
X124812252Y-103275602D01*
G37*
G36*
X124812252Y-103925602D02*
G01*
X124824386Y-103927402D01*
X124836286Y-103930382D01*
X124847835Y-103934515D01*
X124858925Y-103939760D01*
X124869446Y-103946066D01*
X124879299Y-103953374D01*
X124888388Y-103961612D01*
X124896626Y-103970701D01*
X124903934Y-103980554D01*
X124910240Y-103991075D01*
X124915485Y-104002165D01*
X124919618Y-104013714D01*
X124922598Y-104025614D01*
X124924398Y-104037748D01*
X124925000Y-104050000D01*
X124925000Y-104300000D01*
X124924398Y-104312252D01*
X124922598Y-104324386D01*
X124919618Y-104336286D01*
X124915485Y-104347835D01*
X124910240Y-104358925D01*
X124903934Y-104369446D01*
X124896626Y-104379299D01*
X124888388Y-104388388D01*
X124879299Y-104396626D01*
X124869446Y-104403934D01*
X124858925Y-104410240D01*
X124847835Y-104415485D01*
X124836286Y-104419618D01*
X124824386Y-104422598D01*
X124812252Y-104424398D01*
X124800000Y-104425000D01*
X123500000Y-104425000D01*
X123487748Y-104424398D01*
X123475614Y-104422598D01*
X123463714Y-104419618D01*
X123452165Y-104415485D01*
X123441075Y-104410240D01*
X123430554Y-104403934D01*
X123420701Y-104396626D01*
X123411612Y-104388388D01*
X123403374Y-104379299D01*
X123396066Y-104369446D01*
X123389760Y-104358925D01*
X123384515Y-104347835D01*
X123380382Y-104336286D01*
X123377402Y-104324386D01*
X123375602Y-104312252D01*
X123375000Y-104300000D01*
X123375000Y-104050000D01*
X123375602Y-104037748D01*
X123377402Y-104025614D01*
X123380382Y-104013714D01*
X123384515Y-104002165D01*
X123389760Y-103991075D01*
X123396066Y-103980554D01*
X123403374Y-103970701D01*
X123411612Y-103961612D01*
X123420701Y-103953374D01*
X123430554Y-103946066D01*
X123441075Y-103939760D01*
X123452165Y-103934515D01*
X123463714Y-103930382D01*
X123475614Y-103927402D01*
X123487748Y-103925602D01*
X123500000Y-103925000D01*
X124800000Y-103925000D01*
X124812252Y-103925602D01*
G37*
G36*
X124812252Y-104575602D02*
G01*
X124824386Y-104577402D01*
X124836286Y-104580382D01*
X124847835Y-104584515D01*
X124858925Y-104589760D01*
X124869446Y-104596066D01*
X124879299Y-104603374D01*
X124888388Y-104611612D01*
X124896626Y-104620701D01*
X124903934Y-104630554D01*
X124910240Y-104641075D01*
X124915485Y-104652165D01*
X124919618Y-104663714D01*
X124922598Y-104675614D01*
X124924398Y-104687748D01*
X124925000Y-104700000D01*
X124925000Y-104950000D01*
X124924398Y-104962252D01*
X124922598Y-104974386D01*
X124919618Y-104986286D01*
X124915485Y-104997835D01*
X124910240Y-105008925D01*
X124903934Y-105019446D01*
X124896626Y-105029299D01*
X124888388Y-105038388D01*
X124879299Y-105046626D01*
X124869446Y-105053934D01*
X124858925Y-105060240D01*
X124847835Y-105065485D01*
X124836286Y-105069618D01*
X124824386Y-105072598D01*
X124812252Y-105074398D01*
X124800000Y-105075000D01*
X123500000Y-105075000D01*
X123487748Y-105074398D01*
X123475614Y-105072598D01*
X123463714Y-105069618D01*
X123452165Y-105065485D01*
X123441075Y-105060240D01*
X123430554Y-105053934D01*
X123420701Y-105046626D01*
X123411612Y-105038388D01*
X123403374Y-105029299D01*
X123396066Y-105019446D01*
X123389760Y-105008925D01*
X123384515Y-104997835D01*
X123380382Y-104986286D01*
X123377402Y-104974386D01*
X123375602Y-104962252D01*
X123375000Y-104950000D01*
X123375000Y-104700000D01*
X123375602Y-104687748D01*
X123377402Y-104675614D01*
X123380382Y-104663714D01*
X123384515Y-104652165D01*
X123389760Y-104641075D01*
X123396066Y-104630554D01*
X123403374Y-104620701D01*
X123411612Y-104611612D01*
X123420701Y-104603374D01*
X123430554Y-104596066D01*
X123441075Y-104589760D01*
X123452165Y-104584515D01*
X123463714Y-104580382D01*
X123475614Y-104577402D01*
X123487748Y-104575602D01*
X123500000Y-104575000D01*
X124800000Y-104575000D01*
X124812252Y-104575602D01*
G37*
G36*
X124812252Y-105225602D02*
G01*
X124824386Y-105227402D01*
X124836286Y-105230382D01*
X124847835Y-105234515D01*
X124858925Y-105239760D01*
X124869446Y-105246066D01*
X124879299Y-105253374D01*
X124888388Y-105261612D01*
X124896626Y-105270701D01*
X124903934Y-105280554D01*
X124910240Y-105291075D01*
X124915485Y-105302165D01*
X124919618Y-105313714D01*
X124922598Y-105325614D01*
X124924398Y-105337748D01*
X124925000Y-105350000D01*
X124925000Y-105600000D01*
X124924398Y-105612252D01*
X124922598Y-105624386D01*
X124919618Y-105636286D01*
X124915485Y-105647835D01*
X124910240Y-105658925D01*
X124903934Y-105669446D01*
X124896626Y-105679299D01*
X124888388Y-105688388D01*
X124879299Y-105696626D01*
X124869446Y-105703934D01*
X124858925Y-105710240D01*
X124847835Y-105715485D01*
X124836286Y-105719618D01*
X124824386Y-105722598D01*
X124812252Y-105724398D01*
X124800000Y-105725000D01*
X123500000Y-105725000D01*
X123487748Y-105724398D01*
X123475614Y-105722598D01*
X123463714Y-105719618D01*
X123452165Y-105715485D01*
X123441075Y-105710240D01*
X123430554Y-105703934D01*
X123420701Y-105696626D01*
X123411612Y-105688388D01*
X123403374Y-105679299D01*
X123396066Y-105669446D01*
X123389760Y-105658925D01*
X123384515Y-105647835D01*
X123380382Y-105636286D01*
X123377402Y-105624386D01*
X123375602Y-105612252D01*
X123375000Y-105600000D01*
X123375000Y-105350000D01*
X123375602Y-105337748D01*
X123377402Y-105325614D01*
X123380382Y-105313714D01*
X123384515Y-105302165D01*
X123389760Y-105291075D01*
X123396066Y-105280554D01*
X123403374Y-105270701D01*
X123411612Y-105261612D01*
X123420701Y-105253374D01*
X123430554Y-105246066D01*
X123441075Y-105239760D01*
X123452165Y-105234515D01*
X123463714Y-105230382D01*
X123475614Y-105227402D01*
X123487748Y-105225602D01*
X123500000Y-105225000D01*
X124800000Y-105225000D01*
X124812252Y-105225602D01*
G37*
G36*
X124812252Y-105875602D02*
G01*
X124824386Y-105877402D01*
X124836286Y-105880382D01*
X124847835Y-105884515D01*
X124858925Y-105889760D01*
X124869446Y-105896066D01*
X124879299Y-105903374D01*
X124888388Y-105911612D01*
X124896626Y-105920701D01*
X124903934Y-105930554D01*
X124910240Y-105941075D01*
X124915485Y-105952165D01*
X124919618Y-105963714D01*
X124922598Y-105975614D01*
X124924398Y-105987748D01*
X124925000Y-106000000D01*
X124925000Y-106250000D01*
X124924398Y-106262252D01*
X124922598Y-106274386D01*
X124919618Y-106286286D01*
X124915485Y-106297835D01*
X124910240Y-106308925D01*
X124903934Y-106319446D01*
X124896626Y-106329299D01*
X124888388Y-106338388D01*
X124879299Y-106346626D01*
X124869446Y-106353934D01*
X124858925Y-106360240D01*
X124847835Y-106365485D01*
X124836286Y-106369618D01*
X124824386Y-106372598D01*
X124812252Y-106374398D01*
X124800000Y-106375000D01*
X123500000Y-106375000D01*
X123487748Y-106374398D01*
X123475614Y-106372598D01*
X123463714Y-106369618D01*
X123452165Y-106365485D01*
X123441075Y-106360240D01*
X123430554Y-106353934D01*
X123420701Y-106346626D01*
X123411612Y-106338388D01*
X123403374Y-106329299D01*
X123396066Y-106319446D01*
X123389760Y-106308925D01*
X123384515Y-106297835D01*
X123380382Y-106286286D01*
X123377402Y-106274386D01*
X123375602Y-106262252D01*
X123375000Y-106250000D01*
X123375000Y-106000000D01*
X123375602Y-105987748D01*
X123377402Y-105975614D01*
X123380382Y-105963714D01*
X123384515Y-105952165D01*
X123389760Y-105941075D01*
X123396066Y-105930554D01*
X123403374Y-105920701D01*
X123411612Y-105911612D01*
X123420701Y-105903374D01*
X123430554Y-105896066D01*
X123441075Y-105889760D01*
X123452165Y-105884515D01*
X123463714Y-105880382D01*
X123475614Y-105877402D01*
X123487748Y-105875602D01*
X123500000Y-105875000D01*
X124800000Y-105875000D01*
X124812252Y-105875602D01*
G37*
G36*
X120512252Y-105875602D02*
G01*
X120524386Y-105877402D01*
X120536286Y-105880382D01*
X120547835Y-105884515D01*
X120558925Y-105889760D01*
X120569446Y-105896066D01*
X120579299Y-105903374D01*
X120588388Y-105911612D01*
X120596626Y-105920701D01*
X120603934Y-105930554D01*
X120610240Y-105941075D01*
X120615485Y-105952165D01*
X120619618Y-105963714D01*
X120622598Y-105975614D01*
X120624398Y-105987748D01*
X120625000Y-106000000D01*
X120625000Y-106250000D01*
X120624398Y-106262252D01*
X120622598Y-106274386D01*
X120619618Y-106286286D01*
X120615485Y-106297835D01*
X120610240Y-106308925D01*
X120603934Y-106319446D01*
X120596626Y-106329299D01*
X120588388Y-106338388D01*
X120579299Y-106346626D01*
X120569446Y-106353934D01*
X120558925Y-106360240D01*
X120547835Y-106365485D01*
X120536286Y-106369618D01*
X120524386Y-106372598D01*
X120512252Y-106374398D01*
X120500000Y-106375000D01*
X119200000Y-106375000D01*
X119187748Y-106374398D01*
X119175614Y-106372598D01*
X119163714Y-106369618D01*
X119152165Y-106365485D01*
X119141075Y-106360240D01*
X119130554Y-106353934D01*
X119120701Y-106346626D01*
X119111612Y-106338388D01*
X119103374Y-106329299D01*
X119096066Y-106319446D01*
X119089760Y-106308925D01*
X119084515Y-106297835D01*
X119080382Y-106286286D01*
X119077402Y-106274386D01*
X119075602Y-106262252D01*
X119075000Y-106250000D01*
X119075000Y-106000000D01*
X119075602Y-105987748D01*
X119077402Y-105975614D01*
X119080382Y-105963714D01*
X119084515Y-105952165D01*
X119089760Y-105941075D01*
X119096066Y-105930554D01*
X119103374Y-105920701D01*
X119111612Y-105911612D01*
X119120701Y-105903374D01*
X119130554Y-105896066D01*
X119141075Y-105889760D01*
X119152165Y-105884515D01*
X119163714Y-105880382D01*
X119175614Y-105877402D01*
X119187748Y-105875602D01*
X119200000Y-105875000D01*
X120500000Y-105875000D01*
X120512252Y-105875602D01*
G37*
G36*
X120512252Y-105225602D02*
G01*
X120524386Y-105227402D01*
X120536286Y-105230382D01*
X120547835Y-105234515D01*
X120558925Y-105239760D01*
X120569446Y-105246066D01*
X120579299Y-105253374D01*
X120588388Y-105261612D01*
X120596626Y-105270701D01*
X120603934Y-105280554D01*
X120610240Y-105291075D01*
X120615485Y-105302165D01*
X120619618Y-105313714D01*
X120622598Y-105325614D01*
X120624398Y-105337748D01*
X120625000Y-105350000D01*
X120625000Y-105600000D01*
X120624398Y-105612252D01*
X120622598Y-105624386D01*
X120619618Y-105636286D01*
X120615485Y-105647835D01*
X120610240Y-105658925D01*
X120603934Y-105669446D01*
X120596626Y-105679299D01*
X120588388Y-105688388D01*
X120579299Y-105696626D01*
X120569446Y-105703934D01*
X120558925Y-105710240D01*
X120547835Y-105715485D01*
X120536286Y-105719618D01*
X120524386Y-105722598D01*
X120512252Y-105724398D01*
X120500000Y-105725000D01*
X119200000Y-105725000D01*
X119187748Y-105724398D01*
X119175614Y-105722598D01*
X119163714Y-105719618D01*
X119152165Y-105715485D01*
X119141075Y-105710240D01*
X119130554Y-105703934D01*
X119120701Y-105696626D01*
X119111612Y-105688388D01*
X119103374Y-105679299D01*
X119096066Y-105669446D01*
X119089760Y-105658925D01*
X119084515Y-105647835D01*
X119080382Y-105636286D01*
X119077402Y-105624386D01*
X119075602Y-105612252D01*
X119075000Y-105600000D01*
X119075000Y-105350000D01*
X119075602Y-105337748D01*
X119077402Y-105325614D01*
X119080382Y-105313714D01*
X119084515Y-105302165D01*
X119089760Y-105291075D01*
X119096066Y-105280554D01*
X119103374Y-105270701D01*
X119111612Y-105261612D01*
X119120701Y-105253374D01*
X119130554Y-105246066D01*
X119141075Y-105239760D01*
X119152165Y-105234515D01*
X119163714Y-105230382D01*
X119175614Y-105227402D01*
X119187748Y-105225602D01*
X119200000Y-105225000D01*
X120500000Y-105225000D01*
X120512252Y-105225602D01*
G37*
G36*
X120512252Y-104575602D02*
G01*
X120524386Y-104577402D01*
X120536286Y-104580382D01*
X120547835Y-104584515D01*
X120558925Y-104589760D01*
X120569446Y-104596066D01*
X120579299Y-104603374D01*
X120588388Y-104611612D01*
X120596626Y-104620701D01*
X120603934Y-104630554D01*
X120610240Y-104641075D01*
X120615485Y-104652165D01*
X120619618Y-104663714D01*
X120622598Y-104675614D01*
X120624398Y-104687748D01*
X120625000Y-104700000D01*
X120625000Y-104950000D01*
X120624398Y-104962252D01*
X120622598Y-104974386D01*
X120619618Y-104986286D01*
X120615485Y-104997835D01*
X120610240Y-105008925D01*
X120603934Y-105019446D01*
X120596626Y-105029299D01*
X120588388Y-105038388D01*
X120579299Y-105046626D01*
X120569446Y-105053934D01*
X120558925Y-105060240D01*
X120547835Y-105065485D01*
X120536286Y-105069618D01*
X120524386Y-105072598D01*
X120512252Y-105074398D01*
X120500000Y-105075000D01*
X119200000Y-105075000D01*
X119187748Y-105074398D01*
X119175614Y-105072598D01*
X119163714Y-105069618D01*
X119152165Y-105065485D01*
X119141075Y-105060240D01*
X119130554Y-105053934D01*
X119120701Y-105046626D01*
X119111612Y-105038388D01*
X119103374Y-105029299D01*
X119096066Y-105019446D01*
X119089760Y-105008925D01*
X119084515Y-104997835D01*
X119080382Y-104986286D01*
X119077402Y-104974386D01*
X119075602Y-104962252D01*
X119075000Y-104950000D01*
X119075000Y-104700000D01*
X119075602Y-104687748D01*
X119077402Y-104675614D01*
X119080382Y-104663714D01*
X119084515Y-104652165D01*
X119089760Y-104641075D01*
X119096066Y-104630554D01*
X119103374Y-104620701D01*
X119111612Y-104611612D01*
X119120701Y-104603374D01*
X119130554Y-104596066D01*
X119141075Y-104589760D01*
X119152165Y-104584515D01*
X119163714Y-104580382D01*
X119175614Y-104577402D01*
X119187748Y-104575602D01*
X119200000Y-104575000D01*
X120500000Y-104575000D01*
X120512252Y-104575602D01*
G37*
G36*
X120512252Y-103925602D02*
G01*
X120524386Y-103927402D01*
X120536286Y-103930382D01*
X120547835Y-103934515D01*
X120558925Y-103939760D01*
X120569446Y-103946066D01*
X120579299Y-103953374D01*
X120588388Y-103961612D01*
X120596626Y-103970701D01*
X120603934Y-103980554D01*
X120610240Y-103991075D01*
X120615485Y-104002165D01*
X120619618Y-104013714D01*
X120622598Y-104025614D01*
X120624398Y-104037748D01*
X120625000Y-104050000D01*
X120625000Y-104300000D01*
X120624398Y-104312252D01*
X120622598Y-104324386D01*
X120619618Y-104336286D01*
X120615485Y-104347835D01*
X120610240Y-104358925D01*
X120603934Y-104369446D01*
X120596626Y-104379299D01*
X120588388Y-104388388D01*
X120579299Y-104396626D01*
X120569446Y-104403934D01*
X120558925Y-104410240D01*
X120547835Y-104415485D01*
X120536286Y-104419618D01*
X120524386Y-104422598D01*
X120512252Y-104424398D01*
X120500000Y-104425000D01*
X119200000Y-104425000D01*
X119187748Y-104424398D01*
X119175614Y-104422598D01*
X119163714Y-104419618D01*
X119152165Y-104415485D01*
X119141075Y-104410240D01*
X119130554Y-104403934D01*
X119120701Y-104396626D01*
X119111612Y-104388388D01*
X119103374Y-104379299D01*
X119096066Y-104369446D01*
X119089760Y-104358925D01*
X119084515Y-104347835D01*
X119080382Y-104336286D01*
X119077402Y-104324386D01*
X119075602Y-104312252D01*
X119075000Y-104300000D01*
X119075000Y-104050000D01*
X119075602Y-104037748D01*
X119077402Y-104025614D01*
X119080382Y-104013714D01*
X119084515Y-104002165D01*
X119089760Y-103991075D01*
X119096066Y-103980554D01*
X119103374Y-103970701D01*
X119111612Y-103961612D01*
X119120701Y-103953374D01*
X119130554Y-103946066D01*
X119141075Y-103939760D01*
X119152165Y-103934515D01*
X119163714Y-103930382D01*
X119175614Y-103927402D01*
X119187748Y-103925602D01*
X119200000Y-103925000D01*
X120500000Y-103925000D01*
X120512252Y-103925602D01*
G37*
G36*
X120512252Y-103275602D02*
G01*
X120524386Y-103277402D01*
X120536286Y-103280382D01*
X120547835Y-103284515D01*
X120558925Y-103289760D01*
X120569446Y-103296066D01*
X120579299Y-103303374D01*
X120588388Y-103311612D01*
X120596626Y-103320701D01*
X120603934Y-103330554D01*
X120610240Y-103341075D01*
X120615485Y-103352165D01*
X120619618Y-103363714D01*
X120622598Y-103375614D01*
X120624398Y-103387748D01*
X120625000Y-103400000D01*
X120625000Y-103650000D01*
X120624398Y-103662252D01*
X120622598Y-103674386D01*
X120619618Y-103686286D01*
X120615485Y-103697835D01*
X120610240Y-103708925D01*
X120603934Y-103719446D01*
X120596626Y-103729299D01*
X120588388Y-103738388D01*
X120579299Y-103746626D01*
X120569446Y-103753934D01*
X120558925Y-103760240D01*
X120547835Y-103765485D01*
X120536286Y-103769618D01*
X120524386Y-103772598D01*
X120512252Y-103774398D01*
X120500000Y-103775000D01*
X119200000Y-103775000D01*
X119187748Y-103774398D01*
X119175614Y-103772598D01*
X119163714Y-103769618D01*
X119152165Y-103765485D01*
X119141075Y-103760240D01*
X119130554Y-103753934D01*
X119120701Y-103746626D01*
X119111612Y-103738388D01*
X119103374Y-103729299D01*
X119096066Y-103719446D01*
X119089760Y-103708925D01*
X119084515Y-103697835D01*
X119080382Y-103686286D01*
X119077402Y-103674386D01*
X119075602Y-103662252D01*
X119075000Y-103650000D01*
X119075000Y-103400000D01*
X119075602Y-103387748D01*
X119077402Y-103375614D01*
X119080382Y-103363714D01*
X119084515Y-103352165D01*
X119089760Y-103341075D01*
X119096066Y-103330554D01*
X119103374Y-103320701D01*
X119111612Y-103311612D01*
X119120701Y-103303374D01*
X119130554Y-103296066D01*
X119141075Y-103289760D01*
X119152165Y-103284515D01*
X119163714Y-103280382D01*
X119175614Y-103277402D01*
X119187748Y-103275602D01*
X119200000Y-103275000D01*
X120500000Y-103275000D01*
X120512252Y-103275602D01*
G37*
G36*
X120512252Y-102625602D02*
G01*
X120524386Y-102627402D01*
X120536286Y-102630382D01*
X120547835Y-102634515D01*
X120558925Y-102639760D01*
X120569446Y-102646066D01*
X120579299Y-102653374D01*
X120588388Y-102661612D01*
X120596626Y-102670701D01*
X120603934Y-102680554D01*
X120610240Y-102691075D01*
X120615485Y-102702165D01*
X120619618Y-102713714D01*
X120622598Y-102725614D01*
X120624398Y-102737748D01*
X120625000Y-102750000D01*
X120625000Y-103000000D01*
X120624398Y-103012252D01*
X120622598Y-103024386D01*
X120619618Y-103036286D01*
X120615485Y-103047835D01*
X120610240Y-103058925D01*
X120603934Y-103069446D01*
X120596626Y-103079299D01*
X120588388Y-103088388D01*
X120579299Y-103096626D01*
X120569446Y-103103934D01*
X120558925Y-103110240D01*
X120547835Y-103115485D01*
X120536286Y-103119618D01*
X120524386Y-103122598D01*
X120512252Y-103124398D01*
X120500000Y-103125000D01*
X119200000Y-103125000D01*
X119187748Y-103124398D01*
X119175614Y-103122598D01*
X119163714Y-103119618D01*
X119152165Y-103115485D01*
X119141075Y-103110240D01*
X119130554Y-103103934D01*
X119120701Y-103096626D01*
X119111612Y-103088388D01*
X119103374Y-103079299D01*
X119096066Y-103069446D01*
X119089760Y-103058925D01*
X119084515Y-103047835D01*
X119080382Y-103036286D01*
X119077402Y-103024386D01*
X119075602Y-103012252D01*
X119075000Y-103000000D01*
X119075000Y-102750000D01*
X119075602Y-102737748D01*
X119077402Y-102725614D01*
X119080382Y-102713714D01*
X119084515Y-102702165D01*
X119089760Y-102691075D01*
X119096066Y-102680554D01*
X119103374Y-102670701D01*
X119111612Y-102661612D01*
X119120701Y-102653374D01*
X119130554Y-102646066D01*
X119141075Y-102639760D01*
X119152165Y-102634515D01*
X119163714Y-102630382D01*
X119175614Y-102627402D01*
X119187748Y-102625602D01*
X119200000Y-102625000D01*
X120500000Y-102625000D01*
X120512252Y-102625602D01*
G37*
G36*
X122635838Y-103026277D02*
G01*
X122661577Y-103030095D01*
X122686818Y-103036417D01*
X122711318Y-103045183D01*
X122734840Y-103056309D01*
X122757159Y-103069686D01*
X122778059Y-103085187D01*
X122797339Y-103102661D01*
X122814813Y-103121941D01*
X122830314Y-103142841D01*
X122843691Y-103165160D01*
X122854817Y-103188682D01*
X122863583Y-103213182D01*
X122869905Y-103238423D01*
X122873723Y-103264162D01*
X122875000Y-103290151D01*
X122875000Y-105709849D01*
X122873723Y-105735838D01*
X122869905Y-105761577D01*
X122863583Y-105786818D01*
X122854817Y-105811318D01*
X122843691Y-105834840D01*
X122830314Y-105857159D01*
X122814813Y-105878059D01*
X122797339Y-105897339D01*
X122778059Y-105914813D01*
X122757159Y-105930314D01*
X122734840Y-105943691D01*
X122711318Y-105954817D01*
X122686818Y-105963583D01*
X122661577Y-105969905D01*
X122635838Y-105973723D01*
X122609849Y-105975000D01*
X121390151Y-105975000D01*
X121364162Y-105973723D01*
X121338423Y-105969905D01*
X121313182Y-105963583D01*
X121288682Y-105954817D01*
X121265160Y-105943691D01*
X121242841Y-105930314D01*
X121221941Y-105914813D01*
X121202661Y-105897339D01*
X121185187Y-105878059D01*
X121169686Y-105857159D01*
X121156309Y-105834840D01*
X121145183Y-105811318D01*
X121136417Y-105786818D01*
X121130095Y-105761577D01*
X121126277Y-105735838D01*
X121125000Y-105709849D01*
X121125000Y-103290151D01*
X121126277Y-103264162D01*
X121130095Y-103238423D01*
X121136417Y-103213182D01*
X121145183Y-103188682D01*
X121156309Y-103165160D01*
X121169686Y-103142841D01*
X121185187Y-103121941D01*
X121202661Y-103102661D01*
X121221941Y-103085187D01*
X121242841Y-103069686D01*
X121265160Y-103056309D01*
X121288682Y-103045183D01*
X121313182Y-103036417D01*
X121338423Y-103030095D01*
X121364162Y-103026277D01*
X121390151Y-103025000D01*
X122609849Y-103025000D01*
X122635838Y-103026277D01*
G37*
%TD*%
%TO.C,U3*%
G36*
X182635838Y-103026277D02*
G01*
X182661577Y-103030095D01*
X182686818Y-103036417D01*
X182711318Y-103045183D01*
X182734840Y-103056309D01*
X182757159Y-103069686D01*
X182778059Y-103085187D01*
X182797339Y-103102661D01*
X182814813Y-103121941D01*
X182830314Y-103142841D01*
X182843691Y-103165160D01*
X182854817Y-103188682D01*
X182863583Y-103213182D01*
X182869905Y-103238423D01*
X182873723Y-103264162D01*
X182875000Y-103290151D01*
X182875000Y-105709849D01*
X182873723Y-105735838D01*
X182869905Y-105761577D01*
X182863583Y-105786818D01*
X182854817Y-105811318D01*
X182843691Y-105834840D01*
X182830314Y-105857159D01*
X182814813Y-105878059D01*
X182797339Y-105897339D01*
X182778059Y-105914813D01*
X182757159Y-105930314D01*
X182734840Y-105943691D01*
X182711318Y-105954817D01*
X182686818Y-105963583D01*
X182661577Y-105969905D01*
X182635838Y-105973723D01*
X182609849Y-105975000D01*
X181390151Y-105975000D01*
X181364162Y-105973723D01*
X181338423Y-105969905D01*
X181313182Y-105963583D01*
X181288682Y-105954817D01*
X181265160Y-105943691D01*
X181242841Y-105930314D01*
X181221941Y-105914813D01*
X181202661Y-105897339D01*
X181185187Y-105878059D01*
X181169686Y-105857159D01*
X181156309Y-105834840D01*
X181145183Y-105811318D01*
X181136417Y-105786818D01*
X181130095Y-105761577D01*
X181126277Y-105735838D01*
X181125000Y-105709849D01*
X181125000Y-103290151D01*
X181126277Y-103264162D01*
X181130095Y-103238423D01*
X181136417Y-103213182D01*
X181145183Y-103188682D01*
X181156309Y-103165160D01*
X181169686Y-103142841D01*
X181185187Y-103121941D01*
X181202661Y-103102661D01*
X181221941Y-103085187D01*
X181242841Y-103069686D01*
X181265160Y-103056309D01*
X181288682Y-103045183D01*
X181313182Y-103036417D01*
X181338423Y-103030095D01*
X181364162Y-103026277D01*
X181390151Y-103025000D01*
X182609849Y-103025000D01*
X182635838Y-103026277D01*
G37*
G36*
X180512252Y-102625602D02*
G01*
X180524386Y-102627402D01*
X180536286Y-102630382D01*
X180547835Y-102634515D01*
X180558925Y-102639760D01*
X180569446Y-102646066D01*
X180579299Y-102653374D01*
X180588388Y-102661612D01*
X180596626Y-102670701D01*
X180603934Y-102680554D01*
X180610240Y-102691075D01*
X180615485Y-102702165D01*
X180619618Y-102713714D01*
X180622598Y-102725614D01*
X180624398Y-102737748D01*
X180625000Y-102750000D01*
X180625000Y-103000000D01*
X180624398Y-103012252D01*
X180622598Y-103024386D01*
X180619618Y-103036286D01*
X180615485Y-103047835D01*
X180610240Y-103058925D01*
X180603934Y-103069446D01*
X180596626Y-103079299D01*
X180588388Y-103088388D01*
X180579299Y-103096626D01*
X180569446Y-103103934D01*
X180558925Y-103110240D01*
X180547835Y-103115485D01*
X180536286Y-103119618D01*
X180524386Y-103122598D01*
X180512252Y-103124398D01*
X180500000Y-103125000D01*
X179200000Y-103125000D01*
X179187748Y-103124398D01*
X179175614Y-103122598D01*
X179163714Y-103119618D01*
X179152165Y-103115485D01*
X179141075Y-103110240D01*
X179130554Y-103103934D01*
X179120701Y-103096626D01*
X179111612Y-103088388D01*
X179103374Y-103079299D01*
X179096066Y-103069446D01*
X179089760Y-103058925D01*
X179084515Y-103047835D01*
X179080382Y-103036286D01*
X179077402Y-103024386D01*
X179075602Y-103012252D01*
X179075000Y-103000000D01*
X179075000Y-102750000D01*
X179075602Y-102737748D01*
X179077402Y-102725614D01*
X179080382Y-102713714D01*
X179084515Y-102702165D01*
X179089760Y-102691075D01*
X179096066Y-102680554D01*
X179103374Y-102670701D01*
X179111612Y-102661612D01*
X179120701Y-102653374D01*
X179130554Y-102646066D01*
X179141075Y-102639760D01*
X179152165Y-102634515D01*
X179163714Y-102630382D01*
X179175614Y-102627402D01*
X179187748Y-102625602D01*
X179200000Y-102625000D01*
X180500000Y-102625000D01*
X180512252Y-102625602D01*
G37*
G36*
X180512252Y-103275602D02*
G01*
X180524386Y-103277402D01*
X180536286Y-103280382D01*
X180547835Y-103284515D01*
X180558925Y-103289760D01*
X180569446Y-103296066D01*
X180579299Y-103303374D01*
X180588388Y-103311612D01*
X180596626Y-103320701D01*
X180603934Y-103330554D01*
X180610240Y-103341075D01*
X180615485Y-103352165D01*
X180619618Y-103363714D01*
X180622598Y-103375614D01*
X180624398Y-103387748D01*
X180625000Y-103400000D01*
X180625000Y-103650000D01*
X180624398Y-103662252D01*
X180622598Y-103674386D01*
X180619618Y-103686286D01*
X180615485Y-103697835D01*
X180610240Y-103708925D01*
X180603934Y-103719446D01*
X180596626Y-103729299D01*
X180588388Y-103738388D01*
X180579299Y-103746626D01*
X180569446Y-103753934D01*
X180558925Y-103760240D01*
X180547835Y-103765485D01*
X180536286Y-103769618D01*
X180524386Y-103772598D01*
X180512252Y-103774398D01*
X180500000Y-103775000D01*
X179200000Y-103775000D01*
X179187748Y-103774398D01*
X179175614Y-103772598D01*
X179163714Y-103769618D01*
X179152165Y-103765485D01*
X179141075Y-103760240D01*
X179130554Y-103753934D01*
X179120701Y-103746626D01*
X179111612Y-103738388D01*
X179103374Y-103729299D01*
X179096066Y-103719446D01*
X179089760Y-103708925D01*
X179084515Y-103697835D01*
X179080382Y-103686286D01*
X179077402Y-103674386D01*
X179075602Y-103662252D01*
X179075000Y-103650000D01*
X179075000Y-103400000D01*
X179075602Y-103387748D01*
X179077402Y-103375614D01*
X179080382Y-103363714D01*
X179084515Y-103352165D01*
X179089760Y-103341075D01*
X179096066Y-103330554D01*
X179103374Y-103320701D01*
X179111612Y-103311612D01*
X179120701Y-103303374D01*
X179130554Y-103296066D01*
X179141075Y-103289760D01*
X179152165Y-103284515D01*
X179163714Y-103280382D01*
X179175614Y-103277402D01*
X179187748Y-103275602D01*
X179200000Y-103275000D01*
X180500000Y-103275000D01*
X180512252Y-103275602D01*
G37*
G36*
X180512252Y-103925602D02*
G01*
X180524386Y-103927402D01*
X180536286Y-103930382D01*
X180547835Y-103934515D01*
X180558925Y-103939760D01*
X180569446Y-103946066D01*
X180579299Y-103953374D01*
X180588388Y-103961612D01*
X180596626Y-103970701D01*
X180603934Y-103980554D01*
X180610240Y-103991075D01*
X180615485Y-104002165D01*
X180619618Y-104013714D01*
X180622598Y-104025614D01*
X180624398Y-104037748D01*
X180625000Y-104050000D01*
X180625000Y-104300000D01*
X180624398Y-104312252D01*
X180622598Y-104324386D01*
X180619618Y-104336286D01*
X180615485Y-104347835D01*
X180610240Y-104358925D01*
X180603934Y-104369446D01*
X180596626Y-104379299D01*
X180588388Y-104388388D01*
X180579299Y-104396626D01*
X180569446Y-104403934D01*
X180558925Y-104410240D01*
X180547835Y-104415485D01*
X180536286Y-104419618D01*
X180524386Y-104422598D01*
X180512252Y-104424398D01*
X180500000Y-104425000D01*
X179200000Y-104425000D01*
X179187748Y-104424398D01*
X179175614Y-104422598D01*
X179163714Y-104419618D01*
X179152165Y-104415485D01*
X179141075Y-104410240D01*
X179130554Y-104403934D01*
X179120701Y-104396626D01*
X179111612Y-104388388D01*
X179103374Y-104379299D01*
X179096066Y-104369446D01*
X179089760Y-104358925D01*
X179084515Y-104347835D01*
X179080382Y-104336286D01*
X179077402Y-104324386D01*
X179075602Y-104312252D01*
X179075000Y-104300000D01*
X179075000Y-104050000D01*
X179075602Y-104037748D01*
X179077402Y-104025614D01*
X179080382Y-104013714D01*
X179084515Y-104002165D01*
X179089760Y-103991075D01*
X179096066Y-103980554D01*
X179103374Y-103970701D01*
X179111612Y-103961612D01*
X179120701Y-103953374D01*
X179130554Y-103946066D01*
X179141075Y-103939760D01*
X179152165Y-103934515D01*
X179163714Y-103930382D01*
X179175614Y-103927402D01*
X179187748Y-103925602D01*
X179200000Y-103925000D01*
X180500000Y-103925000D01*
X180512252Y-103925602D01*
G37*
G36*
X180512252Y-104575602D02*
G01*
X180524386Y-104577402D01*
X180536286Y-104580382D01*
X180547835Y-104584515D01*
X180558925Y-104589760D01*
X180569446Y-104596066D01*
X180579299Y-104603374D01*
X180588388Y-104611612D01*
X180596626Y-104620701D01*
X180603934Y-104630554D01*
X180610240Y-104641075D01*
X180615485Y-104652165D01*
X180619618Y-104663714D01*
X180622598Y-104675614D01*
X180624398Y-104687748D01*
X180625000Y-104700000D01*
X180625000Y-104950000D01*
X180624398Y-104962252D01*
X180622598Y-104974386D01*
X180619618Y-104986286D01*
X180615485Y-104997835D01*
X180610240Y-105008925D01*
X180603934Y-105019446D01*
X180596626Y-105029299D01*
X180588388Y-105038388D01*
X180579299Y-105046626D01*
X180569446Y-105053934D01*
X180558925Y-105060240D01*
X180547835Y-105065485D01*
X180536286Y-105069618D01*
X180524386Y-105072598D01*
X180512252Y-105074398D01*
X180500000Y-105075000D01*
X179200000Y-105075000D01*
X179187748Y-105074398D01*
X179175614Y-105072598D01*
X179163714Y-105069618D01*
X179152165Y-105065485D01*
X179141075Y-105060240D01*
X179130554Y-105053934D01*
X179120701Y-105046626D01*
X179111612Y-105038388D01*
X179103374Y-105029299D01*
X179096066Y-105019446D01*
X179089760Y-105008925D01*
X179084515Y-104997835D01*
X179080382Y-104986286D01*
X179077402Y-104974386D01*
X179075602Y-104962252D01*
X179075000Y-104950000D01*
X179075000Y-104700000D01*
X179075602Y-104687748D01*
X179077402Y-104675614D01*
X179080382Y-104663714D01*
X179084515Y-104652165D01*
X179089760Y-104641075D01*
X179096066Y-104630554D01*
X179103374Y-104620701D01*
X179111612Y-104611612D01*
X179120701Y-104603374D01*
X179130554Y-104596066D01*
X179141075Y-104589760D01*
X179152165Y-104584515D01*
X179163714Y-104580382D01*
X179175614Y-104577402D01*
X179187748Y-104575602D01*
X179200000Y-104575000D01*
X180500000Y-104575000D01*
X180512252Y-104575602D01*
G37*
G36*
X180512252Y-105225602D02*
G01*
X180524386Y-105227402D01*
X180536286Y-105230382D01*
X180547835Y-105234515D01*
X180558925Y-105239760D01*
X180569446Y-105246066D01*
X180579299Y-105253374D01*
X180588388Y-105261612D01*
X180596626Y-105270701D01*
X180603934Y-105280554D01*
X180610240Y-105291075D01*
X180615485Y-105302165D01*
X180619618Y-105313714D01*
X180622598Y-105325614D01*
X180624398Y-105337748D01*
X180625000Y-105350000D01*
X180625000Y-105600000D01*
X180624398Y-105612252D01*
X180622598Y-105624386D01*
X180619618Y-105636286D01*
X180615485Y-105647835D01*
X180610240Y-105658925D01*
X180603934Y-105669446D01*
X180596626Y-105679299D01*
X180588388Y-105688388D01*
X180579299Y-105696626D01*
X180569446Y-105703934D01*
X180558925Y-105710240D01*
X180547835Y-105715485D01*
X180536286Y-105719618D01*
X180524386Y-105722598D01*
X180512252Y-105724398D01*
X180500000Y-105725000D01*
X179200000Y-105725000D01*
X179187748Y-105724398D01*
X179175614Y-105722598D01*
X179163714Y-105719618D01*
X179152165Y-105715485D01*
X179141075Y-105710240D01*
X179130554Y-105703934D01*
X179120701Y-105696626D01*
X179111612Y-105688388D01*
X179103374Y-105679299D01*
X179096066Y-105669446D01*
X179089760Y-105658925D01*
X179084515Y-105647835D01*
X179080382Y-105636286D01*
X179077402Y-105624386D01*
X179075602Y-105612252D01*
X179075000Y-105600000D01*
X179075000Y-105350000D01*
X179075602Y-105337748D01*
X179077402Y-105325614D01*
X179080382Y-105313714D01*
X179084515Y-105302165D01*
X179089760Y-105291075D01*
X179096066Y-105280554D01*
X179103374Y-105270701D01*
X179111612Y-105261612D01*
X179120701Y-105253374D01*
X179130554Y-105246066D01*
X179141075Y-105239760D01*
X179152165Y-105234515D01*
X179163714Y-105230382D01*
X179175614Y-105227402D01*
X179187748Y-105225602D01*
X179200000Y-105225000D01*
X180500000Y-105225000D01*
X180512252Y-105225602D01*
G37*
G36*
X180512252Y-105875602D02*
G01*
X180524386Y-105877402D01*
X180536286Y-105880382D01*
X180547835Y-105884515D01*
X180558925Y-105889760D01*
X180569446Y-105896066D01*
X180579299Y-105903374D01*
X180588388Y-105911612D01*
X180596626Y-105920701D01*
X180603934Y-105930554D01*
X180610240Y-105941075D01*
X180615485Y-105952165D01*
X180619618Y-105963714D01*
X180622598Y-105975614D01*
X180624398Y-105987748D01*
X180625000Y-106000000D01*
X180625000Y-106250000D01*
X180624398Y-106262252D01*
X180622598Y-106274386D01*
X180619618Y-106286286D01*
X180615485Y-106297835D01*
X180610240Y-106308925D01*
X180603934Y-106319446D01*
X180596626Y-106329299D01*
X180588388Y-106338388D01*
X180579299Y-106346626D01*
X180569446Y-106353934D01*
X180558925Y-106360240D01*
X180547835Y-106365485D01*
X180536286Y-106369618D01*
X180524386Y-106372598D01*
X180512252Y-106374398D01*
X180500000Y-106375000D01*
X179200000Y-106375000D01*
X179187748Y-106374398D01*
X179175614Y-106372598D01*
X179163714Y-106369618D01*
X179152165Y-106365485D01*
X179141075Y-106360240D01*
X179130554Y-106353934D01*
X179120701Y-106346626D01*
X179111612Y-106338388D01*
X179103374Y-106329299D01*
X179096066Y-106319446D01*
X179089760Y-106308925D01*
X179084515Y-106297835D01*
X179080382Y-106286286D01*
X179077402Y-106274386D01*
X179075602Y-106262252D01*
X179075000Y-106250000D01*
X179075000Y-106000000D01*
X179075602Y-105987748D01*
X179077402Y-105975614D01*
X179080382Y-105963714D01*
X179084515Y-105952165D01*
X179089760Y-105941075D01*
X179096066Y-105930554D01*
X179103374Y-105920701D01*
X179111612Y-105911612D01*
X179120701Y-105903374D01*
X179130554Y-105896066D01*
X179141075Y-105889760D01*
X179152165Y-105884515D01*
X179163714Y-105880382D01*
X179175614Y-105877402D01*
X179187748Y-105875602D01*
X179200000Y-105875000D01*
X180500000Y-105875000D01*
X180512252Y-105875602D01*
G37*
G36*
X184812252Y-105875602D02*
G01*
X184824386Y-105877402D01*
X184836286Y-105880382D01*
X184847835Y-105884515D01*
X184858925Y-105889760D01*
X184869446Y-105896066D01*
X184879299Y-105903374D01*
X184888388Y-105911612D01*
X184896626Y-105920701D01*
X184903934Y-105930554D01*
X184910240Y-105941075D01*
X184915485Y-105952165D01*
X184919618Y-105963714D01*
X184922598Y-105975614D01*
X184924398Y-105987748D01*
X184925000Y-106000000D01*
X184925000Y-106250000D01*
X184924398Y-106262252D01*
X184922598Y-106274386D01*
X184919618Y-106286286D01*
X184915485Y-106297835D01*
X184910240Y-106308925D01*
X184903934Y-106319446D01*
X184896626Y-106329299D01*
X184888388Y-106338388D01*
X184879299Y-106346626D01*
X184869446Y-106353934D01*
X184858925Y-106360240D01*
X184847835Y-106365485D01*
X184836286Y-106369618D01*
X184824386Y-106372598D01*
X184812252Y-106374398D01*
X184800000Y-106375000D01*
X183500000Y-106375000D01*
X183487748Y-106374398D01*
X183475614Y-106372598D01*
X183463714Y-106369618D01*
X183452165Y-106365485D01*
X183441075Y-106360240D01*
X183430554Y-106353934D01*
X183420701Y-106346626D01*
X183411612Y-106338388D01*
X183403374Y-106329299D01*
X183396066Y-106319446D01*
X183389760Y-106308925D01*
X183384515Y-106297835D01*
X183380382Y-106286286D01*
X183377402Y-106274386D01*
X183375602Y-106262252D01*
X183375000Y-106250000D01*
X183375000Y-106000000D01*
X183375602Y-105987748D01*
X183377402Y-105975614D01*
X183380382Y-105963714D01*
X183384515Y-105952165D01*
X183389760Y-105941075D01*
X183396066Y-105930554D01*
X183403374Y-105920701D01*
X183411612Y-105911612D01*
X183420701Y-105903374D01*
X183430554Y-105896066D01*
X183441075Y-105889760D01*
X183452165Y-105884515D01*
X183463714Y-105880382D01*
X183475614Y-105877402D01*
X183487748Y-105875602D01*
X183500000Y-105875000D01*
X184800000Y-105875000D01*
X184812252Y-105875602D01*
G37*
G36*
X184812252Y-105225602D02*
G01*
X184824386Y-105227402D01*
X184836286Y-105230382D01*
X184847835Y-105234515D01*
X184858925Y-105239760D01*
X184869446Y-105246066D01*
X184879299Y-105253374D01*
X184888388Y-105261612D01*
X184896626Y-105270701D01*
X184903934Y-105280554D01*
X184910240Y-105291075D01*
X184915485Y-105302165D01*
X184919618Y-105313714D01*
X184922598Y-105325614D01*
X184924398Y-105337748D01*
X184925000Y-105350000D01*
X184925000Y-105600000D01*
X184924398Y-105612252D01*
X184922598Y-105624386D01*
X184919618Y-105636286D01*
X184915485Y-105647835D01*
X184910240Y-105658925D01*
X184903934Y-105669446D01*
X184896626Y-105679299D01*
X184888388Y-105688388D01*
X184879299Y-105696626D01*
X184869446Y-105703934D01*
X184858925Y-105710240D01*
X184847835Y-105715485D01*
X184836286Y-105719618D01*
X184824386Y-105722598D01*
X184812252Y-105724398D01*
X184800000Y-105725000D01*
X183500000Y-105725000D01*
X183487748Y-105724398D01*
X183475614Y-105722598D01*
X183463714Y-105719618D01*
X183452165Y-105715485D01*
X183441075Y-105710240D01*
X183430554Y-105703934D01*
X183420701Y-105696626D01*
X183411612Y-105688388D01*
X183403374Y-105679299D01*
X183396066Y-105669446D01*
X183389760Y-105658925D01*
X183384515Y-105647835D01*
X183380382Y-105636286D01*
X183377402Y-105624386D01*
X183375602Y-105612252D01*
X183375000Y-105600000D01*
X183375000Y-105350000D01*
X183375602Y-105337748D01*
X183377402Y-105325614D01*
X183380382Y-105313714D01*
X183384515Y-105302165D01*
X183389760Y-105291075D01*
X183396066Y-105280554D01*
X183403374Y-105270701D01*
X183411612Y-105261612D01*
X183420701Y-105253374D01*
X183430554Y-105246066D01*
X183441075Y-105239760D01*
X183452165Y-105234515D01*
X183463714Y-105230382D01*
X183475614Y-105227402D01*
X183487748Y-105225602D01*
X183500000Y-105225000D01*
X184800000Y-105225000D01*
X184812252Y-105225602D01*
G37*
G36*
X184812252Y-104575602D02*
G01*
X184824386Y-104577402D01*
X184836286Y-104580382D01*
X184847835Y-104584515D01*
X184858925Y-104589760D01*
X184869446Y-104596066D01*
X184879299Y-104603374D01*
X184888388Y-104611612D01*
X184896626Y-104620701D01*
X184903934Y-104630554D01*
X184910240Y-104641075D01*
X184915485Y-104652165D01*
X184919618Y-104663714D01*
X184922598Y-104675614D01*
X184924398Y-104687748D01*
X184925000Y-104700000D01*
X184925000Y-104950000D01*
X184924398Y-104962252D01*
X184922598Y-104974386D01*
X184919618Y-104986286D01*
X184915485Y-104997835D01*
X184910240Y-105008925D01*
X184903934Y-105019446D01*
X184896626Y-105029299D01*
X184888388Y-105038388D01*
X184879299Y-105046626D01*
X184869446Y-105053934D01*
X184858925Y-105060240D01*
X184847835Y-105065485D01*
X184836286Y-105069618D01*
X184824386Y-105072598D01*
X184812252Y-105074398D01*
X184800000Y-105075000D01*
X183500000Y-105075000D01*
X183487748Y-105074398D01*
X183475614Y-105072598D01*
X183463714Y-105069618D01*
X183452165Y-105065485D01*
X183441075Y-105060240D01*
X183430554Y-105053934D01*
X183420701Y-105046626D01*
X183411612Y-105038388D01*
X183403374Y-105029299D01*
X183396066Y-105019446D01*
X183389760Y-105008925D01*
X183384515Y-104997835D01*
X183380382Y-104986286D01*
X183377402Y-104974386D01*
X183375602Y-104962252D01*
X183375000Y-104950000D01*
X183375000Y-104700000D01*
X183375602Y-104687748D01*
X183377402Y-104675614D01*
X183380382Y-104663714D01*
X183384515Y-104652165D01*
X183389760Y-104641075D01*
X183396066Y-104630554D01*
X183403374Y-104620701D01*
X183411612Y-104611612D01*
X183420701Y-104603374D01*
X183430554Y-104596066D01*
X183441075Y-104589760D01*
X183452165Y-104584515D01*
X183463714Y-104580382D01*
X183475614Y-104577402D01*
X183487748Y-104575602D01*
X183500000Y-104575000D01*
X184800000Y-104575000D01*
X184812252Y-104575602D01*
G37*
G36*
X184812252Y-103925602D02*
G01*
X184824386Y-103927402D01*
X184836286Y-103930382D01*
X184847835Y-103934515D01*
X184858925Y-103939760D01*
X184869446Y-103946066D01*
X184879299Y-103953374D01*
X184888388Y-103961612D01*
X184896626Y-103970701D01*
X184903934Y-103980554D01*
X184910240Y-103991075D01*
X184915485Y-104002165D01*
X184919618Y-104013714D01*
X184922598Y-104025614D01*
X184924398Y-104037748D01*
X184925000Y-104050000D01*
X184925000Y-104300000D01*
X184924398Y-104312252D01*
X184922598Y-104324386D01*
X184919618Y-104336286D01*
X184915485Y-104347835D01*
X184910240Y-104358925D01*
X184903934Y-104369446D01*
X184896626Y-104379299D01*
X184888388Y-104388388D01*
X184879299Y-104396626D01*
X184869446Y-104403934D01*
X184858925Y-104410240D01*
X184847835Y-104415485D01*
X184836286Y-104419618D01*
X184824386Y-104422598D01*
X184812252Y-104424398D01*
X184800000Y-104425000D01*
X183500000Y-104425000D01*
X183487748Y-104424398D01*
X183475614Y-104422598D01*
X183463714Y-104419618D01*
X183452165Y-104415485D01*
X183441075Y-104410240D01*
X183430554Y-104403934D01*
X183420701Y-104396626D01*
X183411612Y-104388388D01*
X183403374Y-104379299D01*
X183396066Y-104369446D01*
X183389760Y-104358925D01*
X183384515Y-104347835D01*
X183380382Y-104336286D01*
X183377402Y-104324386D01*
X183375602Y-104312252D01*
X183375000Y-104300000D01*
X183375000Y-104050000D01*
X183375602Y-104037748D01*
X183377402Y-104025614D01*
X183380382Y-104013714D01*
X183384515Y-104002165D01*
X183389760Y-103991075D01*
X183396066Y-103980554D01*
X183403374Y-103970701D01*
X183411612Y-103961612D01*
X183420701Y-103953374D01*
X183430554Y-103946066D01*
X183441075Y-103939760D01*
X183452165Y-103934515D01*
X183463714Y-103930382D01*
X183475614Y-103927402D01*
X183487748Y-103925602D01*
X183500000Y-103925000D01*
X184800000Y-103925000D01*
X184812252Y-103925602D01*
G37*
G36*
X184812252Y-103275602D02*
G01*
X184824386Y-103277402D01*
X184836286Y-103280382D01*
X184847835Y-103284515D01*
X184858925Y-103289760D01*
X184869446Y-103296066D01*
X184879299Y-103303374D01*
X184888388Y-103311612D01*
X184896626Y-103320701D01*
X184903934Y-103330554D01*
X184910240Y-103341075D01*
X184915485Y-103352165D01*
X184919618Y-103363714D01*
X184922598Y-103375614D01*
X184924398Y-103387748D01*
X184925000Y-103400000D01*
X184925000Y-103650000D01*
X184924398Y-103662252D01*
X184922598Y-103674386D01*
X184919618Y-103686286D01*
X184915485Y-103697835D01*
X184910240Y-103708925D01*
X184903934Y-103719446D01*
X184896626Y-103729299D01*
X184888388Y-103738388D01*
X184879299Y-103746626D01*
X184869446Y-103753934D01*
X184858925Y-103760240D01*
X184847835Y-103765485D01*
X184836286Y-103769618D01*
X184824386Y-103772598D01*
X184812252Y-103774398D01*
X184800000Y-103775000D01*
X183500000Y-103775000D01*
X183487748Y-103774398D01*
X183475614Y-103772598D01*
X183463714Y-103769618D01*
X183452165Y-103765485D01*
X183441075Y-103760240D01*
X183430554Y-103753934D01*
X183420701Y-103746626D01*
X183411612Y-103738388D01*
X183403374Y-103729299D01*
X183396066Y-103719446D01*
X183389760Y-103708925D01*
X183384515Y-103697835D01*
X183380382Y-103686286D01*
X183377402Y-103674386D01*
X183375602Y-103662252D01*
X183375000Y-103650000D01*
X183375000Y-103400000D01*
X183375602Y-103387748D01*
X183377402Y-103375614D01*
X183380382Y-103363714D01*
X183384515Y-103352165D01*
X183389760Y-103341075D01*
X183396066Y-103330554D01*
X183403374Y-103320701D01*
X183411612Y-103311612D01*
X183420701Y-103303374D01*
X183430554Y-103296066D01*
X183441075Y-103289760D01*
X183452165Y-103284515D01*
X183463714Y-103280382D01*
X183475614Y-103277402D01*
X183487748Y-103275602D01*
X183500000Y-103275000D01*
X184800000Y-103275000D01*
X184812252Y-103275602D01*
G37*
G36*
X184812252Y-102625602D02*
G01*
X184824386Y-102627402D01*
X184836286Y-102630382D01*
X184847835Y-102634515D01*
X184858925Y-102639760D01*
X184869446Y-102646066D01*
X184879299Y-102653374D01*
X184888388Y-102661612D01*
X184896626Y-102670701D01*
X184903934Y-102680554D01*
X184910240Y-102691075D01*
X184915485Y-102702165D01*
X184919618Y-102713714D01*
X184922598Y-102725614D01*
X184924398Y-102737748D01*
X184925000Y-102750000D01*
X184925000Y-103000000D01*
X184924398Y-103012252D01*
X184922598Y-103024386D01*
X184919618Y-103036286D01*
X184915485Y-103047835D01*
X184910240Y-103058925D01*
X184903934Y-103069446D01*
X184896626Y-103079299D01*
X184888388Y-103088388D01*
X184879299Y-103096626D01*
X184869446Y-103103934D01*
X184858925Y-103110240D01*
X184847835Y-103115485D01*
X184836286Y-103119618D01*
X184824386Y-103122598D01*
X184812252Y-103124398D01*
X184800000Y-103125000D01*
X183500000Y-103125000D01*
X183487748Y-103124398D01*
X183475614Y-103122598D01*
X183463714Y-103119618D01*
X183452165Y-103115485D01*
X183441075Y-103110240D01*
X183430554Y-103103934D01*
X183420701Y-103096626D01*
X183411612Y-103088388D01*
X183403374Y-103079299D01*
X183396066Y-103069446D01*
X183389760Y-103058925D01*
X183384515Y-103047835D01*
X183380382Y-103036286D01*
X183377402Y-103024386D01*
X183375602Y-103012252D01*
X183375000Y-103000000D01*
X183375000Y-102750000D01*
X183375602Y-102737748D01*
X183377402Y-102725614D01*
X183380382Y-102713714D01*
X183384515Y-102702165D01*
X183389760Y-102691075D01*
X183396066Y-102680554D01*
X183403374Y-102670701D01*
X183411612Y-102661612D01*
X183420701Y-102653374D01*
X183430554Y-102646066D01*
X183441075Y-102639760D01*
X183452165Y-102634515D01*
X183463714Y-102630382D01*
X183475614Y-102627402D01*
X183487748Y-102625602D01*
X183500000Y-102625000D01*
X184800000Y-102625000D01*
X184812252Y-102625602D01*
G37*
%TD*%
%TO.C,U4*%
G36*
X239635838Y-103026277D02*
G01*
X239661577Y-103030095D01*
X239686818Y-103036417D01*
X239711318Y-103045183D01*
X239734840Y-103056309D01*
X239757159Y-103069686D01*
X239778059Y-103085187D01*
X239797339Y-103102661D01*
X239814813Y-103121941D01*
X239830314Y-103142841D01*
X239843691Y-103165160D01*
X239854817Y-103188682D01*
X239863583Y-103213182D01*
X239869905Y-103238423D01*
X239873723Y-103264162D01*
X239875000Y-103290151D01*
X239875000Y-105709849D01*
X239873723Y-105735838D01*
X239869905Y-105761577D01*
X239863583Y-105786818D01*
X239854817Y-105811318D01*
X239843691Y-105834840D01*
X239830314Y-105857159D01*
X239814813Y-105878059D01*
X239797339Y-105897339D01*
X239778059Y-105914813D01*
X239757159Y-105930314D01*
X239734840Y-105943691D01*
X239711318Y-105954817D01*
X239686818Y-105963583D01*
X239661577Y-105969905D01*
X239635838Y-105973723D01*
X239609849Y-105975000D01*
X238390151Y-105975000D01*
X238364162Y-105973723D01*
X238338423Y-105969905D01*
X238313182Y-105963583D01*
X238288682Y-105954817D01*
X238265160Y-105943691D01*
X238242841Y-105930314D01*
X238221941Y-105914813D01*
X238202661Y-105897339D01*
X238185187Y-105878059D01*
X238169686Y-105857159D01*
X238156309Y-105834840D01*
X238145183Y-105811318D01*
X238136417Y-105786818D01*
X238130095Y-105761577D01*
X238126277Y-105735838D01*
X238125000Y-105709849D01*
X238125000Y-103290151D01*
X238126277Y-103264162D01*
X238130095Y-103238423D01*
X238136417Y-103213182D01*
X238145183Y-103188682D01*
X238156309Y-103165160D01*
X238169686Y-103142841D01*
X238185187Y-103121941D01*
X238202661Y-103102661D01*
X238221941Y-103085187D01*
X238242841Y-103069686D01*
X238265160Y-103056309D01*
X238288682Y-103045183D01*
X238313182Y-103036417D01*
X238338423Y-103030095D01*
X238364162Y-103026277D01*
X238390151Y-103025000D01*
X239609849Y-103025000D01*
X239635838Y-103026277D01*
G37*
G36*
X237512252Y-102625602D02*
G01*
X237524386Y-102627402D01*
X237536286Y-102630382D01*
X237547835Y-102634515D01*
X237558925Y-102639760D01*
X237569446Y-102646066D01*
X237579299Y-102653374D01*
X237588388Y-102661612D01*
X237596626Y-102670701D01*
X237603934Y-102680554D01*
X237610240Y-102691075D01*
X237615485Y-102702165D01*
X237619618Y-102713714D01*
X237622598Y-102725614D01*
X237624398Y-102737748D01*
X237625000Y-102750000D01*
X237625000Y-103000000D01*
X237624398Y-103012252D01*
X237622598Y-103024386D01*
X237619618Y-103036286D01*
X237615485Y-103047835D01*
X237610240Y-103058925D01*
X237603934Y-103069446D01*
X237596626Y-103079299D01*
X237588388Y-103088388D01*
X237579299Y-103096626D01*
X237569446Y-103103934D01*
X237558925Y-103110240D01*
X237547835Y-103115485D01*
X237536286Y-103119618D01*
X237524386Y-103122598D01*
X237512252Y-103124398D01*
X237500000Y-103125000D01*
X236200000Y-103125000D01*
X236187748Y-103124398D01*
X236175614Y-103122598D01*
X236163714Y-103119618D01*
X236152165Y-103115485D01*
X236141075Y-103110240D01*
X236130554Y-103103934D01*
X236120701Y-103096626D01*
X236111612Y-103088388D01*
X236103374Y-103079299D01*
X236096066Y-103069446D01*
X236089760Y-103058925D01*
X236084515Y-103047835D01*
X236080382Y-103036286D01*
X236077402Y-103024386D01*
X236075602Y-103012252D01*
X236075000Y-103000000D01*
X236075000Y-102750000D01*
X236075602Y-102737748D01*
X236077402Y-102725614D01*
X236080382Y-102713714D01*
X236084515Y-102702165D01*
X236089760Y-102691075D01*
X236096066Y-102680554D01*
X236103374Y-102670701D01*
X236111612Y-102661612D01*
X236120701Y-102653374D01*
X236130554Y-102646066D01*
X236141075Y-102639760D01*
X236152165Y-102634515D01*
X236163714Y-102630382D01*
X236175614Y-102627402D01*
X236187748Y-102625602D01*
X236200000Y-102625000D01*
X237500000Y-102625000D01*
X237512252Y-102625602D01*
G37*
G36*
X237512252Y-103275602D02*
G01*
X237524386Y-103277402D01*
X237536286Y-103280382D01*
X237547835Y-103284515D01*
X237558925Y-103289760D01*
X237569446Y-103296066D01*
X237579299Y-103303374D01*
X237588388Y-103311612D01*
X237596626Y-103320701D01*
X237603934Y-103330554D01*
X237610240Y-103341075D01*
X237615485Y-103352165D01*
X237619618Y-103363714D01*
X237622598Y-103375614D01*
X237624398Y-103387748D01*
X237625000Y-103400000D01*
X237625000Y-103650000D01*
X237624398Y-103662252D01*
X237622598Y-103674386D01*
X237619618Y-103686286D01*
X237615485Y-103697835D01*
X237610240Y-103708925D01*
X237603934Y-103719446D01*
X237596626Y-103729299D01*
X237588388Y-103738388D01*
X237579299Y-103746626D01*
X237569446Y-103753934D01*
X237558925Y-103760240D01*
X237547835Y-103765485D01*
X237536286Y-103769618D01*
X237524386Y-103772598D01*
X237512252Y-103774398D01*
X237500000Y-103775000D01*
X236200000Y-103775000D01*
X236187748Y-103774398D01*
X236175614Y-103772598D01*
X236163714Y-103769618D01*
X236152165Y-103765485D01*
X236141075Y-103760240D01*
X236130554Y-103753934D01*
X236120701Y-103746626D01*
X236111612Y-103738388D01*
X236103374Y-103729299D01*
X236096066Y-103719446D01*
X236089760Y-103708925D01*
X236084515Y-103697835D01*
X236080382Y-103686286D01*
X236077402Y-103674386D01*
X236075602Y-103662252D01*
X236075000Y-103650000D01*
X236075000Y-103400000D01*
X236075602Y-103387748D01*
X236077402Y-103375614D01*
X236080382Y-103363714D01*
X236084515Y-103352165D01*
X236089760Y-103341075D01*
X236096066Y-103330554D01*
X236103374Y-103320701D01*
X236111612Y-103311612D01*
X236120701Y-103303374D01*
X236130554Y-103296066D01*
X236141075Y-103289760D01*
X236152165Y-103284515D01*
X236163714Y-103280382D01*
X236175614Y-103277402D01*
X236187748Y-103275602D01*
X236200000Y-103275000D01*
X237500000Y-103275000D01*
X237512252Y-103275602D01*
G37*
G36*
X237512252Y-103925602D02*
G01*
X237524386Y-103927402D01*
X237536286Y-103930382D01*
X237547835Y-103934515D01*
X237558925Y-103939760D01*
X237569446Y-103946066D01*
X237579299Y-103953374D01*
X237588388Y-103961612D01*
X237596626Y-103970701D01*
X237603934Y-103980554D01*
X237610240Y-103991075D01*
X237615485Y-104002165D01*
X237619618Y-104013714D01*
X237622598Y-104025614D01*
X237624398Y-104037748D01*
X237625000Y-104050000D01*
X237625000Y-104300000D01*
X237624398Y-104312252D01*
X237622598Y-104324386D01*
X237619618Y-104336286D01*
X237615485Y-104347835D01*
X237610240Y-104358925D01*
X237603934Y-104369446D01*
X237596626Y-104379299D01*
X237588388Y-104388388D01*
X237579299Y-104396626D01*
X237569446Y-104403934D01*
X237558925Y-104410240D01*
X237547835Y-104415485D01*
X237536286Y-104419618D01*
X237524386Y-104422598D01*
X237512252Y-104424398D01*
X237500000Y-104425000D01*
X236200000Y-104425000D01*
X236187748Y-104424398D01*
X236175614Y-104422598D01*
X236163714Y-104419618D01*
X236152165Y-104415485D01*
X236141075Y-104410240D01*
X236130554Y-104403934D01*
X236120701Y-104396626D01*
X236111612Y-104388388D01*
X236103374Y-104379299D01*
X236096066Y-104369446D01*
X236089760Y-104358925D01*
X236084515Y-104347835D01*
X236080382Y-104336286D01*
X236077402Y-104324386D01*
X236075602Y-104312252D01*
X236075000Y-104300000D01*
X236075000Y-104050000D01*
X236075602Y-104037748D01*
X236077402Y-104025614D01*
X236080382Y-104013714D01*
X236084515Y-104002165D01*
X236089760Y-103991075D01*
X236096066Y-103980554D01*
X236103374Y-103970701D01*
X236111612Y-103961612D01*
X236120701Y-103953374D01*
X236130554Y-103946066D01*
X236141075Y-103939760D01*
X236152165Y-103934515D01*
X236163714Y-103930382D01*
X236175614Y-103927402D01*
X236187748Y-103925602D01*
X236200000Y-103925000D01*
X237500000Y-103925000D01*
X237512252Y-103925602D01*
G37*
G36*
X237512252Y-104575602D02*
G01*
X237524386Y-104577402D01*
X237536286Y-104580382D01*
X237547835Y-104584515D01*
X237558925Y-104589760D01*
X237569446Y-104596066D01*
X237579299Y-104603374D01*
X237588388Y-104611612D01*
X237596626Y-104620701D01*
X237603934Y-104630554D01*
X237610240Y-104641075D01*
X237615485Y-104652165D01*
X237619618Y-104663714D01*
X237622598Y-104675614D01*
X237624398Y-104687748D01*
X237625000Y-104700000D01*
X237625000Y-104950000D01*
X237624398Y-104962252D01*
X237622598Y-104974386D01*
X237619618Y-104986286D01*
X237615485Y-104997835D01*
X237610240Y-105008925D01*
X237603934Y-105019446D01*
X237596626Y-105029299D01*
X237588388Y-105038388D01*
X237579299Y-105046626D01*
X237569446Y-105053934D01*
X237558925Y-105060240D01*
X237547835Y-105065485D01*
X237536286Y-105069618D01*
X237524386Y-105072598D01*
X237512252Y-105074398D01*
X237500000Y-105075000D01*
X236200000Y-105075000D01*
X236187748Y-105074398D01*
X236175614Y-105072598D01*
X236163714Y-105069618D01*
X236152165Y-105065485D01*
X236141075Y-105060240D01*
X236130554Y-105053934D01*
X236120701Y-105046626D01*
X236111612Y-105038388D01*
X236103374Y-105029299D01*
X236096066Y-105019446D01*
X236089760Y-105008925D01*
X236084515Y-104997835D01*
X236080382Y-104986286D01*
X236077402Y-104974386D01*
X236075602Y-104962252D01*
X236075000Y-104950000D01*
X236075000Y-104700000D01*
X236075602Y-104687748D01*
X236077402Y-104675614D01*
X236080382Y-104663714D01*
X236084515Y-104652165D01*
X236089760Y-104641075D01*
X236096066Y-104630554D01*
X236103374Y-104620701D01*
X236111612Y-104611612D01*
X236120701Y-104603374D01*
X236130554Y-104596066D01*
X236141075Y-104589760D01*
X236152165Y-104584515D01*
X236163714Y-104580382D01*
X236175614Y-104577402D01*
X236187748Y-104575602D01*
X236200000Y-104575000D01*
X237500000Y-104575000D01*
X237512252Y-104575602D01*
G37*
G36*
X237512252Y-105225602D02*
G01*
X237524386Y-105227402D01*
X237536286Y-105230382D01*
X237547835Y-105234515D01*
X237558925Y-105239760D01*
X237569446Y-105246066D01*
X237579299Y-105253374D01*
X237588388Y-105261612D01*
X237596626Y-105270701D01*
X237603934Y-105280554D01*
X237610240Y-105291075D01*
X237615485Y-105302165D01*
X237619618Y-105313714D01*
X237622598Y-105325614D01*
X237624398Y-105337748D01*
X237625000Y-105350000D01*
X237625000Y-105600000D01*
X237624398Y-105612252D01*
X237622598Y-105624386D01*
X237619618Y-105636286D01*
X237615485Y-105647835D01*
X237610240Y-105658925D01*
X237603934Y-105669446D01*
X237596626Y-105679299D01*
X237588388Y-105688388D01*
X237579299Y-105696626D01*
X237569446Y-105703934D01*
X237558925Y-105710240D01*
X237547835Y-105715485D01*
X237536286Y-105719618D01*
X237524386Y-105722598D01*
X237512252Y-105724398D01*
X237500000Y-105725000D01*
X236200000Y-105725000D01*
X236187748Y-105724398D01*
X236175614Y-105722598D01*
X236163714Y-105719618D01*
X236152165Y-105715485D01*
X236141075Y-105710240D01*
X236130554Y-105703934D01*
X236120701Y-105696626D01*
X236111612Y-105688388D01*
X236103374Y-105679299D01*
X236096066Y-105669446D01*
X236089760Y-105658925D01*
X236084515Y-105647835D01*
X236080382Y-105636286D01*
X236077402Y-105624386D01*
X236075602Y-105612252D01*
X236075000Y-105600000D01*
X236075000Y-105350000D01*
X236075602Y-105337748D01*
X236077402Y-105325614D01*
X236080382Y-105313714D01*
X236084515Y-105302165D01*
X236089760Y-105291075D01*
X236096066Y-105280554D01*
X236103374Y-105270701D01*
X236111612Y-105261612D01*
X236120701Y-105253374D01*
X236130554Y-105246066D01*
X236141075Y-105239760D01*
X236152165Y-105234515D01*
X236163714Y-105230382D01*
X236175614Y-105227402D01*
X236187748Y-105225602D01*
X236200000Y-105225000D01*
X237500000Y-105225000D01*
X237512252Y-105225602D01*
G37*
G36*
X237512252Y-105875602D02*
G01*
X237524386Y-105877402D01*
X237536286Y-105880382D01*
X237547835Y-105884515D01*
X237558925Y-105889760D01*
X237569446Y-105896066D01*
X237579299Y-105903374D01*
X237588388Y-105911612D01*
X237596626Y-105920701D01*
X237603934Y-105930554D01*
X237610240Y-105941075D01*
X237615485Y-105952165D01*
X237619618Y-105963714D01*
X237622598Y-105975614D01*
X237624398Y-105987748D01*
X237625000Y-106000000D01*
X237625000Y-106250000D01*
X237624398Y-106262252D01*
X237622598Y-106274386D01*
X237619618Y-106286286D01*
X237615485Y-106297835D01*
X237610240Y-106308925D01*
X237603934Y-106319446D01*
X237596626Y-106329299D01*
X237588388Y-106338388D01*
X237579299Y-106346626D01*
X237569446Y-106353934D01*
X237558925Y-106360240D01*
X237547835Y-106365485D01*
X237536286Y-106369618D01*
X237524386Y-106372598D01*
X237512252Y-106374398D01*
X237500000Y-106375000D01*
X236200000Y-106375000D01*
X236187748Y-106374398D01*
X236175614Y-106372598D01*
X236163714Y-106369618D01*
X236152165Y-106365485D01*
X236141075Y-106360240D01*
X236130554Y-106353934D01*
X236120701Y-106346626D01*
X236111612Y-106338388D01*
X236103374Y-106329299D01*
X236096066Y-106319446D01*
X236089760Y-106308925D01*
X236084515Y-106297835D01*
X236080382Y-106286286D01*
X236077402Y-106274386D01*
X236075602Y-106262252D01*
X236075000Y-106250000D01*
X236075000Y-106000000D01*
X236075602Y-105987748D01*
X236077402Y-105975614D01*
X236080382Y-105963714D01*
X236084515Y-105952165D01*
X236089760Y-105941075D01*
X236096066Y-105930554D01*
X236103374Y-105920701D01*
X236111612Y-105911612D01*
X236120701Y-105903374D01*
X236130554Y-105896066D01*
X236141075Y-105889760D01*
X236152165Y-105884515D01*
X236163714Y-105880382D01*
X236175614Y-105877402D01*
X236187748Y-105875602D01*
X236200000Y-105875000D01*
X237500000Y-105875000D01*
X237512252Y-105875602D01*
G37*
G36*
X241812252Y-105875602D02*
G01*
X241824386Y-105877402D01*
X241836286Y-105880382D01*
X241847835Y-105884515D01*
X241858925Y-105889760D01*
X241869446Y-105896066D01*
X241879299Y-105903374D01*
X241888388Y-105911612D01*
X241896626Y-105920701D01*
X241903934Y-105930554D01*
X241910240Y-105941075D01*
X241915485Y-105952165D01*
X241919618Y-105963714D01*
X241922598Y-105975614D01*
X241924398Y-105987748D01*
X241925000Y-106000000D01*
X241925000Y-106250000D01*
X241924398Y-106262252D01*
X241922598Y-106274386D01*
X241919618Y-106286286D01*
X241915485Y-106297835D01*
X241910240Y-106308925D01*
X241903934Y-106319446D01*
X241896626Y-106329299D01*
X241888388Y-106338388D01*
X241879299Y-106346626D01*
X241869446Y-106353934D01*
X241858925Y-106360240D01*
X241847835Y-106365485D01*
X241836286Y-106369618D01*
X241824386Y-106372598D01*
X241812252Y-106374398D01*
X241800000Y-106375000D01*
X240500000Y-106375000D01*
X240487748Y-106374398D01*
X240475614Y-106372598D01*
X240463714Y-106369618D01*
X240452165Y-106365485D01*
X240441075Y-106360240D01*
X240430554Y-106353934D01*
X240420701Y-106346626D01*
X240411612Y-106338388D01*
X240403374Y-106329299D01*
X240396066Y-106319446D01*
X240389760Y-106308925D01*
X240384515Y-106297835D01*
X240380382Y-106286286D01*
X240377402Y-106274386D01*
X240375602Y-106262252D01*
X240375000Y-106250000D01*
X240375000Y-106000000D01*
X240375602Y-105987748D01*
X240377402Y-105975614D01*
X240380382Y-105963714D01*
X240384515Y-105952165D01*
X240389760Y-105941075D01*
X240396066Y-105930554D01*
X240403374Y-105920701D01*
X240411612Y-105911612D01*
X240420701Y-105903374D01*
X240430554Y-105896066D01*
X240441075Y-105889760D01*
X240452165Y-105884515D01*
X240463714Y-105880382D01*
X240475614Y-105877402D01*
X240487748Y-105875602D01*
X240500000Y-105875000D01*
X241800000Y-105875000D01*
X241812252Y-105875602D01*
G37*
G36*
X241812252Y-105225602D02*
G01*
X241824386Y-105227402D01*
X241836286Y-105230382D01*
X241847835Y-105234515D01*
X241858925Y-105239760D01*
X241869446Y-105246066D01*
X241879299Y-105253374D01*
X241888388Y-105261612D01*
X241896626Y-105270701D01*
X241903934Y-105280554D01*
X241910240Y-105291075D01*
X241915485Y-105302165D01*
X241919618Y-105313714D01*
X241922598Y-105325614D01*
X241924398Y-105337748D01*
X241925000Y-105350000D01*
X241925000Y-105600000D01*
X241924398Y-105612252D01*
X241922598Y-105624386D01*
X241919618Y-105636286D01*
X241915485Y-105647835D01*
X241910240Y-105658925D01*
X241903934Y-105669446D01*
X241896626Y-105679299D01*
X241888388Y-105688388D01*
X241879299Y-105696626D01*
X241869446Y-105703934D01*
X241858925Y-105710240D01*
X241847835Y-105715485D01*
X241836286Y-105719618D01*
X241824386Y-105722598D01*
X241812252Y-105724398D01*
X241800000Y-105725000D01*
X240500000Y-105725000D01*
X240487748Y-105724398D01*
X240475614Y-105722598D01*
X240463714Y-105719618D01*
X240452165Y-105715485D01*
X240441075Y-105710240D01*
X240430554Y-105703934D01*
X240420701Y-105696626D01*
X240411612Y-105688388D01*
X240403374Y-105679299D01*
X240396066Y-105669446D01*
X240389760Y-105658925D01*
X240384515Y-105647835D01*
X240380382Y-105636286D01*
X240377402Y-105624386D01*
X240375602Y-105612252D01*
X240375000Y-105600000D01*
X240375000Y-105350000D01*
X240375602Y-105337748D01*
X240377402Y-105325614D01*
X240380382Y-105313714D01*
X240384515Y-105302165D01*
X240389760Y-105291075D01*
X240396066Y-105280554D01*
X240403374Y-105270701D01*
X240411612Y-105261612D01*
X240420701Y-105253374D01*
X240430554Y-105246066D01*
X240441075Y-105239760D01*
X240452165Y-105234515D01*
X240463714Y-105230382D01*
X240475614Y-105227402D01*
X240487748Y-105225602D01*
X240500000Y-105225000D01*
X241800000Y-105225000D01*
X241812252Y-105225602D01*
G37*
G36*
X241812252Y-104575602D02*
G01*
X241824386Y-104577402D01*
X241836286Y-104580382D01*
X241847835Y-104584515D01*
X241858925Y-104589760D01*
X241869446Y-104596066D01*
X241879299Y-104603374D01*
X241888388Y-104611612D01*
X241896626Y-104620701D01*
X241903934Y-104630554D01*
X241910240Y-104641075D01*
X241915485Y-104652165D01*
X241919618Y-104663714D01*
X241922598Y-104675614D01*
X241924398Y-104687748D01*
X241925000Y-104700000D01*
X241925000Y-104950000D01*
X241924398Y-104962252D01*
X241922598Y-104974386D01*
X241919618Y-104986286D01*
X241915485Y-104997835D01*
X241910240Y-105008925D01*
X241903934Y-105019446D01*
X241896626Y-105029299D01*
X241888388Y-105038388D01*
X241879299Y-105046626D01*
X241869446Y-105053934D01*
X241858925Y-105060240D01*
X241847835Y-105065485D01*
X241836286Y-105069618D01*
X241824386Y-105072598D01*
X241812252Y-105074398D01*
X241800000Y-105075000D01*
X240500000Y-105075000D01*
X240487748Y-105074398D01*
X240475614Y-105072598D01*
X240463714Y-105069618D01*
X240452165Y-105065485D01*
X240441075Y-105060240D01*
X240430554Y-105053934D01*
X240420701Y-105046626D01*
X240411612Y-105038388D01*
X240403374Y-105029299D01*
X240396066Y-105019446D01*
X240389760Y-105008925D01*
X240384515Y-104997835D01*
X240380382Y-104986286D01*
X240377402Y-104974386D01*
X240375602Y-104962252D01*
X240375000Y-104950000D01*
X240375000Y-104700000D01*
X240375602Y-104687748D01*
X240377402Y-104675614D01*
X240380382Y-104663714D01*
X240384515Y-104652165D01*
X240389760Y-104641075D01*
X240396066Y-104630554D01*
X240403374Y-104620701D01*
X240411612Y-104611612D01*
X240420701Y-104603374D01*
X240430554Y-104596066D01*
X240441075Y-104589760D01*
X240452165Y-104584515D01*
X240463714Y-104580382D01*
X240475614Y-104577402D01*
X240487748Y-104575602D01*
X240500000Y-104575000D01*
X241800000Y-104575000D01*
X241812252Y-104575602D01*
G37*
G36*
X241812252Y-103925602D02*
G01*
X241824386Y-103927402D01*
X241836286Y-103930382D01*
X241847835Y-103934515D01*
X241858925Y-103939760D01*
X241869446Y-103946066D01*
X241879299Y-103953374D01*
X241888388Y-103961612D01*
X241896626Y-103970701D01*
X241903934Y-103980554D01*
X241910240Y-103991075D01*
X241915485Y-104002165D01*
X241919618Y-104013714D01*
X241922598Y-104025614D01*
X241924398Y-104037748D01*
X241925000Y-104050000D01*
X241925000Y-104300000D01*
X241924398Y-104312252D01*
X241922598Y-104324386D01*
X241919618Y-104336286D01*
X241915485Y-104347835D01*
X241910240Y-104358925D01*
X241903934Y-104369446D01*
X241896626Y-104379299D01*
X241888388Y-104388388D01*
X241879299Y-104396626D01*
X241869446Y-104403934D01*
X241858925Y-104410240D01*
X241847835Y-104415485D01*
X241836286Y-104419618D01*
X241824386Y-104422598D01*
X241812252Y-104424398D01*
X241800000Y-104425000D01*
X240500000Y-104425000D01*
X240487748Y-104424398D01*
X240475614Y-104422598D01*
X240463714Y-104419618D01*
X240452165Y-104415485D01*
X240441075Y-104410240D01*
X240430554Y-104403934D01*
X240420701Y-104396626D01*
X240411612Y-104388388D01*
X240403374Y-104379299D01*
X240396066Y-104369446D01*
X240389760Y-104358925D01*
X240384515Y-104347835D01*
X240380382Y-104336286D01*
X240377402Y-104324386D01*
X240375602Y-104312252D01*
X240375000Y-104300000D01*
X240375000Y-104050000D01*
X240375602Y-104037748D01*
X240377402Y-104025614D01*
X240380382Y-104013714D01*
X240384515Y-104002165D01*
X240389760Y-103991075D01*
X240396066Y-103980554D01*
X240403374Y-103970701D01*
X240411612Y-103961612D01*
X240420701Y-103953374D01*
X240430554Y-103946066D01*
X240441075Y-103939760D01*
X240452165Y-103934515D01*
X240463714Y-103930382D01*
X240475614Y-103927402D01*
X240487748Y-103925602D01*
X240500000Y-103925000D01*
X241800000Y-103925000D01*
X241812252Y-103925602D01*
G37*
G36*
X241812252Y-103275602D02*
G01*
X241824386Y-103277402D01*
X241836286Y-103280382D01*
X241847835Y-103284515D01*
X241858925Y-103289760D01*
X241869446Y-103296066D01*
X241879299Y-103303374D01*
X241888388Y-103311612D01*
X241896626Y-103320701D01*
X241903934Y-103330554D01*
X241910240Y-103341075D01*
X241915485Y-103352165D01*
X241919618Y-103363714D01*
X241922598Y-103375614D01*
X241924398Y-103387748D01*
X241925000Y-103400000D01*
X241925000Y-103650000D01*
X241924398Y-103662252D01*
X241922598Y-103674386D01*
X241919618Y-103686286D01*
X241915485Y-103697835D01*
X241910240Y-103708925D01*
X241903934Y-103719446D01*
X241896626Y-103729299D01*
X241888388Y-103738388D01*
X241879299Y-103746626D01*
X241869446Y-103753934D01*
X241858925Y-103760240D01*
X241847835Y-103765485D01*
X241836286Y-103769618D01*
X241824386Y-103772598D01*
X241812252Y-103774398D01*
X241800000Y-103775000D01*
X240500000Y-103775000D01*
X240487748Y-103774398D01*
X240475614Y-103772598D01*
X240463714Y-103769618D01*
X240452165Y-103765485D01*
X240441075Y-103760240D01*
X240430554Y-103753934D01*
X240420701Y-103746626D01*
X240411612Y-103738388D01*
X240403374Y-103729299D01*
X240396066Y-103719446D01*
X240389760Y-103708925D01*
X240384515Y-103697835D01*
X240380382Y-103686286D01*
X240377402Y-103674386D01*
X240375602Y-103662252D01*
X240375000Y-103650000D01*
X240375000Y-103400000D01*
X240375602Y-103387748D01*
X240377402Y-103375614D01*
X240380382Y-103363714D01*
X240384515Y-103352165D01*
X240389760Y-103341075D01*
X240396066Y-103330554D01*
X240403374Y-103320701D01*
X240411612Y-103311612D01*
X240420701Y-103303374D01*
X240430554Y-103296066D01*
X240441075Y-103289760D01*
X240452165Y-103284515D01*
X240463714Y-103280382D01*
X240475614Y-103277402D01*
X240487748Y-103275602D01*
X240500000Y-103275000D01*
X241800000Y-103275000D01*
X241812252Y-103275602D01*
G37*
G36*
X241812252Y-102625602D02*
G01*
X241824386Y-102627402D01*
X241836286Y-102630382D01*
X241847835Y-102634515D01*
X241858925Y-102639760D01*
X241869446Y-102646066D01*
X241879299Y-102653374D01*
X241888388Y-102661612D01*
X241896626Y-102670701D01*
X241903934Y-102680554D01*
X241910240Y-102691075D01*
X241915485Y-102702165D01*
X241919618Y-102713714D01*
X241922598Y-102725614D01*
X241924398Y-102737748D01*
X241925000Y-102750000D01*
X241925000Y-103000000D01*
X241924398Y-103012252D01*
X241922598Y-103024386D01*
X241919618Y-103036286D01*
X241915485Y-103047835D01*
X241910240Y-103058925D01*
X241903934Y-103069446D01*
X241896626Y-103079299D01*
X241888388Y-103088388D01*
X241879299Y-103096626D01*
X241869446Y-103103934D01*
X241858925Y-103110240D01*
X241847835Y-103115485D01*
X241836286Y-103119618D01*
X241824386Y-103122598D01*
X241812252Y-103124398D01*
X241800000Y-103125000D01*
X240500000Y-103125000D01*
X240487748Y-103124398D01*
X240475614Y-103122598D01*
X240463714Y-103119618D01*
X240452165Y-103115485D01*
X240441075Y-103110240D01*
X240430554Y-103103934D01*
X240420701Y-103096626D01*
X240411612Y-103088388D01*
X240403374Y-103079299D01*
X240396066Y-103069446D01*
X240389760Y-103058925D01*
X240384515Y-103047835D01*
X240380382Y-103036286D01*
X240377402Y-103024386D01*
X240375602Y-103012252D01*
X240375000Y-103000000D01*
X240375000Y-102750000D01*
X240375602Y-102737748D01*
X240377402Y-102725614D01*
X240380382Y-102713714D01*
X240384515Y-102702165D01*
X240389760Y-102691075D01*
X240396066Y-102680554D01*
X240403374Y-102670701D01*
X240411612Y-102661612D01*
X240420701Y-102653374D01*
X240430554Y-102646066D01*
X240441075Y-102639760D01*
X240452165Y-102634515D01*
X240463714Y-102630382D01*
X240475614Y-102627402D01*
X240487748Y-102625602D01*
X240500000Y-102625000D01*
X241800000Y-102625000D01*
X241812252Y-102625602D01*
G37*
%TD*%
%TO.C,U5*%
G36*
X202635838Y-103026277D02*
G01*
X202661577Y-103030095D01*
X202686818Y-103036417D01*
X202711318Y-103045183D01*
X202734840Y-103056309D01*
X202757159Y-103069686D01*
X202778059Y-103085187D01*
X202797339Y-103102661D01*
X202814813Y-103121941D01*
X202830314Y-103142841D01*
X202843691Y-103165160D01*
X202854817Y-103188682D01*
X202863583Y-103213182D01*
X202869905Y-103238423D01*
X202873723Y-103264162D01*
X202875000Y-103290151D01*
X202875000Y-105709849D01*
X202873723Y-105735838D01*
X202869905Y-105761577D01*
X202863583Y-105786818D01*
X202854817Y-105811318D01*
X202843691Y-105834840D01*
X202830314Y-105857159D01*
X202814813Y-105878059D01*
X202797339Y-105897339D01*
X202778059Y-105914813D01*
X202757159Y-105930314D01*
X202734840Y-105943691D01*
X202711318Y-105954817D01*
X202686818Y-105963583D01*
X202661577Y-105969905D01*
X202635838Y-105973723D01*
X202609849Y-105975000D01*
X201390151Y-105975000D01*
X201364162Y-105973723D01*
X201338423Y-105969905D01*
X201313182Y-105963583D01*
X201288682Y-105954817D01*
X201265160Y-105943691D01*
X201242841Y-105930314D01*
X201221941Y-105914813D01*
X201202661Y-105897339D01*
X201185187Y-105878059D01*
X201169686Y-105857159D01*
X201156309Y-105834840D01*
X201145183Y-105811318D01*
X201136417Y-105786818D01*
X201130095Y-105761577D01*
X201126277Y-105735838D01*
X201125000Y-105709849D01*
X201125000Y-103290151D01*
X201126277Y-103264162D01*
X201130095Y-103238423D01*
X201136417Y-103213182D01*
X201145183Y-103188682D01*
X201156309Y-103165160D01*
X201169686Y-103142841D01*
X201185187Y-103121941D01*
X201202661Y-103102661D01*
X201221941Y-103085187D01*
X201242841Y-103069686D01*
X201265160Y-103056309D01*
X201288682Y-103045183D01*
X201313182Y-103036417D01*
X201338423Y-103030095D01*
X201364162Y-103026277D01*
X201390151Y-103025000D01*
X202609849Y-103025000D01*
X202635838Y-103026277D01*
G37*
G36*
X200512252Y-102625602D02*
G01*
X200524386Y-102627402D01*
X200536286Y-102630382D01*
X200547835Y-102634515D01*
X200558925Y-102639760D01*
X200569446Y-102646066D01*
X200579299Y-102653374D01*
X200588388Y-102661612D01*
X200596626Y-102670701D01*
X200603934Y-102680554D01*
X200610240Y-102691075D01*
X200615485Y-102702165D01*
X200619618Y-102713714D01*
X200622598Y-102725614D01*
X200624398Y-102737748D01*
X200625000Y-102750000D01*
X200625000Y-103000000D01*
X200624398Y-103012252D01*
X200622598Y-103024386D01*
X200619618Y-103036286D01*
X200615485Y-103047835D01*
X200610240Y-103058925D01*
X200603934Y-103069446D01*
X200596626Y-103079299D01*
X200588388Y-103088388D01*
X200579299Y-103096626D01*
X200569446Y-103103934D01*
X200558925Y-103110240D01*
X200547835Y-103115485D01*
X200536286Y-103119618D01*
X200524386Y-103122598D01*
X200512252Y-103124398D01*
X200500000Y-103125000D01*
X199200000Y-103125000D01*
X199187748Y-103124398D01*
X199175614Y-103122598D01*
X199163714Y-103119618D01*
X199152165Y-103115485D01*
X199141075Y-103110240D01*
X199130554Y-103103934D01*
X199120701Y-103096626D01*
X199111612Y-103088388D01*
X199103374Y-103079299D01*
X199096066Y-103069446D01*
X199089760Y-103058925D01*
X199084515Y-103047835D01*
X199080382Y-103036286D01*
X199077402Y-103024386D01*
X199075602Y-103012252D01*
X199075000Y-103000000D01*
X199075000Y-102750000D01*
X199075602Y-102737748D01*
X199077402Y-102725614D01*
X199080382Y-102713714D01*
X199084515Y-102702165D01*
X199089760Y-102691075D01*
X199096066Y-102680554D01*
X199103374Y-102670701D01*
X199111612Y-102661612D01*
X199120701Y-102653374D01*
X199130554Y-102646066D01*
X199141075Y-102639760D01*
X199152165Y-102634515D01*
X199163714Y-102630382D01*
X199175614Y-102627402D01*
X199187748Y-102625602D01*
X199200000Y-102625000D01*
X200500000Y-102625000D01*
X200512252Y-102625602D01*
G37*
G36*
X200512252Y-103275602D02*
G01*
X200524386Y-103277402D01*
X200536286Y-103280382D01*
X200547835Y-103284515D01*
X200558925Y-103289760D01*
X200569446Y-103296066D01*
X200579299Y-103303374D01*
X200588388Y-103311612D01*
X200596626Y-103320701D01*
X200603934Y-103330554D01*
X200610240Y-103341075D01*
X200615485Y-103352165D01*
X200619618Y-103363714D01*
X200622598Y-103375614D01*
X200624398Y-103387748D01*
X200625000Y-103400000D01*
X200625000Y-103650000D01*
X200624398Y-103662252D01*
X200622598Y-103674386D01*
X200619618Y-103686286D01*
X200615485Y-103697835D01*
X200610240Y-103708925D01*
X200603934Y-103719446D01*
X200596626Y-103729299D01*
X200588388Y-103738388D01*
X200579299Y-103746626D01*
X200569446Y-103753934D01*
X200558925Y-103760240D01*
X200547835Y-103765485D01*
X200536286Y-103769618D01*
X200524386Y-103772598D01*
X200512252Y-103774398D01*
X200500000Y-103775000D01*
X199200000Y-103775000D01*
X199187748Y-103774398D01*
X199175614Y-103772598D01*
X199163714Y-103769618D01*
X199152165Y-103765485D01*
X199141075Y-103760240D01*
X199130554Y-103753934D01*
X199120701Y-103746626D01*
X199111612Y-103738388D01*
X199103374Y-103729299D01*
X199096066Y-103719446D01*
X199089760Y-103708925D01*
X199084515Y-103697835D01*
X199080382Y-103686286D01*
X199077402Y-103674386D01*
X199075602Y-103662252D01*
X199075000Y-103650000D01*
X199075000Y-103400000D01*
X199075602Y-103387748D01*
X199077402Y-103375614D01*
X199080382Y-103363714D01*
X199084515Y-103352165D01*
X199089760Y-103341075D01*
X199096066Y-103330554D01*
X199103374Y-103320701D01*
X199111612Y-103311612D01*
X199120701Y-103303374D01*
X199130554Y-103296066D01*
X199141075Y-103289760D01*
X199152165Y-103284515D01*
X199163714Y-103280382D01*
X199175614Y-103277402D01*
X199187748Y-103275602D01*
X199200000Y-103275000D01*
X200500000Y-103275000D01*
X200512252Y-103275602D01*
G37*
G36*
X200512252Y-103925602D02*
G01*
X200524386Y-103927402D01*
X200536286Y-103930382D01*
X200547835Y-103934515D01*
X200558925Y-103939760D01*
X200569446Y-103946066D01*
X200579299Y-103953374D01*
X200588388Y-103961612D01*
X200596626Y-103970701D01*
X200603934Y-103980554D01*
X200610240Y-103991075D01*
X200615485Y-104002165D01*
X200619618Y-104013714D01*
X200622598Y-104025614D01*
X200624398Y-104037748D01*
X200625000Y-104050000D01*
X200625000Y-104300000D01*
X200624398Y-104312252D01*
X200622598Y-104324386D01*
X200619618Y-104336286D01*
X200615485Y-104347835D01*
X200610240Y-104358925D01*
X200603934Y-104369446D01*
X200596626Y-104379299D01*
X200588388Y-104388388D01*
X200579299Y-104396626D01*
X200569446Y-104403934D01*
X200558925Y-104410240D01*
X200547835Y-104415485D01*
X200536286Y-104419618D01*
X200524386Y-104422598D01*
X200512252Y-104424398D01*
X200500000Y-104425000D01*
X199200000Y-104425000D01*
X199187748Y-104424398D01*
X199175614Y-104422598D01*
X199163714Y-104419618D01*
X199152165Y-104415485D01*
X199141075Y-104410240D01*
X199130554Y-104403934D01*
X199120701Y-104396626D01*
X199111612Y-104388388D01*
X199103374Y-104379299D01*
X199096066Y-104369446D01*
X199089760Y-104358925D01*
X199084515Y-104347835D01*
X199080382Y-104336286D01*
X199077402Y-104324386D01*
X199075602Y-104312252D01*
X199075000Y-104300000D01*
X199075000Y-104050000D01*
X199075602Y-104037748D01*
X199077402Y-104025614D01*
X199080382Y-104013714D01*
X199084515Y-104002165D01*
X199089760Y-103991075D01*
X199096066Y-103980554D01*
X199103374Y-103970701D01*
X199111612Y-103961612D01*
X199120701Y-103953374D01*
X199130554Y-103946066D01*
X199141075Y-103939760D01*
X199152165Y-103934515D01*
X199163714Y-103930382D01*
X199175614Y-103927402D01*
X199187748Y-103925602D01*
X199200000Y-103925000D01*
X200500000Y-103925000D01*
X200512252Y-103925602D01*
G37*
G36*
X200512252Y-104575602D02*
G01*
X200524386Y-104577402D01*
X200536286Y-104580382D01*
X200547835Y-104584515D01*
X200558925Y-104589760D01*
X200569446Y-104596066D01*
X200579299Y-104603374D01*
X200588388Y-104611612D01*
X200596626Y-104620701D01*
X200603934Y-104630554D01*
X200610240Y-104641075D01*
X200615485Y-104652165D01*
X200619618Y-104663714D01*
X200622598Y-104675614D01*
X200624398Y-104687748D01*
X200625000Y-104700000D01*
X200625000Y-104950000D01*
X200624398Y-104962252D01*
X200622598Y-104974386D01*
X200619618Y-104986286D01*
X200615485Y-104997835D01*
X200610240Y-105008925D01*
X200603934Y-105019446D01*
X200596626Y-105029299D01*
X200588388Y-105038388D01*
X200579299Y-105046626D01*
X200569446Y-105053934D01*
X200558925Y-105060240D01*
X200547835Y-105065485D01*
X200536286Y-105069618D01*
X200524386Y-105072598D01*
X200512252Y-105074398D01*
X200500000Y-105075000D01*
X199200000Y-105075000D01*
X199187748Y-105074398D01*
X199175614Y-105072598D01*
X199163714Y-105069618D01*
X199152165Y-105065485D01*
X199141075Y-105060240D01*
X199130554Y-105053934D01*
X199120701Y-105046626D01*
X199111612Y-105038388D01*
X199103374Y-105029299D01*
X199096066Y-105019446D01*
X199089760Y-105008925D01*
X199084515Y-104997835D01*
X199080382Y-104986286D01*
X199077402Y-104974386D01*
X199075602Y-104962252D01*
X199075000Y-104950000D01*
X199075000Y-104700000D01*
X199075602Y-104687748D01*
X199077402Y-104675614D01*
X199080382Y-104663714D01*
X199084515Y-104652165D01*
X199089760Y-104641075D01*
X199096066Y-104630554D01*
X199103374Y-104620701D01*
X199111612Y-104611612D01*
X199120701Y-104603374D01*
X199130554Y-104596066D01*
X199141075Y-104589760D01*
X199152165Y-104584515D01*
X199163714Y-104580382D01*
X199175614Y-104577402D01*
X199187748Y-104575602D01*
X199200000Y-104575000D01*
X200500000Y-104575000D01*
X200512252Y-104575602D01*
G37*
G36*
X200512252Y-105225602D02*
G01*
X200524386Y-105227402D01*
X200536286Y-105230382D01*
X200547835Y-105234515D01*
X200558925Y-105239760D01*
X200569446Y-105246066D01*
X200579299Y-105253374D01*
X200588388Y-105261612D01*
X200596626Y-105270701D01*
X200603934Y-105280554D01*
X200610240Y-105291075D01*
X200615485Y-105302165D01*
X200619618Y-105313714D01*
X200622598Y-105325614D01*
X200624398Y-105337748D01*
X200625000Y-105350000D01*
X200625000Y-105600000D01*
X200624398Y-105612252D01*
X200622598Y-105624386D01*
X200619618Y-105636286D01*
X200615485Y-105647835D01*
X200610240Y-105658925D01*
X200603934Y-105669446D01*
X200596626Y-105679299D01*
X200588388Y-105688388D01*
X200579299Y-105696626D01*
X200569446Y-105703934D01*
X200558925Y-105710240D01*
X200547835Y-105715485D01*
X200536286Y-105719618D01*
X200524386Y-105722598D01*
X200512252Y-105724398D01*
X200500000Y-105725000D01*
X199200000Y-105725000D01*
X199187748Y-105724398D01*
X199175614Y-105722598D01*
X199163714Y-105719618D01*
X199152165Y-105715485D01*
X199141075Y-105710240D01*
X199130554Y-105703934D01*
X199120701Y-105696626D01*
X199111612Y-105688388D01*
X199103374Y-105679299D01*
X199096066Y-105669446D01*
X199089760Y-105658925D01*
X199084515Y-105647835D01*
X199080382Y-105636286D01*
X199077402Y-105624386D01*
X199075602Y-105612252D01*
X199075000Y-105600000D01*
X199075000Y-105350000D01*
X199075602Y-105337748D01*
X199077402Y-105325614D01*
X199080382Y-105313714D01*
X199084515Y-105302165D01*
X199089760Y-105291075D01*
X199096066Y-105280554D01*
X199103374Y-105270701D01*
X199111612Y-105261612D01*
X199120701Y-105253374D01*
X199130554Y-105246066D01*
X199141075Y-105239760D01*
X199152165Y-105234515D01*
X199163714Y-105230382D01*
X199175614Y-105227402D01*
X199187748Y-105225602D01*
X199200000Y-105225000D01*
X200500000Y-105225000D01*
X200512252Y-105225602D01*
G37*
G36*
X200512252Y-105875602D02*
G01*
X200524386Y-105877402D01*
X200536286Y-105880382D01*
X200547835Y-105884515D01*
X200558925Y-105889760D01*
X200569446Y-105896066D01*
X200579299Y-105903374D01*
X200588388Y-105911612D01*
X200596626Y-105920701D01*
X200603934Y-105930554D01*
X200610240Y-105941075D01*
X200615485Y-105952165D01*
X200619618Y-105963714D01*
X200622598Y-105975614D01*
X200624398Y-105987748D01*
X200625000Y-106000000D01*
X200625000Y-106250000D01*
X200624398Y-106262252D01*
X200622598Y-106274386D01*
X200619618Y-106286286D01*
X200615485Y-106297835D01*
X200610240Y-106308925D01*
X200603934Y-106319446D01*
X200596626Y-106329299D01*
X200588388Y-106338388D01*
X200579299Y-106346626D01*
X200569446Y-106353934D01*
X200558925Y-106360240D01*
X200547835Y-106365485D01*
X200536286Y-106369618D01*
X200524386Y-106372598D01*
X200512252Y-106374398D01*
X200500000Y-106375000D01*
X199200000Y-106375000D01*
X199187748Y-106374398D01*
X199175614Y-106372598D01*
X199163714Y-106369618D01*
X199152165Y-106365485D01*
X199141075Y-106360240D01*
X199130554Y-106353934D01*
X199120701Y-106346626D01*
X199111612Y-106338388D01*
X199103374Y-106329299D01*
X199096066Y-106319446D01*
X199089760Y-106308925D01*
X199084515Y-106297835D01*
X199080382Y-106286286D01*
X199077402Y-106274386D01*
X199075602Y-106262252D01*
X199075000Y-106250000D01*
X199075000Y-106000000D01*
X199075602Y-105987748D01*
X199077402Y-105975614D01*
X199080382Y-105963714D01*
X199084515Y-105952165D01*
X199089760Y-105941075D01*
X199096066Y-105930554D01*
X199103374Y-105920701D01*
X199111612Y-105911612D01*
X199120701Y-105903374D01*
X199130554Y-105896066D01*
X199141075Y-105889760D01*
X199152165Y-105884515D01*
X199163714Y-105880382D01*
X199175614Y-105877402D01*
X199187748Y-105875602D01*
X199200000Y-105875000D01*
X200500000Y-105875000D01*
X200512252Y-105875602D01*
G37*
G36*
X204812252Y-105875602D02*
G01*
X204824386Y-105877402D01*
X204836286Y-105880382D01*
X204847835Y-105884515D01*
X204858925Y-105889760D01*
X204869446Y-105896066D01*
X204879299Y-105903374D01*
X204888388Y-105911612D01*
X204896626Y-105920701D01*
X204903934Y-105930554D01*
X204910240Y-105941075D01*
X204915485Y-105952165D01*
X204919618Y-105963714D01*
X204922598Y-105975614D01*
X204924398Y-105987748D01*
X204925000Y-106000000D01*
X204925000Y-106250000D01*
X204924398Y-106262252D01*
X204922598Y-106274386D01*
X204919618Y-106286286D01*
X204915485Y-106297835D01*
X204910240Y-106308925D01*
X204903934Y-106319446D01*
X204896626Y-106329299D01*
X204888388Y-106338388D01*
X204879299Y-106346626D01*
X204869446Y-106353934D01*
X204858925Y-106360240D01*
X204847835Y-106365485D01*
X204836286Y-106369618D01*
X204824386Y-106372598D01*
X204812252Y-106374398D01*
X204800000Y-106375000D01*
X203500000Y-106375000D01*
X203487748Y-106374398D01*
X203475614Y-106372598D01*
X203463714Y-106369618D01*
X203452165Y-106365485D01*
X203441075Y-106360240D01*
X203430554Y-106353934D01*
X203420701Y-106346626D01*
X203411612Y-106338388D01*
X203403374Y-106329299D01*
X203396066Y-106319446D01*
X203389760Y-106308925D01*
X203384515Y-106297835D01*
X203380382Y-106286286D01*
X203377402Y-106274386D01*
X203375602Y-106262252D01*
X203375000Y-106250000D01*
X203375000Y-106000000D01*
X203375602Y-105987748D01*
X203377402Y-105975614D01*
X203380382Y-105963714D01*
X203384515Y-105952165D01*
X203389760Y-105941075D01*
X203396066Y-105930554D01*
X203403374Y-105920701D01*
X203411612Y-105911612D01*
X203420701Y-105903374D01*
X203430554Y-105896066D01*
X203441075Y-105889760D01*
X203452165Y-105884515D01*
X203463714Y-105880382D01*
X203475614Y-105877402D01*
X203487748Y-105875602D01*
X203500000Y-105875000D01*
X204800000Y-105875000D01*
X204812252Y-105875602D01*
G37*
G36*
X204812252Y-105225602D02*
G01*
X204824386Y-105227402D01*
X204836286Y-105230382D01*
X204847835Y-105234515D01*
X204858925Y-105239760D01*
X204869446Y-105246066D01*
X204879299Y-105253374D01*
X204888388Y-105261612D01*
X204896626Y-105270701D01*
X204903934Y-105280554D01*
X204910240Y-105291075D01*
X204915485Y-105302165D01*
X204919618Y-105313714D01*
X204922598Y-105325614D01*
X204924398Y-105337748D01*
X204925000Y-105350000D01*
X204925000Y-105600000D01*
X204924398Y-105612252D01*
X204922598Y-105624386D01*
X204919618Y-105636286D01*
X204915485Y-105647835D01*
X204910240Y-105658925D01*
X204903934Y-105669446D01*
X204896626Y-105679299D01*
X204888388Y-105688388D01*
X204879299Y-105696626D01*
X204869446Y-105703934D01*
X204858925Y-105710240D01*
X204847835Y-105715485D01*
X204836286Y-105719618D01*
X204824386Y-105722598D01*
X204812252Y-105724398D01*
X204800000Y-105725000D01*
X203500000Y-105725000D01*
X203487748Y-105724398D01*
X203475614Y-105722598D01*
X203463714Y-105719618D01*
X203452165Y-105715485D01*
X203441075Y-105710240D01*
X203430554Y-105703934D01*
X203420701Y-105696626D01*
X203411612Y-105688388D01*
X203403374Y-105679299D01*
X203396066Y-105669446D01*
X203389760Y-105658925D01*
X203384515Y-105647835D01*
X203380382Y-105636286D01*
X203377402Y-105624386D01*
X203375602Y-105612252D01*
X203375000Y-105600000D01*
X203375000Y-105350000D01*
X203375602Y-105337748D01*
X203377402Y-105325614D01*
X203380382Y-105313714D01*
X203384515Y-105302165D01*
X203389760Y-105291075D01*
X203396066Y-105280554D01*
X203403374Y-105270701D01*
X203411612Y-105261612D01*
X203420701Y-105253374D01*
X203430554Y-105246066D01*
X203441075Y-105239760D01*
X203452165Y-105234515D01*
X203463714Y-105230382D01*
X203475614Y-105227402D01*
X203487748Y-105225602D01*
X203500000Y-105225000D01*
X204800000Y-105225000D01*
X204812252Y-105225602D01*
G37*
G36*
X204812252Y-104575602D02*
G01*
X204824386Y-104577402D01*
X204836286Y-104580382D01*
X204847835Y-104584515D01*
X204858925Y-104589760D01*
X204869446Y-104596066D01*
X204879299Y-104603374D01*
X204888388Y-104611612D01*
X204896626Y-104620701D01*
X204903934Y-104630554D01*
X204910240Y-104641075D01*
X204915485Y-104652165D01*
X204919618Y-104663714D01*
X204922598Y-104675614D01*
X204924398Y-104687748D01*
X204925000Y-104700000D01*
X204925000Y-104950000D01*
X204924398Y-104962252D01*
X204922598Y-104974386D01*
X204919618Y-104986286D01*
X204915485Y-104997835D01*
X204910240Y-105008925D01*
X204903934Y-105019446D01*
X204896626Y-105029299D01*
X204888388Y-105038388D01*
X204879299Y-105046626D01*
X204869446Y-105053934D01*
X204858925Y-105060240D01*
X204847835Y-105065485D01*
X204836286Y-105069618D01*
X204824386Y-105072598D01*
X204812252Y-105074398D01*
X204800000Y-105075000D01*
X203500000Y-105075000D01*
X203487748Y-105074398D01*
X203475614Y-105072598D01*
X203463714Y-105069618D01*
X203452165Y-105065485D01*
X203441075Y-105060240D01*
X203430554Y-105053934D01*
X203420701Y-105046626D01*
X203411612Y-105038388D01*
X203403374Y-105029299D01*
X203396066Y-105019446D01*
X203389760Y-105008925D01*
X203384515Y-104997835D01*
X203380382Y-104986286D01*
X203377402Y-104974386D01*
X203375602Y-104962252D01*
X203375000Y-104950000D01*
X203375000Y-104700000D01*
X203375602Y-104687748D01*
X203377402Y-104675614D01*
X203380382Y-104663714D01*
X203384515Y-104652165D01*
X203389760Y-104641075D01*
X203396066Y-104630554D01*
X203403374Y-104620701D01*
X203411612Y-104611612D01*
X203420701Y-104603374D01*
X203430554Y-104596066D01*
X203441075Y-104589760D01*
X203452165Y-104584515D01*
X203463714Y-104580382D01*
X203475614Y-104577402D01*
X203487748Y-104575602D01*
X203500000Y-104575000D01*
X204800000Y-104575000D01*
X204812252Y-104575602D01*
G37*
G36*
X204812252Y-103925602D02*
G01*
X204824386Y-103927402D01*
X204836286Y-103930382D01*
X204847835Y-103934515D01*
X204858925Y-103939760D01*
X204869446Y-103946066D01*
X204879299Y-103953374D01*
X204888388Y-103961612D01*
X204896626Y-103970701D01*
X204903934Y-103980554D01*
X204910240Y-103991075D01*
X204915485Y-104002165D01*
X204919618Y-104013714D01*
X204922598Y-104025614D01*
X204924398Y-104037748D01*
X204925000Y-104050000D01*
X204925000Y-104300000D01*
X204924398Y-104312252D01*
X204922598Y-104324386D01*
X204919618Y-104336286D01*
X204915485Y-104347835D01*
X204910240Y-104358925D01*
X204903934Y-104369446D01*
X204896626Y-104379299D01*
X204888388Y-104388388D01*
X204879299Y-104396626D01*
X204869446Y-104403934D01*
X204858925Y-104410240D01*
X204847835Y-104415485D01*
X204836286Y-104419618D01*
X204824386Y-104422598D01*
X204812252Y-104424398D01*
X204800000Y-104425000D01*
X203500000Y-104425000D01*
X203487748Y-104424398D01*
X203475614Y-104422598D01*
X203463714Y-104419618D01*
X203452165Y-104415485D01*
X203441075Y-104410240D01*
X203430554Y-104403934D01*
X203420701Y-104396626D01*
X203411612Y-104388388D01*
X203403374Y-104379299D01*
X203396066Y-104369446D01*
X203389760Y-104358925D01*
X203384515Y-104347835D01*
X203380382Y-104336286D01*
X203377402Y-104324386D01*
X203375602Y-104312252D01*
X203375000Y-104300000D01*
X203375000Y-104050000D01*
X203375602Y-104037748D01*
X203377402Y-104025614D01*
X203380382Y-104013714D01*
X203384515Y-104002165D01*
X203389760Y-103991075D01*
X203396066Y-103980554D01*
X203403374Y-103970701D01*
X203411612Y-103961612D01*
X203420701Y-103953374D01*
X203430554Y-103946066D01*
X203441075Y-103939760D01*
X203452165Y-103934515D01*
X203463714Y-103930382D01*
X203475614Y-103927402D01*
X203487748Y-103925602D01*
X203500000Y-103925000D01*
X204800000Y-103925000D01*
X204812252Y-103925602D01*
G37*
G36*
X204812252Y-103275602D02*
G01*
X204824386Y-103277402D01*
X204836286Y-103280382D01*
X204847835Y-103284515D01*
X204858925Y-103289760D01*
X204869446Y-103296066D01*
X204879299Y-103303374D01*
X204888388Y-103311612D01*
X204896626Y-103320701D01*
X204903934Y-103330554D01*
X204910240Y-103341075D01*
X204915485Y-103352165D01*
X204919618Y-103363714D01*
X204922598Y-103375614D01*
X204924398Y-103387748D01*
X204925000Y-103400000D01*
X204925000Y-103650000D01*
X204924398Y-103662252D01*
X204922598Y-103674386D01*
X204919618Y-103686286D01*
X204915485Y-103697835D01*
X204910240Y-103708925D01*
X204903934Y-103719446D01*
X204896626Y-103729299D01*
X204888388Y-103738388D01*
X204879299Y-103746626D01*
X204869446Y-103753934D01*
X204858925Y-103760240D01*
X204847835Y-103765485D01*
X204836286Y-103769618D01*
X204824386Y-103772598D01*
X204812252Y-103774398D01*
X204800000Y-103775000D01*
X203500000Y-103775000D01*
X203487748Y-103774398D01*
X203475614Y-103772598D01*
X203463714Y-103769618D01*
X203452165Y-103765485D01*
X203441075Y-103760240D01*
X203430554Y-103753934D01*
X203420701Y-103746626D01*
X203411612Y-103738388D01*
X203403374Y-103729299D01*
X203396066Y-103719446D01*
X203389760Y-103708925D01*
X203384515Y-103697835D01*
X203380382Y-103686286D01*
X203377402Y-103674386D01*
X203375602Y-103662252D01*
X203375000Y-103650000D01*
X203375000Y-103400000D01*
X203375602Y-103387748D01*
X203377402Y-103375614D01*
X203380382Y-103363714D01*
X203384515Y-103352165D01*
X203389760Y-103341075D01*
X203396066Y-103330554D01*
X203403374Y-103320701D01*
X203411612Y-103311612D01*
X203420701Y-103303374D01*
X203430554Y-103296066D01*
X203441075Y-103289760D01*
X203452165Y-103284515D01*
X203463714Y-103280382D01*
X203475614Y-103277402D01*
X203487748Y-103275602D01*
X203500000Y-103275000D01*
X204800000Y-103275000D01*
X204812252Y-103275602D01*
G37*
G36*
X204812252Y-102625602D02*
G01*
X204824386Y-102627402D01*
X204836286Y-102630382D01*
X204847835Y-102634515D01*
X204858925Y-102639760D01*
X204869446Y-102646066D01*
X204879299Y-102653374D01*
X204888388Y-102661612D01*
X204896626Y-102670701D01*
X204903934Y-102680554D01*
X204910240Y-102691075D01*
X204915485Y-102702165D01*
X204919618Y-102713714D01*
X204922598Y-102725614D01*
X204924398Y-102737748D01*
X204925000Y-102750000D01*
X204925000Y-103000000D01*
X204924398Y-103012252D01*
X204922598Y-103024386D01*
X204919618Y-103036286D01*
X204915485Y-103047835D01*
X204910240Y-103058925D01*
X204903934Y-103069446D01*
X204896626Y-103079299D01*
X204888388Y-103088388D01*
X204879299Y-103096626D01*
X204869446Y-103103934D01*
X204858925Y-103110240D01*
X204847835Y-103115485D01*
X204836286Y-103119618D01*
X204824386Y-103122598D01*
X204812252Y-103124398D01*
X204800000Y-103125000D01*
X203500000Y-103125000D01*
X203487748Y-103124398D01*
X203475614Y-103122598D01*
X203463714Y-103119618D01*
X203452165Y-103115485D01*
X203441075Y-103110240D01*
X203430554Y-103103934D01*
X203420701Y-103096626D01*
X203411612Y-103088388D01*
X203403374Y-103079299D01*
X203396066Y-103069446D01*
X203389760Y-103058925D01*
X203384515Y-103047835D01*
X203380382Y-103036286D01*
X203377402Y-103024386D01*
X203375602Y-103012252D01*
X203375000Y-103000000D01*
X203375000Y-102750000D01*
X203375602Y-102737748D01*
X203377402Y-102725614D01*
X203380382Y-102713714D01*
X203384515Y-102702165D01*
X203389760Y-102691075D01*
X203396066Y-102680554D01*
X203403374Y-102670701D01*
X203411612Y-102661612D01*
X203420701Y-102653374D01*
X203430554Y-102646066D01*
X203441075Y-102639760D01*
X203452165Y-102634515D01*
X203463714Y-102630382D01*
X203475614Y-102627402D01*
X203487748Y-102625602D01*
X203500000Y-102625000D01*
X204800000Y-102625000D01*
X204812252Y-102625602D01*
G37*
%TD*%
D15*
%TO.C,D1*%
X157000000Y-107960000D03*
D16*
X157000000Y-110500000D03*
%TD*%
D15*
%TO.C,D2*%
X117000000Y-107960000D03*
D16*
X117000000Y-110500000D03*
%TD*%
%TO.C,D3*%
X177000000Y-110500000D03*
D15*
X177000000Y-107960000D03*
%TD*%
%TO.C,D4*%
X234000000Y-107960000D03*
D16*
X234000000Y-110500000D03*
%TD*%
%TO.C,D5*%
X197000000Y-110500000D03*
D15*
X197000000Y-107960000D03*
%TD*%
D17*
%TO.C,R1*%
X164500000Y-110450000D03*
X164500000Y-108250000D03*
%TD*%
%TO.C,R2*%
X154500000Y-106100000D03*
X154500000Y-103900000D03*
%TD*%
%TO.C,R3*%
X164500000Y-97900000D03*
X164500000Y-100100000D03*
%TD*%
%TO.C,R4*%
X163000000Y-100200000D03*
X163000000Y-98000000D03*
%TD*%
%TO.C,R5*%
X124500000Y-108250000D03*
X124500000Y-110450000D03*
%TD*%
%TO.C,R6*%
X114500000Y-103900000D03*
X114500000Y-106100000D03*
%TD*%
%TO.C,R7*%
X124500000Y-97900000D03*
X124500000Y-100100000D03*
%TD*%
%TO.C,R8*%
X123000000Y-100200000D03*
X123000000Y-98000000D03*
%TD*%
%TO.C,R9*%
X184500000Y-110450000D03*
X184500000Y-108250000D03*
%TD*%
%TO.C,R10*%
X174500000Y-106100000D03*
X174500000Y-103900000D03*
%TD*%
%TO.C,R11*%
X184500000Y-100100000D03*
X184500000Y-97900000D03*
%TD*%
%TO.C,R12*%
X183000000Y-98000000D03*
X183000000Y-100200000D03*
%TD*%
%TO.C,R13*%
X241500000Y-110450000D03*
X241500000Y-108250000D03*
%TD*%
%TO.C,R14*%
X231500000Y-106100000D03*
X231500000Y-103900000D03*
%TD*%
%TO.C,R15*%
X241500000Y-97900000D03*
X241500000Y-100100000D03*
%TD*%
%TO.C,R16*%
X240000000Y-100200000D03*
X240000000Y-98000000D03*
%TD*%
%TO.C,R17*%
X204500000Y-110450000D03*
X204500000Y-108250000D03*
%TD*%
%TO.C,R18*%
X194500000Y-106100000D03*
X194500000Y-103900000D03*
%TD*%
%TO.C,R19*%
X204500000Y-97900000D03*
X204500000Y-100100000D03*
%TD*%
%TO.C,R20*%
X203000000Y-100200000D03*
X203000000Y-98000000D03*
%TD*%
D12*
%TO.C,J13*%
X84000000Y-87880000D03*
X84000000Y-90420000D03*
X84000000Y-92960000D03*
D13*
X84000000Y-95500000D03*
%TD*%
%TO.C,J14*%
X130000000Y-95620000D03*
D12*
X130000000Y-93080000D03*
X130000000Y-90540000D03*
X130000000Y-88000000D03*
%TD*%
D18*
%TO.C,C1*%
X99000000Y-102000000D03*
D19*
X99000000Y-105500000D03*
%TD*%
%TO.C,C2*%
X98500000Y-93000000D03*
D18*
X98500000Y-89500000D03*
%TD*%
%TO.C,C18*%
X108500000Y-102000000D03*
D19*
X108500000Y-105500000D03*
%TD*%
%TO.C,C19*%
X108500000Y-93000000D03*
D18*
X108500000Y-89500000D03*
%TD*%
D20*
%TO.C,H3*%
X58500000Y-105750000D03*
%TD*%
%TO.C,H4*%
X58500000Y-91250000D03*
%TD*%
M02*
