M48
INCH
T1C0.0157
T2C0.0315
T3C0.0354
T4C0.0394
T5C0.2165
%
G90
G05
T1
X4.5512Y-3.8583
X4.5827Y-3.8583
X4.6161Y-3.8583
X4.6457Y-3.8583
X4.8622Y-3.7795
X4.9606Y-4.1929
X6.1299Y-3.8583
X6.1614Y-3.8583
X6.1909Y-3.8583
X6.2205Y-3.8583
X6.437Y-3.7795
X6.5354Y-4.1929
X6.9134Y-3.8583
X6.9449Y-3.8583
X6.9783Y-3.8583
X7.0079Y-3.8583
X7.2244Y-3.7795
X7.3228Y-4.1929
X7.7008Y-3.8583
X7.7323Y-3.8583
X7.7657Y-3.8583
X7.7953Y-3.8583
X8.0118Y-3.7795
X8.1102Y-4.1929
X9.1575Y-3.8583
X9.189Y-3.8583
X9.2224Y-3.8583
X9.252Y-3.8583
X9.4685Y-3.7795
X9.5669Y-4.1929
T2
X3.8976Y-4.0157
X3.8976Y-4.1535
X4.2717Y-4.0157
X4.2717Y-4.1535
X3.878Y-3.5236
X3.878Y-3.6614
X4.2717Y-3.5236
X4.2717Y-3.6614
T3
X4.6063Y-4.2504
X4.6063Y-4.3504
X6.9685Y-4.2504
X6.9685Y-4.3504
X9.2126Y-4.2504
X9.2126Y-4.3504
X6.1811Y-4.2504
X6.1811Y-4.3504
X7.7559Y-4.2504
X7.7559Y-4.3504
T4
X8.2677Y-3.9126
X8.2677Y-4.0126
X8.2677Y-4.1126
X8.2677Y-4.2126
X3.4646Y-3.937
X3.4646Y-4.037
X3.4646Y-4.137
X3.4646Y-4.237
X6.6929Y-3.4646
X6.6929Y-3.5646
X6.6929Y-3.6646
X6.6929Y-3.7646
X9.7244Y-3.9126
X9.7244Y-4.0126
X9.7244Y-4.1126
X9.7244Y-4.2126
X7.4803Y-3.9126
X7.4803Y-4.0126
X7.4803Y-4.1126
X7.4803Y-4.2126
X3.3071Y-3.937
X3.3071Y-4.037
X3.3071Y-4.137
X3.3071Y-4.237
X3.4646Y-3.4598
X3.4646Y-3.5598
X3.4646Y-3.6598
X3.4646Y-3.7598
X9.7244Y-3.4646
X9.7244Y-3.5646
X9.7244Y-3.6646
X9.7244Y-3.7646
X6.6929Y-3.9126
X6.6929Y-4.0126
X6.6929Y-4.1126
X6.6929Y-4.2126
X5.1181Y-3.9126
X5.1181Y-4.0126
X5.1181Y-4.1126
X5.1181Y-4.2126
X8.2677Y-3.4646
X8.2677Y-3.5646
X8.2677Y-3.6646
X8.2677Y-3.7646
X3.3071Y-3.4598
X3.3071Y-3.5598
X3.3071Y-3.6598
X3.3071Y-3.7598
X5.1181Y-3.4646
X5.1181Y-3.5646
X5.1181Y-3.6646
X5.1181Y-3.7646
T5
X2.3031Y-3.5925
X2.3031Y-4.1634
T0
M30
