G04 #@! TF.GenerationSoftware,KiCad,Pcbnew,(5.1.5)-3*
G04 #@! TF.CreationDate,2021-02-05T17:28:24+00:00*
G04 #@! TF.ProjectId,clock_dist,636c6f63-6b5f-4646-9973-742e6b696361,rev?*
G04 #@! TF.SameCoordinates,Original*
G04 #@! TF.FileFunction,Soldermask,Bot*
G04 #@! TF.FilePolarity,Negative*
%FSLAX46Y46*%
G04 Gerber Fmt 4.6, Leading zero omitted, Abs format (unit mm)*
G04 Created by KiCad (PCBNEW (5.1.5)-3) date 2021-02-05 17:28:24*
%MOMM*%
%LPD*%
G04 APERTURE LIST*
%ADD10C,0.600000*%
G04 APERTURE END LIST*
D10*
G36*
X126401000Y-68401000D02*
G01*
X124599000Y-68401000D01*
X124599000Y-66599000D01*
X126401000Y-66599000D01*
X126401000Y-68401000D01*
G37*
G36*
X125613512Y-64063927D02*
G01*
X125762812Y-64093624D01*
X125926784Y-64161544D01*
X126074354Y-64260147D01*
X126199853Y-64385646D01*
X126298456Y-64533216D01*
X126366376Y-64697188D01*
X126401000Y-64871259D01*
X126401000Y-65048741D01*
X126366376Y-65222812D01*
X126298456Y-65386784D01*
X126199853Y-65534354D01*
X126074354Y-65659853D01*
X125926784Y-65758456D01*
X125762812Y-65826376D01*
X125613512Y-65856073D01*
X125588742Y-65861000D01*
X125411258Y-65861000D01*
X125386488Y-65856073D01*
X125237188Y-65826376D01*
X125073216Y-65758456D01*
X124925646Y-65659853D01*
X124800147Y-65534354D01*
X124701544Y-65386784D01*
X124633624Y-65222812D01*
X124599000Y-65048741D01*
X124599000Y-64871259D01*
X124633624Y-64697188D01*
X124701544Y-64533216D01*
X124800147Y-64385646D01*
X124925646Y-64260147D01*
X125073216Y-64161544D01*
X125237188Y-64093624D01*
X125386488Y-64063927D01*
X125411258Y-64059000D01*
X125588742Y-64059000D01*
X125613512Y-64063927D01*
G37*
G36*
X125613512Y-61523927D02*
G01*
X125762812Y-61553624D01*
X125926784Y-61621544D01*
X126074354Y-61720147D01*
X126199853Y-61845646D01*
X126298456Y-61993216D01*
X126366376Y-62157188D01*
X126401000Y-62331259D01*
X126401000Y-62508741D01*
X126366376Y-62682812D01*
X126298456Y-62846784D01*
X126199853Y-62994354D01*
X126074354Y-63119853D01*
X125926784Y-63218456D01*
X125762812Y-63286376D01*
X125613512Y-63316073D01*
X125588742Y-63321000D01*
X125411258Y-63321000D01*
X125386488Y-63316073D01*
X125237188Y-63286376D01*
X125073216Y-63218456D01*
X124925646Y-63119853D01*
X124800147Y-62994354D01*
X124701544Y-62846784D01*
X124633624Y-62682812D01*
X124599000Y-62508741D01*
X124599000Y-62331259D01*
X124633624Y-62157188D01*
X124701544Y-61993216D01*
X124800147Y-61845646D01*
X124925646Y-61720147D01*
X125073216Y-61621544D01*
X125237188Y-61553624D01*
X125386488Y-61523927D01*
X125411258Y-61519000D01*
X125588742Y-61519000D01*
X125613512Y-61523927D01*
G37*
G36*
X125613512Y-58983927D02*
G01*
X125762812Y-59013624D01*
X125926784Y-59081544D01*
X126074354Y-59180147D01*
X126199853Y-59305646D01*
X126298456Y-59453216D01*
X126366376Y-59617188D01*
X126401000Y-59791259D01*
X126401000Y-59968741D01*
X126366376Y-60142812D01*
X126298456Y-60306784D01*
X126199853Y-60454354D01*
X126074354Y-60579853D01*
X125926784Y-60678456D01*
X125762812Y-60746376D01*
X125613512Y-60776073D01*
X125588742Y-60781000D01*
X125411258Y-60781000D01*
X125386488Y-60776073D01*
X125237188Y-60746376D01*
X125073216Y-60678456D01*
X124925646Y-60579853D01*
X124800147Y-60454354D01*
X124701544Y-60306784D01*
X124633624Y-60142812D01*
X124599000Y-59968741D01*
X124599000Y-59791259D01*
X124633624Y-59617188D01*
X124701544Y-59453216D01*
X124800147Y-59305646D01*
X124925646Y-59180147D01*
X125073216Y-59081544D01*
X125237188Y-59013624D01*
X125386488Y-58983927D01*
X125411258Y-58979000D01*
X125588742Y-58979000D01*
X125613512Y-58983927D01*
G37*
M02*
