M48
INCH
T1C0.0157
T2C0.0236
T3C0.0394
%
G90
G05
T1
X4.8711Y-2.2717
X4.8711Y-2.9213
X4.8711Y-3.3976
X4.8711Y-4.0472
X4.8711Y-4.2205
X4.8711Y-4.3937
X4.8711Y-4.5669
X4.8711Y-4.7402
X4.8711Y-4.9134
X4.8711Y-5.0866
X4.8711Y-5.2598
X4.8711Y-5.4331
X5.0443Y-2.2717
X5.0443Y-2.6614
X5.0443Y-2.9213
X5.0443Y-3.0945
X5.0443Y-3.311
X5.0443Y-3.4843
X5.0443Y-3.7874
X5.0443Y-3.9606
X5.0443Y-4.1339
X5.0443Y-4.3071
X5.0443Y-4.4803
X5.0443Y-4.6535
X5.0443Y-4.8268
X5.0443Y-5.0
X5.0443Y-5.1732
X5.0443Y-5.3465
X5.0443Y-5.5197
X5.1772Y-5.4882
X5.1772Y-5.5906
X5.2175Y-2.315
X5.2175Y-2.6614
X5.2175Y-2.8346
X5.2175Y-3.0079
X5.2175Y-3.1811
X5.2175Y-4.1772
X5.2175Y-4.3504
X5.2175Y-4.5236
X5.2175Y-4.6969
X5.2175Y-4.8701
X5.2175Y-5.0433
X5.2175Y-5.2165
X5.2175Y-5.3898
X5.2608Y-3.9606
X5.3041Y-3.3543
X5.3041Y-3.5276
X5.3041Y-3.7008
X5.3907Y-2.185
X5.3907Y-2.3583
X5.3907Y-2.6614
X5.3907Y-2.8346
X5.3907Y-3.0512
X5.3907Y-4.2638
X5.3907Y-4.437
X5.3907Y-4.6102
X5.4341Y-4.7835
X5.4341Y-4.9567
X5.4341Y-5.1299
X5.4341Y-5.3031
X5.4774Y-3.2244
X5.4774Y-3.5276
X5.4774Y-3.7008
X5.4774Y-4.0906
X5.5512Y-5.4882
X5.5512Y-5.5906
X5.564Y-2.315
X5.564Y-2.6614
X5.564Y-2.8346
X5.564Y-4.2638
X5.564Y-4.437
X5.564Y-4.6102
X5.6073Y-4.7835
X5.6073Y-4.9567
X5.6073Y-5.1299
X5.6073Y-5.3031
X5.6506Y-2.4882
X5.6506Y-5.4764
X5.6939Y-3.0079
X5.6939Y-3.1811
X5.6939Y-3.3543
X5.6939Y-3.5276
X5.6939Y-3.7008
X5.7372Y-2.185
X5.7372Y-2.6614
X5.7372Y-2.8346
X5.7372Y-4.1772
X5.7372Y-4.3504
X5.7372Y-4.5236
X5.7805Y-4.6969
X5.7805Y-4.8701
X5.7805Y-5.0433
X5.7805Y-5.2165
X5.8238Y-2.3583
X5.8238Y-5.3898
X5.8238Y-5.563
X5.8671Y-3.0079
X5.8671Y-3.1811
X5.8671Y-3.3543
X5.8671Y-3.5276
X5.9104Y-2.185
X5.9104Y-4.0472
X5.9537Y-3.874
X5.997Y-2.5748
X5.997Y-2.748
X5.997Y-3.7008
X5.997Y-5.4331
X6.0404Y-2.9213
X6.0404Y-3.0945
X6.0404Y-3.2677
X6.0404Y-3.4409
X6.0404Y-4.2205
X6.0404Y-4.3937
X6.0404Y-4.5669
X6.0404Y-4.7402
X6.0404Y-4.9134
X6.0404Y-5.0866
X6.0837Y-2.185
X6.0837Y-4.0472
X6.0837Y-5.2598
X6.127Y-3.874
X6.1703Y-2.6614
X6.1703Y-3.6142
X6.2136Y-2.8346
X6.2136Y-3.0079
X6.2136Y-3.1811
X6.2136Y-3.3543
X6.2136Y-4.2205
X6.2136Y-4.3937
X6.2136Y-4.5669
X6.2136Y-4.7402
X6.2136Y-4.9134
X6.2136Y-5.0866
T2
X4.8425Y-3.6417
X4.8622Y-2.1654
X4.8622Y-2.815
X4.9409Y-3.6417
X4.9409Y-4.1339
X5.0Y-2.1654
X5.0Y-2.815
X5.1181Y-3.7008
X5.1969Y-4.063
X5.2756Y-2.2047
X5.374Y-4.1732
X5.4331Y-3.4213
X5.4606Y-2.9567
X5.4646Y-3.622
X5.4803Y-2.8937
X5.5591Y-3.4291
X5.6299Y-2.2047
X6.2205Y-2.5591
X6.2205Y-5.1969
X6.2205Y-5.5709
X6.2402Y-2.1654
X6.2402Y-3.7402
X6.2402Y-4.1339
X6.3386Y-2.1654
X6.3386Y-2.5591
X6.3386Y-3.7402
X6.3386Y-4.1339
X6.3386Y-5.1969
X6.3386Y-5.5709
T3
X4.9409Y-2.3575
X4.9409Y-2.4575
X4.9409Y-2.5575
X4.9409Y-2.6575
T0
M30
