G04 #@! TF.GenerationSoftware,KiCad,Pcbnew,(5.1.5)-3*
G04 #@! TF.CreationDate,2021-02-05T17:28:24+00:00*
G04 #@! TF.ProjectId,clock_dist,636c6f63-6b5f-4646-9973-742e6b696361,rev?*
G04 #@! TF.SameCoordinates,Original*
G04 #@! TF.FileFunction,Copper,L2,Bot*
G04 #@! TF.FilePolarity,Positive*
%FSLAX46Y46*%
G04 Gerber Fmt 4.6, Leading zero omitted, Abs format (unit mm)*
G04 Created by KiCad (PCBNEW (5.1.5)-3) date 2021-02-05 17:28:24*
%MOMM*%
%LPD*%
G04 APERTURE LIST*
%ADD10O,1.700000X1.700000*%
%ADD11R,1.700000X1.700000*%
%ADD12C,1.000000*%
%ADD13C,0.800000*%
%ADD14C,0.254000*%
G04 APERTURE END LIST*
D10*
X125500000Y-59880000D03*
X125500000Y-62420000D03*
X125500000Y-64960000D03*
D11*
X125500000Y-67500000D03*
D12*
X161000000Y-65000000D03*
X161000000Y-55000000D03*
X158500000Y-55000000D03*
X123500000Y-55000000D03*
X127000000Y-55000000D03*
X123500000Y-71500000D03*
X127000000Y-71500000D03*
X134000000Y-56000000D03*
X143000000Y-56000000D03*
X123000000Y-92500000D03*
X125500000Y-92500000D03*
X161000000Y-141500000D03*
X125500000Y-105000000D03*
X158500000Y-95000000D03*
X161000000Y-105000000D03*
X158500000Y-105000000D03*
X161000000Y-95000000D03*
X161000000Y-132000000D03*
X158000000Y-132000000D03*
X158000000Y-141500000D03*
X138800000Y-92000000D03*
X132000000Y-103200000D03*
X130000000Y-94000000D03*
X136500000Y-106000000D03*
X158000000Y-65000000D03*
X139200000Y-73500000D03*
X138700000Y-75100000D03*
X138000000Y-86900000D03*
X141200000Y-87100000D03*
D13*
X131500000Y-142000000D03*
X131500000Y-139400000D03*
X141000000Y-139400000D03*
X141000000Y-142000000D03*
X123724999Y-57700000D03*
X123724999Y-74200000D03*
X123724999Y-86300000D03*
X123724999Y-102800000D03*
X123724999Y-107200000D03*
X123724999Y-111600000D03*
X123724999Y-116000000D03*
X123724999Y-120400000D03*
X123724999Y-124800000D03*
X123724999Y-129200000D03*
X123724999Y-133600000D03*
X123724999Y-138000000D03*
X128124999Y-57700000D03*
X128124999Y-67600000D03*
X128124999Y-74200000D03*
X128124999Y-78600000D03*
X128124999Y-84100000D03*
X128124999Y-88500000D03*
X128124999Y-96200000D03*
X128124999Y-100600000D03*
X128124999Y-105000000D03*
X128124999Y-109400000D03*
X128124999Y-113800000D03*
X128124999Y-118200000D03*
X128124999Y-122600000D03*
X128124999Y-127000000D03*
X128124999Y-131400000D03*
X128124999Y-135800000D03*
X128124999Y-140200000D03*
X132524999Y-58800000D03*
X132524999Y-67600000D03*
X132524999Y-72000000D03*
X132524999Y-76400000D03*
X132524999Y-80800000D03*
X132524999Y-106100000D03*
X132524999Y-110500000D03*
X132524999Y-114900000D03*
X132524999Y-119300000D03*
X132524999Y-123700000D03*
X132524999Y-128100000D03*
X132524999Y-132500000D03*
X132524999Y-136900000D03*
X133624999Y-100600000D03*
X134724999Y-85200000D03*
X134724999Y-89600000D03*
X134724999Y-94000000D03*
X136924999Y-55500000D03*
X136924999Y-59900000D03*
X136924999Y-67600000D03*
X136924999Y-72000000D03*
X136924999Y-77500000D03*
X136924999Y-108300000D03*
X136924999Y-112700000D03*
X136924999Y-117100000D03*
X138024999Y-121500000D03*
X138024999Y-125900000D03*
X138024999Y-130300000D03*
X138024999Y-134700000D03*
X139124999Y-81900000D03*
X139124999Y-89600000D03*
X139124999Y-94000000D03*
X139124999Y-103900000D03*
X141324999Y-58800000D03*
X141324999Y-67600000D03*
X141324999Y-72000000D03*
X141324999Y-108300000D03*
X141324999Y-112700000D03*
X141324999Y-117100000D03*
X142424999Y-121500000D03*
X142424999Y-125900000D03*
X142424999Y-130300000D03*
X142424999Y-134700000D03*
X143524999Y-63200000D03*
X143524999Y-139100000D03*
X144624999Y-76400000D03*
X144624999Y-80800000D03*
X144624999Y-85200000D03*
X144624999Y-89600000D03*
X144624999Y-94000000D03*
X145724999Y-55500000D03*
X145724999Y-67600000D03*
X145724999Y-72000000D03*
X145724999Y-106100000D03*
X145724999Y-110500000D03*
X145724999Y-114900000D03*
X146824999Y-119300000D03*
X146824999Y-123700000D03*
X146824999Y-128100000D03*
X146824999Y-132500000D03*
X147924999Y-59900000D03*
X147924999Y-136900000D03*
X147924999Y-141300000D03*
X149024999Y-76400000D03*
X149024999Y-80800000D03*
X149024999Y-85200000D03*
X149024999Y-89600000D03*
X150124999Y-55500000D03*
X150124999Y-102800000D03*
X151224999Y-98400000D03*
X152324999Y-65400000D03*
X152324999Y-69800000D03*
X152324999Y-94000000D03*
X152324999Y-138000000D03*
X153424999Y-74200000D03*
X153424999Y-78600000D03*
X153424999Y-83000000D03*
X153424999Y-87400000D03*
X153424999Y-107200000D03*
X153424999Y-111600000D03*
X153424999Y-116000000D03*
X153424999Y-120400000D03*
X153424999Y-124800000D03*
X153424999Y-129200000D03*
X154524999Y-55500000D03*
X154524999Y-102800000D03*
X154524999Y-133600000D03*
X155624999Y-98400000D03*
X156724999Y-67600000D03*
X156724999Y-91800000D03*
X157824999Y-72000000D03*
X157824999Y-76400000D03*
X157824999Y-80800000D03*
X157824999Y-85200000D03*
X157824999Y-107200000D03*
X157824999Y-111600000D03*
X157824999Y-116000000D03*
X157824999Y-120400000D03*
X157824999Y-124800000D03*
X157824999Y-129200000D03*
D14*
G36*
X161840001Y-142340000D02*
G01*
X122160000Y-142340000D01*
X122160000Y-68350000D01*
X124011928Y-68350000D01*
X124024188Y-68474482D01*
X124060498Y-68594180D01*
X124119463Y-68704494D01*
X124198815Y-68801185D01*
X124295506Y-68880537D01*
X124405820Y-68939502D01*
X124525518Y-68975812D01*
X124650000Y-68988072D01*
X125214250Y-68985000D01*
X125373000Y-68826250D01*
X125373000Y-67627000D01*
X125627000Y-67627000D01*
X125627000Y-68826250D01*
X125785750Y-68985000D01*
X126350000Y-68988072D01*
X126474482Y-68975812D01*
X126594180Y-68939502D01*
X126704494Y-68880537D01*
X126801185Y-68801185D01*
X126880537Y-68704494D01*
X126939502Y-68594180D01*
X126975812Y-68474482D01*
X126988072Y-68350000D01*
X126985000Y-67785750D01*
X126826250Y-67627000D01*
X125627000Y-67627000D01*
X125373000Y-67627000D01*
X124173750Y-67627000D01*
X124015000Y-67785750D01*
X124011928Y-68350000D01*
X122160000Y-68350000D01*
X122160000Y-66650000D01*
X124011928Y-66650000D01*
X124015000Y-67214250D01*
X124173750Y-67373000D01*
X125373000Y-67373000D01*
X125373000Y-67353000D01*
X125627000Y-67353000D01*
X125627000Y-67373000D01*
X126826250Y-67373000D01*
X126985000Y-67214250D01*
X126988072Y-66650000D01*
X126975812Y-66525518D01*
X126939502Y-66405820D01*
X126880537Y-66295506D01*
X126801185Y-66198815D01*
X126704494Y-66119463D01*
X126594180Y-66060498D01*
X126521620Y-66038487D01*
X126653475Y-65906632D01*
X126815990Y-65663411D01*
X126927932Y-65393158D01*
X126985000Y-65106260D01*
X126985000Y-64813740D01*
X126927932Y-64526842D01*
X126815990Y-64256589D01*
X126653475Y-64013368D01*
X126446632Y-63806525D01*
X126272240Y-63690000D01*
X126446632Y-63573475D01*
X126653475Y-63366632D01*
X126815990Y-63123411D01*
X126927932Y-62853158D01*
X126985000Y-62566260D01*
X126985000Y-62273740D01*
X126927932Y-61986842D01*
X126815990Y-61716589D01*
X126653475Y-61473368D01*
X126446632Y-61266525D01*
X126264466Y-61144805D01*
X126381355Y-61075178D01*
X126597588Y-60880269D01*
X126771641Y-60646920D01*
X126896825Y-60384099D01*
X126941476Y-60236890D01*
X126820155Y-60007000D01*
X125627000Y-60007000D01*
X125627000Y-60027000D01*
X125373000Y-60027000D01*
X125373000Y-60007000D01*
X124179845Y-60007000D01*
X124058524Y-60236890D01*
X124103175Y-60384099D01*
X124228359Y-60646920D01*
X124402412Y-60880269D01*
X124618645Y-61075178D01*
X124735534Y-61144805D01*
X124553368Y-61266525D01*
X124346525Y-61473368D01*
X124184010Y-61716589D01*
X124072068Y-61986842D01*
X124015000Y-62273740D01*
X124015000Y-62566260D01*
X124072068Y-62853158D01*
X124184010Y-63123411D01*
X124346525Y-63366632D01*
X124553368Y-63573475D01*
X124727760Y-63690000D01*
X124553368Y-63806525D01*
X124346525Y-64013368D01*
X124184010Y-64256589D01*
X124072068Y-64526842D01*
X124015000Y-64813740D01*
X124015000Y-65106260D01*
X124072068Y-65393158D01*
X124184010Y-65663411D01*
X124346525Y-65906632D01*
X124478380Y-66038487D01*
X124405820Y-66060498D01*
X124295506Y-66119463D01*
X124198815Y-66198815D01*
X124119463Y-66295506D01*
X124060498Y-66405820D01*
X124024188Y-66525518D01*
X124011928Y-66650000D01*
X122160000Y-66650000D01*
X122160000Y-59523110D01*
X124058524Y-59523110D01*
X124179845Y-59753000D01*
X125373000Y-59753000D01*
X125373000Y-58559186D01*
X125627000Y-58559186D01*
X125627000Y-59753000D01*
X126820155Y-59753000D01*
X126941476Y-59523110D01*
X126896825Y-59375901D01*
X126771641Y-59113080D01*
X126597588Y-58879731D01*
X126381355Y-58684822D01*
X126131252Y-58535843D01*
X125856891Y-58438519D01*
X125627000Y-58559186D01*
X125373000Y-58559186D01*
X125143109Y-58438519D01*
X124868748Y-58535843D01*
X124618645Y-58684822D01*
X124402412Y-58879731D01*
X124228359Y-59113080D01*
X124103175Y-59375901D01*
X124058524Y-59523110D01*
X122160000Y-59523110D01*
X122160000Y-54160000D01*
X161840000Y-54160000D01*
X161840001Y-142340000D01*
G37*
X161840001Y-142340000D02*
X122160000Y-142340000D01*
X122160000Y-68350000D01*
X124011928Y-68350000D01*
X124024188Y-68474482D01*
X124060498Y-68594180D01*
X124119463Y-68704494D01*
X124198815Y-68801185D01*
X124295506Y-68880537D01*
X124405820Y-68939502D01*
X124525518Y-68975812D01*
X124650000Y-68988072D01*
X125214250Y-68985000D01*
X125373000Y-68826250D01*
X125373000Y-67627000D01*
X125627000Y-67627000D01*
X125627000Y-68826250D01*
X125785750Y-68985000D01*
X126350000Y-68988072D01*
X126474482Y-68975812D01*
X126594180Y-68939502D01*
X126704494Y-68880537D01*
X126801185Y-68801185D01*
X126880537Y-68704494D01*
X126939502Y-68594180D01*
X126975812Y-68474482D01*
X126988072Y-68350000D01*
X126985000Y-67785750D01*
X126826250Y-67627000D01*
X125627000Y-67627000D01*
X125373000Y-67627000D01*
X124173750Y-67627000D01*
X124015000Y-67785750D01*
X124011928Y-68350000D01*
X122160000Y-68350000D01*
X122160000Y-66650000D01*
X124011928Y-66650000D01*
X124015000Y-67214250D01*
X124173750Y-67373000D01*
X125373000Y-67373000D01*
X125373000Y-67353000D01*
X125627000Y-67353000D01*
X125627000Y-67373000D01*
X126826250Y-67373000D01*
X126985000Y-67214250D01*
X126988072Y-66650000D01*
X126975812Y-66525518D01*
X126939502Y-66405820D01*
X126880537Y-66295506D01*
X126801185Y-66198815D01*
X126704494Y-66119463D01*
X126594180Y-66060498D01*
X126521620Y-66038487D01*
X126653475Y-65906632D01*
X126815990Y-65663411D01*
X126927932Y-65393158D01*
X126985000Y-65106260D01*
X126985000Y-64813740D01*
X126927932Y-64526842D01*
X126815990Y-64256589D01*
X126653475Y-64013368D01*
X126446632Y-63806525D01*
X126272240Y-63690000D01*
X126446632Y-63573475D01*
X126653475Y-63366632D01*
X126815990Y-63123411D01*
X126927932Y-62853158D01*
X126985000Y-62566260D01*
X126985000Y-62273740D01*
X126927932Y-61986842D01*
X126815990Y-61716589D01*
X126653475Y-61473368D01*
X126446632Y-61266525D01*
X126264466Y-61144805D01*
X126381355Y-61075178D01*
X126597588Y-60880269D01*
X126771641Y-60646920D01*
X126896825Y-60384099D01*
X126941476Y-60236890D01*
X126820155Y-60007000D01*
X125627000Y-60007000D01*
X125627000Y-60027000D01*
X125373000Y-60027000D01*
X125373000Y-60007000D01*
X124179845Y-60007000D01*
X124058524Y-60236890D01*
X124103175Y-60384099D01*
X124228359Y-60646920D01*
X124402412Y-60880269D01*
X124618645Y-61075178D01*
X124735534Y-61144805D01*
X124553368Y-61266525D01*
X124346525Y-61473368D01*
X124184010Y-61716589D01*
X124072068Y-61986842D01*
X124015000Y-62273740D01*
X124015000Y-62566260D01*
X124072068Y-62853158D01*
X124184010Y-63123411D01*
X124346525Y-63366632D01*
X124553368Y-63573475D01*
X124727760Y-63690000D01*
X124553368Y-63806525D01*
X124346525Y-64013368D01*
X124184010Y-64256589D01*
X124072068Y-64526842D01*
X124015000Y-64813740D01*
X124015000Y-65106260D01*
X124072068Y-65393158D01*
X124184010Y-65663411D01*
X124346525Y-65906632D01*
X124478380Y-66038487D01*
X124405820Y-66060498D01*
X124295506Y-66119463D01*
X124198815Y-66198815D01*
X124119463Y-66295506D01*
X124060498Y-66405820D01*
X124024188Y-66525518D01*
X124011928Y-66650000D01*
X122160000Y-66650000D01*
X122160000Y-59523110D01*
X124058524Y-59523110D01*
X124179845Y-59753000D01*
X125373000Y-59753000D01*
X125373000Y-58559186D01*
X125627000Y-58559186D01*
X125627000Y-59753000D01*
X126820155Y-59753000D01*
X126941476Y-59523110D01*
X126896825Y-59375901D01*
X126771641Y-59113080D01*
X126597588Y-58879731D01*
X126381355Y-58684822D01*
X126131252Y-58535843D01*
X125856891Y-58438519D01*
X125627000Y-58559186D01*
X125373000Y-58559186D01*
X125143109Y-58438519D01*
X124868748Y-58535843D01*
X124618645Y-58684822D01*
X124402412Y-58879731D01*
X124228359Y-59113080D01*
X124103175Y-59375901D01*
X124058524Y-59523110D01*
X122160000Y-59523110D01*
X122160000Y-54160000D01*
X161840000Y-54160000D01*
X161840001Y-142340000D01*
M02*
