G04 #@! TF.GenerationSoftware,KiCad,Pcbnew,(5.1.5)-3*
G04 #@! TF.CreationDate,2021-02-05T17:28:24+00:00*
G04 #@! TF.ProjectId,clock_dist,636c6f63-6b5f-4646-9973-742e6b696361,rev?*
G04 #@! TF.SameCoordinates,Original*
G04 #@! TF.FileFunction,Copper,L1,Top*
G04 #@! TF.FilePolarity,Positive*
%FSLAX46Y46*%
G04 Gerber Fmt 4.6, Leading zero omitted, Abs format (unit mm)*
G04 Created by KiCad (PCBNEW (5.1.5)-3) date 2021-02-05 17:28:24*
%MOMM*%
%LPD*%
G04 APERTURE LIST*
%ADD10R,1.200000X0.750000*%
%ADD11O,1.700000X1.700000*%
%ADD12R,1.700000X1.700000*%
%ADD13R,5.000000X1.500000*%
%ADD14R,1.500000X0.508000*%
%ADD15R,2.000000X0.508000*%
%ADD16R,0.900000X1.200000*%
%ADD17C,0.600000*%
%ADD18R,0.460000X0.949999*%
%ADD19R,1.500000X5.000000*%
%ADD20C,1.000000*%
%ADD21C,0.800000*%
%ADD22C,1.200000*%
%ADD23C,1.000000*%
%ADD24C,0.800000*%
%ADD25C,0.500000*%
%ADD26C,0.150000*%
G04 APERTURE END LIST*
D10*
X141050000Y-92000000D03*
X142950000Y-92000000D03*
D11*
X125500000Y-59880000D03*
X125500000Y-62420000D03*
X125500000Y-64960000D03*
D12*
X125500000Y-67500000D03*
D13*
X124000000Y-98730000D03*
X124000000Y-101130000D03*
X124000000Y-96330000D03*
X160000000Y-139400000D03*
X160000000Y-134600000D03*
X160000000Y-137000000D03*
X160000000Y-102400000D03*
X160000000Y-97600000D03*
X160000000Y-100000000D03*
X160000000Y-62400000D03*
X160000000Y-57600000D03*
X160000000Y-60000000D03*
D14*
X143048000Y-101270000D03*
D15*
X143048000Y-96190000D03*
X143048000Y-97460000D03*
X143048000Y-98730000D03*
X143048000Y-100000000D03*
X143048000Y-102540000D03*
X143048000Y-103810000D03*
X136698000Y-103810000D03*
X136698000Y-102540000D03*
X136698000Y-101270000D03*
X136698000Y-100000000D03*
X136698000Y-98730000D03*
X136698000Y-97460000D03*
X136698000Y-96190000D03*
D16*
X132000000Y-98900000D03*
X132000000Y-101100000D03*
X130000000Y-96400000D03*
X130000000Y-98600000D03*
G04 #@! TA.AperFunction,SMDPad,CuDef*
D17*
G36*
X143285779Y-73026144D02*
G01*
X143308834Y-73029563D01*
X143331443Y-73035227D01*
X143353387Y-73043079D01*
X143374457Y-73053044D01*
X143394448Y-73065026D01*
X143413168Y-73078910D01*
X143430438Y-73094562D01*
X143446090Y-73111832D01*
X143459974Y-73130552D01*
X143471956Y-73150543D01*
X143481921Y-73171613D01*
X143489773Y-73193557D01*
X143495437Y-73216166D01*
X143498856Y-73239221D01*
X143500000Y-73262500D01*
X143500000Y-73737500D01*
X143498856Y-73760779D01*
X143495437Y-73783834D01*
X143489773Y-73806443D01*
X143481921Y-73828387D01*
X143471956Y-73849457D01*
X143459974Y-73869448D01*
X143446090Y-73888168D01*
X143430438Y-73905438D01*
X143413168Y-73921090D01*
X143394448Y-73934974D01*
X143374457Y-73946956D01*
X143353387Y-73956921D01*
X143331443Y-73964773D01*
X143308834Y-73970437D01*
X143285779Y-73973856D01*
X143262500Y-73975000D01*
X142687500Y-73975000D01*
X142664221Y-73973856D01*
X142641166Y-73970437D01*
X142618557Y-73964773D01*
X142596613Y-73956921D01*
X142575543Y-73946956D01*
X142555552Y-73934974D01*
X142536832Y-73921090D01*
X142519562Y-73905438D01*
X142503910Y-73888168D01*
X142490026Y-73869448D01*
X142478044Y-73849457D01*
X142468079Y-73828387D01*
X142460227Y-73806443D01*
X142454563Y-73783834D01*
X142451144Y-73760779D01*
X142450000Y-73737500D01*
X142450000Y-73262500D01*
X142451144Y-73239221D01*
X142454563Y-73216166D01*
X142460227Y-73193557D01*
X142468079Y-73171613D01*
X142478044Y-73150543D01*
X142490026Y-73130552D01*
X142503910Y-73111832D01*
X142519562Y-73094562D01*
X142536832Y-73078910D01*
X142555552Y-73065026D01*
X142575543Y-73053044D01*
X142596613Y-73043079D01*
X142618557Y-73035227D01*
X142641166Y-73029563D01*
X142664221Y-73026144D01*
X142687500Y-73025000D01*
X143262500Y-73025000D01*
X143285779Y-73026144D01*
G37*
G04 #@! TD.AperFunction*
G04 #@! TA.AperFunction,SMDPad,CuDef*
G36*
X141535779Y-73026144D02*
G01*
X141558834Y-73029563D01*
X141581443Y-73035227D01*
X141603387Y-73043079D01*
X141624457Y-73053044D01*
X141644448Y-73065026D01*
X141663168Y-73078910D01*
X141680438Y-73094562D01*
X141696090Y-73111832D01*
X141709974Y-73130552D01*
X141721956Y-73150543D01*
X141731921Y-73171613D01*
X141739773Y-73193557D01*
X141745437Y-73216166D01*
X141748856Y-73239221D01*
X141750000Y-73262500D01*
X141750000Y-73737500D01*
X141748856Y-73760779D01*
X141745437Y-73783834D01*
X141739773Y-73806443D01*
X141731921Y-73828387D01*
X141721956Y-73849457D01*
X141709974Y-73869448D01*
X141696090Y-73888168D01*
X141680438Y-73905438D01*
X141663168Y-73921090D01*
X141644448Y-73934974D01*
X141624457Y-73946956D01*
X141603387Y-73956921D01*
X141581443Y-73964773D01*
X141558834Y-73970437D01*
X141535779Y-73973856D01*
X141512500Y-73975000D01*
X140937500Y-73975000D01*
X140914221Y-73973856D01*
X140891166Y-73970437D01*
X140868557Y-73964773D01*
X140846613Y-73956921D01*
X140825543Y-73946956D01*
X140805552Y-73934974D01*
X140786832Y-73921090D01*
X140769562Y-73905438D01*
X140753910Y-73888168D01*
X140740026Y-73869448D01*
X140728044Y-73849457D01*
X140718079Y-73828387D01*
X140710227Y-73806443D01*
X140704563Y-73783834D01*
X140701144Y-73760779D01*
X140700000Y-73737500D01*
X140700000Y-73262500D01*
X140701144Y-73239221D01*
X140704563Y-73216166D01*
X140710227Y-73193557D01*
X140718079Y-73171613D01*
X140728044Y-73150543D01*
X140740026Y-73130552D01*
X140753910Y-73111832D01*
X140769562Y-73094562D01*
X140786832Y-73078910D01*
X140805552Y-73065026D01*
X140825543Y-73053044D01*
X140846613Y-73043079D01*
X140868557Y-73035227D01*
X140891166Y-73029563D01*
X140914221Y-73026144D01*
X140937500Y-73025000D01*
X141512500Y-73025000D01*
X141535779Y-73026144D01*
G37*
G04 #@! TD.AperFunction*
G04 #@! TA.AperFunction,SMDPad,CuDef*
G36*
X141560779Y-85126144D02*
G01*
X141583834Y-85129563D01*
X141606443Y-85135227D01*
X141628387Y-85143079D01*
X141649457Y-85153044D01*
X141669448Y-85165026D01*
X141688168Y-85178910D01*
X141705438Y-85194562D01*
X141721090Y-85211832D01*
X141734974Y-85230552D01*
X141746956Y-85250543D01*
X141756921Y-85271613D01*
X141764773Y-85293557D01*
X141770437Y-85316166D01*
X141773856Y-85339221D01*
X141775000Y-85362500D01*
X141775000Y-85837500D01*
X141773856Y-85860779D01*
X141770437Y-85883834D01*
X141764773Y-85906443D01*
X141756921Y-85928387D01*
X141746956Y-85949457D01*
X141734974Y-85969448D01*
X141721090Y-85988168D01*
X141705438Y-86005438D01*
X141688168Y-86021090D01*
X141669448Y-86034974D01*
X141649457Y-86046956D01*
X141628387Y-86056921D01*
X141606443Y-86064773D01*
X141583834Y-86070437D01*
X141560779Y-86073856D01*
X141537500Y-86075000D01*
X140962500Y-86075000D01*
X140939221Y-86073856D01*
X140916166Y-86070437D01*
X140893557Y-86064773D01*
X140871613Y-86056921D01*
X140850543Y-86046956D01*
X140830552Y-86034974D01*
X140811832Y-86021090D01*
X140794562Y-86005438D01*
X140778910Y-85988168D01*
X140765026Y-85969448D01*
X140753044Y-85949457D01*
X140743079Y-85928387D01*
X140735227Y-85906443D01*
X140729563Y-85883834D01*
X140726144Y-85860779D01*
X140725000Y-85837500D01*
X140725000Y-85362500D01*
X140726144Y-85339221D01*
X140729563Y-85316166D01*
X140735227Y-85293557D01*
X140743079Y-85271613D01*
X140753044Y-85250543D01*
X140765026Y-85230552D01*
X140778910Y-85211832D01*
X140794562Y-85194562D01*
X140811832Y-85178910D01*
X140830552Y-85165026D01*
X140850543Y-85153044D01*
X140871613Y-85143079D01*
X140893557Y-85135227D01*
X140916166Y-85129563D01*
X140939221Y-85126144D01*
X140962500Y-85125000D01*
X141537500Y-85125000D01*
X141560779Y-85126144D01*
G37*
G04 #@! TD.AperFunction*
G04 #@! TA.AperFunction,SMDPad,CuDef*
G36*
X143310779Y-85126144D02*
G01*
X143333834Y-85129563D01*
X143356443Y-85135227D01*
X143378387Y-85143079D01*
X143399457Y-85153044D01*
X143419448Y-85165026D01*
X143438168Y-85178910D01*
X143455438Y-85194562D01*
X143471090Y-85211832D01*
X143484974Y-85230552D01*
X143496956Y-85250543D01*
X143506921Y-85271613D01*
X143514773Y-85293557D01*
X143520437Y-85316166D01*
X143523856Y-85339221D01*
X143525000Y-85362500D01*
X143525000Y-85837500D01*
X143523856Y-85860779D01*
X143520437Y-85883834D01*
X143514773Y-85906443D01*
X143506921Y-85928387D01*
X143496956Y-85949457D01*
X143484974Y-85969448D01*
X143471090Y-85988168D01*
X143455438Y-86005438D01*
X143438168Y-86021090D01*
X143419448Y-86034974D01*
X143399457Y-86046956D01*
X143378387Y-86056921D01*
X143356443Y-86064773D01*
X143333834Y-86070437D01*
X143310779Y-86073856D01*
X143287500Y-86075000D01*
X142712500Y-86075000D01*
X142689221Y-86073856D01*
X142666166Y-86070437D01*
X142643557Y-86064773D01*
X142621613Y-86056921D01*
X142600543Y-86046956D01*
X142580552Y-86034974D01*
X142561832Y-86021090D01*
X142544562Y-86005438D01*
X142528910Y-85988168D01*
X142515026Y-85969448D01*
X142503044Y-85949457D01*
X142493079Y-85928387D01*
X142485227Y-85906443D01*
X142479563Y-85883834D01*
X142476144Y-85860779D01*
X142475000Y-85837500D01*
X142475000Y-85362500D01*
X142476144Y-85339221D01*
X142479563Y-85316166D01*
X142485227Y-85293557D01*
X142493079Y-85271613D01*
X142503044Y-85250543D01*
X142515026Y-85230552D01*
X142528910Y-85211832D01*
X142544562Y-85194562D01*
X142561832Y-85178910D01*
X142580552Y-85165026D01*
X142600543Y-85153044D01*
X142621613Y-85143079D01*
X142643557Y-85135227D01*
X142666166Y-85129563D01*
X142689221Y-85126144D01*
X142712500Y-85125000D01*
X143287500Y-85125000D01*
X143310779Y-85126144D01*
G37*
G04 #@! TD.AperFunction*
G04 #@! TA.AperFunction,SMDPad,CuDef*
G36*
X138160779Y-84826144D02*
G01*
X138183834Y-84829563D01*
X138206443Y-84835227D01*
X138228387Y-84843079D01*
X138249457Y-84853044D01*
X138269448Y-84865026D01*
X138288168Y-84878910D01*
X138305438Y-84894562D01*
X138321090Y-84911832D01*
X138334974Y-84930552D01*
X138346956Y-84950543D01*
X138356921Y-84971613D01*
X138364773Y-84993557D01*
X138370437Y-85016166D01*
X138373856Y-85039221D01*
X138375000Y-85062500D01*
X138375000Y-85637500D01*
X138373856Y-85660779D01*
X138370437Y-85683834D01*
X138364773Y-85706443D01*
X138356921Y-85728387D01*
X138346956Y-85749457D01*
X138334974Y-85769448D01*
X138321090Y-85788168D01*
X138305438Y-85805438D01*
X138288168Y-85821090D01*
X138269448Y-85834974D01*
X138249457Y-85846956D01*
X138228387Y-85856921D01*
X138206443Y-85864773D01*
X138183834Y-85870437D01*
X138160779Y-85873856D01*
X138137500Y-85875000D01*
X137662500Y-85875000D01*
X137639221Y-85873856D01*
X137616166Y-85870437D01*
X137593557Y-85864773D01*
X137571613Y-85856921D01*
X137550543Y-85846956D01*
X137530552Y-85834974D01*
X137511832Y-85821090D01*
X137494562Y-85805438D01*
X137478910Y-85788168D01*
X137465026Y-85769448D01*
X137453044Y-85749457D01*
X137443079Y-85728387D01*
X137435227Y-85706443D01*
X137429563Y-85683834D01*
X137426144Y-85660779D01*
X137425000Y-85637500D01*
X137425000Y-85062500D01*
X137426144Y-85039221D01*
X137429563Y-85016166D01*
X137435227Y-84993557D01*
X137443079Y-84971613D01*
X137453044Y-84950543D01*
X137465026Y-84930552D01*
X137478910Y-84911832D01*
X137494562Y-84894562D01*
X137511832Y-84878910D01*
X137530552Y-84865026D01*
X137550543Y-84853044D01*
X137571613Y-84843079D01*
X137593557Y-84835227D01*
X137616166Y-84829563D01*
X137639221Y-84826144D01*
X137662500Y-84825000D01*
X138137500Y-84825000D01*
X138160779Y-84826144D01*
G37*
G04 #@! TD.AperFunction*
G04 #@! TA.AperFunction,SMDPad,CuDef*
G36*
X138160779Y-83076144D02*
G01*
X138183834Y-83079563D01*
X138206443Y-83085227D01*
X138228387Y-83093079D01*
X138249457Y-83103044D01*
X138269448Y-83115026D01*
X138288168Y-83128910D01*
X138305438Y-83144562D01*
X138321090Y-83161832D01*
X138334974Y-83180552D01*
X138346956Y-83200543D01*
X138356921Y-83221613D01*
X138364773Y-83243557D01*
X138370437Y-83266166D01*
X138373856Y-83289221D01*
X138375000Y-83312500D01*
X138375000Y-83887500D01*
X138373856Y-83910779D01*
X138370437Y-83933834D01*
X138364773Y-83956443D01*
X138356921Y-83978387D01*
X138346956Y-83999457D01*
X138334974Y-84019448D01*
X138321090Y-84038168D01*
X138305438Y-84055438D01*
X138288168Y-84071090D01*
X138269448Y-84084974D01*
X138249457Y-84096956D01*
X138228387Y-84106921D01*
X138206443Y-84114773D01*
X138183834Y-84120437D01*
X138160779Y-84123856D01*
X138137500Y-84125000D01*
X137662500Y-84125000D01*
X137639221Y-84123856D01*
X137616166Y-84120437D01*
X137593557Y-84114773D01*
X137571613Y-84106921D01*
X137550543Y-84096956D01*
X137530552Y-84084974D01*
X137511832Y-84071090D01*
X137494562Y-84055438D01*
X137478910Y-84038168D01*
X137465026Y-84019448D01*
X137453044Y-83999457D01*
X137443079Y-83978387D01*
X137435227Y-83956443D01*
X137429563Y-83933834D01*
X137426144Y-83910779D01*
X137425000Y-83887500D01*
X137425000Y-83312500D01*
X137426144Y-83289221D01*
X137429563Y-83266166D01*
X137435227Y-83243557D01*
X137443079Y-83221613D01*
X137453044Y-83200543D01*
X137465026Y-83180552D01*
X137478910Y-83161832D01*
X137494562Y-83144562D01*
X137511832Y-83128910D01*
X137530552Y-83115026D01*
X137550543Y-83103044D01*
X137571613Y-83093079D01*
X137593557Y-83085227D01*
X137616166Y-83079563D01*
X137639221Y-83076144D01*
X137662500Y-83075000D01*
X138137500Y-83075000D01*
X138160779Y-83076144D01*
G37*
G04 #@! TD.AperFunction*
G04 #@! TA.AperFunction,SMDPad,CuDef*
G36*
X143285779Y-82926144D02*
G01*
X143308834Y-82929563D01*
X143331443Y-82935227D01*
X143353387Y-82943079D01*
X143374457Y-82953044D01*
X143394448Y-82965026D01*
X143413168Y-82978910D01*
X143430438Y-82994562D01*
X143446090Y-83011832D01*
X143459974Y-83030552D01*
X143471956Y-83050543D01*
X143481921Y-83071613D01*
X143489773Y-83093557D01*
X143495437Y-83116166D01*
X143498856Y-83139221D01*
X143500000Y-83162500D01*
X143500000Y-83637500D01*
X143498856Y-83660779D01*
X143495437Y-83683834D01*
X143489773Y-83706443D01*
X143481921Y-83728387D01*
X143471956Y-83749457D01*
X143459974Y-83769448D01*
X143446090Y-83788168D01*
X143430438Y-83805438D01*
X143413168Y-83821090D01*
X143394448Y-83834974D01*
X143374457Y-83846956D01*
X143353387Y-83856921D01*
X143331443Y-83864773D01*
X143308834Y-83870437D01*
X143285779Y-83873856D01*
X143262500Y-83875000D01*
X142687500Y-83875000D01*
X142664221Y-83873856D01*
X142641166Y-83870437D01*
X142618557Y-83864773D01*
X142596613Y-83856921D01*
X142575543Y-83846956D01*
X142555552Y-83834974D01*
X142536832Y-83821090D01*
X142519562Y-83805438D01*
X142503910Y-83788168D01*
X142490026Y-83769448D01*
X142478044Y-83749457D01*
X142468079Y-83728387D01*
X142460227Y-83706443D01*
X142454563Y-83683834D01*
X142451144Y-83660779D01*
X142450000Y-83637500D01*
X142450000Y-83162500D01*
X142451144Y-83139221D01*
X142454563Y-83116166D01*
X142460227Y-83093557D01*
X142468079Y-83071613D01*
X142478044Y-83050543D01*
X142490026Y-83030552D01*
X142503910Y-83011832D01*
X142519562Y-82994562D01*
X142536832Y-82978910D01*
X142555552Y-82965026D01*
X142575543Y-82953044D01*
X142596613Y-82943079D01*
X142618557Y-82935227D01*
X142641166Y-82929563D01*
X142664221Y-82926144D01*
X142687500Y-82925000D01*
X143262500Y-82925000D01*
X143285779Y-82926144D01*
G37*
G04 #@! TD.AperFunction*
G04 #@! TA.AperFunction,SMDPad,CuDef*
G36*
X141535779Y-82926144D02*
G01*
X141558834Y-82929563D01*
X141581443Y-82935227D01*
X141603387Y-82943079D01*
X141624457Y-82953044D01*
X141644448Y-82965026D01*
X141663168Y-82978910D01*
X141680438Y-82994562D01*
X141696090Y-83011832D01*
X141709974Y-83030552D01*
X141721956Y-83050543D01*
X141731921Y-83071613D01*
X141739773Y-83093557D01*
X141745437Y-83116166D01*
X141748856Y-83139221D01*
X141750000Y-83162500D01*
X141750000Y-83637500D01*
X141748856Y-83660779D01*
X141745437Y-83683834D01*
X141739773Y-83706443D01*
X141731921Y-83728387D01*
X141721956Y-83749457D01*
X141709974Y-83769448D01*
X141696090Y-83788168D01*
X141680438Y-83805438D01*
X141663168Y-83821090D01*
X141644448Y-83834974D01*
X141624457Y-83846956D01*
X141603387Y-83856921D01*
X141581443Y-83864773D01*
X141558834Y-83870437D01*
X141535779Y-83873856D01*
X141512500Y-83875000D01*
X140937500Y-83875000D01*
X140914221Y-83873856D01*
X140891166Y-83870437D01*
X140868557Y-83864773D01*
X140846613Y-83856921D01*
X140825543Y-83846956D01*
X140805552Y-83834974D01*
X140786832Y-83821090D01*
X140769562Y-83805438D01*
X140753910Y-83788168D01*
X140740026Y-83769448D01*
X140728044Y-83749457D01*
X140718079Y-83728387D01*
X140710227Y-83706443D01*
X140704563Y-83683834D01*
X140701144Y-83660779D01*
X140700000Y-83637500D01*
X140700000Y-83162500D01*
X140701144Y-83139221D01*
X140704563Y-83116166D01*
X140710227Y-83093557D01*
X140718079Y-83071613D01*
X140728044Y-83050543D01*
X140740026Y-83030552D01*
X140753910Y-83011832D01*
X140769562Y-82994562D01*
X140786832Y-82978910D01*
X140805552Y-82965026D01*
X140825543Y-82953044D01*
X140846613Y-82943079D01*
X140868557Y-82935227D01*
X140891166Y-82929563D01*
X140914221Y-82926144D01*
X140937500Y-82925000D01*
X141512500Y-82925000D01*
X141535779Y-82926144D01*
G37*
G04 #@! TD.AperFunction*
D18*
X143050001Y-76525001D03*
X142100000Y-76525001D03*
X141149999Y-76525001D03*
X141149999Y-79074999D03*
X143050001Y-79074999D03*
D19*
X136500000Y-140400000D03*
X134100000Y-140400000D03*
X138900000Y-140400000D03*
D13*
X124100000Y-81800000D03*
X124100000Y-79400000D03*
X124100000Y-84200000D03*
D20*
X161000000Y-65000000D03*
X161000000Y-55000000D03*
X158500000Y-55000000D03*
X123500000Y-55000000D03*
X127000000Y-55000000D03*
X123500000Y-71500000D03*
X127000000Y-71500000D03*
X134000000Y-56000000D03*
X143000000Y-56000000D03*
X123000000Y-92500000D03*
X125500000Y-92500000D03*
X161000000Y-141500000D03*
X125500000Y-105000000D03*
X158500000Y-95000000D03*
X161000000Y-105000000D03*
X158500000Y-105000000D03*
X161000000Y-95000000D03*
X161000000Y-132000000D03*
X158000000Y-132000000D03*
X158000000Y-141500000D03*
X138800000Y-92000000D03*
X132000000Y-103200000D03*
X130000000Y-94000000D03*
X136500000Y-106000000D03*
X158000000Y-65000000D03*
X139200000Y-73500000D03*
X138700000Y-75100000D03*
X138000000Y-86900000D03*
X141200000Y-87100000D03*
D21*
X131500000Y-142000000D03*
X131500000Y-139400000D03*
X141000000Y-139400000D03*
X141000000Y-142000000D03*
X123724999Y-57700000D03*
X123724999Y-74200000D03*
X123724999Y-86300000D03*
X123724999Y-102800000D03*
X123724999Y-107200000D03*
X123724999Y-111600000D03*
X123724999Y-116000000D03*
X123724999Y-120400000D03*
X123724999Y-124800000D03*
X123724999Y-129200000D03*
X123724999Y-133600000D03*
X123724999Y-138000000D03*
X128124999Y-57700000D03*
X128124999Y-67600000D03*
X128124999Y-74200000D03*
X128124999Y-78600000D03*
X128124999Y-84100000D03*
X128124999Y-88500000D03*
X128124999Y-96200000D03*
X128124999Y-100600000D03*
X128124999Y-105000000D03*
X128124999Y-109400000D03*
X128124999Y-113800000D03*
X128124999Y-118200000D03*
X128124999Y-122600000D03*
X128124999Y-127000000D03*
X128124999Y-131400000D03*
X128124999Y-135800000D03*
X128124999Y-140200000D03*
X132524999Y-58800000D03*
X132524999Y-67600000D03*
X132524999Y-72000000D03*
X132524999Y-76400000D03*
X132524999Y-80800000D03*
X132524999Y-106100000D03*
X132524999Y-110500000D03*
X132524999Y-114900000D03*
X132524999Y-119300000D03*
X132524999Y-123700000D03*
X132524999Y-128100000D03*
X132524999Y-132500000D03*
X132524999Y-136900000D03*
X133624999Y-100600000D03*
X134724999Y-85200000D03*
X134724999Y-89600000D03*
X134724999Y-94000000D03*
X136924999Y-55500000D03*
X136924999Y-59900000D03*
X136924999Y-67600000D03*
X136924999Y-72000000D03*
X136924999Y-77500000D03*
X136924999Y-108300000D03*
X136924999Y-112700000D03*
X136924999Y-117100000D03*
X138024999Y-121500000D03*
X138024999Y-125900000D03*
X138024999Y-130300000D03*
X138024999Y-134700000D03*
X139124999Y-81900000D03*
X139124999Y-89600000D03*
X139124999Y-94000000D03*
X139124999Y-103900000D03*
X141324999Y-58800000D03*
X141324999Y-67600000D03*
X141324999Y-72000000D03*
X141324999Y-108300000D03*
X141324999Y-112700000D03*
X141324999Y-117100000D03*
X142424999Y-121500000D03*
X142424999Y-125900000D03*
X142424999Y-130300000D03*
X142424999Y-134700000D03*
X143524999Y-63200000D03*
X143524999Y-139100000D03*
X144624999Y-76400000D03*
X144624999Y-80800000D03*
X144624999Y-85200000D03*
X144624999Y-89600000D03*
X144624999Y-94000000D03*
X145724999Y-55500000D03*
X145724999Y-67600000D03*
X145724999Y-72000000D03*
X145724999Y-106100000D03*
X145724999Y-110500000D03*
X145724999Y-114900000D03*
X146824999Y-119300000D03*
X146824999Y-123700000D03*
X146824999Y-128100000D03*
X146824999Y-132500000D03*
X147924999Y-59900000D03*
X147924999Y-136900000D03*
X147924999Y-141300000D03*
X149024999Y-76400000D03*
X149024999Y-80800000D03*
X149024999Y-85200000D03*
X149024999Y-89600000D03*
X150124999Y-55500000D03*
X150124999Y-102800000D03*
X151224999Y-98400000D03*
X152324999Y-65400000D03*
X152324999Y-69800000D03*
X152324999Y-94000000D03*
X152324999Y-138000000D03*
X153424999Y-74200000D03*
X153424999Y-78600000D03*
X153424999Y-83000000D03*
X153424999Y-87400000D03*
X153424999Y-107200000D03*
X153424999Y-111600000D03*
X153424999Y-116000000D03*
X153424999Y-120400000D03*
X153424999Y-124800000D03*
X153424999Y-129200000D03*
X154524999Y-55500000D03*
X154524999Y-102800000D03*
X154524999Y-133600000D03*
X155624999Y-98400000D03*
X156724999Y-67600000D03*
X156724999Y-91800000D03*
X157824999Y-72000000D03*
X157824999Y-76400000D03*
X157824999Y-80800000D03*
X157824999Y-85200000D03*
X157824999Y-107200000D03*
X157824999Y-111600000D03*
X157824999Y-116000000D03*
X157824999Y-120400000D03*
X157824999Y-124800000D03*
X157824999Y-129200000D03*
D17*
X141600000Y-75100000D02*
X139500000Y-75100000D01*
X141225000Y-73500000D02*
X139200000Y-73500000D01*
X142100000Y-75450002D02*
X141749998Y-75100000D01*
X141749998Y-75100000D02*
X141600000Y-75100000D01*
X142100000Y-76525001D02*
X142100000Y-75450002D01*
D22*
X142950000Y-66074998D02*
X142950000Y-69950000D01*
X141075001Y-64199999D02*
X142950000Y-66074998D01*
X138525001Y-64199999D02*
X141075001Y-64199999D01*
D23*
X142950000Y-73475000D02*
X142975000Y-73500000D01*
X142950000Y-69950000D02*
X142950000Y-73475000D01*
X142975000Y-73500000D02*
X142975000Y-74000000D01*
D17*
X143050001Y-76525001D02*
X143050001Y-74000000D01*
X141149999Y-77549999D02*
X141149999Y-76525001D01*
X142700000Y-77800000D02*
X141400000Y-77800000D01*
X141400000Y-77800000D02*
X141149999Y-77549999D01*
X143050001Y-76525001D02*
X143050001Y-77449999D01*
X143050001Y-77449999D02*
X142700000Y-77800000D01*
D23*
X135500000Y-98730000D02*
X124000000Y-98730000D01*
D17*
X136698000Y-98730000D02*
X135500000Y-98730000D01*
X143048000Y-103810000D02*
X144500000Y-103810000D01*
D23*
X147000000Y-103810000D02*
X144500000Y-103810000D01*
X151500000Y-134000000D02*
X151500000Y-108310000D01*
X151500000Y-108310000D02*
X147000000Y-103810000D01*
X160000000Y-137000000D02*
X154500000Y-137000000D01*
X154500000Y-137000000D02*
X151500000Y-134000000D01*
D17*
X143048000Y-101270000D02*
X144500000Y-101270000D01*
D23*
X150500000Y-100000000D02*
X160000000Y-100000000D01*
X144500000Y-101270000D02*
X149230000Y-101270000D01*
X149230000Y-101270000D02*
X150500000Y-100000000D01*
X144500000Y-98730000D02*
X147000000Y-98730000D01*
D17*
X143048000Y-98730000D02*
X144500000Y-98730000D01*
D23*
X160000000Y-60000000D02*
X154000000Y-60000000D01*
X154000000Y-60000000D02*
X150500000Y-63500000D01*
X150500000Y-95230000D02*
X147000000Y-98730000D01*
X150500000Y-63500000D02*
X150500000Y-95230000D01*
D17*
X143048000Y-92098000D02*
X142950000Y-92000000D01*
X143048000Y-96190000D02*
X143048000Y-92098000D01*
D22*
X142975000Y-85575000D02*
X143000000Y-85600000D01*
X142975000Y-83400000D02*
X142975000Y-85575000D01*
X143000000Y-91950000D02*
X142950000Y-92000000D01*
X143000000Y-85600000D02*
X143000000Y-91950000D01*
X142975000Y-81125000D02*
X143050001Y-81049999D01*
D17*
X143050001Y-79074999D02*
X143050001Y-81049999D01*
D22*
X142975000Y-83400000D02*
X142975000Y-81125000D01*
D17*
X143050001Y-81049999D02*
X143050001Y-83149999D01*
X141225000Y-79150000D02*
X141149999Y-79074999D01*
D23*
X138100000Y-83400000D02*
X137900000Y-83600000D01*
X141225000Y-83400000D02*
X138100000Y-83400000D01*
X141225000Y-82925000D02*
X141200000Y-82900000D01*
X141225000Y-83400000D02*
X141225000Y-82925000D01*
X141200000Y-82900000D02*
X141200000Y-80700000D01*
D24*
X141149999Y-80649999D02*
X141200000Y-80700000D01*
X141149999Y-79074999D02*
X141149999Y-80649999D01*
D23*
X134000000Y-103000000D02*
X134000000Y-118197070D01*
D17*
X134460000Y-102540000D02*
X134000000Y-103000000D01*
X136698000Y-102540000D02*
X134460000Y-102540000D01*
D23*
X136500000Y-140400000D02*
X136500000Y-120600000D01*
X134000000Y-118197070D02*
X136500000Y-120600000D01*
X136500000Y-120600000D02*
X136500000Y-120697070D01*
D17*
X135098000Y-97460000D02*
X133300000Y-95662000D01*
X136698000Y-97460000D02*
X135098000Y-97460000D01*
D23*
X128800000Y-81800000D02*
X133300000Y-86300000D01*
X124100000Y-81800000D02*
X128800000Y-81800000D01*
X133300000Y-95662000D02*
X133300000Y-86300000D01*
D17*
X136698000Y-100000000D02*
X137869500Y-100000000D01*
X139500000Y-98500000D02*
X139500000Y-100000000D01*
X137869500Y-100000000D02*
X139500000Y-100000000D01*
X139500000Y-100000000D02*
X143048000Y-100000000D01*
X143048000Y-102540000D02*
X140540000Y-102540000D01*
X139500000Y-101500000D02*
X139500000Y-100000000D01*
X140540000Y-102540000D02*
X139500000Y-101500000D01*
X136698000Y-96190000D02*
X138298000Y-96190000D01*
X139500000Y-97392000D02*
X138298000Y-96190000D01*
X139500000Y-98500000D02*
X139500000Y-97392000D01*
X139568000Y-97460000D02*
X139500000Y-97392000D01*
X143048000Y-97460000D02*
X139568000Y-97460000D01*
X139500000Y-101200000D02*
X139500000Y-101500000D01*
X139430000Y-101270000D02*
X139500000Y-101200000D01*
X136698000Y-101270000D02*
X139430000Y-101270000D01*
D25*
G36*
X139755128Y-103251366D02*
G01*
X139788261Y-103291739D01*
X139949363Y-103423951D01*
X140133162Y-103522194D01*
X140272098Y-103564339D01*
X140332595Y-103582691D01*
X140539999Y-103603119D01*
X140591972Y-103598000D01*
X141286333Y-103598000D01*
X141286333Y-104064000D01*
X141300968Y-104212594D01*
X141344311Y-104355477D01*
X141414697Y-104487160D01*
X141509420Y-104602580D01*
X141624840Y-104697303D01*
X141756523Y-104767689D01*
X141899406Y-104811032D01*
X142048000Y-104825667D01*
X142751509Y-104825667D01*
X142840596Y-104852691D01*
X142996027Y-104868000D01*
X143810715Y-104868000D01*
X144016255Y-104977863D01*
X144253389Y-105049797D01*
X144438208Y-105068000D01*
X146478921Y-105068000D01*
X150242001Y-108831081D01*
X150242000Y-133938208D01*
X150235914Y-134000000D01*
X150242000Y-134061791D01*
X150260203Y-134246610D01*
X150332137Y-134483744D01*
X150448951Y-134702288D01*
X150606156Y-134893844D01*
X150654164Y-134933243D01*
X153566765Y-137845846D01*
X153606156Y-137893844D01*
X153654153Y-137933234D01*
X153797711Y-138051049D01*
X154016255Y-138167863D01*
X154253389Y-138239797D01*
X154500000Y-138264086D01*
X154561792Y-138258000D01*
X156850041Y-138258000D01*
X156796311Y-138358522D01*
X156752967Y-138501406D01*
X156738332Y-138650000D01*
X156742000Y-139206500D01*
X156931500Y-139396000D01*
X159996000Y-139396000D01*
X159996000Y-139376000D01*
X160004000Y-139376000D01*
X160004000Y-139396000D01*
X160024000Y-139396000D01*
X160024000Y-139404000D01*
X160004000Y-139404000D01*
X160004000Y-140718500D01*
X160193500Y-140908000D01*
X161717001Y-140910423D01*
X161717001Y-142217000D01*
X140410582Y-142217000D01*
X140408000Y-140593500D01*
X140218500Y-140404000D01*
X138904000Y-140404000D01*
X138904000Y-140424000D01*
X138896000Y-140424000D01*
X138896000Y-140404000D01*
X138876000Y-140404000D01*
X138876000Y-140396000D01*
X138896000Y-140396000D01*
X138896000Y-137331500D01*
X138904000Y-137331500D01*
X138904000Y-140396000D01*
X140218500Y-140396000D01*
X140408000Y-140206500D01*
X140408089Y-140150000D01*
X156738332Y-140150000D01*
X156752967Y-140298594D01*
X156796311Y-140441478D01*
X156866696Y-140573160D01*
X156961419Y-140688581D01*
X157076840Y-140783304D01*
X157208522Y-140853689D01*
X157351406Y-140897033D01*
X157500000Y-140911668D01*
X159806500Y-140908000D01*
X159996000Y-140718500D01*
X159996000Y-139404000D01*
X156931500Y-139404000D01*
X156742000Y-139593500D01*
X156738332Y-140150000D01*
X140408089Y-140150000D01*
X140411668Y-137900000D01*
X140397033Y-137751406D01*
X140353689Y-137608522D01*
X140283304Y-137476840D01*
X140188581Y-137361419D01*
X140073160Y-137266696D01*
X139941478Y-137196311D01*
X139798594Y-137152967D01*
X139650000Y-137138332D01*
X139093500Y-137142000D01*
X138904000Y-137331500D01*
X138896000Y-137331500D01*
X138706500Y-137142000D01*
X138150000Y-137138332D01*
X138001406Y-137152967D01*
X137858522Y-137196311D01*
X137758000Y-137250041D01*
X137758000Y-120649308D01*
X137763838Y-120574977D01*
X137750723Y-120464319D01*
X137739797Y-120353389D01*
X137736150Y-120341367D01*
X137734672Y-120328896D01*
X137700222Y-120222929D01*
X137667863Y-120116255D01*
X137661941Y-120105175D01*
X137658058Y-120093232D01*
X137603594Y-119996016D01*
X137551049Y-119897711D01*
X137543080Y-119888000D01*
X137536941Y-119877043D01*
X137464554Y-119792317D01*
X137393844Y-119706156D01*
X137336203Y-119658851D01*
X135258000Y-117661341D01*
X135258000Y-104683484D01*
X135274840Y-104697304D01*
X135406522Y-104767689D01*
X135549406Y-104811033D01*
X135698000Y-104825668D01*
X136504500Y-104822000D01*
X136694000Y-104632500D01*
X136694000Y-103814000D01*
X136702000Y-103814000D01*
X136702000Y-104632500D01*
X136891500Y-104822000D01*
X137698000Y-104825668D01*
X137846594Y-104811033D01*
X137989478Y-104767689D01*
X138121160Y-104697304D01*
X138236581Y-104602581D01*
X138331304Y-104487160D01*
X138401689Y-104355478D01*
X138445033Y-104212594D01*
X138459668Y-104064000D01*
X138456000Y-104003500D01*
X138266500Y-103814000D01*
X136702000Y-103814000D01*
X136694000Y-103814000D01*
X136674000Y-103814000D01*
X136674000Y-103806000D01*
X136694000Y-103806000D01*
X136694000Y-103786000D01*
X136702000Y-103786000D01*
X136702000Y-103806000D01*
X138266500Y-103806000D01*
X138456000Y-103616500D01*
X138459668Y-103556000D01*
X138445033Y-103407406D01*
X138401689Y-103264522D01*
X138353838Y-103174999D01*
X138401689Y-103085477D01*
X138445032Y-102942594D01*
X138459667Y-102794000D01*
X138459667Y-102328000D01*
X138831763Y-102328000D01*
X139755128Y-103251366D01*
G37*
X139755128Y-103251366D02*
X139788261Y-103291739D01*
X139949363Y-103423951D01*
X140133162Y-103522194D01*
X140272098Y-103564339D01*
X140332595Y-103582691D01*
X140539999Y-103603119D01*
X140591972Y-103598000D01*
X141286333Y-103598000D01*
X141286333Y-104064000D01*
X141300968Y-104212594D01*
X141344311Y-104355477D01*
X141414697Y-104487160D01*
X141509420Y-104602580D01*
X141624840Y-104697303D01*
X141756523Y-104767689D01*
X141899406Y-104811032D01*
X142048000Y-104825667D01*
X142751509Y-104825667D01*
X142840596Y-104852691D01*
X142996027Y-104868000D01*
X143810715Y-104868000D01*
X144016255Y-104977863D01*
X144253389Y-105049797D01*
X144438208Y-105068000D01*
X146478921Y-105068000D01*
X150242001Y-108831081D01*
X150242000Y-133938208D01*
X150235914Y-134000000D01*
X150242000Y-134061791D01*
X150260203Y-134246610D01*
X150332137Y-134483744D01*
X150448951Y-134702288D01*
X150606156Y-134893844D01*
X150654164Y-134933243D01*
X153566765Y-137845846D01*
X153606156Y-137893844D01*
X153654153Y-137933234D01*
X153797711Y-138051049D01*
X154016255Y-138167863D01*
X154253389Y-138239797D01*
X154500000Y-138264086D01*
X154561792Y-138258000D01*
X156850041Y-138258000D01*
X156796311Y-138358522D01*
X156752967Y-138501406D01*
X156738332Y-138650000D01*
X156742000Y-139206500D01*
X156931500Y-139396000D01*
X159996000Y-139396000D01*
X159996000Y-139376000D01*
X160004000Y-139376000D01*
X160004000Y-139396000D01*
X160024000Y-139396000D01*
X160024000Y-139404000D01*
X160004000Y-139404000D01*
X160004000Y-140718500D01*
X160193500Y-140908000D01*
X161717001Y-140910423D01*
X161717001Y-142217000D01*
X140410582Y-142217000D01*
X140408000Y-140593500D01*
X140218500Y-140404000D01*
X138904000Y-140404000D01*
X138904000Y-140424000D01*
X138896000Y-140424000D01*
X138896000Y-140404000D01*
X138876000Y-140404000D01*
X138876000Y-140396000D01*
X138896000Y-140396000D01*
X138896000Y-137331500D01*
X138904000Y-137331500D01*
X138904000Y-140396000D01*
X140218500Y-140396000D01*
X140408000Y-140206500D01*
X140408089Y-140150000D01*
X156738332Y-140150000D01*
X156752967Y-140298594D01*
X156796311Y-140441478D01*
X156866696Y-140573160D01*
X156961419Y-140688581D01*
X157076840Y-140783304D01*
X157208522Y-140853689D01*
X157351406Y-140897033D01*
X157500000Y-140911668D01*
X159806500Y-140908000D01*
X159996000Y-140718500D01*
X159996000Y-139404000D01*
X156931500Y-139404000D01*
X156742000Y-139593500D01*
X156738332Y-140150000D01*
X140408089Y-140150000D01*
X140411668Y-137900000D01*
X140397033Y-137751406D01*
X140353689Y-137608522D01*
X140283304Y-137476840D01*
X140188581Y-137361419D01*
X140073160Y-137266696D01*
X139941478Y-137196311D01*
X139798594Y-137152967D01*
X139650000Y-137138332D01*
X139093500Y-137142000D01*
X138904000Y-137331500D01*
X138896000Y-137331500D01*
X138706500Y-137142000D01*
X138150000Y-137138332D01*
X138001406Y-137152967D01*
X137858522Y-137196311D01*
X137758000Y-137250041D01*
X137758000Y-120649308D01*
X137763838Y-120574977D01*
X137750723Y-120464319D01*
X137739797Y-120353389D01*
X137736150Y-120341367D01*
X137734672Y-120328896D01*
X137700222Y-120222929D01*
X137667863Y-120116255D01*
X137661941Y-120105175D01*
X137658058Y-120093232D01*
X137603594Y-119996016D01*
X137551049Y-119897711D01*
X137543080Y-119888000D01*
X137536941Y-119877043D01*
X137464554Y-119792317D01*
X137393844Y-119706156D01*
X137336203Y-119658851D01*
X135258000Y-117661341D01*
X135258000Y-104683484D01*
X135274840Y-104697304D01*
X135406522Y-104767689D01*
X135549406Y-104811033D01*
X135698000Y-104825668D01*
X136504500Y-104822000D01*
X136694000Y-104632500D01*
X136694000Y-103814000D01*
X136702000Y-103814000D01*
X136702000Y-104632500D01*
X136891500Y-104822000D01*
X137698000Y-104825668D01*
X137846594Y-104811033D01*
X137989478Y-104767689D01*
X138121160Y-104697304D01*
X138236581Y-104602581D01*
X138331304Y-104487160D01*
X138401689Y-104355478D01*
X138445033Y-104212594D01*
X138459668Y-104064000D01*
X138456000Y-104003500D01*
X138266500Y-103814000D01*
X136702000Y-103814000D01*
X136694000Y-103814000D01*
X136674000Y-103814000D01*
X136674000Y-103806000D01*
X136694000Y-103806000D01*
X136694000Y-103786000D01*
X136702000Y-103786000D01*
X136702000Y-103806000D01*
X138266500Y-103806000D01*
X138456000Y-103616500D01*
X138459668Y-103556000D01*
X138445033Y-103407406D01*
X138401689Y-103264522D01*
X138353838Y-103174999D01*
X138401689Y-103085477D01*
X138445032Y-102942594D01*
X138459667Y-102794000D01*
X138459667Y-102328000D01*
X138831763Y-102328000D01*
X139755128Y-103251366D01*
G36*
X130979757Y-99999999D02*
G01*
X130916696Y-100076840D01*
X130846311Y-100208522D01*
X130802967Y-100351406D01*
X130788332Y-100500000D01*
X130792000Y-100906500D01*
X130981500Y-101096000D01*
X131996000Y-101096000D01*
X131996000Y-101076000D01*
X132004000Y-101076000D01*
X132004000Y-101096000D01*
X133018500Y-101096000D01*
X133208000Y-100906500D01*
X133211668Y-100500000D01*
X133197033Y-100351406D01*
X133153689Y-100208522D01*
X133083304Y-100076840D01*
X133020243Y-99999999D01*
X133030090Y-99988000D01*
X134936333Y-99988000D01*
X134936333Y-100254000D01*
X134950968Y-100402594D01*
X134994311Y-100545477D01*
X135042162Y-100635000D01*
X134994311Y-100724523D01*
X134950968Y-100867406D01*
X134936333Y-101016000D01*
X134936333Y-101482000D01*
X134511972Y-101482000D01*
X134459999Y-101476881D01*
X134252595Y-101497309D01*
X134192098Y-101515661D01*
X134053162Y-101557806D01*
X133869363Y-101656049D01*
X133736036Y-101765467D01*
X133516255Y-101832137D01*
X133297711Y-101948951D01*
X133106156Y-102106156D01*
X132948951Y-102297712D01*
X132832137Y-102516256D01*
X132760203Y-102753390D01*
X132742000Y-102938209D01*
X132742001Y-118147748D01*
X132736162Y-118222091D01*
X132749282Y-118332792D01*
X132760204Y-118443681D01*
X132763850Y-118455699D01*
X132765328Y-118468173D01*
X132799786Y-118574166D01*
X132832138Y-118680815D01*
X132838059Y-118691893D01*
X132841942Y-118703836D01*
X132896405Y-118801050D01*
X132948952Y-118899359D01*
X132956922Y-118909070D01*
X132963059Y-118920025D01*
X133035429Y-119004732D01*
X133106157Y-119090914D01*
X133163805Y-119138224D01*
X135242001Y-121135729D01*
X135242000Y-137250041D01*
X135141478Y-137196311D01*
X134998594Y-137152967D01*
X134850000Y-137138332D01*
X134293500Y-137142000D01*
X134104000Y-137331500D01*
X134104000Y-140396000D01*
X134124000Y-140396000D01*
X134124000Y-140404000D01*
X134104000Y-140404000D01*
X134104000Y-140424000D01*
X134096000Y-140424000D01*
X134096000Y-140404000D01*
X132781500Y-140404000D01*
X132592000Y-140593500D01*
X132589418Y-142217000D01*
X122283000Y-142217000D01*
X122283000Y-137900000D01*
X132588332Y-137900000D01*
X132592000Y-140206500D01*
X132781500Y-140396000D01*
X134096000Y-140396000D01*
X134096000Y-137331500D01*
X133906500Y-137142000D01*
X133350000Y-137138332D01*
X133201406Y-137152967D01*
X133058522Y-137196311D01*
X132926840Y-137266696D01*
X132811419Y-137361419D01*
X132716696Y-137476840D01*
X132646311Y-137608522D01*
X132602967Y-137751406D01*
X132588332Y-137900000D01*
X122283000Y-137900000D01*
X122283000Y-102640423D01*
X123806500Y-102638000D01*
X123996000Y-102448500D01*
X123996000Y-101134000D01*
X124004000Y-101134000D01*
X124004000Y-102448500D01*
X124193500Y-102638000D01*
X126500000Y-102641668D01*
X126648594Y-102627033D01*
X126791478Y-102583689D01*
X126923160Y-102513304D01*
X127038581Y-102418581D01*
X127133304Y-102303160D01*
X127203689Y-102171478D01*
X127247033Y-102028594D01*
X127261668Y-101880000D01*
X127260482Y-101700000D01*
X130788332Y-101700000D01*
X130802967Y-101848594D01*
X130846311Y-101991478D01*
X130916696Y-102123160D01*
X131011419Y-102238581D01*
X131126840Y-102333304D01*
X131258522Y-102403689D01*
X131401406Y-102447033D01*
X131550000Y-102461668D01*
X131806500Y-102458000D01*
X131996000Y-102268500D01*
X131996000Y-101104000D01*
X132004000Y-101104000D01*
X132004000Y-102268500D01*
X132193500Y-102458000D01*
X132450000Y-102461668D01*
X132598594Y-102447033D01*
X132741478Y-102403689D01*
X132873160Y-102333304D01*
X132988581Y-102238581D01*
X133083304Y-102123160D01*
X133153689Y-101991478D01*
X133197033Y-101848594D01*
X133211668Y-101700000D01*
X133208000Y-101293500D01*
X133018500Y-101104000D01*
X132004000Y-101104000D01*
X131996000Y-101104000D01*
X130981500Y-101104000D01*
X130792000Y-101293500D01*
X130788332Y-101700000D01*
X127260482Y-101700000D01*
X127258000Y-101323500D01*
X127068500Y-101134000D01*
X124004000Y-101134000D01*
X123996000Y-101134000D01*
X123976000Y-101134000D01*
X123976000Y-101126000D01*
X123996000Y-101126000D01*
X123996000Y-101106000D01*
X124004000Y-101106000D01*
X124004000Y-101126000D01*
X127068500Y-101126000D01*
X127258000Y-100936500D01*
X127261668Y-100380000D01*
X127247033Y-100231406D01*
X127203689Y-100088522D01*
X127149959Y-99988000D01*
X130969910Y-99988000D01*
X130979757Y-99999999D01*
G37*
X130979757Y-99999999D02*
X130916696Y-100076840D01*
X130846311Y-100208522D01*
X130802967Y-100351406D01*
X130788332Y-100500000D01*
X130792000Y-100906500D01*
X130981500Y-101096000D01*
X131996000Y-101096000D01*
X131996000Y-101076000D01*
X132004000Y-101076000D01*
X132004000Y-101096000D01*
X133018500Y-101096000D01*
X133208000Y-100906500D01*
X133211668Y-100500000D01*
X133197033Y-100351406D01*
X133153689Y-100208522D01*
X133083304Y-100076840D01*
X133020243Y-99999999D01*
X133030090Y-99988000D01*
X134936333Y-99988000D01*
X134936333Y-100254000D01*
X134950968Y-100402594D01*
X134994311Y-100545477D01*
X135042162Y-100635000D01*
X134994311Y-100724523D01*
X134950968Y-100867406D01*
X134936333Y-101016000D01*
X134936333Y-101482000D01*
X134511972Y-101482000D01*
X134459999Y-101476881D01*
X134252595Y-101497309D01*
X134192098Y-101515661D01*
X134053162Y-101557806D01*
X133869363Y-101656049D01*
X133736036Y-101765467D01*
X133516255Y-101832137D01*
X133297711Y-101948951D01*
X133106156Y-102106156D01*
X132948951Y-102297712D01*
X132832137Y-102516256D01*
X132760203Y-102753390D01*
X132742000Y-102938209D01*
X132742001Y-118147748D01*
X132736162Y-118222091D01*
X132749282Y-118332792D01*
X132760204Y-118443681D01*
X132763850Y-118455699D01*
X132765328Y-118468173D01*
X132799786Y-118574166D01*
X132832138Y-118680815D01*
X132838059Y-118691893D01*
X132841942Y-118703836D01*
X132896405Y-118801050D01*
X132948952Y-118899359D01*
X132956922Y-118909070D01*
X132963059Y-118920025D01*
X133035429Y-119004732D01*
X133106157Y-119090914D01*
X133163805Y-119138224D01*
X135242001Y-121135729D01*
X135242000Y-137250041D01*
X135141478Y-137196311D01*
X134998594Y-137152967D01*
X134850000Y-137138332D01*
X134293500Y-137142000D01*
X134104000Y-137331500D01*
X134104000Y-140396000D01*
X134124000Y-140396000D01*
X134124000Y-140404000D01*
X134104000Y-140404000D01*
X134104000Y-140424000D01*
X134096000Y-140424000D01*
X134096000Y-140404000D01*
X132781500Y-140404000D01*
X132592000Y-140593500D01*
X132589418Y-142217000D01*
X122283000Y-142217000D01*
X122283000Y-137900000D01*
X132588332Y-137900000D01*
X132592000Y-140206500D01*
X132781500Y-140396000D01*
X134096000Y-140396000D01*
X134096000Y-137331500D01*
X133906500Y-137142000D01*
X133350000Y-137138332D01*
X133201406Y-137152967D01*
X133058522Y-137196311D01*
X132926840Y-137266696D01*
X132811419Y-137361419D01*
X132716696Y-137476840D01*
X132646311Y-137608522D01*
X132602967Y-137751406D01*
X132588332Y-137900000D01*
X122283000Y-137900000D01*
X122283000Y-102640423D01*
X123806500Y-102638000D01*
X123996000Y-102448500D01*
X123996000Y-101134000D01*
X124004000Y-101134000D01*
X124004000Y-102448500D01*
X124193500Y-102638000D01*
X126500000Y-102641668D01*
X126648594Y-102627033D01*
X126791478Y-102583689D01*
X126923160Y-102513304D01*
X127038581Y-102418581D01*
X127133304Y-102303160D01*
X127203689Y-102171478D01*
X127247033Y-102028594D01*
X127261668Y-101880000D01*
X127260482Y-101700000D01*
X130788332Y-101700000D01*
X130802967Y-101848594D01*
X130846311Y-101991478D01*
X130916696Y-102123160D01*
X131011419Y-102238581D01*
X131126840Y-102333304D01*
X131258522Y-102403689D01*
X131401406Y-102447033D01*
X131550000Y-102461668D01*
X131806500Y-102458000D01*
X131996000Y-102268500D01*
X131996000Y-101104000D01*
X132004000Y-101104000D01*
X132004000Y-102268500D01*
X132193500Y-102458000D01*
X132450000Y-102461668D01*
X132598594Y-102447033D01*
X132741478Y-102403689D01*
X132873160Y-102333304D01*
X132988581Y-102238581D01*
X133083304Y-102123160D01*
X133153689Y-101991478D01*
X133197033Y-101848594D01*
X133211668Y-101700000D01*
X133208000Y-101293500D01*
X133018500Y-101104000D01*
X132004000Y-101104000D01*
X131996000Y-101104000D01*
X130981500Y-101104000D01*
X130792000Y-101293500D01*
X130788332Y-101700000D01*
X127260482Y-101700000D01*
X127258000Y-101323500D01*
X127068500Y-101134000D01*
X124004000Y-101134000D01*
X123996000Y-101134000D01*
X123976000Y-101134000D01*
X123976000Y-101126000D01*
X123996000Y-101126000D01*
X123996000Y-101106000D01*
X124004000Y-101106000D01*
X124004000Y-101126000D01*
X127068500Y-101126000D01*
X127258000Y-100936500D01*
X127261668Y-100380000D01*
X127247033Y-100231406D01*
X127203689Y-100088522D01*
X127149959Y-99988000D01*
X130969910Y-99988000D01*
X130979757Y-99999999D01*
G36*
X156796311Y-101358522D02*
G01*
X156752967Y-101501406D01*
X156738332Y-101650000D01*
X156742000Y-102206500D01*
X156931500Y-102396000D01*
X159996000Y-102396000D01*
X159996000Y-102376000D01*
X160004000Y-102376000D01*
X160004000Y-102396000D01*
X160024000Y-102396000D01*
X160024000Y-102404000D01*
X160004000Y-102404000D01*
X160004000Y-103718500D01*
X160193500Y-103908000D01*
X161717001Y-103910423D01*
X161717001Y-133089577D01*
X160193500Y-133092000D01*
X160004000Y-133281500D01*
X160004000Y-134596000D01*
X160024000Y-134596000D01*
X160024000Y-134604000D01*
X160004000Y-134604000D01*
X160004000Y-134624000D01*
X159996000Y-134624000D01*
X159996000Y-134604000D01*
X156931500Y-134604000D01*
X156742000Y-134793500D01*
X156738332Y-135350000D01*
X156752967Y-135498594D01*
X156796311Y-135641478D01*
X156850041Y-135742000D01*
X155021081Y-135742000D01*
X153129080Y-133850000D01*
X156738332Y-133850000D01*
X156742000Y-134406500D01*
X156931500Y-134596000D01*
X159996000Y-134596000D01*
X159996000Y-133281500D01*
X159806500Y-133092000D01*
X157500000Y-133088332D01*
X157351406Y-133102967D01*
X157208522Y-133146311D01*
X157076840Y-133216696D01*
X156961419Y-133311419D01*
X156866696Y-133426840D01*
X156796311Y-133558522D01*
X156752967Y-133701406D01*
X156738332Y-133850000D01*
X153129080Y-133850000D01*
X152758000Y-133478921D01*
X152758000Y-108371791D01*
X152764086Y-108309999D01*
X152739797Y-108063389D01*
X152667863Y-107826255D01*
X152551049Y-107607711D01*
X152393844Y-107416156D01*
X152345841Y-107376761D01*
X148119080Y-103150000D01*
X156738332Y-103150000D01*
X156752967Y-103298594D01*
X156796311Y-103441478D01*
X156866696Y-103573160D01*
X156961419Y-103688581D01*
X157076840Y-103783304D01*
X157208522Y-103853689D01*
X157351406Y-103897033D01*
X157500000Y-103911668D01*
X159806500Y-103908000D01*
X159996000Y-103718500D01*
X159996000Y-102404000D01*
X156931500Y-102404000D01*
X156742000Y-102593500D01*
X156738332Y-103150000D01*
X148119080Y-103150000D01*
X147933244Y-102964165D01*
X147893844Y-102916156D01*
X147702289Y-102758951D01*
X147483745Y-102642137D01*
X147246611Y-102570203D01*
X147061792Y-102552000D01*
X147000000Y-102545914D01*
X146938208Y-102552000D01*
X144809667Y-102552000D01*
X144809667Y-102528000D01*
X149168208Y-102528000D01*
X149230000Y-102534086D01*
X149291792Y-102528000D01*
X149476611Y-102509797D01*
X149713745Y-102437863D01*
X149932289Y-102321049D01*
X150123844Y-102163844D01*
X150163243Y-102115836D01*
X151021080Y-101258000D01*
X156850041Y-101258000D01*
X156796311Y-101358522D01*
G37*
X156796311Y-101358522D02*
X156752967Y-101501406D01*
X156738332Y-101650000D01*
X156742000Y-102206500D01*
X156931500Y-102396000D01*
X159996000Y-102396000D01*
X159996000Y-102376000D01*
X160004000Y-102376000D01*
X160004000Y-102396000D01*
X160024000Y-102396000D01*
X160024000Y-102404000D01*
X160004000Y-102404000D01*
X160004000Y-103718500D01*
X160193500Y-103908000D01*
X161717001Y-103910423D01*
X161717001Y-133089577D01*
X160193500Y-133092000D01*
X160004000Y-133281500D01*
X160004000Y-134596000D01*
X160024000Y-134596000D01*
X160024000Y-134604000D01*
X160004000Y-134604000D01*
X160004000Y-134624000D01*
X159996000Y-134624000D01*
X159996000Y-134604000D01*
X156931500Y-134604000D01*
X156742000Y-134793500D01*
X156738332Y-135350000D01*
X156752967Y-135498594D01*
X156796311Y-135641478D01*
X156850041Y-135742000D01*
X155021081Y-135742000D01*
X153129080Y-133850000D01*
X156738332Y-133850000D01*
X156742000Y-134406500D01*
X156931500Y-134596000D01*
X159996000Y-134596000D01*
X159996000Y-133281500D01*
X159806500Y-133092000D01*
X157500000Y-133088332D01*
X157351406Y-133102967D01*
X157208522Y-133146311D01*
X157076840Y-133216696D01*
X156961419Y-133311419D01*
X156866696Y-133426840D01*
X156796311Y-133558522D01*
X156752967Y-133701406D01*
X156738332Y-133850000D01*
X153129080Y-133850000D01*
X152758000Y-133478921D01*
X152758000Y-108371791D01*
X152764086Y-108309999D01*
X152739797Y-108063389D01*
X152667863Y-107826255D01*
X152551049Y-107607711D01*
X152393844Y-107416156D01*
X152345841Y-107376761D01*
X148119080Y-103150000D01*
X156738332Y-103150000D01*
X156752967Y-103298594D01*
X156796311Y-103441478D01*
X156866696Y-103573160D01*
X156961419Y-103688581D01*
X157076840Y-103783304D01*
X157208522Y-103853689D01*
X157351406Y-103897033D01*
X157500000Y-103911668D01*
X159806500Y-103908000D01*
X159996000Y-103718500D01*
X159996000Y-102404000D01*
X156931500Y-102404000D01*
X156742000Y-102593500D01*
X156738332Y-103150000D01*
X148119080Y-103150000D01*
X147933244Y-102964165D01*
X147893844Y-102916156D01*
X147702289Y-102758951D01*
X147483745Y-102642137D01*
X147246611Y-102570203D01*
X147061792Y-102552000D01*
X147000000Y-102545914D01*
X146938208Y-102552000D01*
X144809667Y-102552000D01*
X144809667Y-102528000D01*
X149168208Y-102528000D01*
X149230000Y-102534086D01*
X149291792Y-102528000D01*
X149476611Y-102509797D01*
X149713745Y-102437863D01*
X149932289Y-102321049D01*
X150123844Y-102163844D01*
X150163243Y-102115836D01*
X151021080Y-101258000D01*
X156850041Y-101258000D01*
X156796311Y-101358522D01*
G36*
X156796311Y-61358522D02*
G01*
X156752967Y-61501406D01*
X156738332Y-61650000D01*
X156742000Y-62206500D01*
X156931500Y-62396000D01*
X159996000Y-62396000D01*
X159996000Y-62376000D01*
X160004000Y-62376000D01*
X160004000Y-62396000D01*
X160024000Y-62396000D01*
X160024000Y-62404000D01*
X160004000Y-62404000D01*
X160004000Y-63718500D01*
X160193500Y-63908000D01*
X161717000Y-63910423D01*
X161717000Y-96089577D01*
X160193500Y-96092000D01*
X160004000Y-96281500D01*
X160004000Y-97596000D01*
X160024000Y-97596000D01*
X160024000Y-97604000D01*
X160004000Y-97604000D01*
X160004000Y-97624000D01*
X159996000Y-97624000D01*
X159996000Y-97604000D01*
X156931500Y-97604000D01*
X156742000Y-97793500D01*
X156738332Y-98350000D01*
X156752967Y-98498594D01*
X156796311Y-98641478D01*
X156850041Y-98742000D01*
X150561791Y-98742000D01*
X150499999Y-98735914D01*
X150253389Y-98760203D01*
X150016255Y-98832137D01*
X149797711Y-98948951D01*
X149606156Y-99106156D01*
X149566761Y-99154159D01*
X148708921Y-100012000D01*
X144809667Y-100012000D01*
X144809667Y-99988000D01*
X146938208Y-99988000D01*
X147000000Y-99994086D01*
X147061792Y-99988000D01*
X147246611Y-99969797D01*
X147483745Y-99897863D01*
X147702289Y-99781049D01*
X147893844Y-99623844D01*
X147933243Y-99575836D01*
X150659080Y-96850000D01*
X156738332Y-96850000D01*
X156742000Y-97406500D01*
X156931500Y-97596000D01*
X159996000Y-97596000D01*
X159996000Y-96281500D01*
X159806500Y-96092000D01*
X157500000Y-96088332D01*
X157351406Y-96102967D01*
X157208522Y-96146311D01*
X157076840Y-96216696D01*
X156961419Y-96311419D01*
X156866696Y-96426840D01*
X156796311Y-96558522D01*
X156752967Y-96701406D01*
X156738332Y-96850000D01*
X150659080Y-96850000D01*
X151345846Y-96163235D01*
X151393844Y-96123844D01*
X151551049Y-95932289D01*
X151667863Y-95713745D01*
X151739797Y-95476611D01*
X151758000Y-95291792D01*
X151758000Y-95291783D01*
X151764085Y-95230001D01*
X151758000Y-95168219D01*
X151758000Y-64021079D01*
X152629079Y-63150000D01*
X156738332Y-63150000D01*
X156752967Y-63298594D01*
X156796311Y-63441478D01*
X156866696Y-63573160D01*
X156961419Y-63688581D01*
X157076840Y-63783304D01*
X157208522Y-63853689D01*
X157351406Y-63897033D01*
X157500000Y-63911668D01*
X159806500Y-63908000D01*
X159996000Y-63718500D01*
X159996000Y-62404000D01*
X156931500Y-62404000D01*
X156742000Y-62593500D01*
X156738332Y-63150000D01*
X152629079Y-63150000D01*
X154521081Y-61258000D01*
X156850041Y-61258000D01*
X156796311Y-61358522D01*
G37*
X156796311Y-61358522D02*
X156752967Y-61501406D01*
X156738332Y-61650000D01*
X156742000Y-62206500D01*
X156931500Y-62396000D01*
X159996000Y-62396000D01*
X159996000Y-62376000D01*
X160004000Y-62376000D01*
X160004000Y-62396000D01*
X160024000Y-62396000D01*
X160024000Y-62404000D01*
X160004000Y-62404000D01*
X160004000Y-63718500D01*
X160193500Y-63908000D01*
X161717000Y-63910423D01*
X161717000Y-96089577D01*
X160193500Y-96092000D01*
X160004000Y-96281500D01*
X160004000Y-97596000D01*
X160024000Y-97596000D01*
X160024000Y-97604000D01*
X160004000Y-97604000D01*
X160004000Y-97624000D01*
X159996000Y-97624000D01*
X159996000Y-97604000D01*
X156931500Y-97604000D01*
X156742000Y-97793500D01*
X156738332Y-98350000D01*
X156752967Y-98498594D01*
X156796311Y-98641478D01*
X156850041Y-98742000D01*
X150561791Y-98742000D01*
X150499999Y-98735914D01*
X150253389Y-98760203D01*
X150016255Y-98832137D01*
X149797711Y-98948951D01*
X149606156Y-99106156D01*
X149566761Y-99154159D01*
X148708921Y-100012000D01*
X144809667Y-100012000D01*
X144809667Y-99988000D01*
X146938208Y-99988000D01*
X147000000Y-99994086D01*
X147061792Y-99988000D01*
X147246611Y-99969797D01*
X147483745Y-99897863D01*
X147702289Y-99781049D01*
X147893844Y-99623844D01*
X147933243Y-99575836D01*
X150659080Y-96850000D01*
X156738332Y-96850000D01*
X156742000Y-97406500D01*
X156931500Y-97596000D01*
X159996000Y-97596000D01*
X159996000Y-96281500D01*
X159806500Y-96092000D01*
X157500000Y-96088332D01*
X157351406Y-96102967D01*
X157208522Y-96146311D01*
X157076840Y-96216696D01*
X156961419Y-96311419D01*
X156866696Y-96426840D01*
X156796311Y-96558522D01*
X156752967Y-96701406D01*
X156738332Y-96850000D01*
X150659080Y-96850000D01*
X151345846Y-96163235D01*
X151393844Y-96123844D01*
X151551049Y-95932289D01*
X151667863Y-95713745D01*
X151739797Y-95476611D01*
X151758000Y-95291792D01*
X151758000Y-95291783D01*
X151764085Y-95230001D01*
X151758000Y-95168219D01*
X151758000Y-64021079D01*
X152629079Y-63150000D01*
X156738332Y-63150000D01*
X156752967Y-63298594D01*
X156796311Y-63441478D01*
X156866696Y-63573160D01*
X156961419Y-63688581D01*
X157076840Y-63783304D01*
X157208522Y-63853689D01*
X157351406Y-63897033D01*
X157500000Y-63911668D01*
X159806500Y-63908000D01*
X159996000Y-63718500D01*
X159996000Y-62404000D01*
X156931500Y-62404000D01*
X156742000Y-62593500D01*
X156738332Y-63150000D01*
X152629079Y-63150000D01*
X154521081Y-61258000D01*
X156850041Y-61258000D01*
X156796311Y-61358522D01*
G36*
X161717000Y-56089577D02*
G01*
X160193500Y-56092000D01*
X160004000Y-56281500D01*
X160004000Y-57596000D01*
X160024000Y-57596000D01*
X160024000Y-57604000D01*
X160004000Y-57604000D01*
X160004000Y-57624000D01*
X159996000Y-57624000D01*
X159996000Y-57604000D01*
X156931500Y-57604000D01*
X156742000Y-57793500D01*
X156738332Y-58350000D01*
X156752967Y-58498594D01*
X156796311Y-58641478D01*
X156850041Y-58742000D01*
X154061781Y-58742000D01*
X153999999Y-58735915D01*
X153938217Y-58742000D01*
X153938208Y-58742000D01*
X153753389Y-58760203D01*
X153516255Y-58832137D01*
X153297711Y-58948951D01*
X153106156Y-59106156D01*
X153066765Y-59154154D01*
X149654164Y-62566757D01*
X149606156Y-62606156D01*
X149448952Y-62797711D01*
X149448951Y-62797712D01*
X149332137Y-63016256D01*
X149260203Y-63253390D01*
X149235914Y-63500000D01*
X149242000Y-63561792D01*
X149242001Y-94708918D01*
X146478921Y-97472000D01*
X144809667Y-97472000D01*
X144809667Y-97206000D01*
X144795032Y-97057406D01*
X144751689Y-96914523D01*
X144703838Y-96825000D01*
X144751689Y-96735477D01*
X144795032Y-96592594D01*
X144809667Y-96444000D01*
X144809667Y-95936000D01*
X144795032Y-95787406D01*
X144751689Y-95644523D01*
X144681303Y-95512840D01*
X144586580Y-95397420D01*
X144471160Y-95302697D01*
X144339477Y-95232311D01*
X144196594Y-95188968D01*
X144106000Y-95180045D01*
X144106000Y-92892354D01*
X144183303Y-92798160D01*
X144253689Y-92666477D01*
X144297032Y-92523594D01*
X144311667Y-92375000D01*
X144311667Y-92304176D01*
X144338350Y-92216214D01*
X144358000Y-92016706D01*
X144358000Y-92016703D01*
X144364570Y-91950000D01*
X144358000Y-91883297D01*
X144358000Y-85666703D01*
X144364570Y-85599999D01*
X144350205Y-85454153D01*
X144338350Y-85333786D01*
X144333000Y-85316149D01*
X144333000Y-81498677D01*
X144388350Y-81316213D01*
X144414571Y-81050000D01*
X144388350Y-80783785D01*
X144310698Y-80527801D01*
X144184598Y-80291885D01*
X144108001Y-80198551D01*
X144108001Y-79023026D01*
X144092692Y-78867595D01*
X144041668Y-78699390D01*
X144041668Y-78600000D01*
X144027033Y-78451406D01*
X143983690Y-78308523D01*
X143913304Y-78176840D01*
X143867738Y-78121318D01*
X143933952Y-78040636D01*
X144032195Y-77856837D01*
X144092692Y-77657403D01*
X144104395Y-77538580D01*
X144113120Y-77450000D01*
X144108001Y-77398027D01*
X144108001Y-74548967D01*
X144142863Y-74483744D01*
X144214797Y-74246610D01*
X144233000Y-74061791D01*
X144233000Y-73963640D01*
X144242468Y-73932428D01*
X144261667Y-73737500D01*
X144261667Y-73262500D01*
X144242468Y-73067572D01*
X144208000Y-72953945D01*
X144208000Y-70477246D01*
X144210698Y-70472198D01*
X144288350Y-70216214D01*
X144308000Y-70016706D01*
X144308000Y-66141701D01*
X144314570Y-66074997D01*
X144296546Y-65892000D01*
X144288350Y-65808784D01*
X144210698Y-65552800D01*
X144084599Y-65316885D01*
X144084598Y-65316883D01*
X143957419Y-65161915D01*
X143957416Y-65161912D01*
X143914896Y-65110101D01*
X143863086Y-65067582D01*
X142082426Y-63286923D01*
X142039898Y-63235102D01*
X141833115Y-63065401D01*
X141597199Y-62939301D01*
X141341215Y-62861649D01*
X141141707Y-62841999D01*
X141141704Y-62841999D01*
X141075001Y-62835429D01*
X141008298Y-62841999D01*
X139521696Y-62841999D01*
X139521696Y-61500000D01*
X139507131Y-61352122D01*
X139463997Y-61209926D01*
X139393950Y-61078878D01*
X139299683Y-60964013D01*
X139184818Y-60869746D01*
X139053770Y-60799699D01*
X138911574Y-60756565D01*
X138763696Y-60742000D01*
X126849822Y-60742000D01*
X126961965Y-60549569D01*
X127064500Y-60251488D01*
X127087572Y-60135497D01*
X126918494Y-59884000D01*
X125504000Y-59884000D01*
X125504000Y-59904000D01*
X125496000Y-59904000D01*
X125496000Y-59884000D01*
X124081506Y-59884000D01*
X123912428Y-60135497D01*
X123935500Y-60251488D01*
X124038035Y-60549569D01*
X124190008Y-60810345D01*
X124078878Y-60869746D01*
X123964013Y-60964013D01*
X123869746Y-61078878D01*
X123799699Y-61209926D01*
X123756565Y-61352122D01*
X123742000Y-61500000D01*
X123742000Y-65900000D01*
X123756565Y-66047878D01*
X123799699Y-66190074D01*
X123869746Y-66321122D01*
X123933931Y-66399332D01*
X123902967Y-66501406D01*
X123888332Y-66650000D01*
X123892000Y-67306500D01*
X124081500Y-67496000D01*
X125496000Y-67496000D01*
X125496000Y-67476000D01*
X125504000Y-67476000D01*
X125504000Y-67496000D01*
X126918500Y-67496000D01*
X127108000Y-67306500D01*
X127111623Y-66658000D01*
X138763696Y-66658000D01*
X138911574Y-66643435D01*
X139053770Y-66600301D01*
X139184818Y-66530254D01*
X139299683Y-66435987D01*
X139393950Y-66321122D01*
X139463997Y-66190074D01*
X139507131Y-66047878D01*
X139521696Y-65900000D01*
X139521696Y-65557999D01*
X140512500Y-65557999D01*
X141592000Y-66637500D01*
X141592001Y-70016706D01*
X141611651Y-70216214D01*
X141689303Y-70472198D01*
X141692000Y-70477244D01*
X141692001Y-72263974D01*
X141418500Y-72267000D01*
X141229000Y-72456500D01*
X141229000Y-73496000D01*
X141249000Y-73496000D01*
X141249000Y-73504000D01*
X141229000Y-73504000D01*
X141229000Y-74543500D01*
X141418500Y-74733000D01*
X141750000Y-74736668D01*
X141898594Y-74722033D01*
X141931870Y-74711939D01*
X141992002Y-74785209D01*
X141992001Y-75373503D01*
X141910500Y-75292002D01*
X141870000Y-75288334D01*
X141721406Y-75302969D01*
X141624999Y-75332214D01*
X141528593Y-75302970D01*
X141379999Y-75288335D01*
X140919999Y-75288335D01*
X140771405Y-75302970D01*
X140628522Y-75346313D01*
X140496839Y-75416699D01*
X140381419Y-75511422D01*
X140286696Y-75626842D01*
X140216310Y-75758525D01*
X140172967Y-75901408D01*
X140158332Y-76050002D01*
X140158332Y-76149395D01*
X140107309Y-76317597D01*
X140091999Y-76473028D01*
X140091999Y-77498026D01*
X140086880Y-77549999D01*
X140107308Y-77757403D01*
X140108602Y-77761668D01*
X140167805Y-77956836D01*
X140266048Y-78140636D01*
X140291228Y-78171318D01*
X140286696Y-78176840D01*
X140216310Y-78308523D01*
X140176501Y-78439757D01*
X140074970Y-78629708D01*
X140008754Y-78847992D01*
X139991999Y-79018111D01*
X139991999Y-80348575D01*
X139960204Y-80453389D01*
X139942001Y-80638208D01*
X139942000Y-82142000D01*
X138161792Y-82142000D01*
X138100000Y-82135914D01*
X138038208Y-82142000D01*
X137853389Y-82160203D01*
X137616255Y-82232137D01*
X137397711Y-82348951D01*
X137388485Y-82356523D01*
X137280135Y-82389390D01*
X137107393Y-82481723D01*
X136955982Y-82605982D01*
X136831723Y-82757393D01*
X136739390Y-82930135D01*
X136682532Y-83117572D01*
X136663333Y-83312500D01*
X136663333Y-83343072D01*
X136660203Y-83353390D01*
X136635914Y-83600000D01*
X136660203Y-83846610D01*
X136663333Y-83856928D01*
X136663333Y-83887500D01*
X136682532Y-84082428D01*
X136739390Y-84269865D01*
X136802740Y-84388383D01*
X136791696Y-84401840D01*
X136721311Y-84533522D01*
X136677967Y-84676406D01*
X136663332Y-84825000D01*
X136667000Y-85156500D01*
X136856500Y-85346000D01*
X137896000Y-85346000D01*
X137896000Y-85326000D01*
X137904000Y-85326000D01*
X137904000Y-85346000D01*
X138943500Y-85346000D01*
X139133000Y-85156500D01*
X139136668Y-84825000D01*
X139122033Y-84676406D01*
X139116450Y-84658000D01*
X140127674Y-84658000D01*
X140091696Y-84701840D01*
X140021311Y-84833522D01*
X139977967Y-84976406D01*
X139963332Y-85125000D01*
X139967000Y-85406500D01*
X140156500Y-85596000D01*
X141246000Y-85596000D01*
X141246000Y-85576000D01*
X141254000Y-85576000D01*
X141254000Y-85596000D01*
X141274000Y-85596000D01*
X141274000Y-85604000D01*
X141254000Y-85604000D01*
X141254000Y-86643500D01*
X141443500Y-86833000D01*
X141642000Y-86835196D01*
X141642001Y-90863404D01*
X141243500Y-90867000D01*
X141054000Y-91056500D01*
X141054000Y-91996000D01*
X141074000Y-91996000D01*
X141074000Y-92004000D01*
X141054000Y-92004000D01*
X141054000Y-92943500D01*
X141243500Y-93133000D01*
X141650000Y-93136668D01*
X141798594Y-93122033D01*
X141941478Y-93078689D01*
X141990001Y-93052753D01*
X141990000Y-95180045D01*
X141899406Y-95188968D01*
X141756523Y-95232311D01*
X141624840Y-95302697D01*
X141509420Y-95397420D01*
X141414697Y-95512840D01*
X141344311Y-95644523D01*
X141300968Y-95787406D01*
X141286333Y-95936000D01*
X141286333Y-96402000D01*
X140006238Y-96402000D01*
X139082876Y-95478639D01*
X139049739Y-95438261D01*
X138888637Y-95306049D01*
X138704838Y-95207806D01*
X138505404Y-95147309D01*
X138349973Y-95132000D01*
X138298000Y-95126881D01*
X138246027Y-95132000D01*
X136646027Y-95132000D01*
X136490596Y-95147309D01*
X136401509Y-95174333D01*
X135698000Y-95174333D01*
X135549406Y-95188968D01*
X135406523Y-95232311D01*
X135274840Y-95302697D01*
X135159420Y-95397420D01*
X135064697Y-95512840D01*
X134994311Y-95644523D01*
X134950968Y-95787406D01*
X134948339Y-95814101D01*
X134558000Y-95423763D01*
X134558000Y-92375000D01*
X139688332Y-92375000D01*
X139702967Y-92523594D01*
X139746311Y-92666478D01*
X139816696Y-92798160D01*
X139911419Y-92913581D01*
X140026840Y-93008304D01*
X140158522Y-93078689D01*
X140301406Y-93122033D01*
X140450000Y-93136668D01*
X140856500Y-93133000D01*
X141046000Y-92943500D01*
X141046000Y-92004000D01*
X139881500Y-92004000D01*
X139692000Y-92193500D01*
X139688332Y-92375000D01*
X134558000Y-92375000D01*
X134558000Y-91625000D01*
X139688332Y-91625000D01*
X139692000Y-91806500D01*
X139881500Y-91996000D01*
X141046000Y-91996000D01*
X141046000Y-91056500D01*
X140856500Y-90867000D01*
X140450000Y-90863332D01*
X140301406Y-90877967D01*
X140158522Y-90921311D01*
X140026840Y-90991696D01*
X139911419Y-91086419D01*
X139816696Y-91201840D01*
X139746311Y-91333522D01*
X139702967Y-91476406D01*
X139688332Y-91625000D01*
X134558000Y-91625000D01*
X134558000Y-86361791D01*
X134564086Y-86299999D01*
X134539797Y-86053389D01*
X134485684Y-85875000D01*
X136663332Y-85875000D01*
X136677967Y-86023594D01*
X136721311Y-86166478D01*
X136791696Y-86298160D01*
X136886419Y-86413581D01*
X137001840Y-86508304D01*
X137133522Y-86578689D01*
X137276406Y-86622033D01*
X137425000Y-86636668D01*
X137706500Y-86633000D01*
X137896000Y-86443500D01*
X137896000Y-85354000D01*
X137904000Y-85354000D01*
X137904000Y-86443500D01*
X138093500Y-86633000D01*
X138375000Y-86636668D01*
X138523594Y-86622033D01*
X138666478Y-86578689D01*
X138798160Y-86508304D01*
X138913581Y-86413581D01*
X139008304Y-86298160D01*
X139078689Y-86166478D01*
X139106438Y-86075000D01*
X139963332Y-86075000D01*
X139977967Y-86223594D01*
X140021311Y-86366478D01*
X140091696Y-86498160D01*
X140186419Y-86613581D01*
X140301840Y-86708304D01*
X140433522Y-86778689D01*
X140576406Y-86822033D01*
X140725000Y-86836668D01*
X141056500Y-86833000D01*
X141246000Y-86643500D01*
X141246000Y-85604000D01*
X140156500Y-85604000D01*
X139967000Y-85793500D01*
X139963332Y-86075000D01*
X139106438Y-86075000D01*
X139122033Y-86023594D01*
X139136668Y-85875000D01*
X139133000Y-85543500D01*
X138943500Y-85354000D01*
X137904000Y-85354000D01*
X137896000Y-85354000D01*
X136856500Y-85354000D01*
X136667000Y-85543500D01*
X136663332Y-85875000D01*
X134485684Y-85875000D01*
X134467863Y-85816255D01*
X134351049Y-85597711D01*
X134339225Y-85583304D01*
X134193844Y-85406156D01*
X134145841Y-85366761D01*
X129733244Y-80954165D01*
X129693844Y-80906156D01*
X129502289Y-80748951D01*
X129283745Y-80632137D01*
X129046611Y-80560203D01*
X128861792Y-80542000D01*
X128800000Y-80535914D01*
X128738208Y-80542000D01*
X127249959Y-80542000D01*
X127303689Y-80441478D01*
X127347033Y-80298594D01*
X127361668Y-80150000D01*
X127358000Y-79593500D01*
X127168500Y-79404000D01*
X124104000Y-79404000D01*
X124104000Y-79424000D01*
X124096000Y-79424000D01*
X124096000Y-79404000D01*
X124076000Y-79404000D01*
X124076000Y-79396000D01*
X124096000Y-79396000D01*
X124096000Y-78081500D01*
X124104000Y-78081500D01*
X124104000Y-79396000D01*
X127168500Y-79396000D01*
X127358000Y-79206500D01*
X127361668Y-78650000D01*
X127347033Y-78501406D01*
X127303689Y-78358522D01*
X127233304Y-78226840D01*
X127138581Y-78111419D01*
X127023160Y-78016696D01*
X126891478Y-77946311D01*
X126748594Y-77902967D01*
X126600000Y-77888332D01*
X124293500Y-77892000D01*
X124104000Y-78081500D01*
X124096000Y-78081500D01*
X123906500Y-77892000D01*
X122283000Y-77889418D01*
X122283000Y-73975000D01*
X139938332Y-73975000D01*
X139952967Y-74123594D01*
X139996311Y-74266478D01*
X140066696Y-74398160D01*
X140161419Y-74513581D01*
X140276840Y-74608304D01*
X140408522Y-74678689D01*
X140551406Y-74722033D01*
X140700000Y-74736668D01*
X141031500Y-74733000D01*
X141221000Y-74543500D01*
X141221000Y-73504000D01*
X140131500Y-73504000D01*
X139942000Y-73693500D01*
X139938332Y-73975000D01*
X122283000Y-73975000D01*
X122283000Y-73025000D01*
X139938332Y-73025000D01*
X139942000Y-73306500D01*
X140131500Y-73496000D01*
X141221000Y-73496000D01*
X141221000Y-72456500D01*
X141031500Y-72267000D01*
X140700000Y-72263332D01*
X140551406Y-72277967D01*
X140408522Y-72321311D01*
X140276840Y-72391696D01*
X140161419Y-72486419D01*
X140066696Y-72601840D01*
X139996311Y-72733522D01*
X139952967Y-72876406D01*
X139938332Y-73025000D01*
X122283000Y-73025000D01*
X122283000Y-68350000D01*
X123888332Y-68350000D01*
X123902967Y-68498594D01*
X123946311Y-68641478D01*
X124016696Y-68773160D01*
X124111419Y-68888581D01*
X124226840Y-68983304D01*
X124358522Y-69053689D01*
X124501406Y-69097033D01*
X124650000Y-69111668D01*
X125306500Y-69108000D01*
X125496000Y-68918500D01*
X125496000Y-67504000D01*
X125504000Y-67504000D01*
X125504000Y-68918500D01*
X125693500Y-69108000D01*
X126350000Y-69111668D01*
X126498594Y-69097033D01*
X126641478Y-69053689D01*
X126773160Y-68983304D01*
X126888581Y-68888581D01*
X126983304Y-68773160D01*
X127053689Y-68641478D01*
X127097033Y-68498594D01*
X127111668Y-68350000D01*
X127108000Y-67693500D01*
X126918500Y-67504000D01*
X125504000Y-67504000D01*
X125496000Y-67504000D01*
X124081500Y-67504000D01*
X123892000Y-67693500D01*
X123888332Y-68350000D01*
X122283000Y-68350000D01*
X122283000Y-59624503D01*
X123912428Y-59624503D01*
X124081506Y-59876000D01*
X125496000Y-59876000D01*
X125496000Y-58461505D01*
X125504000Y-58461505D01*
X125504000Y-59876000D01*
X126918494Y-59876000D01*
X127087572Y-59624503D01*
X127064500Y-59508512D01*
X126961965Y-59210431D01*
X126803247Y-58938081D01*
X126594446Y-58701929D01*
X126343586Y-58511050D01*
X126060308Y-58372778D01*
X125755497Y-58292428D01*
X125504000Y-58461505D01*
X125496000Y-58461505D01*
X125244503Y-58292428D01*
X124939692Y-58372778D01*
X124656414Y-58511050D01*
X124405554Y-58701929D01*
X124196753Y-58938081D01*
X124038035Y-59210431D01*
X123935500Y-59508512D01*
X123912428Y-59624503D01*
X122283000Y-59624503D01*
X122283000Y-56850000D01*
X156738332Y-56850000D01*
X156742000Y-57406500D01*
X156931500Y-57596000D01*
X159996000Y-57596000D01*
X159996000Y-56281500D01*
X159806500Y-56092000D01*
X157500000Y-56088332D01*
X157351406Y-56102967D01*
X157208522Y-56146311D01*
X157076840Y-56216696D01*
X156961419Y-56311419D01*
X156866696Y-56426840D01*
X156796311Y-56558522D01*
X156752967Y-56701406D01*
X156738332Y-56850000D01*
X122283000Y-56850000D01*
X122283000Y-54283000D01*
X161717000Y-54283000D01*
X161717000Y-56089577D01*
G37*
X161717000Y-56089577D02*
X160193500Y-56092000D01*
X160004000Y-56281500D01*
X160004000Y-57596000D01*
X160024000Y-57596000D01*
X160024000Y-57604000D01*
X160004000Y-57604000D01*
X160004000Y-57624000D01*
X159996000Y-57624000D01*
X159996000Y-57604000D01*
X156931500Y-57604000D01*
X156742000Y-57793500D01*
X156738332Y-58350000D01*
X156752967Y-58498594D01*
X156796311Y-58641478D01*
X156850041Y-58742000D01*
X154061781Y-58742000D01*
X153999999Y-58735915D01*
X153938217Y-58742000D01*
X153938208Y-58742000D01*
X153753389Y-58760203D01*
X153516255Y-58832137D01*
X153297711Y-58948951D01*
X153106156Y-59106156D01*
X153066765Y-59154154D01*
X149654164Y-62566757D01*
X149606156Y-62606156D01*
X149448952Y-62797711D01*
X149448951Y-62797712D01*
X149332137Y-63016256D01*
X149260203Y-63253390D01*
X149235914Y-63500000D01*
X149242000Y-63561792D01*
X149242001Y-94708918D01*
X146478921Y-97472000D01*
X144809667Y-97472000D01*
X144809667Y-97206000D01*
X144795032Y-97057406D01*
X144751689Y-96914523D01*
X144703838Y-96825000D01*
X144751689Y-96735477D01*
X144795032Y-96592594D01*
X144809667Y-96444000D01*
X144809667Y-95936000D01*
X144795032Y-95787406D01*
X144751689Y-95644523D01*
X144681303Y-95512840D01*
X144586580Y-95397420D01*
X144471160Y-95302697D01*
X144339477Y-95232311D01*
X144196594Y-95188968D01*
X144106000Y-95180045D01*
X144106000Y-92892354D01*
X144183303Y-92798160D01*
X144253689Y-92666477D01*
X144297032Y-92523594D01*
X144311667Y-92375000D01*
X144311667Y-92304176D01*
X144338350Y-92216214D01*
X144358000Y-92016706D01*
X144358000Y-92016703D01*
X144364570Y-91950000D01*
X144358000Y-91883297D01*
X144358000Y-85666703D01*
X144364570Y-85599999D01*
X144350205Y-85454153D01*
X144338350Y-85333786D01*
X144333000Y-85316149D01*
X144333000Y-81498677D01*
X144388350Y-81316213D01*
X144414571Y-81050000D01*
X144388350Y-80783785D01*
X144310698Y-80527801D01*
X144184598Y-80291885D01*
X144108001Y-80198551D01*
X144108001Y-79023026D01*
X144092692Y-78867595D01*
X144041668Y-78699390D01*
X144041668Y-78600000D01*
X144027033Y-78451406D01*
X143983690Y-78308523D01*
X143913304Y-78176840D01*
X143867738Y-78121318D01*
X143933952Y-78040636D01*
X144032195Y-77856837D01*
X144092692Y-77657403D01*
X144104395Y-77538580D01*
X144113120Y-77450000D01*
X144108001Y-77398027D01*
X144108001Y-74548967D01*
X144142863Y-74483744D01*
X144214797Y-74246610D01*
X144233000Y-74061791D01*
X144233000Y-73963640D01*
X144242468Y-73932428D01*
X144261667Y-73737500D01*
X144261667Y-73262500D01*
X144242468Y-73067572D01*
X144208000Y-72953945D01*
X144208000Y-70477246D01*
X144210698Y-70472198D01*
X144288350Y-70216214D01*
X144308000Y-70016706D01*
X144308000Y-66141701D01*
X144314570Y-66074997D01*
X144296546Y-65892000D01*
X144288350Y-65808784D01*
X144210698Y-65552800D01*
X144084599Y-65316885D01*
X144084598Y-65316883D01*
X143957419Y-65161915D01*
X143957416Y-65161912D01*
X143914896Y-65110101D01*
X143863086Y-65067582D01*
X142082426Y-63286923D01*
X142039898Y-63235102D01*
X141833115Y-63065401D01*
X141597199Y-62939301D01*
X141341215Y-62861649D01*
X141141707Y-62841999D01*
X141141704Y-62841999D01*
X141075001Y-62835429D01*
X141008298Y-62841999D01*
X139521696Y-62841999D01*
X139521696Y-61500000D01*
X139507131Y-61352122D01*
X139463997Y-61209926D01*
X139393950Y-61078878D01*
X139299683Y-60964013D01*
X139184818Y-60869746D01*
X139053770Y-60799699D01*
X138911574Y-60756565D01*
X138763696Y-60742000D01*
X126849822Y-60742000D01*
X126961965Y-60549569D01*
X127064500Y-60251488D01*
X127087572Y-60135497D01*
X126918494Y-59884000D01*
X125504000Y-59884000D01*
X125504000Y-59904000D01*
X125496000Y-59904000D01*
X125496000Y-59884000D01*
X124081506Y-59884000D01*
X123912428Y-60135497D01*
X123935500Y-60251488D01*
X124038035Y-60549569D01*
X124190008Y-60810345D01*
X124078878Y-60869746D01*
X123964013Y-60964013D01*
X123869746Y-61078878D01*
X123799699Y-61209926D01*
X123756565Y-61352122D01*
X123742000Y-61500000D01*
X123742000Y-65900000D01*
X123756565Y-66047878D01*
X123799699Y-66190074D01*
X123869746Y-66321122D01*
X123933931Y-66399332D01*
X123902967Y-66501406D01*
X123888332Y-66650000D01*
X123892000Y-67306500D01*
X124081500Y-67496000D01*
X125496000Y-67496000D01*
X125496000Y-67476000D01*
X125504000Y-67476000D01*
X125504000Y-67496000D01*
X126918500Y-67496000D01*
X127108000Y-67306500D01*
X127111623Y-66658000D01*
X138763696Y-66658000D01*
X138911574Y-66643435D01*
X139053770Y-66600301D01*
X139184818Y-66530254D01*
X139299683Y-66435987D01*
X139393950Y-66321122D01*
X139463997Y-66190074D01*
X139507131Y-66047878D01*
X139521696Y-65900000D01*
X139521696Y-65557999D01*
X140512500Y-65557999D01*
X141592000Y-66637500D01*
X141592001Y-70016706D01*
X141611651Y-70216214D01*
X141689303Y-70472198D01*
X141692000Y-70477244D01*
X141692001Y-72263974D01*
X141418500Y-72267000D01*
X141229000Y-72456500D01*
X141229000Y-73496000D01*
X141249000Y-73496000D01*
X141249000Y-73504000D01*
X141229000Y-73504000D01*
X141229000Y-74543500D01*
X141418500Y-74733000D01*
X141750000Y-74736668D01*
X141898594Y-74722033D01*
X141931870Y-74711939D01*
X141992002Y-74785209D01*
X141992001Y-75373503D01*
X141910500Y-75292002D01*
X141870000Y-75288334D01*
X141721406Y-75302969D01*
X141624999Y-75332214D01*
X141528593Y-75302970D01*
X141379999Y-75288335D01*
X140919999Y-75288335D01*
X140771405Y-75302970D01*
X140628522Y-75346313D01*
X140496839Y-75416699D01*
X140381419Y-75511422D01*
X140286696Y-75626842D01*
X140216310Y-75758525D01*
X140172967Y-75901408D01*
X140158332Y-76050002D01*
X140158332Y-76149395D01*
X140107309Y-76317597D01*
X140091999Y-76473028D01*
X140091999Y-77498026D01*
X140086880Y-77549999D01*
X140107308Y-77757403D01*
X140108602Y-77761668D01*
X140167805Y-77956836D01*
X140266048Y-78140636D01*
X140291228Y-78171318D01*
X140286696Y-78176840D01*
X140216310Y-78308523D01*
X140176501Y-78439757D01*
X140074970Y-78629708D01*
X140008754Y-78847992D01*
X139991999Y-79018111D01*
X139991999Y-80348575D01*
X139960204Y-80453389D01*
X139942001Y-80638208D01*
X139942000Y-82142000D01*
X138161792Y-82142000D01*
X138100000Y-82135914D01*
X138038208Y-82142000D01*
X137853389Y-82160203D01*
X137616255Y-82232137D01*
X137397711Y-82348951D01*
X137388485Y-82356523D01*
X137280135Y-82389390D01*
X137107393Y-82481723D01*
X136955982Y-82605982D01*
X136831723Y-82757393D01*
X136739390Y-82930135D01*
X136682532Y-83117572D01*
X136663333Y-83312500D01*
X136663333Y-83343072D01*
X136660203Y-83353390D01*
X136635914Y-83600000D01*
X136660203Y-83846610D01*
X136663333Y-83856928D01*
X136663333Y-83887500D01*
X136682532Y-84082428D01*
X136739390Y-84269865D01*
X136802740Y-84388383D01*
X136791696Y-84401840D01*
X136721311Y-84533522D01*
X136677967Y-84676406D01*
X136663332Y-84825000D01*
X136667000Y-85156500D01*
X136856500Y-85346000D01*
X137896000Y-85346000D01*
X137896000Y-85326000D01*
X137904000Y-85326000D01*
X137904000Y-85346000D01*
X138943500Y-85346000D01*
X139133000Y-85156500D01*
X139136668Y-84825000D01*
X139122033Y-84676406D01*
X139116450Y-84658000D01*
X140127674Y-84658000D01*
X140091696Y-84701840D01*
X140021311Y-84833522D01*
X139977967Y-84976406D01*
X139963332Y-85125000D01*
X139967000Y-85406500D01*
X140156500Y-85596000D01*
X141246000Y-85596000D01*
X141246000Y-85576000D01*
X141254000Y-85576000D01*
X141254000Y-85596000D01*
X141274000Y-85596000D01*
X141274000Y-85604000D01*
X141254000Y-85604000D01*
X141254000Y-86643500D01*
X141443500Y-86833000D01*
X141642000Y-86835196D01*
X141642001Y-90863404D01*
X141243500Y-90867000D01*
X141054000Y-91056500D01*
X141054000Y-91996000D01*
X141074000Y-91996000D01*
X141074000Y-92004000D01*
X141054000Y-92004000D01*
X141054000Y-92943500D01*
X141243500Y-93133000D01*
X141650000Y-93136668D01*
X141798594Y-93122033D01*
X141941478Y-93078689D01*
X141990001Y-93052753D01*
X141990000Y-95180045D01*
X141899406Y-95188968D01*
X141756523Y-95232311D01*
X141624840Y-95302697D01*
X141509420Y-95397420D01*
X141414697Y-95512840D01*
X141344311Y-95644523D01*
X141300968Y-95787406D01*
X141286333Y-95936000D01*
X141286333Y-96402000D01*
X140006238Y-96402000D01*
X139082876Y-95478639D01*
X139049739Y-95438261D01*
X138888637Y-95306049D01*
X138704838Y-95207806D01*
X138505404Y-95147309D01*
X138349973Y-95132000D01*
X138298000Y-95126881D01*
X138246027Y-95132000D01*
X136646027Y-95132000D01*
X136490596Y-95147309D01*
X136401509Y-95174333D01*
X135698000Y-95174333D01*
X135549406Y-95188968D01*
X135406523Y-95232311D01*
X135274840Y-95302697D01*
X135159420Y-95397420D01*
X135064697Y-95512840D01*
X134994311Y-95644523D01*
X134950968Y-95787406D01*
X134948339Y-95814101D01*
X134558000Y-95423763D01*
X134558000Y-92375000D01*
X139688332Y-92375000D01*
X139702967Y-92523594D01*
X139746311Y-92666478D01*
X139816696Y-92798160D01*
X139911419Y-92913581D01*
X140026840Y-93008304D01*
X140158522Y-93078689D01*
X140301406Y-93122033D01*
X140450000Y-93136668D01*
X140856500Y-93133000D01*
X141046000Y-92943500D01*
X141046000Y-92004000D01*
X139881500Y-92004000D01*
X139692000Y-92193500D01*
X139688332Y-92375000D01*
X134558000Y-92375000D01*
X134558000Y-91625000D01*
X139688332Y-91625000D01*
X139692000Y-91806500D01*
X139881500Y-91996000D01*
X141046000Y-91996000D01*
X141046000Y-91056500D01*
X140856500Y-90867000D01*
X140450000Y-90863332D01*
X140301406Y-90877967D01*
X140158522Y-90921311D01*
X140026840Y-90991696D01*
X139911419Y-91086419D01*
X139816696Y-91201840D01*
X139746311Y-91333522D01*
X139702967Y-91476406D01*
X139688332Y-91625000D01*
X134558000Y-91625000D01*
X134558000Y-86361791D01*
X134564086Y-86299999D01*
X134539797Y-86053389D01*
X134485684Y-85875000D01*
X136663332Y-85875000D01*
X136677967Y-86023594D01*
X136721311Y-86166478D01*
X136791696Y-86298160D01*
X136886419Y-86413581D01*
X137001840Y-86508304D01*
X137133522Y-86578689D01*
X137276406Y-86622033D01*
X137425000Y-86636668D01*
X137706500Y-86633000D01*
X137896000Y-86443500D01*
X137896000Y-85354000D01*
X137904000Y-85354000D01*
X137904000Y-86443500D01*
X138093500Y-86633000D01*
X138375000Y-86636668D01*
X138523594Y-86622033D01*
X138666478Y-86578689D01*
X138798160Y-86508304D01*
X138913581Y-86413581D01*
X139008304Y-86298160D01*
X139078689Y-86166478D01*
X139106438Y-86075000D01*
X139963332Y-86075000D01*
X139977967Y-86223594D01*
X140021311Y-86366478D01*
X140091696Y-86498160D01*
X140186419Y-86613581D01*
X140301840Y-86708304D01*
X140433522Y-86778689D01*
X140576406Y-86822033D01*
X140725000Y-86836668D01*
X141056500Y-86833000D01*
X141246000Y-86643500D01*
X141246000Y-85604000D01*
X140156500Y-85604000D01*
X139967000Y-85793500D01*
X139963332Y-86075000D01*
X139106438Y-86075000D01*
X139122033Y-86023594D01*
X139136668Y-85875000D01*
X139133000Y-85543500D01*
X138943500Y-85354000D01*
X137904000Y-85354000D01*
X137896000Y-85354000D01*
X136856500Y-85354000D01*
X136667000Y-85543500D01*
X136663332Y-85875000D01*
X134485684Y-85875000D01*
X134467863Y-85816255D01*
X134351049Y-85597711D01*
X134339225Y-85583304D01*
X134193844Y-85406156D01*
X134145841Y-85366761D01*
X129733244Y-80954165D01*
X129693844Y-80906156D01*
X129502289Y-80748951D01*
X129283745Y-80632137D01*
X129046611Y-80560203D01*
X128861792Y-80542000D01*
X128800000Y-80535914D01*
X128738208Y-80542000D01*
X127249959Y-80542000D01*
X127303689Y-80441478D01*
X127347033Y-80298594D01*
X127361668Y-80150000D01*
X127358000Y-79593500D01*
X127168500Y-79404000D01*
X124104000Y-79404000D01*
X124104000Y-79424000D01*
X124096000Y-79424000D01*
X124096000Y-79404000D01*
X124076000Y-79404000D01*
X124076000Y-79396000D01*
X124096000Y-79396000D01*
X124096000Y-78081500D01*
X124104000Y-78081500D01*
X124104000Y-79396000D01*
X127168500Y-79396000D01*
X127358000Y-79206500D01*
X127361668Y-78650000D01*
X127347033Y-78501406D01*
X127303689Y-78358522D01*
X127233304Y-78226840D01*
X127138581Y-78111419D01*
X127023160Y-78016696D01*
X126891478Y-77946311D01*
X126748594Y-77902967D01*
X126600000Y-77888332D01*
X124293500Y-77892000D01*
X124104000Y-78081500D01*
X124096000Y-78081500D01*
X123906500Y-77892000D01*
X122283000Y-77889418D01*
X122283000Y-73975000D01*
X139938332Y-73975000D01*
X139952967Y-74123594D01*
X139996311Y-74266478D01*
X140066696Y-74398160D01*
X140161419Y-74513581D01*
X140276840Y-74608304D01*
X140408522Y-74678689D01*
X140551406Y-74722033D01*
X140700000Y-74736668D01*
X141031500Y-74733000D01*
X141221000Y-74543500D01*
X141221000Y-73504000D01*
X140131500Y-73504000D01*
X139942000Y-73693500D01*
X139938332Y-73975000D01*
X122283000Y-73975000D01*
X122283000Y-73025000D01*
X139938332Y-73025000D01*
X139942000Y-73306500D01*
X140131500Y-73496000D01*
X141221000Y-73496000D01*
X141221000Y-72456500D01*
X141031500Y-72267000D01*
X140700000Y-72263332D01*
X140551406Y-72277967D01*
X140408522Y-72321311D01*
X140276840Y-72391696D01*
X140161419Y-72486419D01*
X140066696Y-72601840D01*
X139996311Y-72733522D01*
X139952967Y-72876406D01*
X139938332Y-73025000D01*
X122283000Y-73025000D01*
X122283000Y-68350000D01*
X123888332Y-68350000D01*
X123902967Y-68498594D01*
X123946311Y-68641478D01*
X124016696Y-68773160D01*
X124111419Y-68888581D01*
X124226840Y-68983304D01*
X124358522Y-69053689D01*
X124501406Y-69097033D01*
X124650000Y-69111668D01*
X125306500Y-69108000D01*
X125496000Y-68918500D01*
X125496000Y-67504000D01*
X125504000Y-67504000D01*
X125504000Y-68918500D01*
X125693500Y-69108000D01*
X126350000Y-69111668D01*
X126498594Y-69097033D01*
X126641478Y-69053689D01*
X126773160Y-68983304D01*
X126888581Y-68888581D01*
X126983304Y-68773160D01*
X127053689Y-68641478D01*
X127097033Y-68498594D01*
X127111668Y-68350000D01*
X127108000Y-67693500D01*
X126918500Y-67504000D01*
X125504000Y-67504000D01*
X125496000Y-67504000D01*
X124081500Y-67504000D01*
X123892000Y-67693500D01*
X123888332Y-68350000D01*
X122283000Y-68350000D01*
X122283000Y-59624503D01*
X123912428Y-59624503D01*
X124081506Y-59876000D01*
X125496000Y-59876000D01*
X125496000Y-58461505D01*
X125504000Y-58461505D01*
X125504000Y-59876000D01*
X126918494Y-59876000D01*
X127087572Y-59624503D01*
X127064500Y-59508512D01*
X126961965Y-59210431D01*
X126803247Y-58938081D01*
X126594446Y-58701929D01*
X126343586Y-58511050D01*
X126060308Y-58372778D01*
X125755497Y-58292428D01*
X125504000Y-58461505D01*
X125496000Y-58461505D01*
X125244503Y-58292428D01*
X124939692Y-58372778D01*
X124656414Y-58511050D01*
X124405554Y-58701929D01*
X124196753Y-58938081D01*
X124038035Y-59210431D01*
X123935500Y-59508512D01*
X123912428Y-59624503D01*
X122283000Y-59624503D01*
X122283000Y-56850000D01*
X156738332Y-56850000D01*
X156742000Y-57406500D01*
X156931500Y-57596000D01*
X159996000Y-57596000D01*
X159996000Y-56281500D01*
X159806500Y-56092000D01*
X157500000Y-56088332D01*
X157351406Y-56102967D01*
X157208522Y-56146311D01*
X157076840Y-56216696D01*
X156961419Y-56311419D01*
X156866696Y-56426840D01*
X156796311Y-56558522D01*
X156752967Y-56701406D01*
X156738332Y-56850000D01*
X122283000Y-56850000D01*
X122283000Y-54283000D01*
X161717000Y-54283000D01*
X161717000Y-56089577D01*
G36*
X132042001Y-86821081D02*
G01*
X132042000Y-95723791D01*
X132060203Y-95908610D01*
X132132137Y-96145744D01*
X132248951Y-96364288D01*
X132406156Y-96555844D01*
X132597711Y-96713049D01*
X132816255Y-96829863D01*
X133039280Y-96897517D01*
X133613762Y-97472000D01*
X131043222Y-97472000D01*
X131083304Y-97423160D01*
X131153689Y-97291478D01*
X131197033Y-97148594D01*
X131211668Y-97000000D01*
X131208000Y-96593500D01*
X131018500Y-96404000D01*
X130004000Y-96404000D01*
X130004000Y-96424000D01*
X129996000Y-96424000D01*
X129996000Y-96404000D01*
X128981500Y-96404000D01*
X128792000Y-96593500D01*
X128788332Y-97000000D01*
X128802967Y-97148594D01*
X128846311Y-97291478D01*
X128916696Y-97423160D01*
X128956778Y-97472000D01*
X127149959Y-97472000D01*
X127203689Y-97371478D01*
X127247033Y-97228594D01*
X127261668Y-97080000D01*
X127258000Y-96523500D01*
X127068500Y-96334000D01*
X124004000Y-96334000D01*
X124004000Y-96354000D01*
X123996000Y-96354000D01*
X123996000Y-96334000D01*
X123976000Y-96334000D01*
X123976000Y-96326000D01*
X123996000Y-96326000D01*
X123996000Y-95011500D01*
X124004000Y-95011500D01*
X124004000Y-96326000D01*
X127068500Y-96326000D01*
X127258000Y-96136500D01*
X127260217Y-95800000D01*
X128788332Y-95800000D01*
X128792000Y-96206500D01*
X128981500Y-96396000D01*
X129996000Y-96396000D01*
X129996000Y-95231500D01*
X130004000Y-95231500D01*
X130004000Y-96396000D01*
X131018500Y-96396000D01*
X131208000Y-96206500D01*
X131211668Y-95800000D01*
X131197033Y-95651406D01*
X131153689Y-95508522D01*
X131083304Y-95376840D01*
X130988581Y-95261419D01*
X130873160Y-95166696D01*
X130741478Y-95096311D01*
X130598594Y-95052967D01*
X130450000Y-95038332D01*
X130193500Y-95042000D01*
X130004000Y-95231500D01*
X129996000Y-95231500D01*
X129806500Y-95042000D01*
X129550000Y-95038332D01*
X129401406Y-95052967D01*
X129258522Y-95096311D01*
X129126840Y-95166696D01*
X129011419Y-95261419D01*
X128916696Y-95376840D01*
X128846311Y-95508522D01*
X128802967Y-95651406D01*
X128788332Y-95800000D01*
X127260217Y-95800000D01*
X127261668Y-95580000D01*
X127247033Y-95431406D01*
X127203689Y-95288522D01*
X127133304Y-95156840D01*
X127038581Y-95041419D01*
X126923160Y-94946696D01*
X126791478Y-94876311D01*
X126648594Y-94832967D01*
X126500000Y-94818332D01*
X124193500Y-94822000D01*
X124004000Y-95011500D01*
X123996000Y-95011500D01*
X123806500Y-94822000D01*
X122283000Y-94819577D01*
X122283000Y-85710582D01*
X123906500Y-85708000D01*
X124096000Y-85518500D01*
X124096000Y-84204000D01*
X124104000Y-84204000D01*
X124104000Y-85518500D01*
X124293500Y-85708000D01*
X126600000Y-85711668D01*
X126748594Y-85697033D01*
X126891478Y-85653689D01*
X127023160Y-85583304D01*
X127138581Y-85488581D01*
X127233304Y-85373160D01*
X127303689Y-85241478D01*
X127347033Y-85098594D01*
X127361668Y-84950000D01*
X127358000Y-84393500D01*
X127168500Y-84204000D01*
X124104000Y-84204000D01*
X124096000Y-84204000D01*
X124076000Y-84204000D01*
X124076000Y-84196000D01*
X124096000Y-84196000D01*
X124096000Y-84176000D01*
X124104000Y-84176000D01*
X124104000Y-84196000D01*
X127168500Y-84196000D01*
X127358000Y-84006500D01*
X127361668Y-83450000D01*
X127347033Y-83301406D01*
X127303689Y-83158522D01*
X127249959Y-83058000D01*
X128278921Y-83058000D01*
X132042001Y-86821081D01*
G37*
X132042001Y-86821081D02*
X132042000Y-95723791D01*
X132060203Y-95908610D01*
X132132137Y-96145744D01*
X132248951Y-96364288D01*
X132406156Y-96555844D01*
X132597711Y-96713049D01*
X132816255Y-96829863D01*
X133039280Y-96897517D01*
X133613762Y-97472000D01*
X131043222Y-97472000D01*
X131083304Y-97423160D01*
X131153689Y-97291478D01*
X131197033Y-97148594D01*
X131211668Y-97000000D01*
X131208000Y-96593500D01*
X131018500Y-96404000D01*
X130004000Y-96404000D01*
X130004000Y-96424000D01*
X129996000Y-96424000D01*
X129996000Y-96404000D01*
X128981500Y-96404000D01*
X128792000Y-96593500D01*
X128788332Y-97000000D01*
X128802967Y-97148594D01*
X128846311Y-97291478D01*
X128916696Y-97423160D01*
X128956778Y-97472000D01*
X127149959Y-97472000D01*
X127203689Y-97371478D01*
X127247033Y-97228594D01*
X127261668Y-97080000D01*
X127258000Y-96523500D01*
X127068500Y-96334000D01*
X124004000Y-96334000D01*
X124004000Y-96354000D01*
X123996000Y-96354000D01*
X123996000Y-96334000D01*
X123976000Y-96334000D01*
X123976000Y-96326000D01*
X123996000Y-96326000D01*
X123996000Y-95011500D01*
X124004000Y-95011500D01*
X124004000Y-96326000D01*
X127068500Y-96326000D01*
X127258000Y-96136500D01*
X127260217Y-95800000D01*
X128788332Y-95800000D01*
X128792000Y-96206500D01*
X128981500Y-96396000D01*
X129996000Y-96396000D01*
X129996000Y-95231500D01*
X130004000Y-95231500D01*
X130004000Y-96396000D01*
X131018500Y-96396000D01*
X131208000Y-96206500D01*
X131211668Y-95800000D01*
X131197033Y-95651406D01*
X131153689Y-95508522D01*
X131083304Y-95376840D01*
X130988581Y-95261419D01*
X130873160Y-95166696D01*
X130741478Y-95096311D01*
X130598594Y-95052967D01*
X130450000Y-95038332D01*
X130193500Y-95042000D01*
X130004000Y-95231500D01*
X129996000Y-95231500D01*
X129806500Y-95042000D01*
X129550000Y-95038332D01*
X129401406Y-95052967D01*
X129258522Y-95096311D01*
X129126840Y-95166696D01*
X129011419Y-95261419D01*
X128916696Y-95376840D01*
X128846311Y-95508522D01*
X128802967Y-95651406D01*
X128788332Y-95800000D01*
X127260217Y-95800000D01*
X127261668Y-95580000D01*
X127247033Y-95431406D01*
X127203689Y-95288522D01*
X127133304Y-95156840D01*
X127038581Y-95041419D01*
X126923160Y-94946696D01*
X126791478Y-94876311D01*
X126648594Y-94832967D01*
X126500000Y-94818332D01*
X124193500Y-94822000D01*
X124004000Y-95011500D01*
X123996000Y-95011500D01*
X123806500Y-94822000D01*
X122283000Y-94819577D01*
X122283000Y-85710582D01*
X123906500Y-85708000D01*
X124096000Y-85518500D01*
X124096000Y-84204000D01*
X124104000Y-84204000D01*
X124104000Y-85518500D01*
X124293500Y-85708000D01*
X126600000Y-85711668D01*
X126748594Y-85697033D01*
X126891478Y-85653689D01*
X127023160Y-85583304D01*
X127138581Y-85488581D01*
X127233304Y-85373160D01*
X127303689Y-85241478D01*
X127347033Y-85098594D01*
X127361668Y-84950000D01*
X127358000Y-84393500D01*
X127168500Y-84204000D01*
X124104000Y-84204000D01*
X124096000Y-84204000D01*
X124076000Y-84204000D01*
X124076000Y-84196000D01*
X124096000Y-84196000D01*
X124096000Y-84176000D01*
X124104000Y-84176000D01*
X124104000Y-84196000D01*
X127168500Y-84196000D01*
X127358000Y-84006500D01*
X127361668Y-83450000D01*
X127347033Y-83301406D01*
X127303689Y-83158522D01*
X127249959Y-83058000D01*
X128278921Y-83058000D01*
X132042001Y-86821081D01*
D26*
G36*
X138688696Y-65825000D02*
G01*
X126211085Y-65825000D01*
X126281821Y-65768939D01*
X126424615Y-65600870D01*
X126531876Y-65408172D01*
X126599483Y-65198251D01*
X126606964Y-65160637D01*
X126555954Y-64985000D01*
X125525000Y-64985000D01*
X125525000Y-65005000D01*
X125475000Y-65005000D01*
X125475000Y-64985000D01*
X125455000Y-64985000D01*
X125455000Y-64935000D01*
X125475000Y-64935000D01*
X125475000Y-63904027D01*
X125525000Y-63904027D01*
X125525000Y-64935000D01*
X126555954Y-64935000D01*
X126606964Y-64759363D01*
X126599483Y-64721749D01*
X126531876Y-64511828D01*
X126424615Y-64319130D01*
X126281821Y-64151061D01*
X126108982Y-64014079D01*
X125912741Y-63913448D01*
X125700638Y-63853035D01*
X125525000Y-63904027D01*
X125475000Y-63904027D01*
X125299362Y-63853035D01*
X125087259Y-63913448D01*
X124891018Y-64014079D01*
X124718179Y-64151061D01*
X124575385Y-64319130D01*
X124575000Y-64319822D01*
X124575000Y-63060178D01*
X124575385Y-63060870D01*
X124718179Y-63228939D01*
X124891018Y-63365921D01*
X125087259Y-63466552D01*
X125299362Y-63526965D01*
X125475000Y-63475973D01*
X125475000Y-62445000D01*
X125525000Y-62445000D01*
X125525000Y-63475973D01*
X125700638Y-63526965D01*
X125912741Y-63466552D01*
X126108982Y-63365921D01*
X126281821Y-63228939D01*
X126424615Y-63060870D01*
X126531876Y-62868172D01*
X126599483Y-62658251D01*
X126606964Y-62620637D01*
X126555954Y-62445000D01*
X125525000Y-62445000D01*
X125475000Y-62445000D01*
X125455000Y-62445000D01*
X125455000Y-62395000D01*
X125475000Y-62395000D01*
X125475000Y-62375000D01*
X125525000Y-62375000D01*
X125525000Y-62395000D01*
X126555954Y-62395000D01*
X126606964Y-62219363D01*
X126599483Y-62181749D01*
X126531876Y-61971828D01*
X126424615Y-61779130D01*
X126281821Y-61611061D01*
X126236321Y-61575000D01*
X138688696Y-61575000D01*
X138688696Y-65825000D01*
G37*
X138688696Y-65825000D02*
X126211085Y-65825000D01*
X126281821Y-65768939D01*
X126424615Y-65600870D01*
X126531876Y-65408172D01*
X126599483Y-65198251D01*
X126606964Y-65160637D01*
X126555954Y-64985000D01*
X125525000Y-64985000D01*
X125525000Y-65005000D01*
X125475000Y-65005000D01*
X125475000Y-64985000D01*
X125455000Y-64985000D01*
X125455000Y-64935000D01*
X125475000Y-64935000D01*
X125475000Y-63904027D01*
X125525000Y-63904027D01*
X125525000Y-64935000D01*
X126555954Y-64935000D01*
X126606964Y-64759363D01*
X126599483Y-64721749D01*
X126531876Y-64511828D01*
X126424615Y-64319130D01*
X126281821Y-64151061D01*
X126108982Y-64014079D01*
X125912741Y-63913448D01*
X125700638Y-63853035D01*
X125525000Y-63904027D01*
X125475000Y-63904027D01*
X125299362Y-63853035D01*
X125087259Y-63913448D01*
X124891018Y-64014079D01*
X124718179Y-64151061D01*
X124575385Y-64319130D01*
X124575000Y-64319822D01*
X124575000Y-63060178D01*
X124575385Y-63060870D01*
X124718179Y-63228939D01*
X124891018Y-63365921D01*
X125087259Y-63466552D01*
X125299362Y-63526965D01*
X125475000Y-63475973D01*
X125475000Y-62445000D01*
X125525000Y-62445000D01*
X125525000Y-63475973D01*
X125700638Y-63526965D01*
X125912741Y-63466552D01*
X126108982Y-63365921D01*
X126281821Y-63228939D01*
X126424615Y-63060870D01*
X126531876Y-62868172D01*
X126599483Y-62658251D01*
X126606964Y-62620637D01*
X126555954Y-62445000D01*
X125525000Y-62445000D01*
X125475000Y-62445000D01*
X125455000Y-62445000D01*
X125455000Y-62395000D01*
X125475000Y-62395000D01*
X125475000Y-62375000D01*
X125525000Y-62375000D01*
X125525000Y-62395000D01*
X126555954Y-62395000D01*
X126606964Y-62219363D01*
X126599483Y-62181749D01*
X126531876Y-61971828D01*
X126424615Y-61779130D01*
X126281821Y-61611061D01*
X126236321Y-61575000D01*
X138688696Y-61575000D01*
X138688696Y-65825000D01*
M02*
