M48
; DRILL file {KiCad (5.1.9)-1} date 02/10/22 00:30:14
; FORMAT={-:-/ absolute / metric / decimal}
; #@! TF.CreationDate,2022-02-10T00:30:14+00:00
; #@! TF.GenerationSoftware,Kicad,Pcbnew,(5.1.9)-1
; #@! TF.FileFunction,Plated,1,2,PTH
FMAT,2
METRIC
T1C0.762
T2C0.800
T3C1.000
%
G90
G05
T1
X32.445Y-123.97
X33.465Y-126.0
X34.475Y-123.97
X35.495Y-126.0
X36.505Y-123.97
X37.525Y-126.0
X38.535Y-123.97
X39.555Y-126.0
T2
X50.0Y-122.0
X50.0Y-132.0
X58.0Y-129.0
X58.5Y-123.0
X61.0Y-124.5
X61.0Y-129.0
T3
X72.7Y-119.75
X72.7Y-122.29
X72.7Y-124.83
X72.7Y-127.37
X72.7Y-129.91
X72.7Y-132.45
X75.24Y-119.75
X75.24Y-122.29
X75.24Y-124.83
X75.24Y-127.37
X75.24Y-129.91
X75.24Y-132.45
T0
M30
