M48
; DRILL file {KiCad (5.1.9)-1} date 02/10/22 00:21:10
; FORMAT={-:-/ absolute / metric / decimal}
; #@! TF.CreationDate,2022-02-10T00:21:10+00:00
; #@! TF.GenerationSoftware,Kicad,Pcbnew,(5.1.9)-1
; #@! TF.FileFunction,Plated,1,2,PTH
FMAT,2
METRIC
T1C0.400
T2C0.600
T3C1.000
%
G90
G05
T1
X123.725Y-57.7
X123.725Y-74.2
X123.725Y-86.3
X123.725Y-102.8
X123.725Y-107.2
X123.725Y-111.6
X123.725Y-116.0
X123.725Y-120.4
X123.725Y-124.8
X123.725Y-129.2
X123.725Y-133.6
X123.725Y-138.0
X128.125Y-57.7
X128.125Y-67.6
X128.125Y-74.2
X128.125Y-78.6
X128.125Y-84.1
X128.125Y-88.5
X128.125Y-96.2
X128.125Y-100.6
X128.125Y-105.0
X128.125Y-109.4
X128.125Y-113.8
X128.125Y-118.2
X128.125Y-122.6
X128.125Y-127.0
X128.125Y-131.4
X128.125Y-135.8
X128.125Y-140.2
X131.5Y-139.4
X131.5Y-142.0
X132.525Y-58.8
X132.525Y-67.6
X132.525Y-72.0
X132.525Y-76.4
X132.525Y-80.8
X132.525Y-106.1
X132.525Y-110.5
X132.525Y-114.9
X132.525Y-119.3
X132.525Y-123.7
X132.525Y-128.1
X132.525Y-132.5
X132.525Y-136.9
X133.625Y-100.6
X134.725Y-85.2
X134.725Y-89.6
X134.725Y-94.0
X136.925Y-55.5
X136.925Y-59.9
X136.925Y-67.6
X136.925Y-72.0
X136.925Y-77.5
X136.925Y-108.3
X136.925Y-112.7
X136.925Y-117.1
X138.025Y-121.5
X138.025Y-125.9
X138.025Y-130.3
X138.025Y-134.7
X139.125Y-81.9
X139.125Y-89.6
X139.125Y-94.0
X139.125Y-103.9
X141.0Y-139.4
X141.0Y-142.0
X141.325Y-58.8
X141.325Y-67.6
X141.325Y-72.0
X141.325Y-108.3
X141.325Y-112.7
X141.325Y-117.1
X142.425Y-121.5
X142.425Y-125.9
X142.425Y-130.3
X142.425Y-134.7
X143.525Y-63.2
X143.525Y-139.1
X144.625Y-76.4
X144.625Y-80.8
X144.625Y-85.2
X144.625Y-89.6
X144.625Y-94.0
X145.725Y-55.5
X145.725Y-67.6
X145.725Y-72.0
X145.725Y-106.1
X145.725Y-110.5
X145.725Y-114.9
X146.825Y-119.3
X146.825Y-123.7
X146.825Y-128.1
X146.825Y-132.5
X147.925Y-59.9
X147.925Y-136.9
X147.925Y-141.3
X149.025Y-76.4
X149.025Y-80.8
X149.025Y-85.2
X149.025Y-89.6
X150.125Y-55.5
X150.125Y-102.8
X151.225Y-98.4
X152.325Y-65.4
X152.325Y-69.8
X152.325Y-94.0
X152.325Y-138.0
X153.425Y-74.2
X153.425Y-78.6
X153.425Y-83.0
X153.425Y-87.4
X153.425Y-107.2
X153.425Y-111.6
X153.425Y-116.0
X153.425Y-120.4
X153.425Y-124.8
X153.425Y-129.2
X154.525Y-55.5
X154.525Y-102.8
X154.525Y-133.6
X155.625Y-98.4
X156.725Y-67.6
X156.725Y-91.8
X157.825Y-72.0
X157.825Y-76.4
X157.825Y-80.8
X157.825Y-85.2
X157.825Y-107.2
X157.825Y-111.6
X157.825Y-116.0
X157.825Y-120.4
X157.825Y-124.8
X157.825Y-129.2
T2
X123.0Y-92.5
X123.5Y-55.0
X123.5Y-71.5
X125.5Y-92.5
X125.5Y-105.0
X127.0Y-55.0
X127.0Y-71.5
X130.0Y-94.0
X132.0Y-103.2
X134.0Y-56.0
X136.5Y-106.0
X138.0Y-86.9
X138.7Y-75.1
X138.8Y-92.0
X139.2Y-73.5
X141.2Y-87.1
X143.0Y-56.0
X158.0Y-65.0
X158.0Y-132.0
X158.0Y-141.5
X158.5Y-55.0
X158.5Y-95.0
X158.5Y-105.0
X161.0Y-55.0
X161.0Y-65.0
X161.0Y-95.0
X161.0Y-105.0
X161.0Y-132.0
X161.0Y-141.5
T3
X125.5Y-59.88
X125.5Y-62.42
X125.5Y-64.96
X125.5Y-67.5
T0
M30
