M48
; DRILL file {KiCad (5.1.9)-1} date 02/10/22 00:26:39
; FORMAT={-:-/ absolute / metric / decimal}
; #@! TF.CreationDate,2022-02-10T00:26:39+00:00
; #@! TF.GenerationSoftware,Kicad,Pcbnew,(5.1.9)-1
; #@! TF.FileFunction,Plated,1,2,PTH
FMAT,2
METRIC
T1C0.500
T2C0.762
T3C1.000
%
G90
G05
T1
X55.5Y-127.3
X57.3Y-159.6
X60.8Y-150.5
X64.5Y-135.8
X64.5Y-140.5
X67.2Y-150.1
X67.8Y-126.9
X70.4Y-159.2
X71.3Y-149.8
X73.9Y-129.7
X75.0Y-154.0
X75.1Y-150.0
X79.4Y-145.0
X80.0Y-138.5
X80.2Y-147.0
X80.6Y-143.2
X80.7Y-127.3
X81.0Y-159.6
X82.0Y-145.4
X82.8Y-133.3
T2
X85.37Y-141.215
X85.37Y-143.245
X85.37Y-145.275
X85.37Y-147.305
X87.4Y-140.195
X87.4Y-142.225
X87.4Y-144.255
X87.4Y-146.285
T3
X56.2Y-137.5
X56.2Y-140.04
X56.2Y-142.58
X56.2Y-145.12
X56.2Y-147.66
X56.2Y-150.2
X80.26Y-155.6
X82.8Y-155.6
T0
M30
