G04 #@! TF.GenerationSoftware,KiCad,Pcbnew,(5.0.2)-1*
G04 #@! TF.CreationDate,2019-10-03T15:21:39+01:00*
G04 #@! TF.ProjectId,RS-485_FTDI,52532d34-3835-45f4-9654-44492e6b6963,rev?*
G04 #@! TF.SameCoordinates,Original*
G04 #@! TF.FileFunction,Copper,L1,Top*
G04 #@! TF.FilePolarity,Positive*
%FSLAX46Y46*%
G04 Gerber Fmt 4.6, Leading zero omitted, Abs format (unit mm)*
G04 Created by KiCad (PCBNEW (5.0.2)-1) date 03/10/2019 15:21:39*
%MOMM*%
%LPD*%
G01*
G04 APERTURE LIST*
G04 #@! TA.AperFunction,SMDPad,CuDef*
%ADD10R,2.600000X1.800000*%
G04 #@! TD*
G04 #@! TA.AperFunction,SMDPad,CuDef*
%ADD11R,0.800000X0.750000*%
G04 #@! TD*
G04 #@! TA.AperFunction,ComponentPad*
%ADD12O,1.700000X1.700000*%
G04 #@! TD*
G04 #@! TA.AperFunction,ComponentPad*
%ADD13R,1.700000X1.700000*%
G04 #@! TD*
G04 #@! TA.AperFunction,ComponentPad*
%ADD14R,0.850000X0.850000*%
G04 #@! TD*
G04 #@! TA.AperFunction,SMDPad,CuDef*
%ADD15R,1.969999X0.542600*%
G04 #@! TD*
G04 #@! TA.AperFunction,ViaPad*
%ADD16C,0.900000*%
G04 #@! TD*
G04 #@! TA.AperFunction,Conductor*
%ADD17C,0.400000*%
G04 #@! TD*
G04 #@! TA.AperFunction,Conductor*
%ADD18C,0.800000*%
G04 #@! TD*
G04 #@! TA.AperFunction,Conductor*
%ADD19C,0.600000*%
G04 #@! TD*
G04 #@! TA.AperFunction,Conductor*
%ADD20C,0.500000*%
G04 #@! TD*
G04 APERTURE END LIST*
D10*
G04 #@! TO.P,C1,2*
G04 #@! TO.N,GND*
X77300000Y-133600000D03*
G04 #@! TO.P,C1,1*
G04 #@! TO.N,+5V*
X73900000Y-133600000D03*
G04 #@! TD*
D11*
G04 #@! TO.P,C2,1*
G04 #@! TO.N,+5V*
X74800000Y-136500000D03*
G04 #@! TO.P,C2,2*
G04 #@! TO.N,GND*
X76300000Y-136500000D03*
G04 #@! TD*
D12*
G04 #@! TO.P,J1,6*
G04 #@! TO.N,DTR*
X56200000Y-137500000D03*
G04 #@! TO.P,J1,5*
G04 #@! TO.N,RXI*
X56200000Y-140040000D03*
G04 #@! TO.P,J1,4*
G04 #@! TO.N,TXO*
X56200000Y-142580000D03*
G04 #@! TO.P,J1,3*
G04 #@! TO.N,+5V*
X56200000Y-145120000D03*
G04 #@! TO.P,J1,2*
G04 #@! TO.N,CTS*
X56200000Y-147660000D03*
D13*
G04 #@! TO.P,J1,1*
G04 #@! TO.N,GND*
X56200000Y-150200000D03*
G04 #@! TD*
D14*
G04 #@! TO.P,J2,1*
G04 #@! TO.N,Net-(J2-Pad1)*
X67200000Y-150100000D03*
G04 #@! TD*
D12*
G04 #@! TO.P,J3,4*
G04 #@! TO.N,GND*
X86400000Y-138480000D03*
G04 #@! TO.P,J3,3*
X86400000Y-141020000D03*
G04 #@! TO.P,J3,2*
G04 #@! TO.N,WIRE-*
X86400000Y-143560000D03*
D13*
G04 #@! TO.P,J3,1*
G04 #@! TO.N,WIRE+*
X86400000Y-146100000D03*
G04 #@! TD*
D15*
G04 #@! TO.P,U1,1*
G04 #@! TO.N,GND*
X70572400Y-139090000D03*
G04 #@! TO.P,U1,2*
G04 #@! TO.N,Net-(U1-Pad2)*
X70572400Y-140360000D03*
G04 #@! TO.P,U1,3*
G04 #@! TO.N,+5V*
X70572400Y-141630000D03*
G04 #@! TO.P,U1,4*
X70572400Y-142900000D03*
G04 #@! TO.P,U1,5*
G04 #@! TO.N,TXO*
X70572400Y-144170000D03*
G04 #@! TO.P,U1,6*
G04 #@! TO.N,Net-(J2-Pad1)*
X70572400Y-145440000D03*
G04 #@! TO.P,U1,7*
G04 #@! TO.N,GND*
X70572400Y-146710000D03*
G04 #@! TO.P,U1,8*
G04 #@! TO.N,Net-(J5-Pad1)*
X75500000Y-146710000D03*
G04 #@! TO.P,U1,9*
G04 #@! TO.N,WIRE+*
X75500000Y-145440000D03*
G04 #@! TO.P,U1,10*
G04 #@! TO.N,WIRE-*
X75500000Y-144170000D03*
G04 #@! TO.P,U1,11*
G04 #@! TO.N,Net-(U1-Pad11)*
X75500000Y-142900000D03*
G04 #@! TO.P,U1,12*
G04 #@! TO.N,Net-(U1-Pad12)*
X75500000Y-141630000D03*
G04 #@! TO.P,U1,13*
G04 #@! TO.N,Net-(U1-Pad13)*
X75500000Y-140360000D03*
G04 #@! TO.P,U1,14*
G04 #@! TO.N,+5V*
X75500000Y-139090000D03*
G04 #@! TD*
D14*
G04 #@! TO.P,J4,1*
G04 #@! TO.N,+5V*
X73900000Y-129700000D03*
G04 #@! TD*
G04 #@! TO.P,J5,1*
G04 #@! TO.N,Net-(J5-Pad1)*
X75100000Y-150000000D03*
G04 #@! TD*
G04 #@! TO.P,J6,1*
G04 #@! TO.N,GND*
X80900000Y-150400000D03*
G04 #@! TD*
D16*
G04 #@! TO.N,GND*
X65300000Y-136200000D03*
X65300000Y-131000000D03*
X55500000Y-127300000D03*
X67800000Y-126900000D03*
X80700000Y-127300000D03*
X81000000Y-159600000D03*
X70400000Y-159200000D03*
X57300000Y-159600000D03*
X62000000Y-136500000D03*
X62100000Y-139500000D03*
X61600000Y-147000000D03*
X71300000Y-149800000D03*
X52700000Y-139400000D03*
G04 #@! TD*
D17*
G04 #@! TO.N,GND*
X70572400Y-147381300D02*
X70800000Y-147608900D01*
X70572400Y-146710000D02*
X70572400Y-147381300D01*
X70800000Y-148300000D02*
X70900000Y-148400000D01*
X70800000Y-148200000D02*
X70800000Y-148300000D01*
X70800000Y-147608900D02*
X70900000Y-148400000D01*
D18*
G04 #@! TO.N,+5V*
X54997919Y-145120000D02*
X54977919Y-145100000D01*
X56200000Y-145120000D02*
X54997919Y-145120000D01*
X54977919Y-145100000D02*
X53700000Y-145100000D01*
D17*
X75500000Y-138418700D02*
X74800000Y-137718700D01*
X75500000Y-139090000D02*
X75500000Y-138418700D01*
X74800000Y-137718700D02*
X74800000Y-136500000D01*
X72057399Y-143000000D02*
X73100000Y-143000000D01*
X71957399Y-142900000D02*
X72057399Y-143000000D01*
X70572400Y-142900000D02*
X71957399Y-142900000D01*
X73030000Y-141630000D02*
X73100000Y-141700000D01*
X70572400Y-141630000D02*
X73030000Y-141630000D01*
X73100000Y-137500000D02*
X73100000Y-141700000D01*
X73100000Y-141700000D02*
X73100000Y-143000000D01*
D18*
X56200000Y-145120000D02*
X50880000Y-145120000D01*
D19*
X73100000Y-137200000D02*
X73100000Y-137500000D01*
X73800000Y-136500000D02*
X73100000Y-137200000D01*
X74800000Y-136500000D02*
X73800000Y-136500000D01*
X50880000Y-145120000D02*
X50820000Y-145120000D01*
X50820000Y-145120000D02*
X49500000Y-143800000D01*
X49500000Y-143800000D02*
X49500000Y-135700000D01*
X51600000Y-133600000D02*
X73900000Y-133600000D01*
X49500000Y-135700000D02*
X51600000Y-133600000D01*
X74800000Y-134500000D02*
X73900000Y-133600000D01*
X74800000Y-136500000D02*
X74800000Y-134500000D01*
X73900000Y-133600000D02*
X73900000Y-129700000D01*
D17*
G04 #@! TO.N,TXO*
X70572400Y-144170000D02*
X66670000Y-144170000D01*
X65080000Y-142580000D02*
X56200000Y-142580000D01*
X66670000Y-144170000D02*
X65080000Y-142580000D01*
G04 #@! TO.N,Net-(J2-Pad1)*
X69187401Y-145440000D02*
X69127401Y-145500000D01*
X70572400Y-145440000D02*
X69187401Y-145440000D01*
X69127401Y-145500000D02*
X67800000Y-145500000D01*
X67200000Y-146100000D02*
X67200000Y-150100000D01*
X67800000Y-145500000D02*
X67200000Y-146100000D01*
G04 #@! TO.N,WIRE-*
X75500000Y-144170000D02*
X80730000Y-144170000D01*
X81340000Y-143560000D02*
X86400000Y-143560000D01*
X80730000Y-144170000D02*
X81340000Y-143560000D01*
G04 #@! TO.N,WIRE+*
X75500000Y-145440000D02*
X81240000Y-145440000D01*
X81900000Y-146100000D02*
X86400000Y-146100000D01*
X81240000Y-145440000D02*
X81900000Y-146100000D01*
G04 #@! TO.N,Net-(U1-Pad12)*
X76884999Y-141630000D02*
X75500000Y-141630000D01*
G04 #@! TO.N,Net-(J5-Pad1)*
X75500000Y-146710000D02*
X75500000Y-147700000D01*
X75100000Y-148100000D02*
X75100000Y-150100000D01*
X75500000Y-147700000D02*
X75100000Y-148100000D01*
G04 #@! TD*
D20*
G04 #@! TO.N,GND*
G36*
X89850001Y-161850000D02*
X44150000Y-161850000D01*
X44150000Y-158192774D01*
X44750000Y-158192774D01*
X44750000Y-159207226D01*
X45138215Y-160144459D01*
X45855541Y-160861785D01*
X46792774Y-161250000D01*
X47807226Y-161250000D01*
X48744459Y-160861785D01*
X49461785Y-160144459D01*
X49850000Y-159207226D01*
X49850000Y-158192774D01*
X49767158Y-157992774D01*
X84050000Y-157992774D01*
X84050000Y-159007226D01*
X84438215Y-159944459D01*
X85155541Y-160661785D01*
X86092774Y-161050000D01*
X87107226Y-161050000D01*
X88044459Y-160661785D01*
X88761785Y-159944459D01*
X89150000Y-159007226D01*
X89150000Y-157992774D01*
X88761785Y-157055541D01*
X88044459Y-156338215D01*
X87107226Y-155950000D01*
X86092774Y-155950000D01*
X85155541Y-156338215D01*
X84438215Y-157055541D01*
X84050000Y-157992774D01*
X49767158Y-157992774D01*
X49461785Y-157255541D01*
X48744459Y-156538215D01*
X47807226Y-156150000D01*
X46792774Y-156150000D01*
X45855541Y-156538215D01*
X45138215Y-157255541D01*
X44750000Y-158192774D01*
X44150000Y-158192774D01*
X44150000Y-150393500D01*
X54592000Y-150393500D01*
X54592000Y-151200775D01*
X54707398Y-151479372D01*
X54920627Y-151692601D01*
X55199224Y-151808000D01*
X56006500Y-151808000D01*
X56196000Y-151618500D01*
X56196000Y-150204000D01*
X56204000Y-150204000D01*
X56204000Y-151618500D01*
X56393500Y-151808000D01*
X57200776Y-151808000D01*
X57479373Y-151692601D01*
X57692602Y-151479372D01*
X57808000Y-151200775D01*
X57808000Y-150393500D01*
X57618500Y-150204000D01*
X56204000Y-150204000D01*
X56196000Y-150204000D01*
X54781500Y-150204000D01*
X54592000Y-150393500D01*
X44150000Y-150393500D01*
X44150000Y-135700000D01*
X48123552Y-135700000D01*
X48150001Y-135832968D01*
X48150000Y-143667037D01*
X48123552Y-143800000D01*
X48228328Y-144326743D01*
X48339413Y-144492993D01*
X48526704Y-144773295D01*
X48639424Y-144848612D01*
X49589757Y-145798945D01*
X49834608Y-146165392D01*
X50314238Y-146485870D01*
X50737188Y-146570000D01*
X54643204Y-146570000D01*
X54410239Y-146918657D01*
X54262777Y-147660000D01*
X54410239Y-148401343D01*
X54737260Y-148890766D01*
X54707398Y-148920628D01*
X54592000Y-149199225D01*
X54592000Y-150006500D01*
X54781500Y-150196000D01*
X56196000Y-150196000D01*
X56196000Y-150176000D01*
X56204000Y-150176000D01*
X56204000Y-150196000D01*
X57618500Y-150196000D01*
X57808000Y-150006500D01*
X57808000Y-149199225D01*
X57692602Y-148920628D01*
X57662740Y-148890766D01*
X57989761Y-148401343D01*
X58137223Y-147660000D01*
X57989761Y-146918657D01*
X57636524Y-146390000D01*
X57989761Y-145861343D01*
X58137223Y-145120000D01*
X57989761Y-144378657D01*
X57636524Y-143850000D01*
X57649888Y-143830000D01*
X64562234Y-143830000D01*
X65699064Y-144966830D01*
X65768801Y-145071199D01*
X66028526Y-145244742D01*
X66182274Y-145347473D01*
X66197446Y-145350491D01*
X66022527Y-145612276D01*
X65950000Y-145976892D01*
X65950000Y-145976896D01*
X65925513Y-146100000D01*
X65950000Y-146223104D01*
X65950001Y-149019750D01*
X65785922Y-149265311D01*
X65704430Y-149675000D01*
X65704430Y-150525000D01*
X65785922Y-150934689D01*
X66017993Y-151282007D01*
X66365311Y-151514078D01*
X66775000Y-151595570D01*
X67625000Y-151595570D01*
X68034689Y-151514078D01*
X68382007Y-151282007D01*
X68614078Y-150934689D01*
X68695570Y-150525000D01*
X68695570Y-149675000D01*
X68614078Y-149265311D01*
X68450000Y-149019751D01*
X68450000Y-146750000D01*
X68982901Y-146750000D01*
X68829401Y-146903500D01*
X68829401Y-147132075D01*
X68944799Y-147410672D01*
X69158028Y-147623901D01*
X69436625Y-147739300D01*
X70378900Y-147739300D01*
X70568400Y-147549800D01*
X70568400Y-146781870D01*
X70576400Y-146781870D01*
X70576400Y-147549800D01*
X70765900Y-147739300D01*
X71708175Y-147739300D01*
X71986772Y-147623901D01*
X72200001Y-147410672D01*
X72315399Y-147132075D01*
X72315399Y-146903500D01*
X72125899Y-146714000D01*
X71898605Y-146714000D01*
X71938824Y-146706000D01*
X72125899Y-146706000D01*
X72315399Y-146516500D01*
X72315399Y-146466821D01*
X72546477Y-146120989D01*
X72627969Y-145711300D01*
X72627969Y-145168700D01*
X72555625Y-144805000D01*
X72627969Y-144441300D01*
X72627969Y-144250000D01*
X72976891Y-144250000D01*
X73100000Y-144274488D01*
X73444431Y-144205976D01*
X73444431Y-144441300D01*
X73516775Y-144805000D01*
X73444431Y-145168700D01*
X73444431Y-145711300D01*
X73516775Y-146075000D01*
X73444431Y-146438700D01*
X73444431Y-146981300D01*
X73525923Y-147390989D01*
X73757994Y-147738307D01*
X73881096Y-147820561D01*
X73850000Y-147976892D01*
X73850000Y-147976896D01*
X73825513Y-148100000D01*
X73850000Y-148223104D01*
X73850000Y-148919751D01*
X73685922Y-149165311D01*
X73604430Y-149575000D01*
X73604430Y-150425000D01*
X73685922Y-150834689D01*
X73917993Y-151182007D01*
X74265311Y-151414078D01*
X74675000Y-151495570D01*
X75525000Y-151495570D01*
X75934689Y-151414078D01*
X76282007Y-151182007D01*
X76514078Y-150834689D01*
X76562053Y-150593500D01*
X79717000Y-150593500D01*
X79717000Y-150975775D01*
X79832398Y-151254372D01*
X80045627Y-151467601D01*
X80324224Y-151583000D01*
X80706500Y-151583000D01*
X80896000Y-151393500D01*
X80896000Y-150404000D01*
X80904000Y-150404000D01*
X80904000Y-151393500D01*
X81093500Y-151583000D01*
X81475776Y-151583000D01*
X81754373Y-151467601D01*
X81967602Y-151254372D01*
X82083000Y-150975775D01*
X82083000Y-150593500D01*
X81893500Y-150404000D01*
X80904000Y-150404000D01*
X80896000Y-150404000D01*
X79906500Y-150404000D01*
X79717000Y-150593500D01*
X76562053Y-150593500D01*
X76595570Y-150425000D01*
X76595570Y-149824225D01*
X79717000Y-149824225D01*
X79717000Y-150206500D01*
X79906500Y-150396000D01*
X80896000Y-150396000D01*
X80896000Y-149406500D01*
X80904000Y-149406500D01*
X80904000Y-150396000D01*
X81893500Y-150396000D01*
X82083000Y-150206500D01*
X82083000Y-149824225D01*
X81967602Y-149545628D01*
X81754373Y-149332399D01*
X81475776Y-149217000D01*
X81093500Y-149217000D01*
X80904000Y-149406500D01*
X80896000Y-149406500D01*
X80706500Y-149217000D01*
X80324224Y-149217000D01*
X80045627Y-149332399D01*
X79832398Y-149545628D01*
X79717000Y-149824225D01*
X76595570Y-149824225D01*
X76595570Y-149575000D01*
X76514078Y-149165311D01*
X76350000Y-148919751D01*
X76350000Y-148635409D01*
X76401199Y-148601199D01*
X76677473Y-148187725D01*
X76713539Y-148006411D01*
X76894688Y-147970378D01*
X77242006Y-147738307D01*
X77474077Y-147390989D01*
X77555569Y-146981300D01*
X77555569Y-146690000D01*
X80722234Y-146690000D01*
X80929064Y-146896830D01*
X80998801Y-147001199D01*
X81412275Y-147277473D01*
X81776891Y-147350000D01*
X81776896Y-147350000D01*
X81900000Y-147374487D01*
X82023104Y-147350000D01*
X84558995Y-147350000D01*
X84560922Y-147359689D01*
X84792993Y-147707007D01*
X85140311Y-147939078D01*
X85550000Y-148020570D01*
X87250000Y-148020570D01*
X87659689Y-147939078D01*
X88007007Y-147707007D01*
X88239078Y-147359689D01*
X88320570Y-146950000D01*
X88320570Y-145250000D01*
X88239078Y-144840311D01*
X88034356Y-144533923D01*
X88189761Y-144301343D01*
X88337223Y-143560000D01*
X88189761Y-142818657D01*
X87769824Y-142190176D01*
X87588188Y-142068811D01*
X87703247Y-141961919D01*
X87964500Y-141391489D01*
X87987572Y-141275497D01*
X87818494Y-141024000D01*
X86404000Y-141024000D01*
X86404000Y-141044000D01*
X86396000Y-141044000D01*
X86396000Y-141024000D01*
X84981506Y-141024000D01*
X84812428Y-141275497D01*
X84835500Y-141391489D01*
X85096753Y-141961919D01*
X85211812Y-142068811D01*
X85030176Y-142190176D01*
X84950112Y-142310000D01*
X81463103Y-142310000D01*
X81339999Y-142285513D01*
X81216895Y-142310000D01*
X81216891Y-142310000D01*
X80852275Y-142382527D01*
X80438801Y-142658801D01*
X80369064Y-142763170D01*
X80212234Y-142920000D01*
X77555569Y-142920000D01*
X77555569Y-142685300D01*
X77786198Y-142531199D01*
X78062472Y-142117725D01*
X78159487Y-141630000D01*
X78062472Y-141142275D01*
X77786198Y-140728801D01*
X77555569Y-140574700D01*
X77555569Y-140088700D01*
X77483225Y-139725000D01*
X77555569Y-139361300D01*
X77555569Y-138818700D01*
X77539019Y-138735497D01*
X84812428Y-138735497D01*
X84835500Y-138851489D01*
X85096753Y-139421919D01*
X85449902Y-139750000D01*
X85096753Y-140078081D01*
X84835500Y-140648511D01*
X84812428Y-140764503D01*
X84981506Y-141016000D01*
X86396000Y-141016000D01*
X86396000Y-138484000D01*
X86404000Y-138484000D01*
X86404000Y-141016000D01*
X87818494Y-141016000D01*
X87987572Y-140764503D01*
X87964500Y-140648511D01*
X87703247Y-140078081D01*
X87350098Y-139750000D01*
X87703247Y-139421919D01*
X87964500Y-138851489D01*
X87987572Y-138735497D01*
X87818494Y-138484000D01*
X86404000Y-138484000D01*
X86396000Y-138484000D01*
X84981506Y-138484000D01*
X84812428Y-138735497D01*
X77539019Y-138735497D01*
X77474077Y-138409011D01*
X77350793Y-138224503D01*
X84812428Y-138224503D01*
X84981506Y-138476000D01*
X86396000Y-138476000D01*
X86396000Y-137061505D01*
X86404000Y-137061505D01*
X86404000Y-138476000D01*
X87818494Y-138476000D01*
X87987572Y-138224503D01*
X87964500Y-138108511D01*
X87703247Y-137538081D01*
X87243586Y-137111049D01*
X86655497Y-136892428D01*
X86404000Y-137061505D01*
X86396000Y-137061505D01*
X86144503Y-136892428D01*
X85556414Y-137111049D01*
X85096753Y-137538081D01*
X84835500Y-138108511D01*
X84812428Y-138224503D01*
X77350793Y-138224503D01*
X77242006Y-138061693D01*
X76894688Y-137829622D01*
X76566076Y-137764257D01*
X76447912Y-137587412D01*
X76493500Y-137633000D01*
X76850776Y-137633000D01*
X77129373Y-137517601D01*
X77342602Y-137304372D01*
X77458000Y-137025775D01*
X77458000Y-136693500D01*
X77268500Y-136504000D01*
X76304000Y-136504000D01*
X76304000Y-136524000D01*
X76296000Y-136524000D01*
X76296000Y-136504000D01*
X76276000Y-136504000D01*
X76276000Y-136496000D01*
X76296000Y-136496000D01*
X76296000Y-135556500D01*
X76304000Y-135556500D01*
X76304000Y-136496000D01*
X77268500Y-136496000D01*
X77458000Y-136306500D01*
X77458000Y-135974225D01*
X77342602Y-135695628D01*
X77129373Y-135482399D01*
X76850776Y-135367000D01*
X76493500Y-135367000D01*
X76304000Y-135556500D01*
X76296000Y-135556500D01*
X76150000Y-135410500D01*
X76150000Y-135258000D01*
X77106500Y-135258000D01*
X77296000Y-135068500D01*
X77296000Y-133604000D01*
X77304000Y-133604000D01*
X77304000Y-135068500D01*
X77493500Y-135258000D01*
X78750776Y-135258000D01*
X79029373Y-135142601D01*
X79242602Y-134929372D01*
X79358000Y-134650775D01*
X79358000Y-133793500D01*
X79168500Y-133604000D01*
X77304000Y-133604000D01*
X77296000Y-133604000D01*
X77276000Y-133604000D01*
X77276000Y-133596000D01*
X77296000Y-133596000D01*
X77296000Y-132131500D01*
X77304000Y-132131500D01*
X77304000Y-133596000D01*
X79168500Y-133596000D01*
X79358000Y-133406500D01*
X79358000Y-132549225D01*
X79242602Y-132270628D01*
X79029373Y-132057399D01*
X78750776Y-131942000D01*
X77493500Y-131942000D01*
X77304000Y-132131500D01*
X77296000Y-132131500D01*
X77106500Y-131942000D01*
X75955521Y-131942000D01*
X75609689Y-131710922D01*
X75250000Y-131639376D01*
X75250000Y-130630588D01*
X75314078Y-130534689D01*
X75395570Y-130125000D01*
X75395570Y-129275000D01*
X75314078Y-128865311D01*
X75082007Y-128517993D01*
X74734689Y-128285922D01*
X74325000Y-128204430D01*
X73475000Y-128204430D01*
X73065311Y-128285922D01*
X72717993Y-128517993D01*
X72485922Y-128865311D01*
X72404430Y-129275000D01*
X72404430Y-130125000D01*
X72485922Y-130534689D01*
X72550001Y-130630589D01*
X72550001Y-131639375D01*
X72190311Y-131710922D01*
X71842993Y-131942993D01*
X71637857Y-132250000D01*
X51732961Y-132250000D01*
X51599999Y-132223552D01*
X51467038Y-132250000D01*
X51467037Y-132250000D01*
X51073256Y-132328328D01*
X50626704Y-132626704D01*
X50551385Y-132739427D01*
X48639425Y-134651387D01*
X48526705Y-134726704D01*
X48451388Y-134839424D01*
X48451387Y-134839425D01*
X48228328Y-135173257D01*
X48123552Y-135700000D01*
X44150000Y-135700000D01*
X44150000Y-127792774D01*
X44750000Y-127792774D01*
X44750000Y-128807226D01*
X45138215Y-129744459D01*
X45855541Y-130461785D01*
X46792774Y-130850000D01*
X47807226Y-130850000D01*
X48744459Y-130461785D01*
X49461785Y-129744459D01*
X49850000Y-128807226D01*
X49850000Y-127792774D01*
X49808579Y-127692774D01*
X84350000Y-127692774D01*
X84350000Y-128707226D01*
X84738215Y-129644459D01*
X85455541Y-130361785D01*
X86392774Y-130750000D01*
X87407226Y-130750000D01*
X88344459Y-130361785D01*
X89061785Y-129644459D01*
X89450000Y-128707226D01*
X89450000Y-127692774D01*
X89061785Y-126755541D01*
X88344459Y-126038215D01*
X87407226Y-125650000D01*
X86392774Y-125650000D01*
X85455541Y-126038215D01*
X84738215Y-126755541D01*
X84350000Y-127692774D01*
X49808579Y-127692774D01*
X49461785Y-126855541D01*
X48744459Y-126138215D01*
X47807226Y-125750000D01*
X46792774Y-125750000D01*
X45855541Y-126138215D01*
X45138215Y-126855541D01*
X44750000Y-127792774D01*
X44150000Y-127792774D01*
X44150000Y-125150000D01*
X89850000Y-125150000D01*
X89850001Y-161850000D01*
X89850001Y-161850000D01*
G37*
X89850001Y-161850000D02*
X44150000Y-161850000D01*
X44150000Y-158192774D01*
X44750000Y-158192774D01*
X44750000Y-159207226D01*
X45138215Y-160144459D01*
X45855541Y-160861785D01*
X46792774Y-161250000D01*
X47807226Y-161250000D01*
X48744459Y-160861785D01*
X49461785Y-160144459D01*
X49850000Y-159207226D01*
X49850000Y-158192774D01*
X49767158Y-157992774D01*
X84050000Y-157992774D01*
X84050000Y-159007226D01*
X84438215Y-159944459D01*
X85155541Y-160661785D01*
X86092774Y-161050000D01*
X87107226Y-161050000D01*
X88044459Y-160661785D01*
X88761785Y-159944459D01*
X89150000Y-159007226D01*
X89150000Y-157992774D01*
X88761785Y-157055541D01*
X88044459Y-156338215D01*
X87107226Y-155950000D01*
X86092774Y-155950000D01*
X85155541Y-156338215D01*
X84438215Y-157055541D01*
X84050000Y-157992774D01*
X49767158Y-157992774D01*
X49461785Y-157255541D01*
X48744459Y-156538215D01*
X47807226Y-156150000D01*
X46792774Y-156150000D01*
X45855541Y-156538215D01*
X45138215Y-157255541D01*
X44750000Y-158192774D01*
X44150000Y-158192774D01*
X44150000Y-150393500D01*
X54592000Y-150393500D01*
X54592000Y-151200775D01*
X54707398Y-151479372D01*
X54920627Y-151692601D01*
X55199224Y-151808000D01*
X56006500Y-151808000D01*
X56196000Y-151618500D01*
X56196000Y-150204000D01*
X56204000Y-150204000D01*
X56204000Y-151618500D01*
X56393500Y-151808000D01*
X57200776Y-151808000D01*
X57479373Y-151692601D01*
X57692602Y-151479372D01*
X57808000Y-151200775D01*
X57808000Y-150393500D01*
X57618500Y-150204000D01*
X56204000Y-150204000D01*
X56196000Y-150204000D01*
X54781500Y-150204000D01*
X54592000Y-150393500D01*
X44150000Y-150393500D01*
X44150000Y-135700000D01*
X48123552Y-135700000D01*
X48150001Y-135832968D01*
X48150000Y-143667037D01*
X48123552Y-143800000D01*
X48228328Y-144326743D01*
X48339413Y-144492993D01*
X48526704Y-144773295D01*
X48639424Y-144848612D01*
X49589757Y-145798945D01*
X49834608Y-146165392D01*
X50314238Y-146485870D01*
X50737188Y-146570000D01*
X54643204Y-146570000D01*
X54410239Y-146918657D01*
X54262777Y-147660000D01*
X54410239Y-148401343D01*
X54737260Y-148890766D01*
X54707398Y-148920628D01*
X54592000Y-149199225D01*
X54592000Y-150006500D01*
X54781500Y-150196000D01*
X56196000Y-150196000D01*
X56196000Y-150176000D01*
X56204000Y-150176000D01*
X56204000Y-150196000D01*
X57618500Y-150196000D01*
X57808000Y-150006500D01*
X57808000Y-149199225D01*
X57692602Y-148920628D01*
X57662740Y-148890766D01*
X57989761Y-148401343D01*
X58137223Y-147660000D01*
X57989761Y-146918657D01*
X57636524Y-146390000D01*
X57989761Y-145861343D01*
X58137223Y-145120000D01*
X57989761Y-144378657D01*
X57636524Y-143850000D01*
X57649888Y-143830000D01*
X64562234Y-143830000D01*
X65699064Y-144966830D01*
X65768801Y-145071199D01*
X66028526Y-145244742D01*
X66182274Y-145347473D01*
X66197446Y-145350491D01*
X66022527Y-145612276D01*
X65950000Y-145976892D01*
X65950000Y-145976896D01*
X65925513Y-146100000D01*
X65950000Y-146223104D01*
X65950001Y-149019750D01*
X65785922Y-149265311D01*
X65704430Y-149675000D01*
X65704430Y-150525000D01*
X65785922Y-150934689D01*
X66017993Y-151282007D01*
X66365311Y-151514078D01*
X66775000Y-151595570D01*
X67625000Y-151595570D01*
X68034689Y-151514078D01*
X68382007Y-151282007D01*
X68614078Y-150934689D01*
X68695570Y-150525000D01*
X68695570Y-149675000D01*
X68614078Y-149265311D01*
X68450000Y-149019751D01*
X68450000Y-146750000D01*
X68982901Y-146750000D01*
X68829401Y-146903500D01*
X68829401Y-147132075D01*
X68944799Y-147410672D01*
X69158028Y-147623901D01*
X69436625Y-147739300D01*
X70378900Y-147739300D01*
X70568400Y-147549800D01*
X70568400Y-146781870D01*
X70576400Y-146781870D01*
X70576400Y-147549800D01*
X70765900Y-147739300D01*
X71708175Y-147739300D01*
X71986772Y-147623901D01*
X72200001Y-147410672D01*
X72315399Y-147132075D01*
X72315399Y-146903500D01*
X72125899Y-146714000D01*
X71898605Y-146714000D01*
X71938824Y-146706000D01*
X72125899Y-146706000D01*
X72315399Y-146516500D01*
X72315399Y-146466821D01*
X72546477Y-146120989D01*
X72627969Y-145711300D01*
X72627969Y-145168700D01*
X72555625Y-144805000D01*
X72627969Y-144441300D01*
X72627969Y-144250000D01*
X72976891Y-144250000D01*
X73100000Y-144274488D01*
X73444431Y-144205976D01*
X73444431Y-144441300D01*
X73516775Y-144805000D01*
X73444431Y-145168700D01*
X73444431Y-145711300D01*
X73516775Y-146075000D01*
X73444431Y-146438700D01*
X73444431Y-146981300D01*
X73525923Y-147390989D01*
X73757994Y-147738307D01*
X73881096Y-147820561D01*
X73850000Y-147976892D01*
X73850000Y-147976896D01*
X73825513Y-148100000D01*
X73850000Y-148223104D01*
X73850000Y-148919751D01*
X73685922Y-149165311D01*
X73604430Y-149575000D01*
X73604430Y-150425000D01*
X73685922Y-150834689D01*
X73917993Y-151182007D01*
X74265311Y-151414078D01*
X74675000Y-151495570D01*
X75525000Y-151495570D01*
X75934689Y-151414078D01*
X76282007Y-151182007D01*
X76514078Y-150834689D01*
X76562053Y-150593500D01*
X79717000Y-150593500D01*
X79717000Y-150975775D01*
X79832398Y-151254372D01*
X80045627Y-151467601D01*
X80324224Y-151583000D01*
X80706500Y-151583000D01*
X80896000Y-151393500D01*
X80896000Y-150404000D01*
X80904000Y-150404000D01*
X80904000Y-151393500D01*
X81093500Y-151583000D01*
X81475776Y-151583000D01*
X81754373Y-151467601D01*
X81967602Y-151254372D01*
X82083000Y-150975775D01*
X82083000Y-150593500D01*
X81893500Y-150404000D01*
X80904000Y-150404000D01*
X80896000Y-150404000D01*
X79906500Y-150404000D01*
X79717000Y-150593500D01*
X76562053Y-150593500D01*
X76595570Y-150425000D01*
X76595570Y-149824225D01*
X79717000Y-149824225D01*
X79717000Y-150206500D01*
X79906500Y-150396000D01*
X80896000Y-150396000D01*
X80896000Y-149406500D01*
X80904000Y-149406500D01*
X80904000Y-150396000D01*
X81893500Y-150396000D01*
X82083000Y-150206500D01*
X82083000Y-149824225D01*
X81967602Y-149545628D01*
X81754373Y-149332399D01*
X81475776Y-149217000D01*
X81093500Y-149217000D01*
X80904000Y-149406500D01*
X80896000Y-149406500D01*
X80706500Y-149217000D01*
X80324224Y-149217000D01*
X80045627Y-149332399D01*
X79832398Y-149545628D01*
X79717000Y-149824225D01*
X76595570Y-149824225D01*
X76595570Y-149575000D01*
X76514078Y-149165311D01*
X76350000Y-148919751D01*
X76350000Y-148635409D01*
X76401199Y-148601199D01*
X76677473Y-148187725D01*
X76713539Y-148006411D01*
X76894688Y-147970378D01*
X77242006Y-147738307D01*
X77474077Y-147390989D01*
X77555569Y-146981300D01*
X77555569Y-146690000D01*
X80722234Y-146690000D01*
X80929064Y-146896830D01*
X80998801Y-147001199D01*
X81412275Y-147277473D01*
X81776891Y-147350000D01*
X81776896Y-147350000D01*
X81900000Y-147374487D01*
X82023104Y-147350000D01*
X84558995Y-147350000D01*
X84560922Y-147359689D01*
X84792993Y-147707007D01*
X85140311Y-147939078D01*
X85550000Y-148020570D01*
X87250000Y-148020570D01*
X87659689Y-147939078D01*
X88007007Y-147707007D01*
X88239078Y-147359689D01*
X88320570Y-146950000D01*
X88320570Y-145250000D01*
X88239078Y-144840311D01*
X88034356Y-144533923D01*
X88189761Y-144301343D01*
X88337223Y-143560000D01*
X88189761Y-142818657D01*
X87769824Y-142190176D01*
X87588188Y-142068811D01*
X87703247Y-141961919D01*
X87964500Y-141391489D01*
X87987572Y-141275497D01*
X87818494Y-141024000D01*
X86404000Y-141024000D01*
X86404000Y-141044000D01*
X86396000Y-141044000D01*
X86396000Y-141024000D01*
X84981506Y-141024000D01*
X84812428Y-141275497D01*
X84835500Y-141391489D01*
X85096753Y-141961919D01*
X85211812Y-142068811D01*
X85030176Y-142190176D01*
X84950112Y-142310000D01*
X81463103Y-142310000D01*
X81339999Y-142285513D01*
X81216895Y-142310000D01*
X81216891Y-142310000D01*
X80852275Y-142382527D01*
X80438801Y-142658801D01*
X80369064Y-142763170D01*
X80212234Y-142920000D01*
X77555569Y-142920000D01*
X77555569Y-142685300D01*
X77786198Y-142531199D01*
X78062472Y-142117725D01*
X78159487Y-141630000D01*
X78062472Y-141142275D01*
X77786198Y-140728801D01*
X77555569Y-140574700D01*
X77555569Y-140088700D01*
X77483225Y-139725000D01*
X77555569Y-139361300D01*
X77555569Y-138818700D01*
X77539019Y-138735497D01*
X84812428Y-138735497D01*
X84835500Y-138851489D01*
X85096753Y-139421919D01*
X85449902Y-139750000D01*
X85096753Y-140078081D01*
X84835500Y-140648511D01*
X84812428Y-140764503D01*
X84981506Y-141016000D01*
X86396000Y-141016000D01*
X86396000Y-138484000D01*
X86404000Y-138484000D01*
X86404000Y-141016000D01*
X87818494Y-141016000D01*
X87987572Y-140764503D01*
X87964500Y-140648511D01*
X87703247Y-140078081D01*
X87350098Y-139750000D01*
X87703247Y-139421919D01*
X87964500Y-138851489D01*
X87987572Y-138735497D01*
X87818494Y-138484000D01*
X86404000Y-138484000D01*
X86396000Y-138484000D01*
X84981506Y-138484000D01*
X84812428Y-138735497D01*
X77539019Y-138735497D01*
X77474077Y-138409011D01*
X77350793Y-138224503D01*
X84812428Y-138224503D01*
X84981506Y-138476000D01*
X86396000Y-138476000D01*
X86396000Y-137061505D01*
X86404000Y-137061505D01*
X86404000Y-138476000D01*
X87818494Y-138476000D01*
X87987572Y-138224503D01*
X87964500Y-138108511D01*
X87703247Y-137538081D01*
X87243586Y-137111049D01*
X86655497Y-136892428D01*
X86404000Y-137061505D01*
X86396000Y-137061505D01*
X86144503Y-136892428D01*
X85556414Y-137111049D01*
X85096753Y-137538081D01*
X84835500Y-138108511D01*
X84812428Y-138224503D01*
X77350793Y-138224503D01*
X77242006Y-138061693D01*
X76894688Y-137829622D01*
X76566076Y-137764257D01*
X76447912Y-137587412D01*
X76493500Y-137633000D01*
X76850776Y-137633000D01*
X77129373Y-137517601D01*
X77342602Y-137304372D01*
X77458000Y-137025775D01*
X77458000Y-136693500D01*
X77268500Y-136504000D01*
X76304000Y-136504000D01*
X76304000Y-136524000D01*
X76296000Y-136524000D01*
X76296000Y-136504000D01*
X76276000Y-136504000D01*
X76276000Y-136496000D01*
X76296000Y-136496000D01*
X76296000Y-135556500D01*
X76304000Y-135556500D01*
X76304000Y-136496000D01*
X77268500Y-136496000D01*
X77458000Y-136306500D01*
X77458000Y-135974225D01*
X77342602Y-135695628D01*
X77129373Y-135482399D01*
X76850776Y-135367000D01*
X76493500Y-135367000D01*
X76304000Y-135556500D01*
X76296000Y-135556500D01*
X76150000Y-135410500D01*
X76150000Y-135258000D01*
X77106500Y-135258000D01*
X77296000Y-135068500D01*
X77296000Y-133604000D01*
X77304000Y-133604000D01*
X77304000Y-135068500D01*
X77493500Y-135258000D01*
X78750776Y-135258000D01*
X79029373Y-135142601D01*
X79242602Y-134929372D01*
X79358000Y-134650775D01*
X79358000Y-133793500D01*
X79168500Y-133604000D01*
X77304000Y-133604000D01*
X77296000Y-133604000D01*
X77276000Y-133604000D01*
X77276000Y-133596000D01*
X77296000Y-133596000D01*
X77296000Y-132131500D01*
X77304000Y-132131500D01*
X77304000Y-133596000D01*
X79168500Y-133596000D01*
X79358000Y-133406500D01*
X79358000Y-132549225D01*
X79242602Y-132270628D01*
X79029373Y-132057399D01*
X78750776Y-131942000D01*
X77493500Y-131942000D01*
X77304000Y-132131500D01*
X77296000Y-132131500D01*
X77106500Y-131942000D01*
X75955521Y-131942000D01*
X75609689Y-131710922D01*
X75250000Y-131639376D01*
X75250000Y-130630588D01*
X75314078Y-130534689D01*
X75395570Y-130125000D01*
X75395570Y-129275000D01*
X75314078Y-128865311D01*
X75082007Y-128517993D01*
X74734689Y-128285922D01*
X74325000Y-128204430D01*
X73475000Y-128204430D01*
X73065311Y-128285922D01*
X72717993Y-128517993D01*
X72485922Y-128865311D01*
X72404430Y-129275000D01*
X72404430Y-130125000D01*
X72485922Y-130534689D01*
X72550001Y-130630589D01*
X72550001Y-131639375D01*
X72190311Y-131710922D01*
X71842993Y-131942993D01*
X71637857Y-132250000D01*
X51732961Y-132250000D01*
X51599999Y-132223552D01*
X51467038Y-132250000D01*
X51467037Y-132250000D01*
X51073256Y-132328328D01*
X50626704Y-132626704D01*
X50551385Y-132739427D01*
X48639425Y-134651387D01*
X48526705Y-134726704D01*
X48451388Y-134839424D01*
X48451387Y-134839425D01*
X48228328Y-135173257D01*
X48123552Y-135700000D01*
X44150000Y-135700000D01*
X44150000Y-127792774D01*
X44750000Y-127792774D01*
X44750000Y-128807226D01*
X45138215Y-129744459D01*
X45855541Y-130461785D01*
X46792774Y-130850000D01*
X47807226Y-130850000D01*
X48744459Y-130461785D01*
X49461785Y-129744459D01*
X49850000Y-128807226D01*
X49850000Y-127792774D01*
X49808579Y-127692774D01*
X84350000Y-127692774D01*
X84350000Y-128707226D01*
X84738215Y-129644459D01*
X85455541Y-130361785D01*
X86392774Y-130750000D01*
X87407226Y-130750000D01*
X88344459Y-130361785D01*
X89061785Y-129644459D01*
X89450000Y-128707226D01*
X89450000Y-127692774D01*
X89061785Y-126755541D01*
X88344459Y-126038215D01*
X87407226Y-125650000D01*
X86392774Y-125650000D01*
X85455541Y-126038215D01*
X84738215Y-126755541D01*
X84350000Y-127692774D01*
X49808579Y-127692774D01*
X49461785Y-126855541D01*
X48744459Y-126138215D01*
X47807226Y-125750000D01*
X46792774Y-125750000D01*
X45855541Y-126138215D01*
X45138215Y-126855541D01*
X44750000Y-127792774D01*
X44150000Y-127792774D01*
X44150000Y-125150000D01*
X89850000Y-125150000D01*
X89850001Y-161850000D01*
G36*
X71842993Y-135257007D02*
X72190311Y-135489078D01*
X72600000Y-135570570D01*
X72797394Y-135570570D01*
X72751383Y-135639429D01*
X72239425Y-136151387D01*
X72126704Y-136226705D01*
X72051387Y-136339425D01*
X71828328Y-136673257D01*
X71723552Y-137200000D01*
X71750000Y-137332963D01*
X71750000Y-137632963D01*
X71828328Y-138026744D01*
X71850000Y-138059179D01*
X71850000Y-138119446D01*
X71708175Y-138060700D01*
X70765900Y-138060700D01*
X70576400Y-138250200D01*
X70576400Y-139018130D01*
X70568400Y-139018130D01*
X70568400Y-138250200D01*
X70378900Y-138060700D01*
X69436625Y-138060700D01*
X69158028Y-138176099D01*
X68944799Y-138389328D01*
X68829401Y-138667925D01*
X68829401Y-138896500D01*
X69018901Y-139086000D01*
X69246195Y-139086000D01*
X69205976Y-139094000D01*
X69018901Y-139094000D01*
X68829401Y-139283500D01*
X68829401Y-139333179D01*
X68598323Y-139679011D01*
X68516831Y-140088700D01*
X68516831Y-140631300D01*
X68589175Y-140995000D01*
X68516831Y-141358700D01*
X68516831Y-141901300D01*
X68589175Y-142265000D01*
X68516831Y-142628700D01*
X68516831Y-142920000D01*
X67187766Y-142920000D01*
X66050936Y-141783170D01*
X65981199Y-141678801D01*
X65567725Y-141402527D01*
X65203109Y-141330000D01*
X65203104Y-141330000D01*
X65080000Y-141305513D01*
X64956896Y-141330000D01*
X57649888Y-141330000D01*
X57636524Y-141310000D01*
X57989761Y-140781343D01*
X58137223Y-140040000D01*
X57989761Y-139298657D01*
X57636524Y-138770000D01*
X57989761Y-138241343D01*
X58137223Y-137500000D01*
X57989761Y-136758657D01*
X57569824Y-136130176D01*
X56941343Y-135710239D01*
X56387133Y-135600000D01*
X56012867Y-135600000D01*
X55458657Y-135710239D01*
X54830176Y-136130176D01*
X54410239Y-136758657D01*
X54262777Y-137500000D01*
X54410239Y-138241343D01*
X54763476Y-138770000D01*
X54410239Y-139298657D01*
X54262777Y-140040000D01*
X54410239Y-140781343D01*
X54763476Y-141310000D01*
X54410239Y-141838657D01*
X54262777Y-142580000D01*
X54410239Y-143321343D01*
X54629840Y-143650000D01*
X53557188Y-143650000D01*
X53456641Y-143670000D01*
X51279189Y-143670000D01*
X50850000Y-143240812D01*
X50850000Y-136259188D01*
X52159188Y-134950000D01*
X71637857Y-134950000D01*
X71842993Y-135257007D01*
X71842993Y-135257007D01*
G37*
X71842993Y-135257007D02*
X72190311Y-135489078D01*
X72600000Y-135570570D01*
X72797394Y-135570570D01*
X72751383Y-135639429D01*
X72239425Y-136151387D01*
X72126704Y-136226705D01*
X72051387Y-136339425D01*
X71828328Y-136673257D01*
X71723552Y-137200000D01*
X71750000Y-137332963D01*
X71750000Y-137632963D01*
X71828328Y-138026744D01*
X71850000Y-138059179D01*
X71850000Y-138119446D01*
X71708175Y-138060700D01*
X70765900Y-138060700D01*
X70576400Y-138250200D01*
X70576400Y-139018130D01*
X70568400Y-139018130D01*
X70568400Y-138250200D01*
X70378900Y-138060700D01*
X69436625Y-138060700D01*
X69158028Y-138176099D01*
X68944799Y-138389328D01*
X68829401Y-138667925D01*
X68829401Y-138896500D01*
X69018901Y-139086000D01*
X69246195Y-139086000D01*
X69205976Y-139094000D01*
X69018901Y-139094000D01*
X68829401Y-139283500D01*
X68829401Y-139333179D01*
X68598323Y-139679011D01*
X68516831Y-140088700D01*
X68516831Y-140631300D01*
X68589175Y-140995000D01*
X68516831Y-141358700D01*
X68516831Y-141901300D01*
X68589175Y-142265000D01*
X68516831Y-142628700D01*
X68516831Y-142920000D01*
X67187766Y-142920000D01*
X66050936Y-141783170D01*
X65981199Y-141678801D01*
X65567725Y-141402527D01*
X65203109Y-141330000D01*
X65203104Y-141330000D01*
X65080000Y-141305513D01*
X64956896Y-141330000D01*
X57649888Y-141330000D01*
X57636524Y-141310000D01*
X57989761Y-140781343D01*
X58137223Y-140040000D01*
X57989761Y-139298657D01*
X57636524Y-138770000D01*
X57989761Y-138241343D01*
X58137223Y-137500000D01*
X57989761Y-136758657D01*
X57569824Y-136130176D01*
X56941343Y-135710239D01*
X56387133Y-135600000D01*
X56012867Y-135600000D01*
X55458657Y-135710239D01*
X54830176Y-136130176D01*
X54410239Y-136758657D01*
X54262777Y-137500000D01*
X54410239Y-138241343D01*
X54763476Y-138770000D01*
X54410239Y-139298657D01*
X54262777Y-140040000D01*
X54410239Y-140781343D01*
X54763476Y-141310000D01*
X54410239Y-141838657D01*
X54262777Y-142580000D01*
X54410239Y-143321343D01*
X54629840Y-143650000D01*
X53557188Y-143650000D01*
X53456641Y-143670000D01*
X51279189Y-143670000D01*
X50850000Y-143240812D01*
X50850000Y-136259188D01*
X52159188Y-134950000D01*
X71637857Y-134950000D01*
X71842993Y-135257007D01*
G04 #@! TD*
M02*
