M48
;DRILL file {KiCad (5.0.2)-1} date 03/10/2019 15:21:43
;FORMAT={-:-/ absolute / metric / decimal}
FMAT,2
METRIC,TZ
T1C0.500
T2C1.000
%
G90
G05
T1
X52.7Y-139.4
X55.5Y-127.3
X57.3Y-159.6
X61.6Y-147.
X62.Y-136.5
X62.1Y-139.5
X65.3Y-131.
X65.3Y-136.2
X67.8Y-126.9
X70.4Y-159.2
X71.3Y-149.8
X80.7Y-127.3
X81.Y-159.6
X67.2Y-150.1
X73.9Y-129.7
X80.9Y-150.4
X75.1Y-150.
T2
X56.2Y-137.5
X56.2Y-140.04
X56.2Y-142.58
X56.2Y-145.12
X56.2Y-147.66
X56.2Y-150.2
X86.4Y-138.48
X86.4Y-141.02
X86.4Y-143.56
X86.4Y-146.1
T0
M30
