M48
; DRILL file {KiCad (5.1.9)-1} date 02/10/22 00:20:25
; FORMAT={-:-/ absolute / metric / decimal}
; #@! TF.CreationDate,2022-02-10T00:20:25+00:00
; #@! TF.GenerationSoftware,Kicad,Pcbnew,(5.1.9)-1
; #@! TF.FileFunction,Plated,1,2,PTH
FMAT,2
METRIC
T1C0.400
T2C0.800
T3C0.900
T4C1.000
%
G90
G05
T1
X115.6Y-98.0
X116.4Y-98.0
X117.25Y-98.0
X118.0Y-98.0
X123.5Y-96.0
X126.0Y-106.5
X155.7Y-98.0
X156.5Y-98.0
X157.25Y-98.0
X158.0Y-98.0
X163.5Y-96.0
X166.0Y-106.5
X175.6Y-98.0
X176.4Y-98.0
X177.25Y-98.0
X178.0Y-98.0
X183.5Y-96.0
X186.0Y-106.5
X195.6Y-98.0
X196.4Y-98.0
X197.25Y-98.0
X198.0Y-98.0
X203.5Y-96.0
X206.0Y-106.5
X232.6Y-98.0
X233.4Y-98.0
X234.25Y-98.0
X235.0Y-98.0
X240.5Y-96.0
X243.0Y-106.5
T2
X98.5Y-89.5
X98.5Y-93.0
X99.0Y-102.0
X99.0Y-105.5
X108.5Y-89.5
X108.5Y-93.0
X108.5Y-102.0
X108.5Y-105.5
T3
X117.0Y-107.96
X117.0Y-110.5
X157.0Y-107.96
X157.0Y-110.5
X177.0Y-107.96
X177.0Y-110.5
X197.0Y-107.96
X197.0Y-110.5
X234.0Y-107.96
X234.0Y-110.5
T4
X84.0Y-87.88
X84.0Y-90.42
X84.0Y-92.96
X84.0Y-95.5
X84.0Y-100.0
X84.0Y-102.54
X84.0Y-105.08
X84.0Y-107.62
X88.0Y-87.88
X88.0Y-90.42
X88.0Y-92.96
X88.0Y-95.5
X88.0Y-100.0
X88.0Y-102.54
X88.0Y-105.08
X88.0Y-107.62
X130.0Y-88.0
X130.0Y-90.54
X130.0Y-93.08
X130.0Y-95.62
X130.0Y-99.38
X130.0Y-101.92
X130.0Y-104.46
X130.0Y-107.0
X170.0Y-88.0
X170.0Y-90.54
X170.0Y-93.08
X170.0Y-95.62
X170.0Y-99.38
X170.0Y-101.92
X170.0Y-104.46
X170.0Y-107.0
X190.0Y-99.38
X190.0Y-101.92
X190.0Y-104.46
X190.0Y-107.0
X210.0Y-88.0
X210.0Y-90.54
X210.0Y-93.08
X210.0Y-95.62
X210.0Y-99.38
X210.0Y-101.92
X210.0Y-104.46
X210.0Y-107.0
X247.0Y-88.0
X247.0Y-90.54
X247.0Y-93.08
X247.0Y-95.62
X247.0Y-99.38
X247.0Y-101.92
X247.0Y-104.46
X247.0Y-107.0
T0
M30
